<?xml version="1.0" encoding="UTF-8" standalone="no"?>
<!-- Created with Inkscape (http://www.inkscape.org/) -->

<svg
   width="79.194138mm"
   height="24.847099mm"
   viewBox="0 0 79.194138 24.847099"
   version="1.1"
   id="svg2179"
   xml:space="preserve"
   inkscape:export-filename="equipment_background.svg"
   inkscape:export-xdpi="96"
   inkscape:export-ydpi="96"
   sodipodi:docname="features and traits.svg"
   xmlns:inkscape="http://www.inkscape.org/namespaces/inkscape"
   xmlns:sodipodi="http://sodipodi.sourceforge.net/DTD/sodipodi-0.dtd"
   xmlns="http://www.w3.org/2000/svg"
   xmlns:svg="http://www.w3.org/2000/svg"><sodipodi:namedview
     id="namedview2181"
     pagecolor="#ffffff"
     bordercolor="#000000"
     borderopacity="0.25"
     inkscape:showpageshadow="2"
     inkscape:pageopacity="0.0"
     inkscape:pagecheckerboard="0"
     inkscape:deskcolor="#d1d1d1"
     inkscape:document-units="mm"
     showgrid="false"
     showguides="true" /><defs
     id="defs2176"><inkscape:path-effect
       effect="bspline"
       id="path-effect5081"
       is_visible="true"
       lpeversion="1"
       weight="33.333333"
       steps="2"
       helper_size="0"
       apply_no_weight="true"
       apply_with_weight="true"
       only_selected="false" /><inkscape:path-effect
       effect="bspline"
       id="path-effect1223"
       is_visible="true"
       lpeversion="1"
       weight="33.333333"
       steps="2"
       helper_size="0"
       apply_no_weight="true"
       apply_with_weight="true"
       only_selected="false" /><inkscape:path-effect
       effect="bspline"
       id="path-effect1227"
       is_visible="true"
       lpeversion="1"
       weight="33.333333"
       steps="2"
       helper_size="0"
       apply_no_weight="true"
       apply_with_weight="true"
       only_selected="false" /><inkscape:path-effect
       effect="bspline"
       id="path-effect1957"
       is_visible="true"
       lpeversion="1"
       weight="33.333333"
       steps="2"
       helper_size="0"
       apply_no_weight="true"
       apply_with_weight="true"
       only_selected="false" /><inkscape:path-effect
       effect="bspline"
       id="path-effect2687"
       is_visible="true"
       lpeversion="1"
       weight="33.333333"
       steps="2"
       helper_size="0"
       apply_no_weight="true"
       apply_with_weight="true"
       only_selected="false" /><inkscape:path-effect
       effect="bspline"
       id="path-effect2687-3"
       is_visible="true"
       lpeversion="1"
       weight="33.333333"
       steps="2"
       helper_size="0"
       apply_no_weight="true"
       apply_with_weight="true"
       only_selected="false" /><inkscape:path-effect
       effect="bspline"
       id="path-effect3489"
       is_visible="true"
       lpeversion="1"
       weight="33.333333"
       steps="2"
       helper_size="0"
       apply_no_weight="true"
       apply_with_weight="true"
       only_selected="false" /><inkscape:path-effect
       effect="bspline"
       id="path-effect1223-9"
       is_visible="true"
       lpeversion="1"
       weight="33.333333"
       steps="2"
       helper_size="0"
       apply_no_weight="true"
       apply_with_weight="true"
       only_selected="false" /><inkscape:path-effect
       effect="bspline"
       id="path-effect1227-9"
       is_visible="true"
       lpeversion="1"
       weight="33.333333"
       steps="2"
       helper_size="0"
       apply_no_weight="true"
       apply_with_weight="true"
       only_selected="false" /><inkscape:path-effect
       effect="bspline"
       id="path-effect1957-9"
       is_visible="true"
       lpeversion="1"
       weight="33.333333"
       steps="2"
       helper_size="0"
       apply_no_weight="true"
       apply_with_weight="true"
       only_selected="false" /><inkscape:path-effect
       effect="bspline"
       id="path-effect2687-2"
       is_visible="true"
       lpeversion="1"
       weight="33.333333"
       steps="2"
       helper_size="0"
       apply_no_weight="true"
       apply_with_weight="true"
       only_selected="false" /><inkscape:path-effect
       effect="bspline"
       id="path-effect2687-3-7"
       is_visible="true"
       lpeversion="1"
       weight="33.333333"
       steps="2"
       helper_size="0"
       apply_no_weight="true"
       apply_with_weight="true"
       only_selected="false" /><inkscape:path-effect
       effect="bspline"
       id="path-effect3489-4"
       is_visible="true"
       lpeversion="1"
       weight="33.333333"
       steps="2"
       helper_size="0"
       apply_no_weight="true"
       apply_with_weight="true"
       only_selected="false" /><inkscape:path-effect
       effect="bspline"
       id="path-effect5081-7"
       is_visible="true"
       lpeversion="1"
       weight="33.333333"
       steps="2"
       helper_size="0"
       apply_no_weight="true"
       apply_with_weight="true"
       only_selected="false" /></defs><g
     inkscape:label="Layer 1"
     inkscape:groupmode="layer"
     id="layer1"
     transform="translate(-239.40745,-46.91388)"><g
       inkscape:label="Layer 1"
       id="layer1-7"
       transform="matrix(0.16512154,0,0,0.16512154,175.93457,5.6884298)"><path
         id="path482"
         style="fill:#000000;fill-opacity:1;stroke-width:0.264583"
         d="m 819.47815,273.09684 c -0.29573,0.001 -0.5649,0.11762 -0.84646,0.32298 -0.62137,0.45322 -1.30357,1.33921 -1.67018,2.40864 -0.36662,1.06943 -0.41772,2.32224 0.1018,3.53415 0.51952,1.21192 1.60942,2.38253 2.63291,3.44165 1.0235,1.05913 1.98044,2.00647 3.21272,3.04013 1.23228,1.03366 2.73951,2.15377 3.75791,2.94814 1.01839,0.79437 1.54816,1.26276 1.81281,1.73632 0.26464,0.47357 0.26434,0.95231 0.11162,1.28313 -0.15272,0.33082 -0.4581,0.51417 -0.88573,0.41755 -0.42762,-0.0966 -0.97723,-0.47353 -1.57303,-1.0387 -0.59579,-0.56517 -1.23741,-1.31848 -2.33216,-2.10271 -1.09475,-0.78423 -2.64251,-1.5993 -3.84421,-2.18488 -1.20169,-0.58559 -2.05722,-0.9417 -2.92798,-1.13017 -0.87076,-0.18846 -1.75666,-0.20885 -2.57142,-0.11213 -0.81477,0.0967 -1.55828,0.31033 -2.24069,0.71261 -0.68241,0.40229 -1.3036,0.99326 -1.46141,1.7725 -0.15781,0.77925 0.1474,1.74649 0.7891,2.5306 0.6417,0.78411 1.61956,1.38513 2.49029,1.7415 0.87072,0.35636 1.63455,0.46829 2.36781,0.61598 0.73326,0.14769 1.43578,0.33071 1.78697,0.71778 0.3512,0.38708 0.35144,0.97815 0.0816,1.34462 -0.26979,0.36647 -0.80974,0.50859 -1.60404,0.55449 -0.7943,0.0457 -1.84297,-0.005 -2.90214,0.0408 -1.05917,0.0458 -2.12849,0.18867 -3.03496,0.54002 -0.90647,0.35135 -1.64999,0.91135 -2.06758,1.42576 -0.41758,0.51441 -0.50952,0.98258 -0.32607,1.52238 0.18344,0.53979 0.64191,1.1511 1.41593,1.50741 0.77402,0.35631 1.86368,0.45811 3.23443,0.53071 1.37075,0.0726 3.02253,0.11585 4.27519,0.2279 1.25266,0.11205 2.10595,0.29252 2.77709,0.55603 0.67114,0.26352 1.15982,0.61016 1.48053,0.98702 0.32071,0.37687 0.47342,0.78421 0.86558,1.25264 0.39216,0.46842 1.02395,0.99769 1.66036,1.11466 0.63641,0.11697 1.27785,-0.17806 1.75132,-0.61081 0.47347,-0.43274 0.7789,-1.00331 1.55804,-1.757 0.77913,-0.75369 2.03163,-1.69047 3.02979,-1.86346 0.99816,-0.17298 1.74148,0.41739 1.48673,1.33894 -0.25474,0.92154 -1.5071,2.17451 -2.56625,3.35587 -1.05915,1.18136 -1.92473,2.29096 -2.32699,3.80338 -0.40225,1.51243 -0.34128,3.42713 -0.14263,4.74597 0.19865,1.31885 0.53462,2.042 0.94206,2.46961 0.40744,0.42761 0.88638,0.55983 2.80603,0.98754 1.91965,0.42771 5.2803,1.15107 10.01076,1.51257 4.73047,0.3615 10.82998,0.36149 14.48594,-0.14263 3.65596,-0.50412 4.86801,-1.51267 5.63686,-2.55643 0.76885,-1.04377 1.09482,-2.12295 1.22215,-3.2737 0.12734,-1.15074 0.0562,-2.37271 -0.43253,-3.22823 -0.48869,-0.85551 -1.3951,-1.34466 -2.15387,-1.52807 -0.75877,-0.18342 -1.36977,-0.061 -2.12856,0.35657 -0.75878,0.41755 -1.66511,1.13025 -2.26601,1.76681 -0.6009,0.63656 -0.89614,1.19661 -1.20147,1.42576 -0.30534,0.22914 -0.62107,0.12744 -0.79944,-0.15762 -0.17836,-0.28506 -0.21945,-0.75333 -0.34158,-1.19631 -0.12214,-0.44299 -0.32591,-0.86044 -0.65681,-1.18132 -0.33089,-0.32087 -0.78884,-0.54529 -1.29811,-0.56069 -0.50928,-0.0154 -1.06969,0.17826 -1.45676,0.38706 -0.38707,0.2088 -0.60092,0.4327 -0.87591,0.82992 -0.27499,0.39721 -0.61082,0.96764 -0.94672,1.22732 -0.3359,0.25967 -0.67184,0.20889 -0.92655,-0.12196 -0.2547,-0.33084 -0.42786,-0.94223 -0.56534,-1.4056 -0.13748,-0.46337 -0.2396,-0.77895 -0.67231,-1.00821 -0.43272,-0.22926 -1.19636,-0.37172 -2.0774,-0.10697 -0.88104,0.26474 -1.87906,0.93673 -2.92798,1.51722 -1.04893,0.58048 -2.14842,1.06944 -3.16674,1.26298 -1.01831,0.19354 -1.95518,0.0918 -2.43396,-0.46819 -0.47877,-0.55999 -0.49925,-1.57848 0.64648,-2.9993 1.14572,-1.42082 3.4571,-3.2435 5.89628,-4.27209 2.43918,-1.02859 5.00537,-1.26309 6.03891,-0.70797 1.03351,0.55511 0.53455,1.8996 1.04903,2.76521 0.51448,0.86559 2.0424,1.25257 3.37137,1.34927 1.32897,0.0967 2.45902,-0.0971 2.85615,-0.63666 0.39719,-0.53958 0.0614,-1.42519 -0.0915,-2.39778 -0.15283,-0.9726 -0.12241,-2.03205 -0.0155,-2.913 0.10691,-0.88096 0.29015,-1.5834 0.56018,-1.93994 0.27003,-0.35655 0.62626,-0.36668 0.89607,-0.13229 0.26982,0.23439 0.45331,0.71312 0.52451,1.4056 0.0712,0.69248 0.0303,1.59847 0.0558,2.40812 0.0255,0.80965 0.11722,1.52276 0.43305,2.10323 0.31583,0.58046 0.85549,1.02832 1.35961,1.33377 0.50411,0.30545 0.97261,0.46824 1.49706,0.53434 0.52445,0.0661 1.10495,0.0359 1.73116,-0.22376 0.62622,-0.25971 1.29856,-0.74857 1.77716,-1.4919 0.4786,-0.74333 0.76335,-1.74137 0.80925,-3.0856 0.0459,-1.34423 -0.14758,-3.03452 -0.58033,-4.50102 -0.43276,-1.46649 -1.10445,-2.70915 -2.1177,-3.468 -1.01325,-0.75884 -2.36767,-1.03352 -4.65398,-1.58853 -2.2863,-0.55502 -5.50463,-1.39027 -8.60567,-2.09807 -3.10105,-0.7078 -6.08493,-1.2885 -8.90592,-2.51561 -2.82098,-1.2271 -5.4787,-3.10046 -6.80785,-4.03748 -1.32912,-0.93701 -1.32914,-0.93717 -1.25264,-0.95756 0.0765,-0.0204 0.22912,-0.0609 -0.90124,-1.05368 -1.13034,-0.99279 -3.54401,-2.93798 -5.39243,-4.61833 -1.84843,-1.68034 -3.13133,-3.09581 -4.05298,-3.79356 -0.50403,-0.38159 -0.89985,-0.54855 -1.25677,-0.54726 z m 17.75395,20.42098 c 0.25318,0.0123 0.53854,0.2047 0.72967,0.4625 0.21844,0.29463 0.31348,0.67463 0.51315,0.95963 0.19966,0.28501 0.50386,0.47495 0.84594,0.64596 0.34209,0.171 0.72241,0.3231 0.90279,0.60823 0.18037,0.28513 0.16102,0.7033 0.10025,0.95033 -0.0608,0.24703 -0.16313,0.32307 -0.21446,0.36122 -0.0513,0.0382 -0.0512,0.0381 -0.27543,0.1235 -0.22419,0.0854 -0.67272,0.25637 -1.20096,0.25632 -0.52825,-5e-5 -1.13657,-0.17098 -1.56425,-0.52245 -0.42768,-0.35147 -0.67475,-0.88367 -0.75086,-1.44436 -0.0761,-0.56068 0.019,-1.15012 0.17105,-1.5968 0.15204,-0.44668 0.36092,-0.75044 0.63666,-0.79788 0.0345,-0.006 0.0703,-0.008 0.10645,-0.006 z" /><path
         style="fill:#000000;fill-opacity:1;stroke-width:0.264583"
         d="m 808.3722,308.1144 c 0.0475,-0.51775 0.14252,-1.55349 0.4751,-2.38979 0.33259,-0.8363 0.90269,-1.47292 1.66301,-1.81502 0.76031,-0.34209 1.71051,-0.3896 2.51345,-0.41809 0.80293,-0.0285 1.45857,-0.038 2.13322,0.36123 0.67464,0.39924 1.36829,1.20691 2.11897,1.60586 0.75068,0.39895 1.55834,0.38945 2.28054,0.52255 0.72221,0.13311 1.35881,0.40866 1.78156,0.88862 0.42274,0.47995 0.63178,1.16409 0.56994,1.88616 -0.0619,0.72208 -0.3944,1.48221 -0.98341,1.92874 -0.58901,0.44653 -1.43468,0.57956 -2.79347,0.64134 -1.3588,0.0618 -3.23064,0.0523 -4.64647,-0.0285 -1.41584,-0.0807 -2.3755,-0.23277 -3.15948,-0.68877 -0.78397,-0.45599 -1.39209,-1.21614 -1.69627,-1.59637 -0.30419,-0.38023 -0.30419,-0.38025 -0.25669,-0.89799 z"
         id="path1221"
         inkscape:path-effect="#path-effect1223"
         inkscape:original-d="m 808.3247,308.63214 c 0.0953,-1.03546 0.19031,-2.0712 0.28506,-3.10719 0.57041,-0.63639 1.14051,-1.27301 1.71038,-1.90993 0.9505,-0.0472 1.90069,-0.0948 2.85064,-0.14252 0.65592,-0.009 1.31155,-0.0187 1.96694,-0.0285 0.69392,0.80796 1.38757,1.61562 2.08096,2.42304 0.80796,-0.009 1.61561,-0.0187 2.42304,-0.0285 0.63692,0.27584 1.27353,0.55138 1.90992,0.82669 0.20932,0.68443 0.41836,1.36857 0.62714,2.05245 -0.33231,0.76046 -0.66487,1.52059 -0.99772,2.28051 -0.84544,0.1333 -1.69111,0.26633 -2.53706,0.39909 -1.87169,-0.009 -3.74353,-0.0187 -5.61575,-0.0285 -0.95948,-0.15178 -1.91915,-0.3038 -2.87914,-0.45611 -0.60789,-0.75992 -1.21601,-1.52007 -1.82441,-2.28051 z"
         sodipodi:nodetypes="cccccccccccccc" /><path
         style="fill:#000000;fill-opacity:1;stroke-width:0.264583"
         d="m 810.43908,320.5433 c 0.23293,0.40381 0.64152,0.71738 1.49195,0.84079 0.85043,0.12341 2.14268,0.0569 3.0691,-0.0714 0.92643,-0.1283 1.48703,-0.31834 2.06183,-0.7459 0.57481,-0.42757 1.16393,-1.09271 1.79108,-1.75787 0.62716,-0.66516 1.29229,-1.33029 1.49191,-1.92877 0.19962,-0.59849 -0.0664,-1.1306 -0.5605,-1.74827 -0.49406,-0.61767 -1.2162,-1.32081 -2.1189,-1.71052 -0.90271,-0.38971 -1.98593,-0.46572 -2.60373,-0.1378 -0.6178,0.32792 -0.76983,1.05956 -1.03583,1.52504 -0.26599,0.46549 -0.64606,0.66502 -1.09732,0.72684 -0.45126,0.0618 -0.97385,-0.0142 -1.45865,0.56549 -0.48479,0.5797 -0.93138,1.81494 -1.12613,2.67971 -0.19475,0.86477 -0.13774,1.35887 0.0952,1.76267 z"
         id="path1225"
         inkscape:path-effect="#path-effect1227"
         inkscape:original-d="m 810.26313,320.63332 c 0.40885,0.31383 0.81744,0.6274 1.22577,0.94071 1.29258,-0.0662 2.58482,-0.13277 3.87687,-0.19955 0.5609,-0.18978 1.1215,-0.37982 1.68187,-0.57013 0.58941,-0.66489 1.17853,-1.33003 1.76739,-1.99544 0.66543,-0.6649 1.33056,-1.33003 1.99545,-1.99544 -0.2658,-0.53187 -0.53186,-1.06398 -0.79818,-1.59636 -0.72191,-0.70291 -1.44405,-1.40605 -2.16648,-2.10947 -1.083,-0.0757 -2.16622,-0.15177 -3.24972,-0.22805 -0.15178,0.73194 -0.30381,1.46358 -0.45611,2.19499 -0.37982,0.19982 -0.75989,0.39935 -1.14025,0.59864 -0.52236,-0.0758 -1.04495,-0.15178 -1.56785,-0.22806 -0.44635,1.23557 -0.89293,2.47082 -1.3398,3.70583 0.0573,0.49438 0.11429,0.98848 0.17104,1.48233 z"
         sodipodi:nodetypes="cccccccccccccc" /><path
         style="fill:#000000;fill-opacity:1;stroke-width:0.264583"
         d="m 814.34427,325.83106 c 0.0332,-0.13293 0.0997,-0.39898 0.50849,-0.57013 0.40876,-0.17114 1.1594,-0.24716 1.56309,-0.38485 0.4037,-0.13769 0.4607,-0.33721 0.44651,-0.64598 -0.0142,-0.30877 -0.0997,-0.72683 0.34213,-1.31614 0.44184,-0.58931 1.41103,-1.34947 2.11416,-1.99559 0.70314,-0.64612 1.14023,-1.17822 1.49194,-1.45381 0.35172,-0.27558 0.61777,-0.29458 1.36846,0.28996 0.75069,0.58453 1.98594,1.77227 4.05268,3.86277 2.06673,2.0905 4.96482,5.0836 8.57143,8.54065 3.6066,3.45705 7.92143,7.37779 10.25939,10.02337 2.33796,2.64557 2.69903,4.01567 2.51793,5.12904 -0.18111,1.11338 -0.90426,1.97022 -2.02127,3.17783 -1.11701,1.2076 -2.62781,2.76592 -4.78007,4.96093 -2.15225,2.19502 -4.94582,5.02659 -7.16458,7.19783 -2.21875,2.17124 -3.86258,3.68204 -4.97426,4.52771 -1.11168,0.84567 -1.69129,1.02621 -2.04773,1.26385 -0.35645,0.23764 -0.48947,0.5322 -0.60825,0.83629 -0.11877,0.30409 -0.22329,0.61766 -0.38475,0.83135 -0.16146,0.21369 -0.38001,0.32772 -0.71725,0.37051 -0.33724,0.0428 -0.79333,0.0143 -1.39196,-0.11869 -0.59862,-0.13299 -1.33977,-0.37054 -1.86722,-0.79803 -0.52744,-0.4275 -0.841,-1.04512 -0.94087,-1.76258 -0.0999,-0.71747 0.0141,-1.53464 0.0949,-2.24254 0.0808,-0.7079 0.12828,-1.30653 0.44189,-1.81504 0.31361,-0.5085 0.89322,-0.92658 1.59651,-1.10234 0.70328,-0.17576 1.52995,-0.10925 2.3803,-0.32309 0.85034,-0.21384 1.72452,-0.70794 2.30412,-1.08325 0.57959,-0.37532 0.86465,-0.63187 1.04042,-0.96433 0.17576,-0.33246 0.24228,-0.74105 0.52267,-1.05475 0.2804,-0.31371 0.7745,-0.53225 1.33035,-0.85532 0.55584,-0.32307 1.17347,-0.75066 1.71981,-1.22574 0.54635,-0.47509 1.02144,-0.99769 1.52929,-1.67324 0.50785,-0.67555 1.04844,-1.50405 1.56631,-2.4115 0.51787,-0.90745 1.01298,-1.89382 1.27481,-2.55323 0.26182,-0.65941 0.29032,-0.99198 0.20015,-1.31977 -0.0902,-0.3278 -0.29921,-0.65086 -0.56997,-0.82678 -0.27077,-0.17593 -0.60333,-0.20443 -1.11177,-0.0857 -0.50843,0.11874 -1.19257,0.38479 -2.40418,1.42532 -1.21162,1.04053 -2.95047,2.8554 -4.40906,4.42802 -1.45859,1.57262 -2.63683,2.90289 -3.29725,3.7629 -0.66042,0.86001 -0.80295,1.24959 -0.86467,1.53948 -0.0617,0.28989 -0.0427,0.47993 -0.11878,0.69361 -0.0761,0.21367 -0.24709,0.45122 -0.54151,0.57472 -0.29442,0.12349 -0.71251,0.13299 -1.12582,0.0523 -0.41332,-0.0807 -0.8219,-0.25173 -1.14504,-0.54621 -0.32315,-0.29448 -0.5607,-0.71257 -0.75077,-1.10691 -0.19007,-0.39434 -0.33259,-0.76491 -0.58909,-1.13552 -0.25649,-0.37062 -0.62706,-0.74119 -1.04038,-1.04056 -0.41332,-0.29937 -0.86942,-0.52742 -1.31127,-0.69375 -0.44185,-0.16633 -0.86944,-0.27085 -0.98364,-0.48465 -0.11421,-0.2138 0.0853,-0.53687 0.49409,-0.68894 0.40876,-0.15207 1.02639,-0.13307 1.56789,-0.31838 0.5415,-0.18532 1.00709,-0.57489 1.56771,-1.10701 0.56061,-0.53211 1.21624,-1.20675 1.65332,-1.73883 0.43708,-0.53208 0.65562,-0.92166 0.85041,-1.33498 0.1948,-0.41333 0.36584,-0.85041 0.49412,-1.24948 0.12828,-0.39907 0.2138,-0.76013 0.55119,-1.12134 0.33739,-0.3612 0.92651,-0.72227 1.60594,-1.07386 0.67944,-0.35159 1.44909,-0.69366 2.18927,-1.26592 0.74019,-0.57227 1.45098,-1.37476 2.01635,-2.09216 0.56537,-0.71739 0.98531,-1.34969 1.11585,-1.82117 0.13055,-0.47147 -0.0285,-0.78235 -0.27902,-1.18962 -0.25054,-0.40727 -0.5926,-0.91086 -1.45377,-1.76269 -0.86117,-0.85182 -2.24144,-2.05174 -3.43523,-3.20283 -1.19378,-1.15109 -2.20099,-2.25331 -3.20821,-3.26531 -1.00722,-1.01199 -2.01443,-1.93369 -3.10717,-2.83166 -1.09275,-0.89798 -2.27095,-1.77213 -3.00738,-2.27579 -0.73642,-0.50366 -1.03098,-0.63669 -1.24484,-0.81239 -0.21386,-0.1757 -0.34708,-0.39457 -0.48011,-0.61312 0,0 -1e-5,-10e-6 0.0332,-0.13295 z"
         id="path1955"
         inkscape:path-effect="#path-effect1957"
         inkscape:original-d="m 814.31103,325.964 c 0.0668,-0.26579 0.13329,-0.53184 0.19955,-0.79817 0.75096,-0.0758 1.50161,-0.15177 2.252,-0.22805 0.0573,-0.19929 0.11429,-0.39882 0.17104,-0.59864 -0.0853,-0.41784 -0.17078,-0.83591 -0.25656,-1.25428 0.9695,-0.75992 1.93869,-1.52007 2.90764,-2.28051 0.43738,-0.53186 0.87446,-1.06397 1.3113,-1.59635 0.26633,-0.0187 0.53238,-0.0377 0.79817,-0.057 1.23557,1.18805 2.47082,2.37579 3.70583,3.56329 2.89847,2.99349 5.79655,5.9866 8.69443,8.9795 4.31532,3.92122 8.63014,7.84196 12.94491,11.76262 0.36135,1.37042 0.72242,2.74052 1.08324,4.11042 -0.72292,0.85714 -1.44608,1.71398 -2.16951,2.57057 -1.5106,1.55864 -3.0214,3.11696 -4.5325,4.67504 -2.79342,2.83195 -5.58698,5.66353 -8.38087,8.49488 -1.64364,1.51113 -3.28747,3.02194 -4.9316,4.53251 -0.57938,0.18081 -1.15899,0.36134 -1.73889,0.54162 -0.13276,0.29484 -0.26579,0.5894 -0.39909,0.8837 -0.10425,0.31384 -0.20878,0.6274 -0.31356,0.94071 -0.21829,0.11429 -0.43684,0.22831 -0.65565,0.34207 -0.45585,-0.0282 -0.91194,-0.0567 -1.36831,-0.0855 -0.74091,-0.2373 -1.48206,-0.47485 -2.22349,-0.71267 -0.31331,-0.61738 -0.62687,-1.235 -0.94071,-1.85291 0.11429,-0.81693 0.22832,-1.6341 0.34208,-2.45154 0.0478,-0.59838 0.0953,-1.19701 0.14253,-1.7959 0.57991,-0.41784 1.15952,-0.83592 1.73888,-1.25428 0.82697,0.0668 1.65364,0.13329 2.48006,0.19954 0.87447,-0.49385 1.74865,-0.98795 2.62258,-1.48233 0.28533,-0.2563 0.57039,-0.51284 0.85519,-0.76966 0.0668,-0.40833 0.1333,-0.81692 0.19955,-1.22577 0.49438,-0.21829 0.98848,-0.43684 1.48233,-0.65565 0.61791,-0.42734 1.23554,-0.85492 1.85291,-1.28278 0.47538,-0.52237 0.95048,-1.04497 1.42532,-1.56785 0.54088,-0.82827 1.08148,-1.65677 1.62184,-2.48558 0.49539,-0.98613 0.9905,-1.9725 1.48535,-2.95914 0.0288,-0.33231 0.0573,-0.66488 0.0855,-0.99772 -0.20879,-0.32282 -0.41783,-0.64588 -0.62714,-0.96921 -0.33231,-0.0282 -0.66487,-0.0568 -0.9977,-0.0855 -0.6839,0.26633 -1.36804,0.53238 -2.05246,0.79818 -1.73866,1.8152 -3.47751,3.63007 -5.21666,5.44471 -1.17802,1.33059 -2.35626,2.66086 -3.53479,3.99089 -0.14227,0.38986 -0.2848,0.77944 -0.42759,1.16876 0.0193,0.19031 0.0383,0.38035 0.057,0.57013 -0.17078,0.23782 -0.34181,0.47537 -0.51312,0.71265 -0.41783,0.01 -0.83592,0.0193 -1.25427,0.0285 -0.40834,-0.17078 -0.81692,-0.34181 -1.22578,-0.51311 -0.23729,-0.41784 -0.47484,-0.83593 -0.71265,-1.25428 -0.14228,-0.37033 -0.2848,-0.7409 -0.4276,-1.11175 -0.37033,-0.37033 -0.7409,-0.7409 -1.11175,-1.11175 -0.45584,-0.22779 -0.91194,-0.45584 -1.3683,-0.68415 -0.42734,-0.10426 -0.85493,-0.20878 -1.28279,-0.31357 0.19982,-0.32281 0.39936,-0.64588 0.59864,-0.96922 0.61791,0.0193 1.23554,0.0383 1.85291,0.057 0.46588,-0.38933 0.93147,-0.77891 1.39681,-1.16876 0.65592,-0.6744 1.31155,-1.34904 1.96694,-2.02396 0.21882,-0.38932 0.43736,-0.7789 0.65564,-1.16876 0.17131,-0.43684 0.34234,-0.87393 0.51312,-1.31129 0.0858,-0.36082 0.1713,-0.72189 0.25655,-1.08324 0.58941,-0.36082 1.17853,-0.72189 1.7674,-1.08324 0.76995,-0.34182 1.5396,-0.68389 2.30901,-1.02623 0.7111,-0.80226 1.42189,-1.60475 2.13245,-2.40754 0.42021,-0.63205 0.84014,-1.26435 1.25981,-1.89691 -0.15878,-0.31064 -0.31781,-0.62152 -0.47711,-0.93269 -0.34182,-0.50336 -0.68388,-1.00695 -1.02623,-1.51084 -1.38006,-1.19971 -2.76034,-2.39962 -4.1409,-3.59982 -1.00698,-1.10201 -2.01419,-2.20423 -3.02167,-3.30674 -1.00698,-0.92146 -2.01419,-1.84315 -3.02167,-2.76512 -1.17803,-0.87395 -2.35624,-1.7481 -3.53479,-2.62258 -0.29431,-0.13277 -0.58887,-0.2658 -0.8837,-0.39909 -0.13276,-0.21828 -0.39909,-0.65565 -0.39909,-0.65565 z"
         sodipodi:nodetypes="cccccccccccccccccccccccccccccccccccccccccccccccccccccccccccccccccccccscc" /><path
         style="fill:#000000;fill-opacity:1;stroke-width:0.264583"
         d="m 821.05039,266.1416 c 2.22997,2.21559 6.68966,6.6465 9.78267,9.78269 3.09302,3.13619 4.81931,4.97757 6.30111,6.34423 1.4818,1.36665 2.71898,2.25857 3.69724,2.762 0.97825,0.50343 1.69754,0.61852 2.31609,0.60408 0.61855,-0.0144 1.13643,-0.15829 1.55354,-0.40283 0.41711,-0.24454 0.73359,-0.58979 0.97815,-1.74058 0.24457,-1.1508 0.4172,-3.10727 0.48914,-6.97716 0.0719,-3.8699 0.0432,-9.65299 -0.0144,-13.98322 -0.0575,-4.33023 -0.14386,-7.20739 -0.43147,-8.96249 -0.28762,-1.75509 -0.77674,-2.38807 -1.25144,-2.8341 -0.4747,-0.44603 -0.93504,-0.70497 -1.49612,-0.86329 -0.56108,-0.15832 -1.22282,-0.21587 -6.9486,-0.2015 -5.72577,0.0144 -16.51511,0.10069 -21.92443,0.1871 -5.40932,0.0864 -5.43809,0.17271 -5.49562,0.56118 -0.0575,0.38846 -0.14384,1.07897 -0.0143,1.8271 0.12956,0.74814 0.47482,1.55374 1.26613,2.58952 0.79131,1.03578 2.02849,2.30173 3.10747,3.29436 1.07898,0.99263 1.99967,1.71192 2.57499,1.98512 0.57532,0.2732 0.80549,0.10057 0.87741,-0.31647 0.0719,-0.41705 -0.0144,-1.07878 0.0287,-1.63992 0.0431,-0.56113 0.21575,-1.02148 0.54671,-1.36685 0.33097,-0.34537 0.82009,-0.57554 1.99984,-0.6906 1.17975,-0.11506 3.04991,-0.11506 6.517,-0.12944 3.46709,-0.0144 8.53078,-0.0431 11.30736,0.1152 2.77658,0.15836 3.2657,0.50362 3.51011,4.14338 0.24442,3.63977 0.24442,10.57373 0.0431,14.12693 -0.20135,3.5532 -0.60416,3.72583 -0.97811,3.76906 -0.37395,0.0432 -0.7192,-0.0431 -1.38099,-0.51776 -0.66179,-0.47467 -1.64002,-1.33781 -2.97795,-2.63257 -1.33793,-1.29475 -3.03545,-3.02105 -4.21514,-4.33017 -1.17968,-1.30913 -1.84143,-2.20104 -2.20117,-2.83404 -0.35974,-0.63299 -0.41728,-1.00702 -0.31657,-1.28052 0.10072,-0.27351 0.35966,-0.44613 0.77695,-0.56122 0.41729,-0.11508 0.99272,-0.17262 1.59697,0.0433 0.60425,0.21592 1.23722,0.70503 1.85581,1.26612 0.6186,0.56108 1.22279,1.19406 1.89898,1.69752 0.67618,0.50346 1.42424,0.87749 2.02833,0.90616 0.60409,0.0287 1.06443,-0.28781 1.36649,-0.74806 0.30206,-0.46024 0.44592,-1.06445 0.53225,-2.20093 0.0863,-1.13648 0.1151,-2.80523 6e-5,-4.0568 -0.11505,-1.25157 -0.37399,-2.08595 -0.60408,-2.5895 -0.23008,-0.50355 -0.43148,-0.67618 -3.59649,-0.73384 -3.16501,-0.0577 -9.29335,-1.3e-4 -12.38651,0.12944 -3.09317,0.12957 -3.15071,0.33096 -3.23702,0.67624 -0.0863,0.34529 -0.20141,0.8344 -0.15818,1.45307 0.0432,0.61867 0.24463,1.36673 0.34529,1.74061 0.10066,0.37388 0.10067,0.37387 2.33064,2.58945 z"
         id="path2685"
         inkscape:path-effect="#path-effect2687"
         inkscape:original-d="m 818.82042,263.92602 c 4.45994,4.43117 8.91962,8.86209 13.37904,13.29273 1.72663,1.84172 3.45292,3.6831 5.17898,5.52425 1.2375,0.89222 2.47467,1.78414 3.71161,2.67581 0.71958,0.11535 1.43887,0.23044 2.15791,0.34527 0.51818,-0.1436 1.03606,-0.28746 1.5537,-0.43159 0.31676,-0.34501 0.63325,-0.69026 0.94948,-1.03579 0.1729,-1.95628 0.34553,-3.91275 0.5179,-5.86952 -0.0285,-5.78305 -0.0573,-11.56614 -0.0863,-17.3496 -0.0861,-2.87701 -0.17237,-5.75417 -0.25895,-8.63164 -0.48887,-0.63274 -0.97799,-1.26572 -1.46738,-1.89897 -0.4601,-0.25869 -0.92044,-0.51763 -1.38106,-0.77684 -0.66151,-0.0573 -1.32325,-0.11483 -1.98528,-0.17264 -10.7895,0.0866 -21.57884,0.1729 -32.36866,0.25895 -0.0285,0.0866 -0.0573,0.1729 -0.0863,0.25895 -0.0861,0.69081 -0.17236,1.38133 -0.25895,2.0716 0.34554,0.8059 0.6908,1.6115 1.0358,2.41686 1.23749,1.26626 2.47467,2.53221 3.71161,3.79792 0.92099,0.71958 1.84168,1.43887 2.76212,2.15791 0.23045,-0.17237 0.46062,-0.345 0.69053,-0.5179 -0.0861,-0.66151 -0.17236,-1.32325 -0.25894,-1.98528 0.1729,-0.46009 0.34553,-0.92044 0.51789,-1.38106 0.4894,-0.22992 0.97852,-0.46009 1.46738,-0.69053 1.87049,2.6e-4 3.74065,2.6e-4 5.61056,0 5.06427,-0.0285 10.12796,-0.0573 15.19169,-0.0863 0.4894,0.34553 0.97851,0.69079 1.46738,1.03579 2.7e-4,6.93448 2.6e-4,13.86844 0,20.80226 -0.40256,0.1729 -0.80537,0.34553 -1.20845,0.5179 -0.345,-0.0861 -0.69026,-0.17237 -1.03579,-0.25895 -0.97801,-0.86292 -1.95624,-1.72607 -2.93476,-2.58949 -1.69733,-1.7261 -3.39485,-3.4524 -5.09267,-5.17899 -0.66151,-0.89169 -1.32325,-1.78361 -1.98528,-2.67581 -0.0573,-0.37378 -0.11482,-0.74781 -0.17263,-1.12211 0.25922,-0.17237 0.51816,-0.345 0.77685,-0.5179 0.57572,-0.0573 1.15115,-0.11483 1.72633,-0.17263 0.63326,0.4894 1.26623,0.97851 1.89896,1.46737 0.60449,0.63327 1.20869,1.26624 1.81264,1.89897 0.74836,0.37431 1.49642,0.74834 2.24423,1.12211 0.46063,-0.31624 0.92097,-0.63272 1.38106,-0.94948 0.14413,-0.60396 0.28799,-1.20817 0.43158,-1.81265 0.029,-1.66855 0.0578,-3.3373 0.0863,-5.00635 -0.25869,-0.83414 -0.51763,-1.66852 -0.77685,-2.50318 -0.20114,-0.17237 -0.40254,-0.345 -0.60421,-0.51789 -6.12833,0.0578 -12.25667,0.11535 -18.3854,0.17263 -0.0573,0.20167 -0.11482,0.40307 -0.17263,0.60421 -0.11483,0.48941 -0.22991,0.97852 -0.34527,1.46738 0.20168,0.74836 0.40308,1.49642 0.60422,2.24423 z"
         sodipodi:nodetypes="ccccccccccccccccccccccccccc" /><path
         id="path2689"
         style="fill:#000000;fill-opacity:1;stroke-width:0.264583"
         d="m 851.53614,252.18753 c -0.29472,-0.003 -0.59136,0.0273 -0.89349,0.0713 -0.69057,0.10068 -1.40965,0.27352 -1.7694,0.41754 -0.35975,0.14402 -0.36018,0.25885 -0.36018,0.31626 0,0.0574 3.8e-4,0.0577 -0.11473,0.66198 -0.1151,0.60432 -0.34547,1.81258 -0.3886,3.56774 -0.0431,1.75516 0.10077,4.05714 0.28783,5.58209 0.18707,1.52494 0.41729,2.27269 0.74828,2.68975 0.33099,0.41707 0.76258,0.50326 1.3379,0.30179 0.57533,-0.20146 1.29453,-0.69055 2.4598,-1.61127 1.16527,-0.92071 2.77661,-2.27289 3.66851,-3.17913 0.8919,-0.90624 1.06423,-1.36625 1.10743,-2.05672 0.0432,-0.69047 -0.0428,-1.61125 -0.54622,-2.50321 -0.5034,-0.89196 -1.42422,-1.75547 -2.22984,-2.47478 -0.80562,-0.71932 -1.49631,-1.29441 -2.17248,-1.56787 -0.38034,-0.15382 -0.7559,-0.21193 -1.13481,-0.21549 z m -0.23461,4.00854 c 0.2003,-0.006 0.38123,0.24219 0.44855,0.56585 0.0718,0.34524 0.0145,0.77703 0.23047,0.99271 0.21595,0.21568 0.70499,0.2153 1.07901,0.38809 0.37402,0.17278 0.63274,0.51807 0.64699,0.9064 0.0143,0.38833 -0.21571,0.82008 -0.6041,1.25161 -0.38839,0.43152 -0.93485,0.8632 -1.36633,1.079 -0.43147,0.2158 -0.74794,0.21577 -0.97823,-0.24443 -0.23029,-0.4602 -0.37418,-1.38111 -0.38861,-2.15801 -0.0144,-0.7769 0.10022,-1.4099 0.27285,-1.89911 0.17264,-0.4892 0.40316,-0.83442 0.61909,-0.87746 0.0135,-0.003 0.0269,-0.004 0.0403,-0.005 z" /><path
         id="path2697"
         style="fill:#000000;fill-opacity:1;stroke-width:0.264583"
         d="m 850.3791,271.94756 c -0.0541,2.5e-4 -0.10491,0.002 -0.15348,0.006 -0.38852,0.0287 -0.61869,0.14397 -0.92087,0.47491 -0.30218,0.33093 -0.67623,0.87761 -0.90641,1.45314 -0.23017,0.57553 -0.31644,1.17954 -0.34519,2.66133 -0.0288,1.4818 -3.3e-4,3.8411 0.12919,5.45238 0.12951,1.61129 0.35986,2.47486 0.4749,2.90629 0.11505,0.43142 0.1151,0.43142 0.20154,0.53226 0.0864,0.10085 0.25875,0.302 0.50333,0.40256 0.24458,0.10057 0.56101,0.1005 1.13636,-0.1297 0.57536,-0.23021 1.40983,-0.69051 2.48874,-1.59681 1.07891,-0.90629 2.40263,-2.25861 3.23701,-3.20807 0.83439,-0.94946 1.17972,-1.49577 1.35237,-1.97042 0.17266,-0.47465 0.17231,-0.87794 0.1292,-1.22318 -0.0431,-0.34525 -0.12928,-0.63276 -0.40256,-1.1219 -0.27329,-0.48913 -0.73376,-1.17964 -1.69757,-1.97094 -0.96382,-0.79129 -2.43099,-1.68317 -3.43804,-2.158 -0.88117,-0.41548 -1.40984,-0.51127 -1.78852,-0.50953 z m 0.57981,3.46542 c 0.007,-2.4e-4 0.0138,-3e-4 0.0207,0 0.21865,0.01 0.3898,0.29488 0.48473,0.59893 0.0949,0.30406 0.11385,0.62669 0.17208,0.91106 0.0582,0.28437 0.15584,0.53021 0.33486,0.72295 0.17902,0.19275 0.43956,0.33283 0.67593,0.39998 0.23636,0.0671 0.44873,0.0614 0.65939,0.0491 0.21065,-0.0123 0.43976,-0.17225 0.54417,-0.0296 0.1044,0.14267 0.0844,0.58763 -10e-4,0.76801 -0.0854,0.18038 -0.25677,0.23754 -0.4563,0.29456 -0.19953,0.057 -0.42749,0.11384 -0.678,0.13901 -0.25051,0.0252 -0.76551,-0.16309 -0.90761,9e-4 -0.14209,0.16399 -0.0928,0.76084 -0.11727,1.15102 -0.0245,0.39019 0.24032,1.13847 -0.3221,1.10006 l -0.65543,-0.0402 c -0.57665,-0.049 -0.26607,-1.85315 -0.33672,-2.77711 -0.0707,-0.92395 -0.0182,-1.85485 0.10065,-2.53427 0.10533,-0.60226 0.58133,-0.40678 0.52234,-0.61322 z"
         sodipodi:nodetypes="ssssssssssssssssssscssssssssssccccsssc" /><path
         style="fill:#000000;fill-opacity:1;stroke-width:0.264583"
         d="m 821.24599,380.11644 c 2.22998,-2.21558 6.68966,-6.64649 9.78268,-9.78268 3.09302,-3.13619 4.81931,-4.97756 6.30111,-6.34422 1.4818,-1.36666 2.71898,-2.25858 3.69724,-2.762 0.97825,-0.50343 1.69755,-0.61851 2.31609,-0.60408 0.61855,0.0144 1.13643,0.15829 1.55354,0.40283 0.41711,0.24453 0.7336,0.58979 0.97816,1.74058 0.24456,1.1508 0.41719,3.10726 0.48913,6.97716 0.0719,3.8699 0.0432,9.65298 -0.0144,13.98321 -0.0575,4.33023 -0.14386,7.20739 -0.43147,8.96249 -0.28762,1.75509 -0.77674,2.38807 -1.25144,2.8341 -0.4747,0.44603 -0.93504,0.70497 -1.49612,0.8633 -0.56108,0.15832 -1.22282,0.21586 -6.9486,0.20149 -5.72577,-0.0144 -16.51511,-0.10069 -21.92443,-0.1871 -5.40932,-0.0864 -5.43809,-0.17271 -5.49562,-0.56118 -0.0575,-0.38846 -0.14384,-1.07897 -0.0143,-1.8271 0.12956,-0.74813 0.47482,-1.55373 1.26613,-2.58952 0.79131,-1.03578 2.02848,-2.30173 3.10746,-3.29435 1.07898,-0.99263 1.99967,-1.71192 2.57499,-1.98513 0.57532,-0.2732 0.8055,-0.10057 0.87742,0.31647 0.0719,0.41705 -0.0144,1.07879 0.0287,1.63992 0.0431,0.56114 0.21574,1.02148 0.54671,1.36685 0.33097,0.34537 0.82009,0.57554 1.99984,0.69061 1.17975,0.11506 3.0499,0.11506 6.51699,0.12944 3.4671,0.0144 8.53079,0.0431 11.30737,-0.1152 2.77658,-0.15836 3.26569,-0.50361 3.51011,-4.14338 0.24442,-3.63977 0.24442,-10.57373 0.0431,-14.12693 -0.20135,-3.5532 -0.60416,-3.72583 -0.97811,-3.76906 -0.37395,-0.0432 -0.7192,0.0431 -1.38099,0.51776 -0.66178,0.47467 -1.64002,1.33782 -2.97795,2.63257 -1.33793,1.29476 -3.03545,3.02105 -4.21514,4.33017 -1.17968,1.30913 -1.84143,2.20104 -2.20117,2.83404 -0.35974,0.63299 -0.41728,1.00702 -0.31657,1.28053 0.10072,0.2735 0.35966,0.44613 0.77695,0.56121 0.41729,0.11508 0.99272,0.17263 1.59697,-0.0433 0.60425,-0.21592 1.23722,-0.70504 1.85581,-1.26613 0.6186,-0.56108 1.2228,-1.19405 1.89898,-1.69752 0.67618,-0.50346 1.42424,-0.87749 2.02833,-0.90616 0.60409,-0.0287 1.06444,0.28782 1.36649,0.74807 0.30206,0.46024 0.44592,1.06444 0.53225,2.20092 0.0863,1.13648 0.1151,2.80523 6e-5,4.05681 -0.11505,1.25157 -0.37399,2.08594 -0.60408,2.58949 -0.23008,0.50355 -0.43148,0.67618 -3.59649,0.73385 -3.16501,0.0577 -9.29335,1.2e-4 -12.38652,-0.12945 -3.09316,-0.12956 -3.1507,-0.33096 -3.23702,-0.67624 -0.0863,-0.34528 -0.2014,-0.8344 -0.15817,-1.45307 0.0432,-0.61867 0.24462,-1.36673 0.34528,-1.74061 0.10066,-0.37388 0.10067,-0.37388 2.33064,-2.58947 z"
         id="path2685-5"
         inkscape:path-effect="#path-effect2687-3"
         inkscape:original-d="m 819.01602,382.33203 c 4.45995,-4.43117 8.91963,-8.86208 13.37905,-13.29273 1.72663,-1.84172 3.45292,-3.68309 5.17898,-5.52425 1.2375,-0.89222 2.47467,-1.78414 3.71161,-2.6758 0.71958,-0.11535 1.43887,-0.23044 2.15791,-0.34526 0.51818,0.1436 1.03606,0.28745 1.5537,0.43157 0.31676,0.34501 0.63325,0.69027 0.94948,1.0358 0.1729,1.95628 0.34553,3.91274 0.5179,5.86951 -0.0285,5.78306 -0.0573,11.56614 -0.0863,17.3496 -0.0861,2.87701 -0.17237,5.75417 -0.25895,8.63165 -0.48887,0.63273 -0.97799,1.26571 -1.46738,1.89896 -0.4601,0.25869 -0.92044,0.51763 -1.38106,0.77685 -0.66151,0.0573 -1.32325,0.11482 -1.98528,0.17263 -10.7895,-0.0866 -21.57884,-0.1729 -32.36866,-0.25895 -0.0285,-0.0866 -0.0573,-0.1729 -0.0863,-0.25895 -0.0861,-0.69081 -0.17237,-1.38133 -0.25895,-2.07159 0.34554,-0.8059 0.69079,-1.61151 1.0358,-2.41686 1.23749,-1.26627 2.47466,-2.53222 3.7116,-3.79792 0.92099,-0.71959 1.84168,-1.43888 2.76213,-2.15792 0.23044,0.17238 0.46062,0.34501 0.69053,0.5179 -0.0861,0.66151 -0.17237,1.32326 -0.25895,1.98528 0.1729,0.4601 0.34553,0.92044 0.5179,1.38106 0.4894,0.22992 0.97852,0.46009 1.46738,0.69054 1.87049,-2.7e-4 3.74064,-2.7e-4 5.61056,0 5.06427,0.0285 10.12796,0.0573 15.19169,0.0863 0.4894,-0.34553 0.97851,-0.69078 1.46738,-1.03579 2.7e-4,-6.93448 2.6e-4,-13.86844 0,-20.80226 -0.40256,-0.1729 -0.80537,-0.34553 -1.20845,-0.5179 -0.345,0.0861 -0.69026,0.17237 -1.03579,0.25895 -0.97801,0.86292 -1.95624,1.72607 -2.93476,2.5895 -1.69733,1.7261 -3.39485,3.45239 -5.09267,5.17898 -0.66151,0.89169 -1.32325,1.78361 -1.98528,2.67581 -0.0573,0.37378 -0.11482,0.74781 -0.17263,1.12212 0.25922,0.17237 0.51816,0.345 0.77685,0.51789 0.57572,0.0573 1.15115,0.11483 1.72633,0.17264 0.63326,-0.4894 1.26623,-0.97852 1.89896,-1.46738 0.60449,-0.63327 1.20869,-1.26624 1.81264,-1.89896 0.74836,-0.37431 1.49642,-0.74834 2.24423,-1.12212 0.46063,0.31624 0.92097,0.63273 1.38106,0.94948 0.14413,0.60397 0.28799,1.20817 0.43158,1.81265 0.029,1.66855 0.0578,3.3373 0.0863,5.00635 -0.25869,0.83415 -0.51763,1.66852 -0.77685,2.50318 -0.20114,0.17237 -0.40254,0.345 -0.60421,0.5179 -6.12833,-0.0578 -12.25667,-0.11536 -18.3854,-0.17264 -0.0573,-0.20167 -0.11483,-0.40307 -0.17264,-0.60421 -0.11482,-0.4894 -0.22991,-0.97852 -0.34526,-1.46738 0.20167,-0.74836 0.40307,-1.49642 0.60421,-2.24423 z"
         sodipodi:nodetypes="ccccccccccccccccccccccccccc" /><path
         id="path2689-3"
         style="fill:#000000;fill-opacity:1;stroke-width:0.264583"
         d="m 851.73175,394.07053 c -0.29472,0.003 -0.59136,-0.0273 -0.89349,-0.0713 -0.69057,-0.10069 -1.40965,-0.27353 -1.7694,-0.41755 -0.35975,-0.14402 -0.36018,-0.25885 -0.36018,-0.31626 0,-0.0574 3.8e-4,-0.0577 -0.11473,-0.66197 -0.1151,-0.60432 -0.34547,-1.81259 -0.3886,-3.56774 -0.0431,-1.75517 0.10077,-4.05715 0.28783,-5.58209 0.18707,-1.52495 0.41729,-2.27269 0.74828,-2.68976 0.33099,-0.41707 0.76258,-0.50325 1.3379,-0.30179 0.57533,0.20146 1.29453,0.69056 2.4598,1.61127 1.16527,0.92071 2.77661,2.27289 3.66851,3.17913 0.8919,0.90625 1.06423,1.36625 1.10743,2.05673 0.0432,0.69047 -0.0428,1.61124 -0.54622,2.5032 -0.5034,0.89196 -1.42422,1.75547 -2.22984,2.47479 -0.80562,0.71931 -1.49631,1.2944 -2.17248,1.56786 -0.38034,0.15382 -0.7559,0.21193 -1.13481,0.21549 z m -0.23461,-4.00854 c 0.2003,0.006 0.38123,-0.2422 0.44855,-0.56586 0.0718,-0.34524 0.0145,-0.77703 0.23047,-0.99271 0.21595,-0.21567 0.70499,-0.2153 1.07901,-0.38809 0.37402,-0.17278 0.63274,-0.51807 0.64699,-0.9064 0.0143,-0.38833 -0.21571,-0.82008 -0.6041,-1.2516 -0.38839,-0.43153 -0.93485,-0.8632 -1.36633,-1.07901 -0.43147,-0.2158 -0.74794,-0.21577 -0.97823,0.24443 -0.23029,0.46021 -0.37418,1.38111 -0.38861,2.15801 -0.0144,0.7769 0.10022,1.4099 0.27285,1.89911 0.17264,0.4892 0.40316,0.83442 0.61909,0.87746 0.0135,0.003 0.0269,0.004 0.0403,0.005 z" /><path
         id="path2697-8"
         style="fill:#000000;fill-opacity:1;stroke-width:0.264583"
         d="m 850.57471,374.31049 c -0.0541,-2.5e-4 -0.10491,-0.002 -0.15348,-0.006 -0.38852,-0.0287 -0.61869,-0.14397 -0.92087,-0.4749 -0.30218,-0.33094 -0.67623,-0.87761 -0.90641,-1.45315 -0.23017,-0.57553 -0.31644,-1.17954 -0.34519,-2.66133 -0.0288,-1.4818 -3.3e-4,-3.8411 0.12919,-5.45238 0.12951,-1.61129 0.35986,-2.47486 0.4749,-2.90629 0.11505,-0.43142 0.1151,-0.43142 0.20154,-0.53225 0.0864,-0.10085 0.25875,-0.302 0.50333,-0.40256 0.24458,-0.10056 0.56101,-0.1005 1.13636,0.12971 0.57536,0.2302 1.40983,0.69049 2.48874,1.59679 1.07891,0.9063 2.40263,2.25861 3.23701,3.20807 0.83439,0.94946 1.17972,1.49577 1.35237,1.97042 0.17266,0.47465 0.17231,0.87794 0.1292,1.22318 -0.0431,0.34525 -0.12928,0.63276 -0.40256,1.1219 -0.27329,0.48914 -0.73376,1.17964 -1.69757,1.97094 -0.96382,0.7913 -2.43099,1.68318 -3.43804,2.15801 -0.88117,0.41547 -1.40984,0.51127 -1.78852,0.50953 z m 0.57981,-3.46542 c 0.007,2.4e-4 0.0138,3e-4 0.0207,0 0.21865,-0.01 0.3898,-0.29487 0.48473,-0.59893 0.0949,-0.30406 0.11385,-0.62669 0.17208,-0.91105 0.0582,-0.28437 0.15584,-0.53021 0.33486,-0.72296 0.17902,-0.19274 0.43956,-0.33283 0.67593,-0.39997 0.23636,-0.0671 0.44873,-0.0614 0.65939,-0.0491 0.21065,0.0123 0.43976,0.17224 0.54417,0.0296 0.1044,-0.14268 0.0844,-0.58764 -10e-4,-0.76802 -0.0854,-0.18038 -0.25677,-0.23754 -0.4563,-0.29455 -0.19953,-0.057 -0.42749,-0.11384 -0.678,-0.13901 -0.25051,-0.0252 -0.76551,0.16308 -0.90761,-9e-4 -0.14209,-0.16399 -0.0928,-0.76085 -0.11727,-1.15103 -0.0245,-0.39018 0.24032,-1.13847 -0.3221,-1.10006 l -0.65543,0.0402 c -0.57665,0.049 -0.26607,1.85315 -0.33672,2.77711 -0.0707,0.92396 -0.0182,1.85485 0.10065,2.53427 0.10533,0.60226 0.58133,0.40679 0.52234,0.61322 z"
         sodipodi:nodetypes="ssssssssssssssssssscssssssssssccccsssc" /><path
         style="fill:#000000;fill-opacity:1;stroke-width:0.264583"
         d="m 852.3385,280.66742 c 0.32337,0.0571 0.64645,0.11408 0.96921,0.17104"
         id="path3487"
         inkscape:path-effect="#path-effect3489"
         inkscape:original-d="m 852.3385,280.66742 c 0.32333,0.0573 0.64641,0.11429 0.96921,0.17104" /><path
         id="path482-0"
         style="fill:#000000;fill-opacity:1;stroke-width:0.264583"
         d="m 428.93497,276.65103 c 0.29573,0.001 0.5649,0.11762 0.84646,0.32298 0.62137,0.45322 1.30357,1.33921 1.67018,2.40864 0.36662,1.06943 0.41772,2.32224 -0.1018,3.53415 -0.51952,1.21192 -1.60942,2.38253 -2.63291,3.44165 -1.0235,1.05913 -1.98044,2.00647 -3.21272,3.04013 -1.23228,1.03366 -2.73951,2.15377 -3.75791,2.94814 -1.01839,0.79437 -1.54816,1.26276 -1.81281,1.73632 -0.26464,0.47357 -0.26434,0.95231 -0.11162,1.28313 0.15272,0.33082 0.4581,0.51417 0.88573,0.41755 0.42762,-0.0966 0.97723,-0.47353 1.57303,-1.0387 0.59579,-0.56517 1.23741,-1.31848 2.33216,-2.10271 1.09475,-0.78423 2.64251,-1.5993 3.84421,-2.18488 1.20169,-0.58559 2.05722,-0.9417 2.92798,-1.13017 0.87076,-0.18846 1.75666,-0.20885 2.57142,-0.11213 0.81477,0.0967 1.55828,0.31033 2.24069,0.71261 0.68241,0.40229 1.3036,0.99326 1.46141,1.7725 0.15781,0.77925 -0.1474,1.74649 -0.7891,2.5306 -0.6417,0.78411 -1.61956,1.38513 -2.49029,1.7415 -0.87072,0.35636 -1.63455,0.46829 -2.36781,0.61598 -0.73326,0.14769 -1.43578,0.33071 -1.78697,0.71778 -0.3512,0.38708 -0.35144,0.97815 -0.0816,1.34462 0.26979,0.36647 0.80974,0.50859 1.60404,0.55449 0.7943,0.0457 1.84297,-0.005 2.90214,0.0408 1.05917,0.0458 2.12849,0.18867 3.03496,0.54002 0.90647,0.35135 1.64999,0.91135 2.06758,1.42576 0.41758,0.51441 0.50952,0.98258 0.32607,1.52238 -0.18344,0.53979 -0.64191,1.1511 -1.41593,1.50741 -0.77402,0.35631 -1.86368,0.45811 -3.23443,0.53071 -1.37075,0.0726 -3.02253,0.11585 -4.27519,0.2279 -1.25266,0.11205 -2.10595,0.29252 -2.77709,0.55603 -0.67114,0.26352 -1.15982,0.61016 -1.48053,0.98702 -0.32071,0.37687 -0.47342,0.78421 -0.86558,1.25264 -0.39216,0.46842 -1.02395,0.99769 -1.66036,1.11466 -0.63641,0.11697 -1.27785,-0.17806 -1.75132,-0.61081 -0.47347,-0.43274 -0.7789,-1.00331 -1.55804,-1.757 -0.77913,-0.75369 -2.03163,-1.69047 -3.02979,-1.86346 -0.99816,-0.17298 -1.74148,0.41739 -1.48673,1.33894 0.25474,0.92154 1.5071,2.17451 2.56625,3.35587 1.05915,1.18136 1.92473,2.29096 2.32699,3.80338 0.40225,1.51243 0.34128,3.42713 0.14263,4.74597 -0.19865,1.31885 -0.53462,2.042 -0.94206,2.46961 -0.40744,0.42761 -0.88638,0.55983 -2.80603,0.98754 -1.91965,0.42771 -5.2803,1.15107 -10.01076,1.51257 -4.73047,0.3615 -10.82998,0.36149 -14.48594,-0.14263 -3.65596,-0.50412 -4.86801,-1.51267 -5.63686,-2.55643 -0.76885,-1.04377 -1.09482,-2.12295 -1.22215,-3.2737 -0.12734,-1.15074 -0.0562,-2.37271 0.43253,-3.22823 0.48869,-0.85551 1.3951,-1.34466 2.15387,-1.52807 0.75877,-0.18342 1.36977,-0.061 2.12856,0.35657 0.75878,0.41755 1.66511,1.13025 2.26601,1.76681 0.6009,0.63656 0.89614,1.19661 1.20147,1.42576 0.30534,0.22914 0.62107,0.12744 0.79944,-0.15762 0.17836,-0.28506 0.21945,-0.75333 0.34158,-1.19631 0.12214,-0.44299 0.32591,-0.86044 0.65681,-1.18132 0.33089,-0.32087 0.78884,-0.54529 1.29811,-0.56069 0.50928,-0.0154 1.06969,0.17826 1.45676,0.38706 0.38707,0.2088 0.60092,0.4327 0.87591,0.82992 0.27499,0.39721 0.61082,0.96764 0.94672,1.22732 0.3359,0.25967 0.67184,0.20889 0.92655,-0.12196 0.2547,-0.33084 0.42786,-0.94223 0.56534,-1.4056 0.13748,-0.46337 0.2396,-0.77895 0.67231,-1.00821 0.43272,-0.22926 1.19636,-0.37172 2.0774,-0.10697 0.88104,0.26474 1.87906,0.93673 2.92798,1.51722 1.04893,0.58048 2.14842,1.06944 3.16674,1.26298 1.01831,0.19354 1.95518,0.0918 2.43396,-0.46819 0.47877,-0.55999 0.49925,-1.57848 -0.64648,-2.9993 -1.14572,-1.42082 -3.4571,-3.2435 -5.89628,-4.27209 -2.43918,-1.02859 -5.00537,-1.26309 -6.03891,-0.70797 -1.03351,0.55511 -0.53455,1.8996 -1.04903,2.76521 -0.51448,0.86559 -2.0424,1.25257 -3.37137,1.34927 -1.32897,0.0967 -2.45902,-0.0971 -2.85615,-0.63666 -0.39719,-0.53958 -0.0614,-1.42519 0.0915,-2.39778 0.15283,-0.9726 0.12241,-2.03205 0.0155,-2.913 -0.10691,-0.88096 -0.29015,-1.5834 -0.56018,-1.93994 -0.27003,-0.35655 -0.62626,-0.36668 -0.89607,-0.13229 -0.26982,0.23439 -0.45331,0.71312 -0.52451,1.4056 -0.0712,0.69248 -0.0303,1.59847 -0.0558,2.40812 -0.0255,0.80965 -0.11722,1.52276 -0.43305,2.10323 -0.31583,0.58046 -0.85549,1.02832 -1.35961,1.33377 -0.50411,0.30545 -0.97261,0.46824 -1.49706,0.53434 -0.52445,0.0661 -1.10495,0.0359 -1.73116,-0.22376 -0.62622,-0.25971 -1.29856,-0.74857 -1.77716,-1.4919 -0.4786,-0.74333 -0.76335,-1.74137 -0.80925,-3.0856 -0.0459,-1.34423 0.14758,-3.03452 0.58033,-4.50102 0.43276,-1.46649 1.10445,-2.70915 2.1177,-3.468 1.01325,-0.75884 2.36767,-1.03352 4.65398,-1.58853 2.2863,-0.55502 5.50463,-1.39027 8.60567,-2.09807 3.10105,-0.7078 6.08493,-1.2885 8.90592,-2.51561 2.82098,-1.2271 5.4787,-3.10046 6.80785,-4.03748 1.32912,-0.93701 1.32914,-0.93717 1.25264,-0.95756 -0.0765,-0.0204 -0.22912,-0.0609 0.90124,-1.05368 1.13034,-0.99279 3.54401,-2.93798 5.39243,-4.61833 1.84843,-1.68034 3.13133,-3.09581 4.05298,-3.79356 0.50403,-0.38159 0.89985,-0.54855 1.25677,-0.54726 z m -17.75395,20.42098 c -0.25318,0.0123 -0.53854,0.2047 -0.72967,0.4625 -0.21844,0.29463 -0.31348,0.67463 -0.51315,0.95963 -0.19966,0.28501 -0.50386,0.47495 -0.84594,0.64596 -0.34209,0.171 -0.72241,0.3231 -0.90279,0.60823 -0.18037,0.28513 -0.16102,0.7033 -0.10025,0.95033 0.0608,0.24703 0.16313,0.32307 0.21446,0.36122 0.0513,0.0382 0.0512,0.0381 0.27543,0.1235 0.22419,0.0854 0.67272,0.25637 1.20096,0.25632 0.52825,-5e-5 1.13657,-0.17098 1.56425,-0.52245 0.42768,-0.35147 0.67475,-0.88367 0.75086,-1.44436 0.0761,-0.56068 -0.019,-1.15012 -0.17105,-1.5968 -0.15204,-0.44668 -0.36092,-0.75044 -0.63666,-0.79788 -0.0345,-0.006 -0.0703,-0.008 -0.10645,-0.006 z" /><path
         style="fill:#000000;fill-opacity:1;stroke-width:0.264583"
         d="m 440.04092,311.66859 c -0.0475,-0.51775 -0.14252,-1.55349 -0.4751,-2.38979 -0.33259,-0.8363 -0.90269,-1.47292 -1.66301,-1.81502 -0.76031,-0.34209 -1.71051,-0.3896 -2.51345,-0.41809 -0.80293,-0.0285 -1.45857,-0.038 -2.13322,0.36123 -0.67464,0.39924 -1.36829,1.20691 -2.11897,1.60586 -0.75068,0.39895 -1.55834,0.38945 -2.28054,0.52255 -0.72221,0.13311 -1.35881,0.40866 -1.78156,0.88862 -0.42274,0.47995 -0.63178,1.16409 -0.56994,1.88616 0.0618,0.72208 0.3944,1.48221 0.98341,1.92874 0.58901,0.44653 1.43468,0.57956 2.79347,0.64134 1.3588,0.0618 3.23064,0.0523 4.64647,-0.0285 1.41584,-0.0807 2.3755,-0.23277 3.15948,-0.68877 0.78397,-0.45599 1.39209,-1.21614 1.69627,-1.59637 0.30419,-0.38023 0.30419,-0.38025 0.25669,-0.89799 z"
         id="path1221-0"
         inkscape:path-effect="#path-effect1223-9"
         inkscape:original-d="m 440.08842,312.18633 c -0.0953,-1.03546 -0.19031,-2.0712 -0.28506,-3.10719 -0.57041,-0.63639 -1.14051,-1.27301 -1.71038,-1.90993 -0.9505,-0.0472 -1.90069,-0.0948 -2.85064,-0.14252 -0.65592,-0.009 -1.31155,-0.0187 -1.96694,-0.0285 -0.69392,0.80796 -1.38757,1.61562 -2.08096,2.42304 -0.80796,-0.009 -1.61561,-0.0187 -2.42304,-0.0285 -0.63692,0.27584 -1.27353,0.55138 -1.90992,0.82669 -0.20932,0.68443 -0.41836,1.36857 -0.62714,2.05245 0.33231,0.76046 0.66487,1.52059 0.99772,2.28051 0.84544,0.1333 1.69111,0.26633 2.53706,0.39909 1.87169,-0.009 3.74353,-0.0187 5.61575,-0.0285 0.95948,-0.15178 1.91915,-0.3038 2.87914,-0.45611 0.60789,-0.75992 1.21601,-1.52007 1.82441,-2.28051 z"
         sodipodi:nodetypes="cccccccccccccc" /><path
         style="fill:#000000;fill-opacity:1;stroke-width:0.264583"
         d="m 437.97404,324.09749 c -0.23293,0.40381 -0.64152,0.71738 -1.49195,0.84079 -0.85043,0.12341 -2.14268,0.0569 -3.0691,-0.0714 -0.92643,-0.1283 -1.48703,-0.31834 -2.06183,-0.7459 -0.57481,-0.42757 -1.16393,-1.09271 -1.79108,-1.75787 -0.62716,-0.66516 -1.29229,-1.33029 -1.49191,-1.92877 -0.19962,-0.59849 0.0664,-1.1306 0.5605,-1.74827 0.49406,-0.61767 1.2162,-1.32081 2.1189,-1.71052 0.90271,-0.38971 1.98593,-0.46572 2.60373,-0.1378 0.6178,0.32792 0.76983,1.05956 1.03583,1.52504 0.26599,0.46549 0.64606,0.66502 1.09732,0.72684 0.45126,0.0618 0.97385,-0.0142 1.45865,0.56549 0.48479,0.5797 0.93138,1.81494 1.12613,2.67971 0.19475,0.86477 0.13774,1.35887 -0.0952,1.76267 z"
         id="path1225-2"
         inkscape:path-effect="#path-effect1227-9"
         inkscape:original-d="m 438.14999,324.18751 c -0.40885,0.31383 -0.81744,0.6274 -1.22577,0.94071 -1.29258,-0.0662 -2.58482,-0.13277 -3.87687,-0.19955 -0.5609,-0.18978 -1.1215,-0.37982 -1.68187,-0.57013 -0.58941,-0.66489 -1.17853,-1.33003 -1.76739,-1.99544 -0.66543,-0.6649 -1.33056,-1.33003 -1.99545,-1.99544 0.2658,-0.53187 0.53186,-1.06398 0.79818,-1.59636 0.72191,-0.70291 1.44405,-1.40605 2.16648,-2.10947 1.083,-0.0757 2.16622,-0.15177 3.24972,-0.22805 0.15178,0.73194 0.30381,1.46358 0.45611,2.19499 0.37982,0.19982 0.75989,0.39935 1.14025,0.59864 0.52236,-0.0758 1.04495,-0.15178 1.56785,-0.22806 0.44635,1.23557 0.89293,2.47082 1.3398,3.70583 -0.0573,0.49438 -0.11429,0.98848 -0.17104,1.48233 z"
         sodipodi:nodetypes="cccccccccccccc" /><path
         style="fill:#000000;fill-opacity:1;stroke-width:0.264583"
         d="m 434.06885,329.38525 c -0.0332,-0.13293 -0.0997,-0.39898 -0.50849,-0.57013 -0.40876,-0.17114 -1.1594,-0.24716 -1.56309,-0.38485 -0.4037,-0.13769 -0.4607,-0.33721 -0.44651,-0.64598 0.0142,-0.30877 0.0997,-0.72683 -0.34213,-1.31614 -0.44184,-0.58931 -1.41103,-1.34947 -2.11416,-1.99559 -0.70314,-0.64612 -1.14023,-1.17822 -1.49194,-1.45381 -0.35172,-0.27558 -0.61777,-0.29458 -1.36846,0.28996 -0.75069,0.58453 -1.98594,1.77227 -4.05268,3.86277 -2.06673,2.0905 -4.96482,5.0836 -8.57143,8.54065 -3.6066,3.45705 -7.92143,7.37779 -10.25939,10.02337 -2.33796,2.64557 -2.69903,4.01567 -2.51793,5.12904 0.18111,1.11338 0.90426,1.97022 2.02127,3.17783 1.11701,1.2076 2.62781,2.76592 4.78007,4.96093 2.15225,2.19502 4.94582,5.02659 7.16458,7.19783 2.21875,2.17124 3.86258,3.68204 4.97426,4.52771 1.11168,0.84567 1.69129,1.02621 2.04773,1.26385 0.35645,0.23764 0.48947,0.5322 0.60825,0.83629 0.11877,0.30409 0.22329,0.61766 0.38475,0.83135 0.16146,0.21369 0.38001,0.32772 0.71725,0.37051 0.33724,0.0428 0.79333,0.0143 1.39196,-0.11869 0.59862,-0.13299 1.33977,-0.37054 1.86722,-0.79803 0.52744,-0.4275 0.841,-1.04512 0.94087,-1.76258 0.0999,-0.71747 -0.0141,-1.53464 -0.0949,-2.24254 -0.0808,-0.7079 -0.12828,-1.30653 -0.44189,-1.81504 -0.31361,-0.5085 -0.89322,-0.92658 -1.59651,-1.10234 -0.70328,-0.17576 -1.52995,-0.10925 -2.3803,-0.32309 -0.85034,-0.21384 -1.72452,-0.70794 -2.30412,-1.08325 -0.57959,-0.37532 -0.86465,-0.63187 -1.04042,-0.96433 -0.17576,-0.33246 -0.24228,-0.74105 -0.52267,-1.05475 -0.2804,-0.31371 -0.7745,-0.53225 -1.33035,-0.85532 -0.55584,-0.32307 -1.17347,-0.75066 -1.71981,-1.22574 -0.54635,-0.47509 -1.02144,-0.99769 -1.52929,-1.67324 -0.50785,-0.67555 -1.04844,-1.50405 -1.56631,-2.4115 -0.51787,-0.90745 -1.01298,-1.89382 -1.27481,-2.55323 -0.26182,-0.65941 -0.29032,-0.99198 -0.20015,-1.31977 0.0902,-0.3278 0.29921,-0.65086 0.56997,-0.82678 0.27077,-0.17593 0.60333,-0.20443 1.11177,-0.0857 0.50843,0.11874 1.19257,0.38479 2.40418,1.42532 1.21162,1.04053 2.95047,2.8554 4.40906,4.42802 1.45859,1.57262 2.63683,2.90289 3.29725,3.7629 0.66042,0.86001 0.80295,1.24959 0.86467,1.53948 0.0617,0.28989 0.0427,0.47993 0.11878,0.69361 0.0761,0.21367 0.24709,0.45122 0.54151,0.57472 0.29442,0.12349 0.71251,0.13299 1.12582,0.0523 0.41332,-0.0807 0.8219,-0.25173 1.14504,-0.54621 0.32315,-0.29448 0.5607,-0.71257 0.75077,-1.10691 0.19007,-0.39434 0.33259,-0.76491 0.58909,-1.13552 0.25649,-0.37062 0.62706,-0.74119 1.04038,-1.04056 0.41332,-0.29937 0.86942,-0.52742 1.31127,-0.69375 0.44185,-0.16633 0.86944,-0.27085 0.98364,-0.48465 0.11421,-0.2138 -0.0853,-0.53687 -0.49409,-0.68894 -0.40876,-0.15207 -1.02639,-0.13307 -1.56789,-0.31838 -0.5415,-0.18532 -1.00709,-0.57489 -1.56771,-1.10701 -0.56061,-0.53211 -1.21624,-1.20675 -1.65332,-1.73883 -0.43708,-0.53208 -0.65562,-0.92166 -0.85041,-1.33498 -0.1948,-0.41333 -0.36584,-0.85041 -0.49412,-1.24948 -0.12828,-0.39907 -0.2138,-0.76013 -0.55119,-1.12134 -0.33739,-0.3612 -0.92651,-0.72227 -1.60594,-1.07386 -0.67944,-0.35159 -1.44909,-0.69366 -2.18927,-1.26592 -0.74019,-0.57227 -1.45098,-1.37476 -2.01635,-2.09216 -0.56537,-0.71739 -0.98531,-1.34969 -1.11585,-1.82117 -0.13055,-0.47147 0.0285,-0.78235 0.27902,-1.18962 0.25054,-0.40727 0.5926,-0.91086 1.45377,-1.76269 0.86117,-0.85182 2.24144,-2.05174 3.43523,-3.20283 1.19378,-1.15109 2.20099,-2.25331 3.20821,-3.26531 1.00722,-1.01199 2.01443,-1.93369 3.10717,-2.83166 1.09275,-0.89798 2.27095,-1.77213 3.00738,-2.27579 0.73642,-0.50366 1.03098,-0.63669 1.24484,-0.81239 0.21386,-0.1757 0.34708,-0.39457 0.48011,-0.61312 0,0 10e-6,-10e-6 -0.0332,-0.13295 z"
         id="path1955-8"
         inkscape:path-effect="#path-effect1957-9"
         inkscape:original-d="m 434.10209,329.51819 c -0.0668,-0.26579 -0.13329,-0.53184 -0.19955,-0.79817 -0.75096,-0.0758 -1.50161,-0.15177 -2.252,-0.22805 -0.0573,-0.19929 -0.11429,-0.39882 -0.17104,-0.59864 0.0853,-0.41784 0.17078,-0.83591 0.25656,-1.25428 -0.9695,-0.75992 -1.93869,-1.52007 -2.90764,-2.28051 -0.43738,-0.53186 -0.87446,-1.06397 -1.3113,-1.59635 -0.26633,-0.0187 -0.53238,-0.0377 -0.79817,-0.057 -1.23557,1.18805 -2.47082,2.37579 -3.70583,3.56329 -2.89847,2.99349 -5.79655,5.9866 -8.69443,8.9795 -4.31532,3.92122 -8.63014,7.84196 -12.94491,11.76262 -0.36135,1.37042 -0.72242,2.74052 -1.08324,4.11042 0.72292,0.85714 1.44608,1.71398 2.16951,2.57057 1.5106,1.55864 3.0214,3.11696 4.5325,4.67504 2.79342,2.83195 5.58698,5.66353 8.38087,8.49488 1.64364,1.51113 3.28747,3.02194 4.9316,4.53251 0.57938,0.18081 1.15899,0.36134 1.73889,0.54162 0.13276,0.29484 0.26579,0.5894 0.39909,0.8837 0.10425,0.31384 0.20878,0.6274 0.31356,0.94071 0.21829,0.11429 0.43684,0.22831 0.65565,0.34207 0.45585,-0.0282 0.91194,-0.0567 1.36831,-0.0855 0.74091,-0.2373 1.48206,-0.47485 2.22349,-0.71267 0.31331,-0.61738 0.62687,-1.235 0.94071,-1.85291 -0.11429,-0.81693 -0.22832,-1.6341 -0.34208,-2.45154 -0.0478,-0.59838 -0.0953,-1.19701 -0.14253,-1.7959 -0.57991,-0.41784 -1.15952,-0.83592 -1.73888,-1.25428 -0.82697,0.0668 -1.65364,0.13329 -2.48006,0.19954 -0.87447,-0.49385 -1.74865,-0.98795 -2.62258,-1.48233 -0.28533,-0.2563 -0.57039,-0.51284 -0.85519,-0.76966 -0.0668,-0.40833 -0.1333,-0.81692 -0.19955,-1.22577 -0.49438,-0.21829 -0.98848,-0.43684 -1.48233,-0.65565 -0.61791,-0.42734 -1.23554,-0.85492 -1.85291,-1.28278 -0.47538,-0.52237 -0.95048,-1.04497 -1.42532,-1.56785 -0.54088,-0.82827 -1.08148,-1.65677 -1.62184,-2.48558 -0.49539,-0.98613 -0.9905,-1.9725 -1.48535,-2.95914 -0.0288,-0.33231 -0.0573,-0.66488 -0.0855,-0.99772 0.20879,-0.32282 0.41783,-0.64588 0.62714,-0.96921 0.33231,-0.0282 0.66487,-0.0568 0.9977,-0.0855 0.6839,0.26633 1.36804,0.53238 2.05246,0.79818 1.73866,1.8152 3.47751,3.63007 5.21666,5.44471 1.17802,1.33059 2.35626,2.66086 3.53479,3.99089 0.14227,0.38986 0.2848,0.77944 0.42759,1.16876 -0.0193,0.19031 -0.0383,0.38035 -0.057,0.57013 0.17078,0.23782 0.34181,0.47537 0.51312,0.71265 0.41783,0.01 0.83592,0.0193 1.25427,0.0285 0.40834,-0.17078 0.81692,-0.34181 1.22578,-0.51311 0.23729,-0.41784 0.47484,-0.83593 0.71265,-1.25428 0.14228,-0.37033 0.2848,-0.7409 0.4276,-1.11175 0.37033,-0.37033 0.7409,-0.7409 1.11175,-1.11175 0.45584,-0.22779 0.91194,-0.45584 1.3683,-0.68415 0.42734,-0.10426 0.85493,-0.20878 1.28279,-0.31357 -0.19982,-0.32281 -0.39936,-0.64588 -0.59864,-0.96922 -0.61791,0.0193 -1.23554,0.0383 -1.85291,0.057 -0.46588,-0.38933 -0.93147,-0.77891 -1.39681,-1.16876 -0.65592,-0.6744 -1.31155,-1.34904 -1.96694,-2.02396 -0.21882,-0.38932 -0.43736,-0.7789 -0.65564,-1.16876 -0.17131,-0.43684 -0.34234,-0.87393 -0.51312,-1.31129 -0.0858,-0.36082 -0.1713,-0.72189 -0.25655,-1.08324 -0.58941,-0.36082 -1.17853,-0.72189 -1.7674,-1.08324 -0.76995,-0.34182 -1.5396,-0.68389 -2.30901,-1.02623 -0.7111,-0.80226 -1.42189,-1.60475 -2.13245,-2.40754 -0.42021,-0.63205 -0.84014,-1.26435 -1.25981,-1.89691 0.15878,-0.31064 0.31781,-0.62152 0.47711,-0.93269 0.34182,-0.50336 0.68388,-1.00695 1.02623,-1.51084 1.38006,-1.19971 2.76034,-2.39962 4.1409,-3.59982 1.00698,-1.10201 2.01419,-2.20423 3.02167,-3.30674 1.00698,-0.92146 2.01419,-1.84315 3.02167,-2.76512 1.17803,-0.87395 2.35624,-1.7481 3.53479,-2.62258 0.29431,-0.13277 0.58887,-0.2658 0.8837,-0.39909 0.13276,-0.21828 0.39909,-0.65565 0.39909,-0.65565 z"
         sodipodi:nodetypes="cccccccccccccccccccccccccccccccccccccccccccccccccccccccccccccccccccccscc" /><path
         style="fill:#000000;fill-opacity:1;stroke-width:0.264583"
         d="m 427.36273,269.69579 c -2.22997,2.21559 -6.68966,6.6465 -9.78267,9.78269 -3.09302,3.13619 -4.81931,4.97757 -6.30111,6.34423 -1.4818,1.36665 -2.71898,2.25857 -3.69724,2.762 -0.97825,0.50343 -1.69754,0.61852 -2.31609,0.60408 -0.61855,-0.0144 -1.13643,-0.15829 -1.55354,-0.40283 -0.41711,-0.24454 -0.73359,-0.58979 -0.97815,-1.74058 -0.24457,-1.1508 -0.4172,-3.10727 -0.48914,-6.97716 -0.0719,-3.8699 -0.0432,-9.65299 0.0144,-13.98322 0.0575,-4.33023 0.14386,-7.20739 0.43147,-8.96249 0.28762,-1.75509 0.77674,-2.38807 1.25144,-2.8341 0.4747,-0.44603 0.93504,-0.70497 1.49612,-0.86329 0.56108,-0.15832 1.22282,-0.21587 6.9486,-0.2015 5.72577,0.0144 16.51511,0.10069 21.92443,0.1871 5.40932,0.0864 5.43809,0.17271 5.49562,0.56118 0.0575,0.38846 0.14384,1.07897 0.0143,1.8271 -0.12956,0.74814 -0.47482,1.55374 -1.26613,2.58952 -0.79131,1.03578 -2.02849,2.30173 -3.10747,3.29436 -1.07898,0.99263 -1.99967,1.71192 -2.57499,1.98512 -0.57532,0.2732 -0.80549,0.10057 -0.87741,-0.31647 -0.0719,-0.41705 0.0144,-1.07878 -0.0287,-1.63992 -0.0431,-0.56113 -0.21575,-1.02148 -0.54671,-1.36685 -0.33097,-0.34537 -0.82009,-0.57554 -1.99984,-0.6906 -1.17975,-0.11506 -3.04991,-0.11506 -6.517,-0.12944 -3.46709,-0.0144 -8.53078,-0.0432 -11.30736,0.1152 -2.77658,0.15836 -3.2657,0.50362 -3.51011,4.14338 -0.24442,3.63977 -0.24442,10.57373 -0.0431,14.12693 0.20135,3.5532 0.60416,3.72583 0.97811,3.76906 0.37395,0.0432 0.7192,-0.0431 1.38099,-0.51776 0.66179,-0.47467 1.64002,-1.33781 2.97795,-2.63257 1.33793,-1.29475 3.03545,-3.02105 4.21514,-4.33017 1.17968,-1.30913 1.84143,-2.20104 2.20117,-2.83404 0.35974,-0.63299 0.41728,-1.00702 0.31657,-1.28052 -0.10072,-0.27351 -0.35966,-0.44613 -0.77695,-0.56122 -0.41729,-0.11508 -0.99272,-0.17262 -1.59697,0.0433 -0.60425,0.21592 -1.23722,0.70503 -1.85581,1.26612 -0.6186,0.56108 -1.22279,1.19406 -1.89898,1.69752 -0.67618,0.50346 -1.42424,0.87749 -2.02833,0.90616 -0.60409,0.0287 -1.06443,-0.28781 -1.36649,-0.74806 -0.30206,-0.46024 -0.44592,-1.06445 -0.53225,-2.20093 -0.0863,-1.13648 -0.1151,-2.80523 -6e-5,-4.0568 0.11505,-1.25157 0.37399,-2.08595 0.60408,-2.5895 0.23008,-0.50355 0.43148,-0.67618 3.59649,-0.73384 3.16501,-0.0577 9.29335,-1.3e-4 12.38651,0.12944 3.09317,0.12957 3.15071,0.33096 3.23702,0.67624 0.0863,0.34529 0.20141,0.8344 0.15818,1.45307 -0.0432,0.61867 -0.24463,1.36673 -0.34529,1.74061 -0.10066,0.37388 -0.10067,0.37387 -2.33064,2.58945 z"
         id="path2685-3"
         inkscape:path-effect="#path-effect2687-2"
         inkscape:original-d="m 429.5927,267.48021 c -4.45994,4.43117 -8.91962,8.86209 -13.37904,13.29273 -1.72663,1.84172 -3.45292,3.6831 -5.17898,5.52425 -1.2375,0.89222 -2.47467,1.78414 -3.71161,2.67581 -0.71958,0.11535 -1.43887,0.23044 -2.15791,0.34527 -0.51818,-0.1436 -1.03606,-0.28746 -1.5537,-0.43159 -0.31676,-0.34501 -0.63325,-0.69026 -0.94948,-1.03579 -0.1729,-1.95628 -0.34553,-3.91275 -0.5179,-5.86952 0.0285,-5.78305 0.0573,-11.56614 0.0863,-17.3496 0.0861,-2.87701 0.17237,-5.75417 0.25895,-8.63164 0.48887,-0.63274 0.97799,-1.26572 1.46738,-1.89897 0.4601,-0.25869 0.92044,-0.51763 1.38106,-0.77684 0.66151,-0.0573 1.32325,-0.11483 1.98528,-0.17264 10.7895,0.0866 21.57884,0.1729 32.36866,0.25895 0.0285,0.0866 0.0573,0.1729 0.0863,0.25895 0.0861,0.69081 0.17236,1.38133 0.25895,2.0716 -0.34554,0.8059 -0.6908,1.6115 -1.0358,2.41686 -1.23749,1.26626 -2.47467,2.53221 -3.71161,3.79792 -0.92099,0.71958 -1.84168,1.43887 -2.76212,2.15791 -0.23045,-0.17237 -0.46062,-0.345 -0.69053,-0.5179 0.0861,-0.66151 0.17236,-1.32325 0.25894,-1.98528 -0.1729,-0.46009 -0.34553,-0.92044 -0.51789,-1.38106 -0.4894,-0.22992 -0.97852,-0.46009 -1.46738,-0.69053 -1.87049,2.6e-4 -3.74065,2.6e-4 -5.61056,0 -5.06427,-0.0285 -10.12796,-0.0573 -15.19169,-0.0863 -0.4894,0.34553 -0.97851,0.69079 -1.46738,1.03579 -2.7e-4,6.93448 -2.6e-4,13.86844 0,20.80226 0.40256,0.1729 0.80537,0.34553 1.20845,0.5179 0.345,-0.0861 0.69026,-0.17237 1.03579,-0.25895 0.97801,-0.86292 1.95624,-1.72607 2.93476,-2.58949 1.69733,-1.7261 3.39485,-3.4524 5.09267,-5.17899 0.66151,-0.89169 1.32325,-1.78361 1.98528,-2.67581 0.0573,-0.37378 0.11482,-0.74781 0.17263,-1.12211 -0.25922,-0.17237 -0.51816,-0.345 -0.77685,-0.5179 -0.57572,-0.0573 -1.15115,-0.11483 -1.72633,-0.17263 -0.63326,0.4894 -1.26623,0.97851 -1.89896,1.46737 -0.60449,0.63327 -1.20869,1.26624 -1.81264,1.89897 -0.74836,0.37431 -1.49642,0.74834 -2.24423,1.12211 -0.46063,-0.31624 -0.92097,-0.63272 -1.38106,-0.94948 -0.14413,-0.60396 -0.28799,-1.20817 -0.43158,-1.81265 -0.029,-1.66855 -0.0578,-3.3373 -0.0863,-5.00635 0.25869,-0.83414 0.51763,-1.66852 0.77685,-2.50318 0.20114,-0.17237 0.40254,-0.345 0.60421,-0.51789 6.12833,0.0578 12.25667,0.11535 18.3854,0.17263 0.0573,0.20167 0.11482,0.40307 0.17263,0.60421 0.11483,0.48941 0.22991,0.97852 0.34527,1.46738 -0.20168,0.74836 -0.40308,1.49642 -0.60422,2.24423 z"
         sodipodi:nodetypes="ccccccccccccccccccccccccccc" /><path
         id="path2689-6"
         style="fill:#000000;fill-opacity:1;stroke-width:0.264583"
         d="m 396.87698,255.74172 c 0.29472,-0.003 0.59136,0.0273 0.89349,0.0713 0.69057,0.10068 1.40965,0.27352 1.7694,0.41754 0.35975,0.14402 0.36018,0.25885 0.36018,0.31626 0,0.0574 -3.8e-4,0.0577 0.11473,0.66198 0.1151,0.60432 0.34547,1.81258 0.3886,3.56774 0.0431,1.75516 -0.10077,4.05714 -0.28783,5.58209 -0.18707,1.52494 -0.41729,2.27269 -0.74828,2.68975 -0.33099,0.41707 -0.76258,0.50326 -1.3379,0.30179 -0.57533,-0.20146 -1.29453,-0.69055 -2.4598,-1.61127 -1.16527,-0.92071 -2.77661,-2.27289 -3.66851,-3.17913 -0.8919,-0.90624 -1.06423,-1.36625 -1.10743,-2.05672 -0.0432,-0.69047 0.0428,-1.61125 0.54622,-2.50321 0.5034,-0.89196 1.42422,-1.75547 2.22984,-2.47478 0.80562,-0.71932 1.49631,-1.29441 2.17248,-1.56787 0.38034,-0.15382 0.7559,-0.21193 1.13481,-0.21549 z m 0.23461,4.00854 c -0.2003,-0.006 -0.38123,0.24219 -0.44855,0.56585 -0.0718,0.34524 -0.0145,0.77703 -0.23047,0.99271 -0.21595,0.21568 -0.70499,0.2153 -1.07901,0.38809 -0.37402,0.17278 -0.63274,0.51807 -0.64699,0.9064 -0.0143,0.38833 0.21571,0.82008 0.6041,1.25161 0.38839,0.43152 0.93485,0.8632 1.36633,1.079 0.43147,0.2158 0.74794,0.21577 0.97823,-0.24443 0.23029,-0.4602 0.37418,-1.38111 0.38861,-2.15801 0.0144,-0.7769 -0.10022,-1.4099 -0.27285,-1.89911 -0.17264,-0.4892 -0.40316,-0.83442 -0.61909,-0.87746 -0.0135,-0.003 -0.0269,-0.004 -0.0403,-0.005 z" /><path
         id="path2697-9"
         style="fill:#000000;fill-opacity:1;stroke-width:0.264583"
         d="m 398.03402,275.50175 c 0.0541,2.5e-4 0.10491,0.002 0.15348,0.006 0.38852,0.0287 0.61869,0.14397 0.92087,0.47491 0.30218,0.33093 0.67623,0.87761 0.90641,1.45314 0.23017,0.57553 0.31644,1.17954 0.34519,2.66133 0.0288,1.4818 3.3e-4,3.8411 -0.12919,5.45238 -0.12951,1.61129 -0.35986,2.47486 -0.4749,2.90629 -0.11505,0.43142 -0.1151,0.43142 -0.20154,0.53226 -0.0864,0.10085 -0.25875,0.302 -0.50333,0.40256 -0.24458,0.10057 -0.56101,0.1005 -1.13636,-0.1297 -0.57536,-0.23021 -1.40983,-0.69051 -2.48874,-1.59681 -1.07891,-0.90629 -2.40263,-2.25861 -3.23701,-3.20807 -0.83439,-0.94946 -1.17972,-1.49577 -1.35237,-1.97042 -0.17266,-0.47465 -0.17231,-0.87794 -0.1292,-1.22318 0.0431,-0.34525 0.12928,-0.63276 0.40256,-1.1219 0.27329,-0.48913 0.73376,-1.17964 1.69757,-1.97094 0.96382,-0.79129 2.43099,-1.68317 3.43804,-2.158 0.88117,-0.41548 1.40984,-0.51127 1.78852,-0.50953 z m -0.57981,3.46542 c -0.007,-2.4e-4 -0.0138,-3e-4 -0.0207,0 -0.21865,0.01 -0.3898,0.29488 -0.48473,0.59893 -0.0949,0.30406 -0.11385,0.62669 -0.17208,0.91106 -0.0582,0.28437 -0.15584,0.53021 -0.33486,0.72295 -0.17902,0.19275 -0.43956,0.33283 -0.67593,0.39998 -0.23636,0.0671 -0.44873,0.0614 -0.65939,0.0491 -0.21065,-0.0123 -0.43976,-0.17225 -0.54417,-0.0296 -0.1044,0.14267 -0.0844,0.58763 0.001,0.76801 0.0854,0.18038 0.25677,0.23754 0.4563,0.29456 0.19953,0.057 0.42749,0.11384 0.678,0.13901 0.25051,0.0252 0.76551,-0.16309 0.90761,9e-4 0.14209,0.16399 0.0928,0.76084 0.11727,1.15102 0.0245,0.39019 -0.24032,1.13847 0.3221,1.10006 l 0.65543,-0.0402 c 0.57665,-0.049 0.26607,-1.85315 0.33672,-2.77711 0.0707,-0.92395 0.0182,-1.85485 -0.10065,-2.53427 -0.10533,-0.60226 -0.58133,-0.40678 -0.52234,-0.61322 z"
         sodipodi:nodetypes="ssssssssssssssssssscssssssssssccccsssc" /><path
         style="fill:#000000;fill-opacity:1;stroke-width:0.264583"
         d="m 427.16713,383.67063 c -2.22998,-2.21558 -6.68966,-6.64649 -9.78268,-9.78268 -3.09302,-3.13619 -4.81931,-4.97756 -6.30111,-6.34422 -1.4818,-1.36666 -2.71898,-2.25858 -3.69724,-2.762 -0.97825,-0.50343 -1.69755,-0.61851 -2.31609,-0.60408 -0.61855,0.0144 -1.13643,0.15829 -1.55354,0.40283 -0.41711,0.24453 -0.7336,0.58979 -0.97816,1.74058 -0.24456,1.1508 -0.41719,3.10726 -0.48913,6.97716 -0.0719,3.8699 -0.0432,9.65298 0.0144,13.98321 0.0575,4.33023 0.14386,7.20739 0.43147,8.96249 0.28762,1.75509 0.77674,2.38807 1.25144,2.8341 0.4747,0.44603 0.93504,0.70497 1.49612,0.8633 0.56108,0.15832 1.22282,0.21586 6.9486,0.20149 5.72577,-0.0144 16.51511,-0.10069 21.92443,-0.1871 5.40932,-0.0864 5.43809,-0.17271 5.49562,-0.56118 0.0575,-0.38846 0.14384,-1.07897 0.0143,-1.8271 -0.12956,-0.74813 -0.47482,-1.55373 -1.26613,-2.58952 -0.79131,-1.03578 -2.02848,-2.30173 -3.10746,-3.29435 -1.07898,-0.99263 -1.99967,-1.71192 -2.57499,-1.98513 -0.57532,-0.2732 -0.8055,-0.10057 -0.87742,0.31647 -0.0719,0.41705 0.0144,1.07879 -0.0287,1.63992 -0.0431,0.56114 -0.21574,1.02148 -0.54671,1.36685 -0.33097,0.34537 -0.82009,0.57554 -1.99984,0.69061 -1.17975,0.11506 -3.0499,0.11506 -6.51699,0.12944 -3.4671,0.0144 -8.53079,0.0431 -11.30737,-0.1152 -2.77658,-0.15836 -3.26569,-0.50361 -3.51011,-4.14338 -0.24442,-3.63977 -0.24442,-10.57373 -0.0431,-14.12693 0.20135,-3.5532 0.60416,-3.72583 0.97811,-3.76906 0.37395,-0.0432 0.7192,0.0431 1.38099,0.51776 0.66178,0.47467 1.64002,1.33782 2.97795,2.63257 1.33793,1.29476 3.03545,3.02105 4.21514,4.33017 1.17968,1.30913 1.84143,2.20104 2.20117,2.83404 0.35974,0.63299 0.41728,1.00702 0.31657,1.28053 -0.10072,0.2735 -0.35966,0.44613 -0.77695,0.56121 -0.41729,0.11508 -0.99272,0.17263 -1.59697,-0.0433 -0.60425,-0.21592 -1.23722,-0.70504 -1.85581,-1.26613 -0.6186,-0.56108 -1.2228,-1.19405 -1.89898,-1.69752 -0.67618,-0.50346 -1.42424,-0.87749 -2.02833,-0.90616 -0.60409,-0.0287 -1.06444,0.28782 -1.36649,0.74807 -0.30206,0.46024 -0.44592,1.06444 -0.53225,2.20092 -0.0863,1.13648 -0.1151,2.80523 -6e-5,4.05681 0.11505,1.25157 0.37399,2.08594 0.60408,2.58949 0.23008,0.50355 0.43148,0.67618 3.59649,0.73385 3.16501,0.0577 9.29335,1.2e-4 12.38652,-0.12945 3.09316,-0.12956 3.1507,-0.33096 3.23702,-0.67624 0.0863,-0.34528 0.2014,-0.8344 0.15817,-1.45307 -0.0432,-0.61867 -0.24462,-1.36673 -0.34528,-1.74061 -0.10066,-0.37388 -0.10067,-0.37388 -2.33064,-2.58947 z"
         id="path2685-5-7"
         inkscape:path-effect="#path-effect2687-3-7"
         inkscape:original-d="m 429.3971,385.88622 c -4.45995,-4.43117 -8.91963,-8.86208 -13.37905,-13.29273 -1.72663,-1.84172 -3.45292,-3.68309 -5.17898,-5.52425 -1.2375,-0.89222 -2.47467,-1.78414 -3.71161,-2.6758 -0.71958,-0.11535 -1.43887,-0.23044 -2.15791,-0.34526 -0.51818,0.1436 -1.03606,0.28745 -1.5537,0.43157 -0.31676,0.34501 -0.63325,0.69027 -0.94948,1.0358 -0.1729,1.95628 -0.34553,3.91274 -0.5179,5.86951 0.0285,5.78306 0.0573,11.56614 0.0863,17.3496 0.0861,2.87701 0.17237,5.75417 0.25895,8.63165 0.48887,0.63273 0.97799,1.26571 1.46738,1.89896 0.4601,0.25869 0.92044,0.51763 1.38106,0.77685 0.66151,0.0573 1.32325,0.11482 1.98528,0.17263 10.7895,-0.0866 21.57884,-0.1729 32.36866,-0.25895 0.0285,-0.0866 0.0573,-0.1729 0.0863,-0.25895 0.0861,-0.69081 0.17237,-1.38133 0.25895,-2.07159 -0.34554,-0.8059 -0.69079,-1.61151 -1.0358,-2.41686 -1.23749,-1.26627 -2.47466,-2.53222 -3.7116,-3.79792 -0.92099,-0.71959 -1.84168,-1.43888 -2.76213,-2.15792 -0.23044,0.17238 -0.46062,0.34501 -0.69053,0.5179 0.0861,0.66151 0.17237,1.32326 0.25895,1.98528 -0.1729,0.4601 -0.34553,0.92044 -0.5179,1.38106 -0.4894,0.22992 -0.97852,0.46009 -1.46738,0.69054 -1.87049,-2.7e-4 -3.74064,-2.7e-4 -5.61056,0 -5.06427,0.0285 -10.12796,0.0573 -15.19169,0.0863 -0.4894,-0.34553 -0.97851,-0.69078 -1.46738,-1.03579 -2.7e-4,-6.93448 -2.6e-4,-13.86844 0,-20.80226 0.40256,-0.1729 0.80537,-0.34553 1.20845,-0.5179 0.345,0.0861 0.69026,0.17237 1.03579,0.25895 0.97801,0.86292 1.95624,1.72607 2.93476,2.5895 1.69733,1.7261 3.39485,3.45239 5.09267,5.17898 0.66151,0.89169 1.32325,1.78361 1.98528,2.67581 0.0573,0.37378 0.11482,0.74781 0.17263,1.12212 -0.25922,0.17237 -0.51816,0.345 -0.77685,0.51789 -0.57572,0.0573 -1.15115,0.11483 -1.72633,0.17264 -0.63326,-0.4894 -1.26623,-0.97852 -1.89896,-1.46738 -0.60449,-0.63327 -1.20869,-1.26624 -1.81264,-1.89896 -0.74836,-0.37431 -1.49642,-0.74834 -2.24423,-1.12212 -0.46063,0.31624 -0.92097,0.63273 -1.38106,0.94948 -0.14413,0.60397 -0.28799,1.20817 -0.43158,1.81265 -0.029,1.66855 -0.0578,3.3373 -0.0863,5.00635 0.25869,0.83415 0.51763,1.66852 0.77685,2.50318 0.20114,0.17237 0.40254,0.345 0.60421,0.5179 6.12833,-0.0578 12.25667,-0.11536 18.3854,-0.17264 0.0573,-0.20167 0.11483,-0.40307 0.17264,-0.60421 0.11482,-0.4894 0.22991,-0.97852 0.34526,-1.46738 -0.20167,-0.74836 -0.40307,-1.49642 -0.60421,-2.24423 z"
         sodipodi:nodetypes="ccccccccccccccccccccccccccc" /><path
         id="path2689-3-7"
         style="fill:#000000;fill-opacity:1;stroke-width:0.264583"
         d="m 396.68137,397.62472 c 0.29472,0.003 0.59136,-0.0273 0.89349,-0.0713 0.69057,-0.10069 1.40965,-0.27353 1.7694,-0.41755 0.35975,-0.14402 0.36018,-0.25885 0.36018,-0.31626 0,-0.0574 -3.8e-4,-0.0577 0.11473,-0.66197 0.1151,-0.60432 0.34547,-1.81259 0.3886,-3.56774 0.0431,-1.75517 -0.10077,-4.05715 -0.28783,-5.58209 -0.18707,-1.52495 -0.41729,-2.27269 -0.74828,-2.68976 -0.33099,-0.41707 -0.76258,-0.50325 -1.3379,-0.30179 -0.57533,0.20146 -1.29453,0.69056 -2.4598,1.61127 -1.16527,0.92071 -2.77661,2.27289 -3.66851,3.17913 -0.8919,0.90625 -1.06423,1.36625 -1.10743,2.05673 -0.0432,0.69047 0.0428,1.61124 0.54622,2.5032 0.5034,0.89196 1.42422,1.75547 2.22984,2.47479 0.80562,0.71931 1.49631,1.2944 2.17248,1.56786 0.38034,0.15382 0.7559,0.21193 1.13481,0.21549 z m 0.23461,-4.00854 c -0.2003,0.006 -0.38123,-0.2422 -0.44855,-0.56586 -0.0718,-0.34524 -0.0145,-0.77703 -0.23047,-0.99271 -0.21595,-0.21567 -0.70499,-0.2153 -1.07901,-0.38809 -0.37402,-0.17278 -0.63274,-0.51807 -0.64699,-0.9064 -0.0143,-0.38833 0.21571,-0.82008 0.6041,-1.2516 0.38839,-0.43153 0.93485,-0.8632 1.36633,-1.07901 0.43147,-0.2158 0.74794,-0.21577 0.97823,0.24443 0.23029,0.46021 0.37418,1.38111 0.38861,2.15801 0.0144,0.7769 -0.10022,1.4099 -0.27285,1.89911 -0.17264,0.4892 -0.40316,0.83442 -0.61909,0.87746 -0.0135,0.003 -0.0269,0.004 -0.0403,0.005 z" /><path
         id="path2697-8-8"
         style="fill:#000000;fill-opacity:1;stroke-width:0.264583"
         d="m 397.83841,377.86468 c 0.0541,-2.5e-4 0.10491,-0.002 0.15348,-0.006 0.38852,-0.0287 0.61869,-0.14397 0.92087,-0.4749 0.30218,-0.33094 0.67623,-0.87761 0.90641,-1.45315 0.23017,-0.57553 0.31644,-1.17954 0.34519,-2.66133 0.0288,-1.4818 3.3e-4,-3.8411 -0.12919,-5.45238 -0.12951,-1.61129 -0.35986,-2.47486 -0.4749,-2.90629 -0.11505,-0.43142 -0.1151,-0.43142 -0.20154,-0.53225 -0.0864,-0.10085 -0.25875,-0.302 -0.50333,-0.40256 -0.24458,-0.10056 -0.56101,-0.1005 -1.13636,0.12971 -0.57536,0.2302 -1.40983,0.69049 -2.48874,1.59679 -1.07891,0.9063 -2.40263,2.25861 -3.23701,3.20807 -0.83439,0.94946 -1.17972,1.49577 -1.35237,1.97042 -0.17266,0.47465 -0.17231,0.87794 -0.1292,1.22318 0.0431,0.34525 0.12928,0.63276 0.40256,1.1219 0.27329,0.48914 0.73376,1.17964 1.69757,1.97094 0.96382,0.7913 2.43099,1.68318 3.43804,2.15801 0.88117,0.41547 1.40984,0.51127 1.78852,0.50953 z m -0.57981,-3.46542 c -0.007,2.4e-4 -0.0138,3e-4 -0.0207,0 -0.21865,-0.01 -0.3898,-0.29487 -0.48473,-0.59893 -0.0949,-0.30406 -0.11385,-0.62669 -0.17208,-0.91105 -0.0582,-0.28437 -0.15584,-0.53021 -0.33486,-0.72296 -0.17902,-0.19274 -0.43956,-0.33283 -0.67593,-0.39997 -0.23636,-0.0671 -0.44873,-0.0614 -0.65939,-0.0491 -0.21065,0.0123 -0.43976,0.17224 -0.54417,0.0296 -0.1044,-0.14268 -0.0844,-0.58764 0.001,-0.76802 0.0854,-0.18038 0.25677,-0.23754 0.4563,-0.29455 0.19953,-0.057 0.42749,-0.11384 0.678,-0.13901 0.25051,-0.0252 0.76551,0.16308 0.90761,-9e-4 0.14209,-0.16399 0.0928,-0.76085 0.11727,-1.15103 0.0245,-0.39018 -0.24032,-1.13847 0.3221,-1.10006 l 0.65543,0.0402 c 0.57665,0.049 0.26607,1.85315 0.33672,2.77711 0.0707,0.92396 0.0182,1.85485 -0.10065,2.53427 -0.10533,0.60226 -0.58133,0.40679 -0.52234,0.61322 z"
         sodipodi:nodetypes="ssssssssssssssssssscssssssssssccccsssc" /><path
         style="fill:#000000;fill-opacity:1;stroke-width:0.264583"
         d="m 396.07462,284.22161 c -0.32337,0.0571 -0.64645,0.11408 -0.96921,0.17104"
         id="path3487-6"
         inkscape:path-effect="#path-effect3489-4"
         inkscape:original-d="m 396.07462,284.22161 c -0.32333,0.0573 -0.64641,0.11429 -0.96921,0.17104" /><path
         style="fill:#000000;fill-opacity:1;stroke-width:0.264583"
         d="m 512.77206,398.7124 c 58.67945,-0.58777 173.09591,-1.37144 230.43809,-2.05714 57.34218,-0.68569 57.60342,-1.27345 58.02793,-2.02452 0.42451,-0.75108 1.01232,-1.66547 1.60009,-2.57979 1.6327,-1.50208 3.26541,-3.00417 3.23283,-3.52665 -0.0326,-0.52249 -1.73053,-0.0653 -3.42853,0.13061 -1.698,0.19596 -3.39598,0.13065 -60.83567,0.71843 -57.43968,0.58778 -170.61476,1.82859 -229.26246,2.6776 -58.6477,0.84901 -62.76199,1.30616 -64.98256,1.11041 -2.22056,-0.19576 -2.54709,-1.04472 -2.35116,-0.42428 0.19592,0.62043 0.9143,2.71023 1.50211,4.17967 0.58781,1.46944 1.04495,2.31843 2.74302,2.54685 1.69807,0.22841 4.63687,-0.16343 63.31631,-0.75119 z"
         id="path5079"
         inkscape:path-effect="#path-effect5081"
         inkscape:original-d="m 457.03129,398.90834 c 114.42022,-0.78344 228.83668,-1.56712 343.25985,-2.35111 0.26151,-0.58752 0.52274,-1.17528 0.78372,-1.76331 0.58803,-0.91406 1.76331,-2.74297 1.76331,-2.74297 0,0 3.26566,-3.00389 4.89811,-4.50625 -1.69777,0.45743 -3.39572,0.91457 -5.09404,1.37147 -1.69778,-0.0651 -3.39576,-0.13036 -5.09403,-0.19593 -113.18109,1.24115 -226.35617,2.48196 -339.53732,3.72257 -4.11422,0.45743 -8.22851,0.91458 -12.34325,1.37148 -0.32628,-0.84875 -0.6528,-1.69772 -0.97962,-2.54701 0.71868,2.09017 1.43706,4.17996 2.15519,6.26956 0.45743,0.84929 0.91457,1.69828 1.37147,2.54705 2.93918,-0.39159 5.87798,-0.78343 8.81661,-1.17555 z"
         sodipodi:nodetypes="ccccccccccccc" /><path
         style="fill:#000000;fill-opacity:1;stroke-width:0.264583"
         d="m 513.13559,252.91212 c 58.68001,-0.52812 173.09069,-1.9202 230.43554,-2.32499 57.34486,-0.40478 57.61722,0.17791 58.05593,0.92077 0.43872,0.74286 1.04381,1.64591 1.64886,2.54889 1.66097,1.47077 3.32194,2.94153 3.29931,3.46454 -0.0226,0.52301 -1.72897,0.0982 -3.43039,-0.0654 -1.70143,-0.16364 -3.39786,-0.0661 -60.83834,0.43848 -57.44048,0.50454 -170.61869,1.41596 -229.27193,1.68228 -58.65324,0.26633 -62.77548,-0.1125 -64.99192,0.12544 -2.21643,0.23794 -2.52676,1.09296 -2.34267,0.46891 0.18409,-0.62405 0.8626,-2.72713 1.42237,-4.20749 0.55976,-1.48035 1.00068,-2.33788 2.6941,-2.59854 1.69342,-0.26066 4.63914,0.0752 63.31914,-0.4529 z"
         id="path5079-6"
         inkscape:path-effect="#path-effect5081-7"
         inkscape:original-d="m 457.40117,253.77612 c 114.41443,-1.39239 228.82511,-2.78447 343.2425,-4.17636 0.27263,0.58244 0.54499,1.16513 0.8171,1.74809 0.60531,0.90271 1.81515,2.70894 1.81515,2.70894 0,0 3.32219,2.94125 4.98291,4.4123 -1.70616,-0.42506 -3.41249,-0.84983 -5.1192,-1.27436 -1.69623,0.0974 -3.39266,0.19491 -5.08938,0.29276 -113.18423,0.9112 -226.36244,1.82262 -339.54672,2.73436 -4.12217,-0.37911 -8.24441,-0.75795 -12.36709,-1.13652 -0.31008,0.8548 -0.6204,1.70982 -0.93101,2.56517 0.6788,-2.10345 1.35731,-4.20653 2.03558,-6.3094 0.4412,-0.85784 0.88211,-1.71537 1.32279,-2.57267 2.9461,0.33563 5.89182,0.67152 8.83737,1.00769 z"
         sodipodi:nodetypes="ccccccccccccc" /></g></g></svg>
