<?xml version="1.0" encoding="UTF-8" standalone="no"?>
<!-- Created with Inkscape (http://www.inkscape.org/) -->

<svg
   width="77.225494mm"
   height="46.413414mm"
   viewBox="0 0 77.225495 46.413414"
   version="1.1"
   id="svg2179"
   xml:space="preserve"
   inkscape:export-filename="equipment_background.svg"
   inkscape:export-xdpi="96"
   inkscape:export-ydpi="96"
   sodipodi:docname="features and traits.svg"
   xmlns:inkscape="http://www.inkscape.org/namespaces/inkscape"
   xmlns:sodipodi="http://sodipodi.sourceforge.net/DTD/sodipodi-0.dtd"
   xmlns="http://www.w3.org/2000/svg"
   xmlns:svg="http://www.w3.org/2000/svg"><sodipodi:namedview
     id="namedview2181"
     pagecolor="#ffffff"
     bordercolor="#000000"
     borderopacity="0.25"
     inkscape:showpageshadow="2"
     inkscape:pageopacity="0.0"
     inkscape:pagecheckerboard="0"
     inkscape:deskcolor="#d1d1d1"
     inkscape:document-units="mm"
     showgrid="false"
     showguides="true" /><defs
     id="defs2176"><inkscape:path-effect
       effect="bspline"
       id="path-effect6055"
       is_visible="true"
       lpeversion="1"
       weight="33.333333"
       steps="2"
       helper_size="0"
       apply_no_weight="true"
       apply_with_weight="true"
       only_selected="false" /><inkscape:path-effect
       effect="bspline"
       id="path-effect2687-6-5"
       is_visible="true"
       lpeversion="1"
       weight="33.333333"
       steps="2"
       helper_size="0"
       apply_no_weight="true"
       apply_with_weight="true"
       only_selected="false" /><inkscape:path-effect
       effect="bspline"
       id="path-effect2687-6-7-1"
       is_visible="true"
       lpeversion="1"
       weight="33.333333"
       steps="2"
       helper_size="0"
       apply_no_weight="true"
       apply_with_weight="true"
       only_selected="false" /><inkscape:path-effect
       effect="bspline"
       id="path-effect2687-6-7-1-4"
       is_visible="true"
       lpeversion="1"
       weight="33.333333"
       steps="2"
       helper_size="0"
       apply_no_weight="true"
       apply_with_weight="true"
       only_selected="false" /><inkscape:path-effect
       effect="bspline"
       id="path-effect6055-4"
       is_visible="true"
       lpeversion="1"
       weight="33.333333"
       steps="2"
       helper_size="0"
       apply_no_weight="true"
       apply_with_weight="true"
       only_selected="false" /><inkscape:path-effect
       effect="bspline"
       id="path-effect2687-6-5-3"
       is_visible="true"
       lpeversion="1"
       weight="33.333333"
       steps="2"
       helper_size="0"
       apply_no_weight="true"
       apply_with_weight="true"
       only_selected="false" /><inkscape:path-effect
       effect="bspline"
       id="path-effect6055-4-5"
       is_visible="true"
       lpeversion="1"
       weight="33.333333"
       steps="2"
       helper_size="0"
       apply_no_weight="true"
       apply_with_weight="true"
       only_selected="false" /><inkscape:path-effect
       effect="bspline"
       id="path-effect6055-4-5-3"
       is_visible="true"
       lpeversion="1"
       weight="33.333333"
       steps="2"
       helper_size="0"
       apply_no_weight="true"
       apply_with_weight="true"
       only_selected="false" /></defs><g
     inkscape:label="Layer 1"
     inkscape:groupmode="layer"
     id="layer1"
     transform="translate(-240.64382,-73.304264)"><g
       id="g22859"><path
         style="fill:#000000;fill-opacity:1;stroke-width:0.0351956"
         d="m 312.72928,75.656817 c 0.29663,0.294722 0.88987,0.884135 1.30132,1.301321 0.41144,0.417187 0.64108,0.662135 0.83819,0.843932 0.19711,0.181797 0.36168,0.300441 0.49181,0.367408 0.13012,0.06697 0.22581,0.08228 0.30808,0.08036 0.0823,-0.0019 0.15119,-0.02106 0.20667,-0.05358 0.0555,-0.03252 0.0976,-0.07845 0.13011,-0.231539 0.0325,-0.153091 0.0555,-0.413349 0.0651,-0.928133 0.01,-0.514784 0.006,-1.284069 -0.002,-1.860089 -0.008,-0.576021 -0.0192,-0.958745 -0.0574,-1.192208 -0.0383,-0.233462 -0.10334,-0.317675 -0.16648,-0.377006 -0.0631,-0.05933 -0.12439,-0.09378 -0.19903,-0.11484 -0.0746,-0.02106 -0.16266,-0.02871 -0.92431,-0.0268 -0.76166,0.0019 -2.1969,0.0134 -2.91648,0.02492 -0.71957,0.01153 -0.72342,0.02306 -0.73105,0.07468 -0.008,0.05162 -0.0191,0.143474 -0.002,0.242999 0.0172,0.09952 0.0632,0.206679 0.16843,0.344462 0.10526,0.137782 0.26983,0.30618 0.41336,0.43822 0.14352,0.132041 0.266,0.227721 0.34251,0.264076 0.0765,0.03636 0.10718,0.01334 0.11672,-0.04212 0.01,-0.05547 -0.002,-0.143482 0.004,-0.218129 0.006,-0.07465 0.0287,-0.135889 0.0727,-0.181826 0.044,-0.04594 0.10908,-0.07655 0.26602,-0.09186 0.15693,-0.01531 0.40571,-0.01531 0.86691,-0.01722 0.4612,-0.0019 1.13479,-0.0057 1.50414,0.01532 0.36934,0.02106 0.43441,0.06699 0.46693,0.551166 0.0325,0.484171 0.0325,1.406548 0.006,1.879196 -0.0268,0.472647 -0.0804,0.495628 -0.13014,0.501375 -0.0498,0.0057 -0.0956,-0.0057 -0.18368,-0.06887 -0.0881,-0.06314 -0.21817,-0.17796 -0.39615,-0.350192 -0.17797,-0.172232 -0.40378,-0.40187 -0.56071,-0.576015 -0.15692,-0.174145 -0.24495,-0.292792 -0.29282,-0.37702 -0.0479,-0.08423 -0.0555,-0.133924 -0.0421,-0.170311 0.0134,-0.03639 0.0478,-0.05933 0.10334,-0.07464 0.0555,-0.01531 0.13206,-0.02296 0.21242,0.0058 0.0804,0.02871 0.16459,0.0938 0.24688,0.168433 0.0823,0.07464 0.16266,0.158839 0.25263,0.225821 0.09,0.06698 0.18944,0.11672 0.2698,0.120526 0.0804,0.0038 0.14159,-0.03828 0.18177,-0.09951 0.0402,-0.06123 0.0593,-0.141591 0.0708,-0.292772 0.0115,-0.15118 0.0153,-0.373163 2e-5,-0.539646 -0.0153,-0.166484 -0.0497,-0.277466 -0.0804,-0.344463 -0.0306,-0.067 -0.0574,-0.08992 -0.47841,-0.0976 -0.42104,-0.0077 -1.23624,-3.9e-5 -1.64771,0.01724 -0.41147,0.01728 -0.41908,0.04399 -0.43054,0.08991 -0.0115,0.04592 -0.0268,0.110986 -0.021,0.193276 0.006,0.08229 0.0326,0.181798 0.046,0.231537 0.0134,0.04974 0.0134,0.04973 0.31001,0.344456 z"
         id="path2685-7-3"
         sodipodi:nodetypes="ccccccccccccccccccccccccccc"
         inkscape:original-d="m 312.43264,75.362094 c 0.59327,0.589448 1.18651,1.178861 1.77972,1.768238 0.22968,0.244992 0.45932,0.489939 0.68892,0.734852 0.16462,0.118688 0.32919,0.237334 0.49373,0.355946 0.0957,0.01536 0.1914,0.03065 0.28705,0.04593 0.0689,-0.01911 0.13782,-0.03824 0.20668,-0.05741 0.0421,-0.04589 0.0842,-0.09182 0.1263,-0.137784 0.023,-0.260231 0.046,-0.520486 0.0689,-0.78078 -0.004,-0.769279 -0.008,-1.538563 -0.0115,-2.307896 -0.0115,-0.38271 -0.0229,-0.765437 -0.0345,-1.148208 -0.065,-0.08417 -0.13009,-0.168369 -0.19519,-0.252606 -0.0612,-0.03441 -0.12244,-0.06886 -0.18372,-0.103339 -0.088,-0.0076 -0.17602,-0.01528 -0.26408,-0.02296 -1.43525,0.01152 -2.87049,0.023 -4.30578,0.03445 -0.004,0.01152 -0.008,0.023 -0.0115,0.03445 -0.0115,0.09189 -0.0229,0.183749 -0.0344,0.27557 0.046,0.107203 0.0919,0.214367 0.13778,0.321498 0.16462,0.168442 0.32919,0.336842 0.49373,0.50521 0.12251,0.09572 0.24498,0.191403 0.36743,0.287052 0.0306,-0.02292 0.0613,-0.04589 0.0918,-0.06889 -0.0115,-0.088 -0.0229,-0.176024 -0.0344,-0.264089 0.023,-0.06121 0.046,-0.122441 0.0689,-0.183712 0.0651,-0.03059 0.13016,-0.06121 0.19519,-0.09186 0.24882,3.5e-5 0.4976,3.5e-5 0.74634,0 0.67366,-0.0038 1.34725,-0.0076 2.02084,-0.01148 0.0651,0.04596 0.13017,0.09189 0.1952,0.137785 3e-5,0.922443 3e-5,1.84482 0,2.767176 -0.0535,0.02301 -0.10714,0.04596 -0.16076,0.06889 -0.0459,-0.01146 -0.0918,-0.02292 -0.13778,-0.03445 -0.1301,-0.114788 -0.26022,-0.229605 -0.39039,-0.344462 -0.22578,-0.229609 -0.45159,-0.459248 -0.67744,-0.688923 -0.088,-0.118616 -0.17603,-0.237261 -0.26409,-0.355946 -0.008,-0.04972 -0.0153,-0.09947 -0.023,-0.149265 0.0345,-0.02292 0.0689,-0.04589 0.10334,-0.06889 0.0766,-0.0076 0.15313,-0.01527 0.22964,-0.02295 0.0842,0.0651 0.16844,0.130165 0.25261,0.195195 0.0804,0.08424 0.16078,0.168439 0.24112,0.252605 0.0996,0.04979 0.19906,0.09955 0.29853,0.149268 0.0613,-0.04207 0.12251,-0.08417 0.18372,-0.126304 0.0192,-0.08034 0.0383,-0.160712 0.0574,-0.241122 0.004,-0.221957 0.008,-0.443937 0.0115,-0.665959 -0.0344,-0.11096 -0.0688,-0.221954 -0.10333,-0.332983 -0.0268,-0.02292 -0.0535,-0.04589 -0.0804,-0.06889 -0.81521,0.0077 -1.63041,0.01533 -2.44568,0.02295 -0.008,0.02682 -0.0153,0.05362 -0.0229,0.08037 -0.0153,0.0651 -0.0306,0.130165 -0.0459,0.195195 0.0268,0.09955 0.0536,0.199059 0.0804,0.298533 z"
         inkscape:path-effect="#path-effect2687-6-5" /><path
         id="path2689-7-0"
         style="fill:#000000;fill-opacity:1;stroke-width:0.0351956"
         d="m 316.77053,73.674148 c -0.0392,-3.6e-4 -0.0787,0.0036 -0.11885,0.0095 -0.0919,0.01339 -0.18752,0.03639 -0.23538,0.05554 -0.0478,0.01916 -0.0479,0.03443 -0.0479,0.04207 0,0.0076 5e-5,0.0077 -0.0153,0.08806 -0.0153,0.08039 -0.046,0.241115 -0.0517,0.474593 -0.006,0.233475 0.0134,0.539691 0.0383,0.742544 0.0249,0.202853 0.0555,0.302321 0.0995,0.3578 0.044,0.05548 0.10144,0.06694 0.17797,0.04015 0.0765,-0.02679 0.1722,-0.09186 0.32721,-0.214336 0.15501,-0.122477 0.36935,-0.302349 0.488,-0.422899 0.11864,-0.120551 0.14156,-0.181741 0.14731,-0.273589 0.006,-0.09185 -0.006,-0.214334 -0.0727,-0.332986 -0.067,-0.118651 -0.18945,-0.233517 -0.29662,-0.329203 -0.10717,-0.09569 -0.19904,-0.172186 -0.28899,-0.208562 -0.0506,-0.02046 -0.10055,-0.02819 -0.15096,-0.02867 z m -0.0312,0.533227 c 0.0266,-9e-4 0.0507,0.03222 0.0597,0.07527 0.01,0.04593 0.002,0.103364 0.0307,0.132054 0.0287,0.02868 0.0938,0.02865 0.14353,0.05162 0.0498,0.02298 0.0842,0.06892 0.0861,0.120572 0.002,0.05166 -0.0287,0.109091 -0.0804,0.166493 -0.0517,0.0574 -0.12436,0.114826 -0.18176,0.143532 -0.0574,0.02871 -0.0995,0.02871 -0.13012,-0.03252 -0.0306,-0.06122 -0.0498,-0.183718 -0.0517,-0.287065 -0.002,-0.103343 0.0133,-0.187548 0.0363,-0.252623 0.0229,-0.06508 0.0536,-0.110999 0.0823,-0.116726 0.002,-3e-4 0.004,-6e-4 0.005,-6e-4 z" /><path
         id="path2697-87-5"
         style="fill:#000000;fill-opacity:1;stroke-width:0.0351956"
         d="m 316.63067,76.134077 c -0.007,3.3e-5 -0.0139,2.79e-4 -0.0204,6e-4 -0.0517,0.0038 -0.0823,0.01914 -0.12249,0.06317 -0.0402,0.04402 -0.09,0.116744 -0.12058,0.193302 -0.0306,0.07656 -0.0421,0.156906 -0.0459,0.354021 -0.004,0.197111 -4e-5,0.510952 0.0172,0.725292 0.0172,0.214337 0.0479,0.329212 0.0632,0.386601 0.0153,0.05739 0.0153,0.05739 0.0268,0.0708 0.0115,0.01341 0.0344,0.04017 0.067,0.05355 0.0325,0.01338 0.0746,0.01338 0.15116,-0.01725 0.0765,-0.03062 0.18754,-0.09185 0.33106,-0.212413 0.14352,-0.120557 0.3196,-0.300447 0.4306,-0.426748 0.11099,-0.126298 0.15692,-0.198972 0.17989,-0.262109 0.023,-0.06314 0.0229,-0.116786 0.0172,-0.162713 -0.006,-0.04592 -0.0172,-0.08417 -0.0536,-0.149238 -0.0363,-0.06507 -0.0976,-0.15692 -0.22582,-0.262181 -0.12821,-0.10526 -0.32337,-0.2239 -0.45733,-0.287064 -0.11722,-0.05527 -0.18755,-0.06801 -0.23792,-0.06778 z m 0.0771,0.460982 c 9e-4,-3.3e-5 0.002,-3.9e-5 0.003,0 0.0291,0.0012 0.0519,0.03922 0.0645,0.07967 0.0126,0.04045 0.0152,0.08336 0.0229,0.121189 0.008,0.03783 0.0207,0.07053 0.0445,0.09617 0.0238,0.02565 0.0585,0.04427 0.0899,0.0532 0.0314,0.0089 0.0597,0.0082 0.0877,0.0065 0.028,-0.0015 0.0585,-0.02292 0.0724,-0.0039 0.0139,0.01899 0.0112,0.07817 -1.4e-4,0.102165 -0.0114,0.024 -0.0342,0.0316 -0.0607,0.03918 -0.0265,0.0076 -0.0569,0.01515 -0.0902,0.01848 -0.0333,0.0034 -0.10182,-0.02169 -0.12073,1.17e-4 -0.0189,0.02181 -0.0123,0.101211 -0.0156,0.153114 -0.003,0.05191 0.032,0.151442 -0.0428,0.146334 l -0.0872,-0.0053 c -0.0767,-0.0065 -0.0354,-0.24651 -0.0448,-0.369418 -0.009,-0.122909 -0.002,-0.246738 0.0134,-0.337116 0.014,-0.08012 0.0773,-0.05411 0.0695,-0.08157 z"
         sodipodi:nodetypes="ssssssssssssssssssscssssssssssccccsssc" /></g><path
       style="fill:#000000;fill-opacity:1;stroke-width:0.0351956"
       d="m 245.52305,75.495724 c -0.29663,0.294723 -0.88987,0.884136 -1.30132,1.301322 -0.41144,0.417186 -0.64108,0.662135 -0.83819,0.843932 -0.19711,0.181797 -0.36168,0.300441 -0.49181,0.367407 -0.13012,0.06697 -0.22581,0.08228 -0.30808,0.08036 -0.0823,-0.0019 -0.15119,-0.02106 -0.20666,-0.05358 -0.0555,-0.03252 -0.0976,-0.07845 -0.13012,-0.231539 -0.0325,-0.153091 -0.0555,-0.413349 -0.0651,-0.928132 -0.01,-0.514784 -0.006,-1.28407 0.002,-1.860091 0.008,-0.576021 0.0191,-0.958746 0.0574,-1.192207 0.0382,-0.233461 0.10332,-0.317675 0.16646,-0.377006 0.0631,-0.05933 0.12439,-0.09378 0.19903,-0.114839 0.0746,-0.02106 0.16266,-0.02871 0.92431,-0.0268 0.76166,0.0019 2.1969,0.0134 2.91648,0.02492 0.71957,0.01153 0.72342,0.02306 0.73105,0.07468 0.008,0.05162 0.0191,0.143473 0.002,0.242999 -0.0172,0.09952 -0.0632,0.206679 -0.16843,0.344461 -0.10526,0.137782 -0.26983,0.306181 -0.41336,0.438222 -0.14352,0.132041 -0.26599,0.227723 -0.34254,0.264061 -0.0765,0.03634 -0.10716,0.01339 -0.11673,-0.04209 -0.01,-0.05548 0.002,-0.143491 -0.004,-0.218142 -0.006,-0.07465 -0.0287,-0.135893 -0.0727,-0.18183 -0.044,-0.04594 -0.10908,-0.07655 -0.26602,-0.09186 -0.15693,-0.01531 -0.4057,-0.01531 -0.8669,-0.01722 -0.46121,-0.0019 -1.1348,-0.0057 -1.50415,0.01532 -0.36934,0.02106 -0.43441,0.06699 -0.46693,0.551166 -0.0325,0.484172 -0.0325,1.406549 -0.006,1.879215 0.0268,0.472665 0.0804,0.49561 0.1301,0.501357 0.0498,0.0057 0.0956,-0.0057 0.18368,-0.06887 0.0881,-0.06314 0.21818,-0.177964 0.39615,-0.350194 0.17797,-0.17223 0.40378,-0.401868 0.56071,-0.576013 0.15692,-0.174144 0.24495,-0.292791 0.29282,-0.37702 0.0479,-0.08423 0.0555,-0.133923 0.0421,-0.17031 -0.0134,-0.03639 -0.0478,-0.05933 -0.10334,-0.07464 -0.0555,-0.01531 -0.13206,-0.02296 -0.21242,0.0058 -0.0804,0.02872 -0.16459,0.0938 -0.24687,0.168433 -0.0823,0.07463 -0.16267,0.158841 -0.2526,0.225803 -0.0899,0.06696 -0.18948,0.116739 -0.26984,0.120544 -0.0804,0.0038 -0.14158,-0.03828 -0.18176,-0.09951 -0.0402,-0.06123 -0.0593,-0.14159 -0.0708,-0.29277 -0.0115,-0.15118 -0.0153,-0.373163 -2e-5,-0.539647 0.0153,-0.166484 0.0497,-0.277465 0.0804,-0.344462 0.0306,-0.067 0.0574,-0.08991 0.47841,-0.0976 0.42104,-0.0077 1.23625,-3.9e-5 1.64773,0.01724 0.41148,0.01728 0.41912,0.04398 0.4306,0.08991 0.0115,0.04593 0.0268,0.110995 0.021,0.193285 -0.006,0.08229 -0.0326,0.181798 -0.046,0.231536 -0.0134,0.04974 -0.0134,0.04973 -0.31003,0.344453 z"
       id="path2685-7-4-4"
       sodipodi:nodetypes="ccccccccccccccccccccccccccc"
       inkscape:original-d="m 245.81969,75.201001 c -0.59327,0.589449 -1.18651,1.178862 -1.77972,1.768238 -0.22968,0.244992 -0.45932,0.489939 -0.68892,0.734853 -0.16462,0.118688 -0.32919,0.237333 -0.49373,0.355946 -0.0957,0.01536 -0.1914,0.03065 -0.28705,0.04593 -0.0689,-0.01911 -0.13782,-0.03824 -0.20668,-0.05741 -0.0421,-0.04589 -0.0842,-0.09182 -0.1263,-0.137785 -0.023,-0.260231 -0.046,-0.520486 -0.0689,-0.78078 0.004,-0.769278 0.008,-1.538563 0.0115,-2.307895 0.0115,-0.382711 0.0229,-0.765438 0.0344,-1.148208 0.065,-0.08417 0.13009,-0.16837 0.19519,-0.252606 0.0612,-0.03441 0.12244,-0.06886 0.18372,-0.103339 0.088,-0.0076 0.17602,-0.01528 0.26409,-0.02296 1.43524,0.01152 2.87048,0.023 4.30577,0.03445 0.004,0.01152 0.008,0.023 0.0115,0.03445 0.0115,0.09189 0.0229,0.183748 0.0344,0.275569 -0.046,0.107204 -0.0919,0.214368 -0.13778,0.321498 -0.16462,0.168443 -0.32919,0.336843 -0.49373,0.505211 -0.12251,0.09572 -0.24498,0.191403 -0.36742,0.287052 -0.0307,-0.02292 -0.0613,-0.04589 -0.0919,-0.06889 0.0115,-0.088 0.0229,-0.176023 0.0345,-0.264089 -0.023,-0.06121 -0.046,-0.12244 -0.0689,-0.183711 -0.0651,-0.03059 -0.13016,-0.06121 -0.19519,-0.09186 -0.24882,3.6e-5 -0.49759,3.6e-5 -0.74634,0 -0.67366,-0.0038 -1.34725,-0.0076 -2.02084,-0.01148 -0.0651,0.04596 -0.13017,0.09189 -0.1952,0.137786 -3e-5,0.922443 -3e-5,1.84482 0,2.767176 0.0536,0.02301 0.10714,0.04596 0.16076,0.06889 0.0459,-0.01146 0.0918,-0.02292 0.13778,-0.03445 0.1301,-0.114788 0.26023,-0.229606 0.39039,-0.344463 0.22578,-0.229609 0.45159,-0.459248 0.67744,-0.688922 0.088,-0.118616 0.17603,-0.237262 0.26409,-0.355946 0.008,-0.04972 0.0153,-0.09947 0.023,-0.149265 -0.0345,-0.02292 -0.0689,-0.04589 -0.10334,-0.06889 -0.0766,-0.0076 -0.15313,-0.01527 -0.22964,-0.02295 -0.0842,0.0651 -0.16844,0.130165 -0.2526,0.195195 -0.0804,0.08424 -0.16079,0.16844 -0.24113,0.252606 -0.0995,0.04979 -0.19906,0.09955 -0.29853,0.149268 -0.0613,-0.04207 -0.12251,-0.08417 -0.18371,-0.126305 -0.0192,-0.08034 -0.0383,-0.160712 -0.0574,-0.241122 -0.004,-0.221956 -0.008,-0.443936 -0.0115,-0.665959 0.0344,-0.11096 0.0688,-0.221953 0.10333,-0.332982 0.0268,-0.02292 0.0535,-0.04589 0.0804,-0.06889 0.81521,0.0077 1.63042,0.01533 2.44568,0.02295 0.008,0.02682 0.0153,0.05362 0.023,0.08037 0.0153,0.0651 0.0306,0.130165 0.0459,0.195195 -0.0268,0.09955 -0.0536,0.199058 -0.0804,0.298532 z"
       inkscape:path-effect="#path-effect2687-6-7-1" /><path
       id="path2689-7-3-2"
       style="fill:#000000;fill-opacity:1;stroke-width:0.0351956"
       d="m 241.46775,73.639512 c 0.0392,-3.6e-4 0.0787,0.0036 0.11885,0.0095 0.0919,0.0134 0.18752,0.03639 0.23538,0.05554 0.0479,0.01916 0.0479,0.03443 0.0479,0.04207 0,0.0076 -5e-5,0.0077 0.0153,0.08806 0.0153,0.08039 0.046,0.241115 0.0517,0.474593 0.006,0.233476 -0.0134,0.539691 -0.0383,0.742544 -0.0249,0.202854 -0.0555,0.302322 -0.0995,0.3578 -0.044,0.05548 -0.10144,0.06694 -0.17797,0.04015 -0.0765,-0.02679 -0.1722,-0.09186 -0.32721,-0.214337 -0.15501,-0.122476 -0.36935,-0.302348 -0.488,-0.422899 -0.11864,-0.12055 -0.14156,-0.181741 -0.14731,-0.273589 -0.006,-0.09185 0.006,-0.214334 0.0727,-0.332985 0.067,-0.118652 0.18945,-0.233518 0.29662,-0.329204 0.10717,-0.09569 0.19904,-0.172185 0.28899,-0.208562 0.0506,-0.02046 0.10055,-0.02819 0.15096,-0.02867 z m 0.0312,0.533228 c -0.0266,-9e-4 -0.0507,0.03222 -0.0597,0.07527 -0.01,0.04593 -0.002,0.103365 -0.0307,0.132055 -0.0287,0.02868 -0.0938,0.02865 -0.14353,0.05162 -0.0498,0.02298 -0.0842,0.06891 -0.0861,0.120571 -0.002,0.05166 0.0287,0.109091 0.0804,0.166493 0.0517,0.0574 0.12436,0.114827 0.18176,0.143532 0.0574,0.02871 0.0995,0.02871 0.13012,-0.03252 0.0306,-0.06122 0.0498,-0.183718 0.0517,-0.287064 0.002,-0.103344 -0.0133,-0.187549 -0.0363,-0.252624 -0.023,-0.06508 -0.0536,-0.110999 -0.0823,-0.116725 -0.002,-3e-4 -0.004,-6e-4 -0.005,-6e-4 z" /><path
       id="path2697-87-1-4"
       style="fill:#000000;fill-opacity:1;stroke-width:0.0351956"
       d="m 241.62166,76.26805 c 0.007,3.3e-5 0.014,2.79e-4 0.0204,6e-4 0.0517,0.0038 0.0823,0.01914 0.1225,0.06317 0.0402,0.04402 0.09,0.116743 0.12057,0.193302 0.0306,0.07656 0.0421,0.156905 0.0459,0.35402 0.004,0.197112 4e-5,0.510952 -0.0172,0.725292 -0.0172,0.214337 -0.0479,0.329212 -0.0632,0.386601 -0.0153,0.05739 -0.0153,0.05739 -0.0268,0.0708 -0.0115,0.01341 -0.0344,0.04017 -0.0669,0.05355 -0.0325,0.01338 -0.0746,0.01338 -0.15117,-0.01725 -0.0765,-0.03062 -0.18754,-0.09185 -0.33106,-0.212414 -0.14352,-0.120557 -0.3196,-0.300447 -0.43059,-0.426748 -0.111,-0.126298 -0.15693,-0.198972 -0.1799,-0.262109 -0.023,-0.06314 -0.0229,-0.116786 -0.0172,-0.162713 0.006,-0.04592 0.0172,-0.08417 0.0536,-0.149238 0.0363,-0.06507 0.0976,-0.15692 0.22582,-0.26218 0.12821,-0.105261 0.32337,-0.223901 0.45733,-0.287065 0.11722,-0.05527 0.18755,-0.06801 0.23792,-0.06778 z m -0.0771,0.460982 c -9e-4,-3.3e-5 -0.002,-3.9e-5 -0.003,0 -0.0291,0.0012 -0.0519,0.03923 -0.0645,0.07967 -0.0126,0.04045 -0.0152,0.08336 -0.0229,0.12119 -0.008,0.03783 -0.0207,0.07053 -0.0445,0.09617 -0.0238,0.02565 -0.0585,0.04427 -0.0899,0.0532 -0.0314,0.0089 -0.0597,0.0082 -0.0877,0.0065 -0.028,-0.0015 -0.0585,-0.02292 -0.0724,-0.0039 -0.0139,0.01899 -0.0112,0.07817 1.4e-4,0.102165 0.0114,0.024 0.0341,0.0316 0.0607,0.03918 0.0265,0.0076 0.0569,0.01515 0.0902,0.01848 0.0333,0.0034 0.10183,-0.02169 0.12073,1.17e-4 0.0189,0.02181 0.0123,0.101211 0.0156,0.153114 0.003,0.05191 -0.032,0.151443 0.0428,0.146334 l 0.0872,-0.0053 c 0.0767,-0.0065 0.0354,-0.246509 0.0448,-0.369418 0.009,-0.122908 0.002,-0.246738 -0.0134,-0.337116 -0.014,-0.08012 -0.0773,-0.05411 -0.0695,-0.08157 z"
       sodipodi:nodetypes="ssssssssssssssssssscssssssssssccccsssc" /><path
       style="fill:#000000;fill-opacity:1;stroke-width:0.170394"
       d="m 277.57491,73.609664 c 9.82982,-0.02076 19.65928,-0.04151 24.96504,-0.03915 5.30575,0.0024 6.08516,0.02775 6.59525,0.13111 0.51008,0.103355 0.7487,0.284316 0.96817,0.437715 0.21946,0.153398 0.41936,0.278949 0.54323,0.365117 0.12387,0.08617 0.1715,0.132668 0.16275,0.159564 -0.009,0.0269 -0.074,0.03401 -0.13934,0.04112 -0.0782,0.0085 -0.15625,0.0169 -0.33893,0.0082 -0.18268,-0.0087 -0.46927,-0.03465 -1.26368,-0.06105 -0.79442,-0.0264 -2.09622,-0.05322 -7.02379,-0.105122 -4.92758,-0.0519 -13.47719,-0.128844 -22.08192,-0.154353 -8.60473,-0.02551 -17.26198,4.37e-4 -22.39205,0.02638 -5.13006,0.02594 -6.7324,0.05189 -7.72492,0.0882 -0.99252,0.03631 -1.37542,0.08304 -1.65045,0.11936 -0.27503,0.03632 -0.44245,0.06227 -0.65394,0.07165 -0.21149,0.0094 -0.46669,0.0022 -0.43508,-0.110966 0.0316,-0.113144 0.34979,-0.331467 0.65937,-0.549868 0.30959,-0.218401 0.60943,-0.436075 0.83546,-0.54513 0.22602,-0.109054 0.37724,-0.109054 5.05072,-0.07911 4.67347,0.02994 13.86839,0.08981 23.06314,0.149687"
       id="path6053"
       inkscape:path-effect="#path-effect6055"
       inkscape:original-d="m 277.57491,73.609664 c 9.82982,-0.02068 19.65928,-0.04143 29.48837,-0.06227 0.78242,0.02556 1.56183,0.05095 2.34298,0.07632 0.23903,0.181256 0.47765,0.362216 0.71646,0.543339 0.20011,0.12569 0.40001,0.251238 0.59969,0.376648 0.0482,0.04678 0.0957,0.09341 0.1435,0.140106 -0.0653,0.0072 -0.1959,0.02133 -0.1959,0.02133 0,0 -0.15624,0.01699 -0.23459,0.02537 -0.28703,-0.02588 -0.57361,-0.05181 -0.86095,-0.07784 -1.30149,-0.02674 -2.60329,-0.05356 -3.90545,-0.08047 -8.55299,-0.07689 -17.1026,-0.153836 -25.65469,-0.230879 -8.65737,0.02603 -17.31462,0.05197 -25.97272,0.07784 -1.60203,0.02603 -3.20437,0.05197 -4.8071,0.07784 -0.3823,0.04678 -0.7652,0.09348 -1.14797,0.140106 -0.16729,0.02602 -0.33471,0.05197 -0.50224,0.07784 -0.25546,-0.0071 -0.51066,-0.01433 -0.76672,-0.02163 0.31934,-0.218963 0.63753,-0.437281 0.95628,-0.656147 0.30043,-0.217933 0.60027,-0.435608 0.90063,-0.653826 0.15161,8e-5 0.30283,8e-5 0.45407,0 9.19571,0.05996 18.39063,0.119832 27.58538,0.179627"
       sodipodi:nodetypes="cccccccccccccccccccc" /><g
       id="g22813"><path
         style="fill:#000000;fill-opacity:1;stroke-width:0.0351956"
         d="m 312.98999,117.36504 c 0.29664,-0.29472 0.88988,-0.88413 1.30132,-1.30132 0.41145,-0.41718 0.64108,-0.66213 0.83819,-0.84392 0.19712,-0.1818 0.36169,-0.30045 0.49182,-0.36741 0.13013,-0.067 0.22582,-0.0823 0.30809,-0.0803 0.0823,0.002 0.15117,0.0211 0.20665,0.0536 0.0555,0.0325 0.0976,0.0784 0.13012,0.23153 0.0325,0.15309 0.0555,0.41336 0.0651,0.92814 0.01,0.51478 0.006,1.28406 -0.002,1.86009 -0.008,0.57602 -0.0191,0.95874 -0.0574,1.19221 -0.0383,0.23347 -0.10331,0.31767 -0.16645,0.377 -0.0631,0.0593 -0.1244,0.0938 -0.19904,0.11485 -0.0746,0.0211 -0.16264,0.0287 -0.9243,0.0268 -0.76166,-0.002 -2.19689,-0.0134 -2.91647,-0.0249 -0.71958,-0.0115 -0.72344,-0.0231 -0.73107,-0.0747 -0.008,-0.0516 -0.0191,-0.14345 -0.002,-0.24297 0.0172,-0.0995 0.0632,-0.20668 0.16843,-0.34446 0.10526,-0.13779 0.26983,-0.30618 0.41336,-0.43822 0.14352,-0.13204 0.26601,-0.22773 0.34255,-0.26407 0.0765,-0.0363 0.10716,-0.0134 0.11673,0.0421 0.01,0.0555 -0.002,0.14349 0.004,0.21813 0.006,0.0746 0.0287,0.13591 0.0727,0.18183 0.044,0.0459 0.1091,0.0765 0.26603,0.0918 0.15693,0.0153 0.4057,0.0153 0.8669,0.0172 0.4612,0.002 1.13479,0.006 1.50415,-0.0153 0.36935,-0.0211 0.43441,-0.067 0.46692,-0.55115 0.0325,-0.48417 0.0325,-1.40655 0.006,-1.87922 -0.0268,-0.47267 -0.0804,-0.49562 -0.13011,-0.50136 -0.0497,-0.006 -0.0956,0.006 -0.18367,0.0689 -0.0881,0.0632 -0.21818,0.17797 -0.39615,0.35021 -0.17798,0.17223 -0.40379,0.40187 -0.56072,0.57601 -0.15692,0.17415 -0.24495,0.29279 -0.2928,0.37701 -0.0478,0.0842 -0.0555,0.13398 -0.0421,0.17034 0.0134,0.0364 0.0478,0.0593 0.1034,0.0746 0.0556,0.0153 0.13203,0.0229 0.2124,-0.006 0.0804,-0.0287 0.16458,-0.0938 0.24686,-0.16843 0.0823,-0.0746 0.16267,-0.15885 0.25264,-0.22583 0.09,-0.067 0.18942,-0.11671 0.26981,-0.12051 0.0804,-0.004 0.1416,0.0383 0.18176,0.0995 0.0402,0.0612 0.0593,0.1416 0.0708,0.29278 0.0115,0.15118 0.0153,0.37317 2e-5,0.53965 -0.0153,0.16648 -0.0497,0.27749 -0.0804,0.34447 -0.0306,0.067 -0.0574,0.0899 -0.47841,0.0976 -0.42104,0.008 -1.23625,6e-5 -1.64771,-0.0172 -0.41146,-0.0173 -0.41907,-0.044 -0.43054,-0.0899 -0.0115,-0.046 -0.0268,-0.11101 -0.021,-0.19327 0.006,-0.0823 0.0326,-0.18183 0.046,-0.23157 0.0134,-0.0497 0.0132,-0.0498 0.30981,-0.34452 z"
         id="path2685-7-3-1"
         sodipodi:nodetypes="ccccccccccccccccccccccccccc"
         inkscape:original-d="m 312.69335,117.65977 c 0.59328,-0.58945 1.18652,-1.17886 1.77972,-1.76824 0.22969,-0.24499 0.45932,-0.48994 0.68893,-0.73485 0.16461,-0.11869 0.32919,-0.23733 0.49373,-0.35595 0.0957,-0.0154 0.1914,-0.0307 0.28705,-0.0459 0.0689,0.0191 0.13782,0.0382 0.20668,0.0574 0.0421,0.0459 0.0842,0.0918 0.1263,0.13778 0.023,0.26023 0.046,0.52049 0.0689,0.78078 -0.004,0.76928 -0.008,1.53856 -0.0115,2.3079 -0.0115,0.38271 -0.0229,0.76543 -0.0344,1.1482 -0.065,0.0842 -0.13009,0.16837 -0.19519,0.25261 -0.0612,0.0344 -0.12244,0.0689 -0.18371,0.10334 -0.088,0.008 -0.17602,0.0153 -0.26409,0.023 -1.43525,-0.0115 -2.87048,-0.023 -4.30578,-0.0345 -0.004,-0.0115 -0.008,-0.023 -0.0115,-0.0344 -0.0114,-0.0919 -0.0229,-0.18374 -0.0344,-0.27557 0.046,-0.1072 0.0919,-0.21436 0.13779,-0.32149 0.16461,-0.16845 0.32918,-0.33684 0.49372,-0.50521 0.12252,-0.0957 0.24499,-0.19141 0.36743,-0.28705 0.0307,0.0229 0.0613,0.0459 0.0919,0.0689 -0.0115,0.088 -0.0229,0.17602 -0.0345,0.26408 0.023,0.0612 0.046,0.12245 0.0689,0.18372 0.0651,0.0306 0.13017,0.0612 0.1952,0.0918 0.24882,-3e-5 0.49759,-3e-5 0.74633,0 0.67366,0.004 1.34725,0.008 2.02084,0.0115 0.0651,-0.046 0.13017,-0.0919 0.1952,-0.13778 4e-5,-0.92244 4e-5,-1.84482 0,-2.76718 -0.0536,-0.023 -0.10713,-0.046 -0.16075,-0.0689 -0.0459,0.0115 -0.0918,0.0229 -0.13779,0.0345 -0.13009,0.11478 -0.26022,0.2296 -0.39039,0.34446 -0.22578,0.22961 -0.45159,0.45925 -0.67744,0.68892 -0.088,0.11862 -0.17602,0.23726 -0.26409,0.35595 -0.008,0.0497 -0.0153,0.0995 -0.0229,0.14926 0.0345,0.0229 0.0689,0.0459 0.10335,0.0689 0.0766,0.008 0.15312,0.0153 0.22964,0.0229 0.0842,-0.0651 0.16843,-0.13016 0.2526,-0.19519 0.0804,-0.0842 0.16078,-0.16844 0.24112,-0.25261 0.0996,-0.0498 0.19906,-0.0995 0.29854,-0.14926 0.0613,0.0421 0.12251,0.0842 0.18371,0.1263 0.0192,0.0803 0.0383,0.16071 0.0574,0.24112 0.004,0.22196 0.008,0.44394 0.0115,0.66596 -0.0344,0.11096 -0.0689,0.22195 -0.10334,0.33298 -0.0268,0.0229 -0.0535,0.0459 -0.0804,0.0689 -0.81521,-0.008 -1.63042,-0.0153 -2.44568,-0.0229 -0.008,-0.0268 -0.0153,-0.0536 -0.0229,-0.0804 -0.0153,-0.0651 -0.0306,-0.13016 -0.0459,-0.19519 0.0268,-0.0995 0.0536,-0.19906 0.0804,-0.29854 z"
         inkscape:path-effect="#path-effect2687-6-5-3" /><path
         id="path2689-7-0-2"
         style="fill:#000000;fill-opacity:1;stroke-width:0.0351956"
         d="m 317.03125,119.34772 c -0.0392,3e-4 -0.0787,-0.004 -0.11886,-0.009 -0.0919,-0.0134 -0.18752,-0.0364 -0.23537,-0.0555 -0.0478,-0.0192 -0.0479,-0.0344 -0.0479,-0.0421 0,-0.008 5e-5,-0.008 -0.0153,-0.0881 -0.0153,-0.0804 -0.046,-0.24112 -0.0517,-0.4746 -0.006,-0.23348 0.0134,-0.53969 0.0383,-0.74254 0.0249,-0.20286 0.0555,-0.30233 0.0995,-0.3578 0.044,-0.0555 0.10144,-0.067 0.17797,-0.0401 0.0765,0.0268 0.1722,0.0919 0.32721,0.21434 0.15501,0.12247 0.36936,0.30234 0.488,0.4229 0.11864,0.12055 0.14157,0.18174 0.14731,0.27358 0.006,0.0919 -0.006,0.21434 -0.0727,0.33299 -0.067,0.11865 -0.18945,0.23352 -0.29662,0.32921 -0.10716,0.0957 -0.19904,0.17218 -0.28899,0.20856 -0.0506,0.0205 -0.10055,0.0282 -0.15095,0.0287 z m -0.0312,-0.53323 c 0.0266,9e-4 0.0507,-0.0322 0.0597,-0.0753 0.01,-0.0459 0.002,-0.10336 0.0306,-0.13205 0.0287,-0.0287 0.0938,-0.0286 0.14354,-0.0516 0.0497,-0.023 0.0842,-0.0689 0.0861,-0.12058 0.002,-0.0517 -0.0287,-0.10909 -0.0804,-0.16649 -0.0517,-0.0574 -0.12435,-0.11483 -0.18175,-0.14353 -0.0574,-0.0287 -0.0995,-0.0287 -0.13013,0.0325 -0.0306,0.0612 -0.0498,0.18372 -0.0517,0.28707 -0.002,0.10334 0.0133,0.18755 0.0363,0.25262 0.023,0.0651 0.0536,0.111 0.0824,0.11673 0.002,3e-4 0.004,6e-4 0.005,6e-4 z" /><path
         id="path2697-87-5-2"
         style="fill:#000000;fill-opacity:1;stroke-width:0.0351956"
         d="m 316.89138,116.88779 c -0.007,-4e-5 -0.0139,-2.8e-4 -0.0204,-6e-4 -0.0517,-0.004 -0.0823,-0.0191 -0.12249,-0.0632 -0.0402,-0.044 -0.09,-0.11674 -0.12058,-0.1933 -0.0306,-0.0766 -0.0421,-0.1569 -0.0459,-0.35402 -0.004,-0.19711 -5e-5,-0.51095 0.0172,-0.72529 0.0172,-0.21434 0.0479,-0.32921 0.0632,-0.3866 0.0153,-0.0574 0.0153,-0.0574 0.0268,-0.0708 0.0115,-0.0134 0.0344,-0.0402 0.067,-0.0536 0.0325,-0.0134 0.0746,-0.0134 0.15116,0.0172 0.0765,0.0306 0.18754,0.0919 0.33106,0.21242 0.14352,0.12055 0.31961,0.30044 0.4306,0.42674 0.11099,0.1263 0.15693,0.19897 0.1799,0.26211 0.023,0.0631 0.0229,0.11679 0.0172,0.16271 -0.006,0.0459 -0.0172,0.0842 -0.0535,0.14924 -0.0364,0.0651 -0.0976,0.15692 -0.22581,0.26218 -0.12821,0.10526 -0.32338,0.2239 -0.45734,0.28707 -0.11721,0.0553 -0.18754,0.068 -0.23791,0.0678 z m 0.0771,-0.46099 c 9e-4,4e-5 0.002,4e-5 0.003,0 0.0291,-0.001 0.0519,-0.0392 0.0645,-0.0797 0.0126,-0.0404 0.0152,-0.0834 0.0229,-0.12119 0.008,-0.0378 0.0207,-0.0705 0.0445,-0.0962 0.0238,-0.0256 0.0585,-0.0443 0.0899,-0.0532 0.0314,-0.009 0.0597,-0.008 0.0877,-0.007 0.028,0.001 0.0585,0.0229 0.0724,0.004 0.0139,-0.019 0.0112,-0.0782 -1.3e-4,-0.10217 -0.0114,-0.024 -0.0342,-0.0316 -0.0607,-0.0392 -0.0265,-0.008 -0.0569,-0.0151 -0.0902,-0.0185 -0.0333,-0.003 -0.10183,0.0217 -0.12074,-1.2e-4 -0.0189,-0.0218 -0.0123,-0.10121 -0.0156,-0.15311 -0.003,-0.0519 0.032,-0.15144 -0.0428,-0.14633 l -0.0872,0.005 c -0.0767,0.007 -0.0354,0.24651 -0.0448,0.36942 -0.009,0.12291 -0.002,0.24674 0.0134,0.33712 0.014,0.0801 0.0773,0.0541 0.0695,0.0816 z"
         sodipodi:nodetypes="ssssssssssssssssssscssssssssssccccsssc" /></g><path
       style="fill:#000000;fill-opacity:1;stroke-width:0.0351956"
       d="m 245.78376,117.52614 c -0.29663,-0.29473 -0.88987,-0.88414 -1.30131,-1.30133 -0.41145,-0.41718 -0.64108,-0.66213 -0.83819,-0.84392 -0.19712,-0.1818 -0.36169,-0.30045 -0.49182,-0.36741 -0.13013,-0.067 -0.22582,-0.0823 -0.30809,-0.0803 -0.0823,0.002 -0.15117,0.0211 -0.20665,0.0536 -0.0555,0.0325 -0.0976,0.0784 -0.13012,0.23153 -0.0325,0.15309 -0.0555,0.41336 -0.0651,0.92814 -0.01,0.51478 -0.006,1.28406 0.002,1.86009 0.008,0.57602 0.0191,0.95875 0.0574,1.19222 0.0383,0.23347 0.10331,0.31766 0.16646,0.37699 0.0631,0.0593 0.1244,0.0938 0.19904,0.11485 0.0746,0.0211 0.16264,0.0287 0.9243,0.0268 0.76166,-0.002 2.19689,-0.0134 2.91647,-0.0249 0.71957,-0.0115 0.72343,-0.0231 0.73106,-0.0747 0.008,-0.0516 0.0191,-0.14345 0.002,-0.24297 -0.0172,-0.0995 -0.0632,-0.20668 -0.16843,-0.34446 -0.10526,-0.13778 -0.26983,-0.30618 -0.41336,-0.43822 -0.14352,-0.13204 -0.26601,-0.22773 -0.34255,-0.26407 -0.0765,-0.0363 -0.10716,-0.0134 -0.11674,0.0421 -0.01,0.0555 0.002,0.1435 -0.004,0.21814 -0.006,0.0746 -0.0287,0.1359 -0.0727,0.18184 -0.044,0.0459 -0.10908,0.0766 -0.26602,0.0919 -0.15694,0.0153 -0.40571,0.0153 -0.86692,0.0172 -0.4612,0.002 -1.13478,0.006 -1.50414,-0.0153 -0.36936,-0.0211 -0.43441,-0.067 -0.46692,-0.55116 -0.0325,-0.48417 -0.0325,-1.40655 -0.006,-1.87922 0.0268,-0.47267 0.0804,-0.49562 0.13011,-0.50136 0.0497,-0.006 0.0956,0.006 0.18367,0.0689 0.088,0.0632 0.21817,0.17798 0.39615,0.35021 0.17798,0.17223 0.40379,0.40187 0.56072,0.57601 0.15692,0.17415 0.24495,0.29279 0.2928,0.37701 0.0478,0.0842 0.0555,0.13398 0.0421,0.17034 -0.0134,0.0364 -0.0478,0.0593 -0.10339,0.0746 -0.0555,0.0153 -0.13204,0.0229 -0.21241,-0.006 -0.0804,-0.0287 -0.16458,-0.0938 -0.24685,-0.16843 -0.0823,-0.0746 -0.16268,-0.15885 -0.25261,-0.22582 -0.0899,-0.067 -0.18945,-0.11672 -0.26984,-0.12052 -0.0804,-0.004 -0.1416,0.0383 -0.18176,0.0995 -0.0402,0.0612 -0.0593,0.1416 -0.0708,0.29278 -0.0115,0.15118 -0.0153,0.37317 -2e-5,0.53965 0.0153,0.16648 0.0497,0.27746 0.0804,0.34445 0.0306,0.067 0.0574,0.0899 0.47842,0.0976 0.42104,0.008 1.23625,6e-5 1.64773,-0.0172 0.41147,-0.0173 0.41911,-0.044 0.4306,-0.0899 0.0115,-0.046 0.0268,-0.11102 0.021,-0.19328 -0.006,-0.0823 -0.0326,-0.18183 -0.046,-0.23157 -0.0134,-0.0497 -0.0132,-0.0499 -0.30983,-0.34459 z"
       id="path2685-7-4-4-6"
       sodipodi:nodetypes="ccccccccccccccccccccccccccc"
       inkscape:original-d="m 246.0804,117.82086 c -0.59327,-0.58945 -1.18651,-1.17886 -1.77971,-1.76824 -0.22969,-0.24499 -0.45932,-0.48994 -0.68893,-0.73485 -0.16461,-0.11869 -0.32919,-0.23733 -0.49373,-0.35595 -0.0957,-0.0154 -0.1914,-0.0307 -0.28705,-0.0459 -0.0689,0.0191 -0.13782,0.0382 -0.20668,0.0574 -0.0421,0.0459 -0.0842,0.0918 -0.1263,0.13778 -0.023,0.26023 -0.046,0.52049 -0.0689,0.78078 0.004,0.76928 0.008,1.53856 0.0115,2.3079 0.0115,0.38271 0.0229,0.76544 0.0344,1.14821 0.065,0.0842 0.1301,0.16836 0.1952,0.2526 0.0612,0.0344 0.12244,0.0689 0.18371,0.10334 0.088,0.008 0.17602,0.0153 0.26409,0.023 1.43525,-0.0115 2.87048,-0.023 4.30577,-0.0345 0.004,-0.0115 0.008,-0.023 0.0115,-0.0344 0.0115,-0.0919 0.0229,-0.18375 0.0344,-0.27557 -0.046,-0.10721 -0.0919,-0.21437 -0.13779,-0.3215 -0.16461,-0.16844 -0.32918,-0.33684 -0.49372,-0.50521 -0.12252,-0.0957 -0.24499,-0.19141 -0.36743,-0.28705 -0.0307,0.0229 -0.0613,0.0459 -0.0919,0.0689 0.0115,0.088 0.0229,0.17602 0.0344,0.26409 -0.023,0.0612 -0.046,0.12244 -0.0689,0.18371 -0.0651,0.0306 -0.13017,0.0612 -0.1952,0.0919 -0.24882,-4e-5 -0.49759,-4e-5 -0.74633,0 -0.67367,0.004 -1.34725,0.008 -2.02085,0.0115 -0.0651,-0.046 -0.13016,-0.0919 -0.19519,-0.13779 -4e-5,-0.92244 -4e-5,-1.84482 0,-2.76718 0.0536,-0.023 0.10713,-0.046 0.16075,-0.0689 0.0459,0.0115 0.0918,0.0229 0.13778,0.0345 0.1301,0.11478 0.26023,0.2296 0.39039,0.34446 0.22579,0.22961 0.4516,0.45925 0.67745,0.68892 0.088,0.11862 0.17602,0.23726 0.26409,0.35595 0.008,0.0497 0.0153,0.0995 0.0229,0.14926 -0.0345,0.0229 -0.0689,0.0459 -0.10334,0.0689 -0.0766,0.008 -0.15313,0.0153 -0.22964,0.0229 -0.0842,-0.0651 -0.16844,-0.13016 -0.2526,-0.19519 -0.0804,-0.0842 -0.16079,-0.16844 -0.24113,-0.25261 -0.0995,-0.0498 -0.19905,-0.0995 -0.29853,-0.14926 -0.0613,0.0421 -0.12251,0.0842 -0.18371,0.1263 -0.0192,0.0803 -0.0383,0.16071 -0.0574,0.24112 -0.004,0.22196 -0.008,0.44394 -0.0115,0.66596 0.0344,0.11096 0.0688,0.22195 0.10334,0.33298 0.0268,0.0229 0.0535,0.0459 0.0804,0.0689 0.81521,-0.008 1.63042,-0.0153 2.44568,-0.0229 0.008,-0.0268 0.0153,-0.0536 0.023,-0.0804 0.0153,-0.0651 0.0306,-0.13016 0.0459,-0.19519 -0.0268,-0.0995 -0.0536,-0.19906 -0.0804,-0.29854 z"
       inkscape:path-effect="#path-effect2687-6-7-1-4" /><path
       id="path2689-7-3-2-1"
       style="fill:#000000;fill-opacity:1;stroke-width:0.0351956"
       d="m 241.72846,119.38235 c 0.0392,3e-4 0.0787,-0.004 0.11886,-0.009 0.0919,-0.0134 0.18751,-0.0364 0.23537,-0.0555 0.0478,-0.0192 0.0479,-0.0344 0.0479,-0.0421 0,-0.008 -5e-5,-0.008 0.0153,-0.0881 0.0153,-0.0804 0.046,-0.24112 0.0517,-0.47459 0.006,-0.23348 -0.0134,-0.53969 -0.0383,-0.74255 -0.0249,-0.20285 -0.0555,-0.30232 -0.0995,-0.3578 -0.044,-0.0555 -0.10144,-0.0669 -0.17798,-0.0401 -0.0765,0.0268 -0.1722,0.0919 -0.32721,0.21433 -0.155,0.12248 -0.36935,0.30235 -0.48799,0.4229 -0.11864,0.12055 -0.14157,0.18174 -0.14732,0.27359 -0.006,0.0918 0.006,0.21433 0.0727,0.33299 0.067,0.11865 0.18945,0.23351 0.29661,0.3292 0.10717,0.0957 0.19905,0.17218 0.28899,0.20856 0.0506,0.0205 0.10055,0.0282 0.15096,0.0287 z m 0.0312,-0.53323 c -0.0266,9e-4 -0.0507,-0.0322 -0.0597,-0.0753 -0.01,-0.0459 -0.002,-0.10336 -0.0307,-0.13205 -0.0287,-0.0287 -0.0938,-0.0286 -0.14353,-0.0516 -0.0498,-0.023 -0.0842,-0.0689 -0.0861,-0.12057 -0.002,-0.0517 0.0287,-0.10909 0.0804,-0.16649 0.0517,-0.0574 0.12435,-0.11483 0.18175,-0.14353 0.0574,-0.0287 0.0995,-0.0287 0.13013,0.0325 0.0306,0.0612 0.0498,0.18372 0.0517,0.28706 0.002,0.10335 -0.0133,0.18755 -0.0363,0.25263 -0.0229,0.0651 -0.0536,0.111 -0.0823,0.11672 -0.002,3e-4 -0.004,6e-4 -0.005,6e-4 z" /><path
       id="path2697-87-1-4-9"
       style="fill:#000000;fill-opacity:1;stroke-width:0.0351956"
       d="m 241.88238,116.75381 c 0.007,-3e-5 0.0139,-2.8e-4 0.0204,-6e-4 0.0517,-0.004 0.0823,-0.0191 0.12249,-0.0632 0.0402,-0.044 0.0899,-0.11675 0.12057,-0.1933 0.0306,-0.0766 0.0421,-0.15691 0.0459,-0.35402 0.004,-0.19712 5e-5,-0.51096 -0.0172,-0.7253 -0.0172,-0.21433 -0.0479,-0.32921 -0.0632,-0.3866 -0.0153,-0.0574 -0.0153,-0.0574 -0.0268,-0.0708 -0.0115,-0.0134 -0.0344,-0.0402 -0.0669,-0.0536 -0.0325,-0.0134 -0.0746,-0.0134 -0.15116,0.0173 -0.0765,0.0306 -0.18754,0.0918 -0.33106,0.21241 -0.14352,0.12056 -0.31961,0.30045 -0.4306,0.42675 -0.11099,0.1263 -0.15693,0.19897 -0.1799,0.26211 -0.023,0.0631 -0.0229,0.11678 -0.0172,0.16271 0.006,0.0459 0.0172,0.0842 0.0536,0.14924 0.0364,0.0651 0.0976,0.15692 0.22582,0.26218 0.12821,0.10526 0.32338,0.2239 0.45734,0.28706 0.11721,0.0553 0.18754,0.068 0.23791,0.0678 z m -0.0771,-0.46098 c -9e-4,3e-5 -0.002,4e-5 -0.003,0 -0.0291,-10e-4 -0.0519,-0.0392 -0.0645,-0.0797 -0.0126,-0.0405 -0.0152,-0.0834 -0.0229,-0.12119 -0.008,-0.0378 -0.0207,-0.0705 -0.0446,-0.0962 -0.0238,-0.0256 -0.0585,-0.0443 -0.0899,-0.0532 -0.0314,-0.009 -0.0597,-0.008 -0.0877,-0.007 -0.028,0.002 -0.0585,0.0229 -0.0724,0.004 -0.0139,-0.019 -0.0112,-0.0782 1.3e-4,-0.10216 0.0114,-0.024 0.0342,-0.0316 0.0607,-0.0392 0.0266,-0.008 0.0569,-0.0152 0.0902,-0.0185 0.0333,-0.003 0.10183,0.0217 0.12073,-1.1e-4 0.0189,-0.0218 0.0123,-0.10121 0.0156,-0.15312 0.003,-0.0519 -0.032,-0.15144 0.0429,-0.14633 l 0.0872,0.005 c 0.0767,0.007 0.0354,0.24651 0.0448,0.36942 0.009,0.12291 0.002,0.24674 -0.0134,0.33711 -0.014,0.0801 -0.0773,0.0541 -0.0695,0.0816 z"
       sodipodi:nodetypes="ssssssssssssssssssscssssssssssccccsssc" /><path
       style="fill:#000000;fill-opacity:1;stroke-width:0.171389"
       d="m 278.19273,119.4122 c 9.94504,0.0208 19.88969,0.0415 25.25763,0.0392 5.36794,-0.002 6.15648,-0.0277 6.67255,-0.13109 0.51607,-0.10335 0.75748,-0.28431 0.97952,-0.43771 0.22204,-0.1534 0.42428,-0.27895 0.54962,-0.36514 0.12534,-0.0862 0.17348,-0.13264 0.16463,-0.15953 -0.009,-0.0269 -0.0749,-0.034 -0.14097,-0.0411 -0.0791,-0.008 -0.15807,-0.0169 -0.34289,-0.008 -0.18483,0.009 -0.47477,0.0346 -1.2785,0.061 -0.80373,0.0264 -2.12078,0.0532 -7.10611,0.10514 -4.98533,0.0519 -13.63513,0.12885 -22.34071,0.15436 -8.70559,0.0255 -17.46428,-4.2e-4 -22.65448,-0.0264 -5.1902,-0.0259 -6.81132,-0.0519 -7.81547,-0.0882 -1.00415,-0.0363 -1.39153,-0.083 -1.66979,-0.11935 -0.27826,-0.0363 -0.44764,-0.0623 -0.6616,-0.0716 -0.21396,-0.009 -0.47216,-0.002 -0.44018,0.11096 0.032,0.11315 0.35389,0.33147 0.6671,0.54986 0.31321,0.2184 0.61657,0.43607 0.84524,0.54513 0.22868,0.10906 0.38166,0.10906 5.10991,0.0791 4.72825,-0.0299 14.03095,-0.0898 23.33345,-0.14969"
       id="path6053-2"
       inkscape:path-effect="#path-effect6055-4"
       inkscape:original-d="m 278.19273,119.4122 c 9.94504,0.0207 19.88969,0.0414 29.83399,0.0623 0.79158,-0.0256 1.58012,-0.051 2.37044,-0.0763 0.24182,-0.18126 0.48323,-0.36222 0.72485,-0.54334 0.20245,-0.12569 0.40469,-0.25124 0.60673,-0.37665 0.0488,-0.0468 0.0968,-0.0934 0.14518,-0.1401 -0.0661,-0.007 -0.19821,-0.0213 -0.19821,-0.0213 0,0 -0.15806,-0.017 -0.23733,-0.0254 -0.29039,0.0259 -0.58033,0.0518 -0.87106,0.0778 -1.31673,0.0267 -2.63378,0.0536 -3.9512,0.0805 -8.65324,0.0769 -17.30304,0.15384 -25.95537,0.23088 -8.75884,-0.026 -17.51753,-0.052 -26.27712,-0.0778 -1.62081,-0.026 -3.24193,-0.052 -4.86344,-0.0778 -0.38677,-0.0468 -0.77416,-0.0935 -1.16143,-0.14011 -0.16925,-0.026 -0.33862,-0.052 -0.50812,-0.0778 -0.25845,0.007 -0.51664,0.0143 -0.77571,0.0216 0.3231,0.21897 0.64501,0.43729 0.96749,0.65615 0.30395,0.21793 0.6073,0.43561 0.9112,0.65383 0.15338,-8e-5 0.30636,-8e-5 0.45939,0 9.30347,-0.06 18.60617,-0.11984 27.90867,-0.17963"
       sodipodi:nodetypes="cccccccccccccccccccc" /><path
       style="fill:#000000;fill-opacity:1;stroke-width:0.129611"
       d="m 242.59939,95.634222 c -0.0208,5.687478 -0.0415,11.374738 -0.0392,14.444618 0.002,3.06988 0.0277,3.52085 0.13109,3.81597 0.10335,0.29513 0.28432,0.43319 0.43772,0.56018 0.1534,0.12698 0.27895,0.24264 0.36509,0.31429 0.0862,0.0717 0.1327,0.0992 0.15958,0.0942 0.0269,-0.005 0.034,-0.0429 0.0411,-0.0806 0.008,-0.0452 0.0169,-0.0904 0.008,-0.1961 -0.009,-0.10569 -0.0346,-0.2715 -0.061,-0.73116 -0.0264,-0.45965 -0.0532,-1.21286 -0.10514,-4.06392 -0.0519,-2.85107 -0.12885,-7.79782 -0.15436,-12.776465 -0.0255,-4.978646 4.2e-4,-9.987669 0.0264,-12.955893 0.0259,-2.968225 0.0519,-3.895334 0.0882,-4.469607 0.0363,-0.574273 0.083,-0.795811 0.11935,-0.954945 0.0363,-0.159134 0.0623,-0.256012 0.0716,-0.378358 0.009,-0.122345 0.002,-0.270004 -0.11094,-0.251736 -0.11312,0.01827 -0.33144,0.202367 -0.54984,0.381489 -0.21839,0.179122 -0.43607,0.352611 -0.54515,0.483405 -0.10908,0.130795 -0.10908,0.218286 -0.0791,2.922329 0.0299,2.704042 0.0898,8.024175 0.14969,13.34419"
       id="path6053-2-4"
       inkscape:path-effect="#path-effect6055-4-5"
       inkscape:original-d="m 242.59939,95.634222 c -0.0207,5.687478 -0.0414,11.374738 -0.0623,17.061788 0.0256,0.4527 0.051,0.90367 0.0763,1.35564 0.18126,0.13829 0.36222,0.27636 0.54334,0.41453 0.12569,0.11579 0.25124,0.23145 0.37665,0.34698 0.0468,0.0279 0.0934,0.0554 0.1401,0.083 0.007,-0.0378 0.0213,-0.11335 0.0213,-0.11335 0,0 0.017,-0.0904 0.0254,-0.13573 -0.0259,-0.16607 -0.0518,-0.33188 -0.0778,-0.49814 -0.0267,-0.75304 -0.0536,-1.50625 -0.0805,-2.25967 -0.0769,-4.94871 -0.15384,-9.89546 -0.23088,-14.843638 0.026,-5.009113 0.052,-10.018135 0.0778,-15.027655 0.026,-0.926928 0.052,-1.854035 0.0778,-2.781362 0.0468,-0.221195 0.0935,-0.442739 0.14011,-0.664208 0.026,-0.0968 0.052,-0.193661 0.0778,-0.290591 -0.007,-0.147809 -0.0143,-0.295462 -0.0216,-0.443625 -0.21897,0.184777 -0.43729,0.368877 -0.65615,0.553305 -0.21793,0.173822 -0.43561,0.34731 -0.65383,0.521099 8e-5,0.08772 8e-5,0.175211 0,0.262723 0.06,5.320572 0.11984,10.640705 0.17963,15.960721"
       sodipodi:nodetypes="cccccccccccccccccccc" /><path
       style="fill:#000000;fill-opacity:1;stroke-width:0.129611"
       d="m 316.01385,95.868723 c 0.0208,5.687477 0.0415,11.374737 0.0392,14.444617 -0.002,3.06988 -0.0277,3.52085 -0.13109,3.81598 -0.10335,0.29512 -0.28431,0.43319 -0.43771,0.56017 -0.15341,0.12698 -0.27896,0.24264 -0.3651,0.3143 -0.0861,0.0717 -0.1327,0.0992 -0.15958,0.0942 -0.0269,-0.005 -0.034,-0.0429 -0.0411,-0.0806 -0.008,-0.0452 -0.0169,-0.0904 -0.008,-0.1961 0.009,-0.10569 0.0346,-0.2715 0.061,-0.73115 0.0264,-0.45965 0.0532,-1.21287 0.10514,-4.06393 0.0519,-2.85106 0.12885,-7.79781 0.15436,-12.776459 0.0255,-4.97865 -4.2e-4,-9.987673 -0.0264,-12.955897 -0.0259,-2.968225 -0.0519,-3.895332 -0.0882,-4.469605 -0.0363,-0.574273 -0.083,-0.795811 -0.11935,-0.954945 -0.0363,-0.159135 -0.0623,-0.256012 -0.0716,-0.378358 -0.009,-0.122345 -0.002,-0.270005 0.11094,-0.251737 0.11312,0.01827 0.33144,0.202368 0.54984,0.38149 0.21839,0.179122 0.43607,0.35261 0.54515,0.483405 0.10908,0.130795 0.10908,0.218285 0.0791,2.922327 -0.0299,2.704042 -0.0898,8.024175 -0.14969,13.34419"
       id="path6053-2-4-0"
       inkscape:path-effect="#path-effect6055-4-5-3"
       inkscape:original-d="m 316.01385,95.868723 c 0.0207,5.687477 0.0414,11.374737 0.0623,17.061787 -0.0256,0.4527 -0.051,0.90367 -0.0763,1.35564 -0.18126,0.1383 -0.36222,0.27636 -0.54334,0.41454 -0.12569,0.11578 -0.25124,0.23144 -0.37665,0.34698 -0.0468,0.0279 -0.0934,0.0554 -0.1401,0.083 -0.007,-0.0378 -0.0213,-0.11335 -0.0213,-0.11335 0,0 -0.017,-0.0904 -0.0254,-0.13573 0.0259,-0.16607 0.0518,-0.33188 0.0778,-0.49814 0.0267,-0.75303 0.0536,-1.50625 0.0805,-2.25967 0.0769,-4.9487 0.15384,-9.89545 0.23088,-14.843637 -0.026,-5.009112 -0.052,-10.018134 -0.0778,-15.027654 -0.026,-0.926928 -0.052,-1.854033 -0.0778,-2.781361 -0.0468,-0.221194 -0.0935,-0.442738 -0.14011,-0.664208 -0.026,-0.0968 -0.052,-0.19366 -0.0778,-0.29059 0.007,-0.147809 0.0143,-0.295463 0.0216,-0.443626 0.21897,0.184778 0.43729,0.368878 0.65615,0.553306 0.21793,0.173822 0.43561,0.347309 0.65383,0.521099 -8e-5,0.08772 -8e-5,0.17521 0,0.262723 -0.06,5.32057 -0.11984,10.640703 -0.17963,15.960719"
       sodipodi:nodetypes="cccccccccccccccccccc" /></g></svg>
