<?xml version="1.0" encoding="UTF-8" standalone="no"?>
<!-- Created with Inkscape (http://www.inkscape.org/) -->

<svg
   width="55.766411mm"
   height="146.92345mm"
   viewBox="0 0 55.766411 146.92345"
   version="1.1"
   id="svg4282"
   inkscape:export-filename="dragonzinho_right.svg"
   inkscape:export-xdpi="89.141899"
   inkscape:export-ydpi="89.141899"
   xmlns:inkscape="http://www.inkscape.org/namespaces/inkscape"
   xmlns:sodipodi="http://sodipodi.sourceforge.net/DTD/sodipodi-0.dtd"
   xmlns="http://www.w3.org/2000/svg"
   xmlns:svg="http://www.w3.org/2000/svg">
  <sodipodi:namedview
     id="namedview4284"
     pagecolor="#ffffff"
     bordercolor="#000000"
     borderopacity="0.25"
     inkscape:showpageshadow="2"
     inkscape:pageopacity="0.0"
     inkscape:pagecheckerboard="0"
     inkscape:deskcolor="#d1d1d1"
     inkscape:document-units="mm"
     showgrid="false" />
  <defs
     id="defs4279">
    <inkscape:path-effect
       effect="bspline"
       id="path-effect1223"
       is_visible="true"
       lpeversion="1"
       weight="33.333333"
       steps="2"
       helper_size="0"
       apply_no_weight="true"
       apply_with_weight="true"
       only_selected="false" />
    <inkscape:path-effect
       effect="bspline"
       id="path-effect1227"
       is_visible="true"
       lpeversion="1"
       weight="33.333333"
       steps="2"
       helper_size="0"
       apply_no_weight="true"
       apply_with_weight="true"
       only_selected="false" />
    <inkscape:path-effect
       effect="bspline"
       id="path-effect1957"
       is_visible="true"
       lpeversion="1"
       weight="33.333333"
       steps="2"
       helper_size="0"
       apply_no_weight="true"
       apply_with_weight="true"
       only_selected="false" />
    <inkscape:path-effect
       effect="bspline"
       id="path-effect2687"
       is_visible="true"
       lpeversion="1"
       weight="33.333333"
       steps="2"
       helper_size="0"
       apply_no_weight="true"
       apply_with_weight="true"
       only_selected="false" />
    <inkscape:path-effect
       effect="bspline"
       id="path-effect2687-3"
       is_visible="true"
       lpeversion="1"
       weight="33.333333"
       steps="2"
       helper_size="0"
       apply_no_weight="true"
       apply_with_weight="true"
       only_selected="false" />
    <inkscape:path-effect
       effect="bspline"
       id="path-effect3489"
       is_visible="true"
       lpeversion="1"
       weight="33.333333"
       steps="2"
       helper_size="0"
       apply_no_weight="true"
       apply_with_weight="true"
       only_selected="false" />
  </defs>
  <g
     inkscape:label="Layer 1"
     inkscape:groupmode="layer"
     id="layer1"
     transform="translate(-9.1328509,-7.5382765)">
    <path
       id="path482"
       style="fill:#000000;fill-opacity:0.829016;stroke-width:0.264583"
       d="m 20.365247,30.967812 c -0.29573,0.0011 -0.5649,0.117615 -0.84646,0.322977 -0.62137,0.453214 -1.30357,1.339206 -1.67018,2.408639 -0.36662,1.069432 -0.41772,2.322238 0.1018,3.534151 0.51952,1.211914 1.60942,2.382524 2.63291,3.44165 1.0235,1.059125 1.98044,2.006464 3.21272,3.040125 1.23228,1.03366 2.73951,2.15377 3.75791,2.94814 1.01839,0.794371 1.54816,1.262764 1.81281,1.736328 0.26464,0.473566 0.26434,0.952303 0.11162,1.283126 -0.15272,0.330823 -0.4581,0.514166 -0.88573,0.417546 -0.42762,-0.09662 -0.97723,-0.473526 -1.57303,-1.038696 -0.59579,-0.565172 -1.23741,-1.318483 -2.33216,-2.102714 -1.09475,-0.784231 -2.64251,-1.599293 -3.84421,-2.18488 -1.20169,-0.585588 -2.05722,-0.941696 -2.92798,-1.130164 -0.87076,-0.188464 -1.75666,-0.208857 -2.57142,-0.112137 -0.81477,0.09672 -1.55828,0.310332 -2.24069,0.712618 -0.68241,0.402286 -1.3036,0.99326 -1.46141,1.772501 -0.15781,0.779241 0.1474,1.746486 0.7891,2.530595 0.6417,0.784108 1.61956,1.385129 2.49029,1.741496 0.87072,0.356367 1.63455,0.468295 2.36781,0.615983 0.73326,0.147688 1.43578,0.330707 1.78697,0.717786 0.3512,0.387078 0.35144,0.978148 0.0816,1.344618 -0.26979,0.36647 -0.80974,0.50859 -1.60404,0.55449 -0.7943,0.0457 -1.84297,-0.005 -2.90214,0.04082 -1.05917,0.04581 -2.12849,0.18867 -3.03496,0.54002 -0.90647,0.35135 -1.6499898,0.91135 -2.0675798,1.425758 -0.41758,0.51441 -0.50952,0.98258 -0.32607,1.522383 0.18344,0.53979 0.64191,1.1511 1.4159298,1.50741 0.77402,0.35631 1.86368,0.45811 3.23443,0.53071 1.37075,0.0726 3.02253,0.11585 4.27519,0.2279 1.25266,0.11205 2.10595,0.29252 2.77709,0.55603 0.67114,0.26352 1.15982,0.61016 1.48053,0.98702 0.32071,0.37687 0.47342,0.78421 0.86558,1.25264 0.39216,0.46842 1.02395,0.99769 1.66036,1.11466 0.63641,0.11697 1.27785,-0.17806 1.75132,-0.61081 0.47347,-0.43274 0.7789,-1.00331 1.55804,-1.757 0.77913,-0.75369 2.03163,-1.69047 3.02979,-1.86346 0.99816,-0.17298 1.74148,0.41739 1.48673,1.33894 -0.25474,0.92154 -1.5071,2.17451 -2.56625,3.35587 -1.05915,1.18136 -1.92473,2.29096 -2.32699,3.80338 -0.40225,1.51243 -0.34128,3.42713 -0.14263,4.74597 0.19865,1.31885 0.53462,2.042 0.94206,2.46961 0.40744,0.42761 0.88638,0.55983 2.80603,0.98754 1.91965,0.42771 5.2803,1.15107 10.010757,1.51257 4.73047,0.3615 10.82998,0.36149 14.48594,-0.14263 3.65596,-0.50412 4.86801,-1.51267 5.63686,-2.55643 0.76885,-1.04377 1.09482,-2.12295 1.22215,-3.2737 0.12734,-1.15074 0.0562,-2.37271 -0.43253,-3.22823 -0.48869,-0.85551 -1.3951,-1.34466 -2.15387,-1.52807 -0.75877,-0.18342 -1.36977,-0.061 -2.12856,0.35657 -0.75878,0.41755 -1.66511,1.13025 -2.26601,1.76681 -0.6009,0.63656 -0.89614,1.19661 -1.20147,1.42576 -0.30534,0.22914 -0.62107,0.12744 -0.79944,-0.15762 -0.17836,-0.28506 -0.21945,-0.75333 -0.34158,-1.19631 -0.12214,-0.44299 -0.32591,-0.86044 -0.65681,-1.18132 -0.33089,-0.32087 -0.78884,-0.54529 -1.29811,-0.56069 -0.50928,-0.0154 -1.06969,0.17826 -1.45676,0.38706 -0.38707,0.2088 -0.60092,0.4327 -0.87591,0.82992 -0.27499,0.39721 -0.61082,0.96764 -0.94672,1.22732 -0.3359,0.25967 -0.67184,0.20889 -0.92655,-0.12196 -0.2547,-0.33084 -0.42786,-0.94223 -0.56534,-1.4056 -0.13748,-0.46337 -0.2396,-0.77895 -0.67231,-1.00821 -0.43272,-0.22926 -1.19636,-0.37172 -2.0774,-0.10697 -0.88104,0.26474 -1.87906,0.93673 -2.92798,1.51722 -1.04893,0.58048 -2.14842,1.06944 -3.166737,1.26298 -1.01831,0.19354 -1.95518,0.0918 -2.43396,-0.46819 -0.47877,-0.55999 -0.49925,-1.57848 0.64648,-2.9993 1.14572,-1.42082 3.457097,-3.2435 5.896277,-4.27209 2.43918,-1.02859 5.00537,-1.26309 6.03891,-0.70797 1.03351,0.55511 0.53455,1.8996 1.04903,2.76521 0.51448,0.86559 2.0424,1.25257 3.37137,1.34927 1.32897,0.0967 2.45902,-0.0971 2.85615,-0.63666 0.39719,-0.53958 0.0614,-1.42519 -0.0915,-2.39778 -0.15283,-0.9726 -0.12241,-2.03205 -0.0155,-2.913 0.10691,-0.88096 0.29015,-1.5834 0.56018,-1.93994 0.27003,-0.356553 0.62626,-0.366683 0.89607,-0.13229 0.26982,0.23439 0.45331,0.71312 0.52451,1.4056 0.0712,0.69248 0.0303,1.59847 0.0558,2.40812 0.0255,0.80965 0.11722,1.52276 0.43305,2.10323 0.31583,0.58046 0.85549,1.02832 1.35961,1.33377 0.50411,0.30545 0.97261,0.46824 1.49706,0.53434 0.52445,0.0661 1.10495,0.0359 1.73116,-0.22376 0.62622,-0.25971 1.29856,-0.74857 1.77716,-1.4919 0.4786,-0.74333 0.76335,-1.74137 0.80925,-3.0856 0.0459,-1.34423 -0.14758,-3.03452 -0.58033,-4.501023 -0.43276,-1.466488 -1.10445,-2.709148 -2.1177,-3.467998 -1.01325,-0.758845 -2.36767,-1.033519 -4.65398,-1.588537 -2.2863,-0.555018 -5.50463,-1.390261 -8.60567,-2.098063 -3.10105,-0.707802 -6.08493,-1.288507 -8.90592,-2.515609 -2.820977,-1.227102 -5.478697,-3.10046 -6.807847,-4.03748 -1.32912,-0.937016 -1.32914,-0.937174 -1.25264,-0.957564 0.0765,-0.02039 0.22912,-0.0609 -0.90124,-1.053682 -1.13034,-0.992784 -3.54401,-2.937975 -5.39243,-4.618323 -1.84843,-1.680348 -3.13133,-3.095816 -4.05298,-3.793567 -0.50403,-0.381583 -0.89985,-0.548551 -1.25677,-0.547253 z m 17.75395,20.420975 c 0.25318,0.01226 0.538537,0.204702 0.729667,0.462503 0.21844,0.29463 0.31348,0.67463 0.51315,0.95963 0.19966,0.28501 0.50386,0.47495 0.84594,0.64596 0.34209,0.171 0.72241,0.3231 0.90279,0.60823 0.18037,0.28513 0.16102,0.7033 0.10025,0.95033 -0.0608,0.24703 -0.16313,0.32307 -0.21446,0.361218 -0.0513,0.0382 -0.0512,0.0381 -0.27543,0.1235 -0.22419,0.0854 -0.67272,0.25637 -1.20096,0.25632 -0.52825,-5e-5 -1.136567,-0.17098 -1.564247,-0.522448 -0.42768,-0.35147 -0.67475,-0.88367 -0.75086,-1.44436 -0.0761,-0.56068 0.019,-1.15012 0.17105,-1.5968 0.15204,-0.44668 0.36092,-0.750439 0.63666,-0.797882 0.0345,-0.0059 0.0703,-0.008 0.10645,-0.0062 z" />
    <path
       style="fill:#000000;fill-opacity:0.829016;stroke-width:0.264583"
       d="m 9.2592961,65.985367 c 0.047499,-0.517744 0.1425197,-1.553483 0.4751038,-2.389786 0.3325841,-0.836303 0.9026871,-1.472921 1.6630041,-1.815015 0.760317,-0.342095 1.710512,-0.389601 2.513449,-0.4181 0.802937,-0.0285 1.45857,-0.038 2.133219,0.36124 0.67465,0.399238 1.368292,1.206905 2.118976,1.605853 0.750683,0.398949 1.558335,0.389449 2.280541,0.522555 0.722205,0.133106 1.358811,0.408655 1.781554,0.888612 0.422742,0.479957 0.631786,1.164096 0.569941,1.886169 -0.06184,0.722073 -0.394401,1.482204 -0.983408,1.928734 -0.589006,0.446531 -1.434677,0.579558 -2.793472,0.641341 -1.358794,0.06178 -3.230635,0.05228 -4.646469,-0.02846 -1.415834,-0.08075 -2.375503,-0.232778 -3.159474,-0.68877 C 10.428289,68.023744 9.8201683,67.263594 9.5159827,66.883363 9.2117972,66.503131 9.2117972,66.503111 9.2592961,65.985367 Z"
       id="path1221"
       inkscape:path-effect="#path-effect1223"
       inkscape:original-d="m 9.2117972,66.503111 c 0.0953,-1.03546 0.19031,-2.0712 0.28506,-3.10719 0.5704098,-0.63639 1.1405098,-1.27301 1.7103798,-1.90993 0.9505,-0.0472 1.90069,-0.0948 2.85064,-0.14252 0.65592,-0.009 1.31155,-0.0187 1.96694,-0.0285 0.69392,0.80796 1.38757,1.61562 2.08096,2.42304 0.80796,-0.009 1.61561,-0.0187 2.42304,-0.0285 0.63692,0.27584 1.27353,0.55138 1.90992,0.82669 0.20932,0.68443 0.41836,1.36857 0.62714,2.05245 -0.33231,0.76046 -0.66487,1.52059 -0.99772,2.28051 -0.84544,0.1333 -1.69111,0.26633 -2.53706,0.39909 -1.87169,-0.009 -3.74353,-0.0187 -5.61575,-0.0285 -0.95948,-0.15178 -1.91915,-0.3038 -2.87914,-0.45611 -0.60789,-0.75992 -1.2160098,-1.52007 -1.8244098,-2.28051 z"
       sodipodi:nodetypes="cccccccccccccc" />
    <path
       style="fill:#000000;fill-opacity:0.829016;stroke-width:0.264583"
       d="m 11.326176,78.414275 c 0.23293,0.403808 0.64152,0.717378 1.491952,0.840787 0.850432,0.123408 2.142675,0.05689 3.069103,-0.07141 0.926427,-0.128302 1.487029,-0.318338 2.06183,-0.745906 0.574802,-0.427568 1.163924,-1.092706 1.791078,-1.757868 0.627155,-0.665161 1.292286,-1.33029 1.491908,-1.928772 0.199622,-0.598482 -0.06643,-1.130594 -0.560496,-1.748266 -0.494062,-0.617672 -1.216204,-1.32081 -2.118908,-1.710519 -0.902705,-0.389709 -1.985929,-0.465725 -2.603728,-0.137804 -0.617799,0.32792 -0.769831,1.05956 -1.035824,1.525045 -0.265993,0.465485 -0.646059,0.665023 -1.097324,0.726836 -0.451264,0.06181 -0.973849,-0.0142 -1.458647,0.565493 -0.484798,0.579695 -0.931387,1.814942 -1.126136,2.67971 -0.194749,0.864768 -0.137737,1.358866 0.09519,1.762673 z"
       id="path1225"
       inkscape:path-effect="#path-effect1227"
       inkscape:original-d="m 11.150227,78.504291 c 0.40885,0.31383 0.81744,0.6274 1.22577,0.94071 1.29258,-0.0662 2.58482,-0.13277 3.87687,-0.19955 0.5609,-0.18978 1.1215,-0.37982 1.68187,-0.57013 0.58941,-0.66489 1.17853,-1.33003 1.76739,-1.99544 0.66543,-0.6649 1.33056,-1.33003 1.99545,-1.99544 -0.2658,-0.53187 -0.53186,-1.06398 -0.79818,-1.59636 -0.72191,-0.70291 -1.44405,-1.40605 -2.16648,-2.10947 -1.083,-0.0757 -2.16622,-0.15177 -3.24972,-0.22805 -0.15178,0.73194 -0.30381,1.46358 -0.45611,2.19499 -0.37982,0.19982 -0.75989,0.39935 -1.14025,0.59864 -0.52236,-0.0758 -1.04495,-0.15178 -1.56785,-0.22806 -0.44635,1.23557 -0.89293,2.47082 -1.3398,3.70583 0.0573,0.49438 0.11429,0.98848 0.17104,1.48233 z"
       sodipodi:nodetypes="cccccccccccccc" />
    <path
       style="fill:#000000;fill-opacity:0.829016;stroke-width:0.264583"
       d="m 15.231362,83.702035 c 0.03324,-0.132936 0.09975,-0.39898 0.5085,-0.570129 0.40875,-0.171149 1.159396,-0.247163 1.563089,-0.384852 0.403693,-0.137688 0.4607,-0.337213 0.446502,-0.645982 -0.0142,-0.308768 -0.09971,-0.726831 0.342131,-1.316143 0.441842,-0.589312 1.411032,-1.349463 2.114166,-1.995586 0.703134,-0.646123 1.140223,-1.178226 1.491938,-1.453808 0.351716,-0.275582 0.617766,-0.294581 1.368459,0.289951 0.750692,0.584533 1.985943,1.772271 4.052678,3.862772 2.066735,2.0905 4.964819,5.083606 8.571427,8.540656 3.606607,3.45705 7.921425,7.377785 10.259387,10.023356 2.337962,2.64558 2.699031,4.01568 2.51793,5.12905 -0.181101,1.11338 -0.904258,1.97022 -2.021265,3.17783 -1.117007,1.2076 -2.627811,2.76592 -4.780067,4.96093 -2.152257,2.19502 -4.945824,5.02659 -7.164577,7.19783 -2.218753,2.17124 -3.862586,3.68204 -4.974264,4.52771 -1.111678,0.84567 -1.691287,1.02621 -2.047731,1.26385 -0.356445,0.23764 -0.489472,0.5322 -0.608247,0.83629 -0.118775,0.30409 -0.223293,0.61766 -0.384754,0.83135 -0.161462,0.21369 -0.380011,0.32772 -0.71725,0.37051 -0.337239,0.0428 -0.793329,0.0143 -1.391953,-0.11869 -0.598623,-0.13299 -1.339772,-0.37054 -1.86722,-0.79803 -0.527447,-0.4275 -0.841008,-1.04512 -0.940877,-1.76258 -0.09987,-0.71747 0.01416,-1.53464 0.09493,-2.24254 0.08077,-0.7079 0.128285,-1.30653 0.441895,-1.81504 0.313611,-0.5085 0.89322,-0.92658 1.596505,-1.10234 0.703284,-0.17576 1.529952,-0.10925 2.380298,-0.32309 0.850347,-0.21384 1.724526,-0.70794 2.304123,-1.08325 0.579597,-0.37532 0.864652,-0.63187 1.040418,-0.96433 0.175767,-0.33246 0.242283,-0.74105 0.522678,-1.05475 0.280396,-0.31371 0.774497,-0.53225 1.330343,-0.85532 0.555846,-0.32307 1.173472,-0.75066 1.719816,-1.22574 0.546345,-0.47509 1.02144,-0.99769 1.529286,-1.67324 0.507847,-0.67555 1.048444,-1.50405 1.566313,-2.4115 0.517869,-0.90745 1.012981,-1.89382 1.274804,-2.55323 0.261824,-0.65941 0.290324,-0.99198 0.200155,-1.31977 -0.09017,-0.3278 -0.299208,-0.65086 -0.569973,-0.82678 -0.270764,-0.17593 -0.603333,-0.20443 -1.111768,-0.0857 -0.508434,0.11874 -1.192573,0.38479 -2.404185,1.42532 -1.211611,1.04053 -2.950464,2.8554 -4.409055,4.42802 -1.458592,1.57262 -2.636832,2.90289 -3.29725,3.7629 -0.660418,0.86001 -0.802945,1.24959 -0.864668,1.53948 -0.06172,0.28989 -0.04272,0.47993 -0.118777,0.69361 -0.07605,0.21367 -0.247091,0.45122 -0.541514,0.57472 -0.294422,0.12349 -0.712508,0.13299 -1.125823,0.0523 -0.413314,-0.0807 -0.821894,-0.25173 -1.14504,-0.54621 -0.323146,-0.29448 -0.560694,-0.71257 -0.750764,-1.10691 -0.19007,-0.39434 -0.332597,-0.76491 -0.58909,-1.13552 -0.256494,-0.37062 -0.627064,-0.74119 -1.040383,-1.04056 -0.413319,-0.29937 -0.869419,-0.52742 -1.311272,-0.69375 -0.441853,-0.16633 -0.869442,-0.27085 -0.983643,-0.48465 -0.114202,-0.2138 0.08534,-0.53687 0.494097,-0.68894 0.408756,-0.15207 1.026386,-0.13307 1.567886,-0.31838 0.541501,-0.18532 1.007093,-0.57489 1.567708,-1.10701 0.560616,-0.53211 1.216248,-1.20675 1.653325,-1.73883 0.437076,-0.53208 0.655619,-0.92166 0.850413,-1.33498 0.194794,-0.41333 0.36583,-0.85041 0.494114,-1.24948 0.128284,-0.39907 0.213798,-0.76013 0.551189,-1.12134 0.337391,-0.3612 0.92651,-0.72227 1.605945,-1.07386 0.679436,-0.35159 1.449086,-0.69366 2.189269,-1.26592 0.740183,-0.57227 1.450977,-1.37476 2.016349,-2.09216 0.565372,-0.71739 0.985304,-1.34969 1.115852,-1.82117 0.130548,-0.471476 -0.02848,-0.782357 -0.279021,-1.189627 -0.25054,-0.407271 -0.5926,-0.91086 -1.45377,-1.762684 -0.861169,-0.851823 -2.241444,-2.051739 -3.43523,-3.202827 -1.193787,-1.151088 -2.200991,-2.253313 -3.20821,-3.265309 -1.00722,-1.011995 -2.014428,-1.933687 -3.107173,-2.831662 -1.092745,-0.897975 -2.270954,-1.772128 -3.007374,-2.275789 -0.736421,-0.503661 -1.030982,-0.636688 -1.244842,-0.812391 -0.21386,-0.175703 -0.347083,-0.39457 -0.480113,-0.61312 0,0 -10e-6,-1e-5 0.03323,-0.132946 z"
       id="path1955"
       inkscape:path-effect="#path-effect1957"
       inkscape:original-d="m 15.198127,83.834971 c 0.0668,-0.26579 0.13329,-0.53184 0.19955,-0.79817 0.75096,-0.0758 1.50161,-0.15177 2.252,-0.22805 0.0573,-0.19929 0.11429,-0.39882 0.17104,-0.59864 -0.0853,-0.41784 -0.17078,-0.83591 -0.25656,-1.25428 0.9695,-0.75992 1.93869,-1.52007 2.90764,-2.28051 0.43738,-0.53186 0.87446,-1.06397 1.3113,-1.59635 0.26633,-0.0187 0.53238,-0.0377 0.79817,-0.057 1.23557,1.18805 2.47082,2.37579 3.70583,3.56329 2.89847,2.99349 5.79655,5.9866 8.69443,8.9795 4.315317,3.92122 8.630137,7.841952 12.944907,11.762619 0.36135,1.37042 0.72242,2.74052 1.08324,4.11042 -0.72292,0.85714 -1.44608,1.71398 -2.16951,2.57057 -1.5106,1.55864 -3.0214,3.11696 -4.5325,4.67504 -2.79342,2.83195 -5.586977,5.66353 -8.380867,8.49488 -1.64364,1.51113 -3.28747,3.02194 -4.9316,4.53251 -0.57938,0.18081 -1.15899,0.36134 -1.73889,0.54162 -0.13276,0.29484 -0.26579,0.5894 -0.39909,0.8837 -0.10425,0.31384 -0.20878,0.6274 -0.31356,0.94071 -0.21829,0.11429 -0.43684,0.22831 -0.65565,0.34207 -0.45585,-0.0282 -0.91194,-0.0567 -1.36831,-0.0855 -0.74091,-0.2373 -1.48206,-0.47485 -2.22349,-0.71267 -0.31331,-0.61738 -0.62687,-1.235 -0.94071,-1.85291 0.11429,-0.81693 0.22832,-1.6341 0.34208,-2.45154 0.0478,-0.59838 0.0953,-1.19701 0.14253,-1.7959 0.57991,-0.41784 1.15952,-0.83592 1.73888,-1.25428 0.82697,0.0668 1.65364,0.13329 2.48006,0.19954 0.87447,-0.49385 1.74865,-0.98795 2.62258,-1.48233 0.28533,-0.2563 0.57039,-0.51284 0.85519,-0.76966 0.0668,-0.40833 0.1333,-0.81692 0.19955,-1.22577 0.49438,-0.21829 0.98848,-0.43684 1.48233,-0.65565 0.61791,-0.42734 1.23554,-0.85492 1.85291,-1.28278 0.47538,-0.52237 0.95048,-1.04497 1.42532,-1.56785 0.54088,-0.82827 1.08148,-1.65677 1.62184,-2.48558 0.49539,-0.98613 0.9905,-1.9725 1.48535,-2.95914 0.0288,-0.33231 0.0573,-0.66488 0.0855,-0.99772 -0.20879,-0.32282 -0.41783,-0.64588 -0.62714,-0.96921 -0.33231,-0.0282 -0.66487,-0.0568 -0.9977,-0.0855 -0.6839,0.26633 -1.36804,0.53238 -2.05246,0.79818 -1.73866,1.8152 -3.47751,3.63007 -5.21666,5.44471 -1.17802,1.33059 -2.35626,2.66086 -3.53479,3.99089 -0.14227,0.38986 -0.2848,0.77944 -0.42759,1.16876 0.0193,0.19031 0.0383,0.38035 0.057,0.57013 -0.17078,0.23782 -0.34181,0.47537 -0.51312,0.71265 -0.41783,0.01 -0.83592,0.0193 -1.25427,0.0285 -0.40834,-0.17078 -0.81692,-0.34181 -1.22578,-0.51311 -0.23729,-0.41784 -0.47484,-0.83593 -0.71265,-1.25428 -0.14228,-0.37033 -0.2848,-0.7409 -0.4276,-1.11175 -0.37033,-0.37033 -0.7409,-0.7409 -1.11175,-1.11175 -0.45584,-0.22779 -0.91194,-0.45584 -1.3683,-0.68415 -0.42734,-0.10426 -0.85493,-0.20878 -1.28279,-0.31357 0.19982,-0.32281 0.39936,-0.64588 0.59864,-0.96922 0.61791,0.0193 1.23554,0.0383 1.85291,0.057 0.46588,-0.38933 0.93147,-0.77891 1.39681,-1.16876 0.65592,-0.6744 1.31155,-1.34904 1.96694,-2.02396 0.21882,-0.38932 0.43736,-0.7789 0.65564,-1.16876 0.17131,-0.43684 0.34234,-0.87393 0.51312,-1.31129 0.0858,-0.36082 0.1713,-0.72189 0.25655,-1.08324 0.58941,-0.36082 1.17853,-0.72189 1.7674,-1.08324 0.76995,-0.34182 1.5396,-0.68389 2.30901,-1.02623 0.7111,-0.80226 1.42189,-1.60475 2.13245,-2.40754 0.42021,-0.63205 0.84014,-1.26435 1.25981,-1.896917 -0.15878,-0.31064 -0.31781,-0.62152 -0.47711,-0.93269 -0.34182,-0.50336 -0.68388,-1.00695 -1.02623,-1.51084 -1.38006,-1.199702 -2.76034,-2.399612 -4.1409,-3.599812 -1.00698,-1.10201 -2.01419,-2.20423 -3.02167,-3.30674 -1.00698,-0.92146 -2.01419,-1.84315 -3.02167,-2.76512 -1.17803,-0.87395 -2.35624,-1.7481 -3.53479,-2.62258 -0.29431,-0.13277 -0.58887,-0.2658 -0.8837,-0.39909 -0.13276,-0.21828 -0.39909,-0.65565 -0.39909,-0.65565 z"
       sodipodi:nodetypes="cccccccccccccccccccccccccccccccccccccccccccccccccccccccccccccccccccccscc" />
    <path
       style="fill:#000000;fill-opacity:0.829016;stroke-width:0.264583"
       d="m 21.937489,24.012572 c 2.229971,2.215586 6.689652,6.646497 9.78267,9.782685 3.093018,3.136189 4.819307,4.977567 6.301108,6.344226 1.481801,1.366658 2.718973,2.258573 3.697232,2.762003 0.978259,0.50343 1.69755,0.618517 2.316099,0.60408 0.618549,-0.01444 1.136429,-0.158292 1.553536,-0.402828 0.417107,-0.244536 0.733595,-0.589796 0.978155,-1.740588 0.244561,-1.150792 0.417191,-3.107259 0.489135,-6.977157 0.07194,-3.869898 0.04318,-9.652983 -0.01436,-13.983216 C 46.983524,16.071544 46.897209,13.19439 46.609592,11.439294 46.321975,9.684198 45.832857,9.0512209 45.358155,8.6051914 44.883453,8.1591619 44.423113,7.90022 43.862034,7.7418961 43.300955,7.5835721 42.639215,7.5260295 36.91344,7.540403 31.187665,7.5547765 20.398325,7.6410918 14.989006,7.7274881 9.5796879,7.8138845 9.5509175,7.9002114 9.4933884,8.2886751 c -0.057529,0.3884638 -0.143843,1.0789741 -0.014282,1.8271039 0.1295611,0.74813 0.4748216,1.553735 1.2661305,2.589518 0.791309,1.035782 2.028488,2.301732 3.107469,3.294359 1.07898,0.992627 1.999668,1.711917 2.574988,1.985119 0.57532,0.273202 0.805491,0.100572 0.877418,-0.316469 0.07193,-0.417042 -0.01438,-1.078782 0.02873,-1.639918 0.04311,-0.561135 0.215741,-1.021482 0.546708,-1.366849 0.330967,-0.345367 0.820086,-0.575541 1.999837,-0.690602 1.17975,-0.115062 3.04991,-0.115062 6.516999,-0.129448 3.46709,-0.01439 8.53078,-0.04315 11.307362,0.115203 2.776583,0.158357 3.265692,0.50361 3.510109,4.143379 0.244417,3.639769 0.244417,10.573726 0.04307,14.126927 -0.201349,3.553201 -0.604159,3.72583 -0.978107,3.769054 -0.373948,0.04322 -0.719208,-0.04309 -1.380993,-0.517756 -0.661784,-0.474664 -1.640015,-1.33781 -2.977947,-2.632566 -1.337932,-1.294756 -3.035454,-3.021048 -4.215139,-4.330174 -1.179686,-1.309126 -1.84143,-2.201042 -2.201171,-2.834035 -0.359741,-0.632993 -0.417283,-1.00702 -0.316569,-1.280527 0.100713,-0.273507 0.359655,-0.446134 0.776947,-0.561216 0.417291,-0.115081 0.992721,-0.172624 1.596971,0.0433 0.60425,0.21592 1.237221,0.705035 1.855812,1.266122 0.618591,0.561087 1.222791,1.194061 1.898975,1.697522 0.676184,0.503461 1.424245,0.877491 2.028333,0.90616 0.604089,0.02867 1.06443,-0.287817 1.366487,-0.748062 0.302057,-0.460246 0.445914,-1.06445 0.532248,-2.200931 0.08633,-1.13648 0.1151,-2.805232 5.7e-5,-4.0568 -0.115043,-1.251568 -0.373987,-2.085943 -0.604072,-2.589493 -0.230084,-0.503551 -0.431484,-0.676181 -3.596494,-0.733848 -3.16501,-0.05767 -9.29335,-1.24e-4 -12.386511,0.129444 -3.093162,0.129567 -3.150702,0.330963 -3.237018,0.676243 -0.08632,0.34528 -0.201403,0.834394 -0.158178,1.453064 0.04322,0.618671 0.244628,1.36673 0.345289,1.740611 0.100661,0.37388 0.100671,0.37388 2.330643,2.589466 z"
       id="path2685"
       inkscape:path-effect="#path-effect2687"
       inkscape:original-d="m 19.707517,21.796986 c 4.45994,4.431175 8.91962,8.862087 13.37904,13.29273 1.72663,1.84172 3.45292,3.683098 5.17898,5.524252 1.237497,0.89222 2.474667,1.784138 3.711607,2.67581 0.71958,0.115353 1.43887,0.230442 2.15791,0.345266 0.51818,-0.1436 1.03606,-0.287457 1.5537,-0.431583 0.31676,-0.345009 0.63325,-0.690267 0.94948,-1.035797 0.1729,-1.956281 0.34553,-3.912748 0.5179,-5.869516 -0.0285,-5.783054 -0.0573,-11.566139 -0.0863,-17.349602 -0.0861,-2.877008 -0.17237,-5.754164 -0.25895,-8.631642 -0.48887,-0.6327361 -0.97799,-1.2657121 -1.46738,-1.8989631 -0.4601,-0.258691 -0.92044,-0.517633 -1.38106,-0.776848 -0.66151,-0.05728 -1.32325,-0.114824 -1.98528,-0.172633 -10.789497,0.08658 -21.578837,0.172898 -32.3686568,0.258951 -0.0285,0.08658 -0.0573,0.172897 -0.0863,0.258947 -0.0861,0.690812 -0.17236,1.381329 -0.25895,2.0715951 0.34554,0.8059 0.6908,1.611506 1.0357998,2.41686 1.23749,1.266265 2.47467,2.532214 3.71161,3.797922 0.92099,0.719585 1.84168,1.438873 2.76212,2.157913 0.23045,-0.172374 0.46062,-0.345004 0.69053,-0.517901 -0.0861,-0.661506 -0.17236,-1.323253 -0.25894,-1.985277 0.1729,-0.460097 0.34553,-0.920443 0.51789,-1.381062 0.4894,-0.229917 0.97852,-0.460089 1.46738,-0.690533 1.87049,2.65e-4 3.74065,2.65e-4 5.61056,0 5.06427,-0.02851 10.12796,-0.05728 15.191687,-0.08631 0.4894,0.345537 0.97851,0.690788 1.46738,1.035795 2.7e-4,6.93448 2.6e-4,13.868437 0,20.802258 -0.40256,0.1729 -0.80537,0.345529 -1.20845,0.517897 -0.345,-0.08605 -0.69026,-0.172368 -1.03579,-0.258949 -0.978007,-0.862917 -1.956237,-1.726064 -2.934757,-2.589493 -1.69733,-1.726099 -3.39485,-3.452393 -5.09267,-5.178986 -0.66151,-0.891689 -1.32325,-1.783608 -1.98528,-2.675809 -0.0573,-0.373781 -0.11482,-0.747811 -0.17263,-1.122114 0.25922,-0.172371 0.51816,-0.345001 0.77685,-0.517898 0.57572,-0.05728 1.15115,-0.114824 1.72633,-0.172633 0.63326,0.489401 1.26623,0.978517 1.89896,1.467379 0.60449,0.633265 1.20869,1.266239 1.81264,1.898962 0.74836,0.37431 1.49642,0.74834 2.24423,1.122113 0.46063,-0.316235 0.92097,-0.632722 1.381057,-0.94948 0.14413,-0.603963 0.28799,-1.208166 0.43158,-1.812645 0.029,-1.668553 0.0578,-3.337304 0.0863,-5.006353 -0.25869,-0.834144 -0.51763,-1.66852 -0.77685,-2.503177 -0.201137,-0.172371 -0.402537,-0.345001 -0.604207,-0.517898 -6.12833,0.05781 -12.25667,0.115353 -18.3854,0.172633 -0.0573,0.201673 -0.11482,0.403074 -0.17263,0.604215 -0.11483,0.489401 -0.22991,0.978517 -0.34527,1.467379 0.20168,0.748355 0.40308,1.496415 0.60422,2.244225 z"
       sodipodi:nodetypes="ccccccccccccccccccccccccccc" />
    <path
       id="path2689"
       style="fill:#000000;fill-opacity:0.829016;stroke-width:0.264583"
       d="m 52.423234,10.058494 c -0.29472,-0.0028 -0.59136,0.02726 -0.89349,0.07131 -0.69057,0.100685 -1.40965,0.273528 -1.7694,0.417546 -0.35975,0.144017 -0.36018,0.258847 -0.36018,0.316259 0,0.05741 3.8e-4,0.05766 -0.11473,0.661975 -0.1151,0.604319 -0.34547,1.812581 -0.3886,3.567741 -0.0431,1.755161 0.10077,4.057141 0.28783,5.582089 0.18707,1.524947 0.41729,2.27269 0.74828,2.689758 0.33099,0.417068 0.76258,0.503252 1.3379,0.30179 0.57533,-0.201462 1.29453,-0.690558 2.4598,-1.611271 1.16527,-0.920713 2.77661,-2.272892 3.66851,-3.179134 0.8919,-0.906242 1.06423,-1.366251 1.10743,-2.056722 0.0432,-0.690471 -0.0428,-1.611247 -0.54622,-2.503206 -0.5034,-0.891959 -1.42422,-1.755469 -2.22984,-2.474785 -0.80562,-0.719315 -1.49631,-1.294402 -2.17248,-1.567863 -0.38034,-0.153822 -0.7559,-0.211933 -1.13481,-0.21549 z m -0.23461,4.00854 c 0.2003,-0.0058 0.38123,0.242196 0.44855,0.565857 0.0718,0.34524 0.0145,0.777026 0.23047,0.992705 0.21595,0.215678 0.70499,0.215306 1.07901,0.38809 0.37402,0.172783 0.63274,0.518075 0.64699,0.906404 0.0143,0.388329 -0.21571,0.820078 -0.6041,1.251603 -0.38839,0.431526 -0.93485,0.863201 -1.36633,1.079004 -0.43147,0.215804 -0.74794,0.215774 -0.97823,-0.244429 -0.23029,-0.460204 -0.37418,-1.38111 -0.38861,-2.158008 -0.0144,-0.776898 0.10022,-1.409904 0.27285,-1.899109 0.17264,-0.489204 0.40316,-0.834425 0.61909,-0.877466 0.0135,-0.0027 0.0269,-0.0043 0.0403,-0.0047 z" />
    <path
       id="path2697"
       style="fill:#000000;fill-opacity:0.829016;stroke-width:0.264583"
       d="m 51.266194,29.818528 c -0.0541,2.48e-4 -0.10491,0.0021 -0.15348,0.0057 -0.38852,0.02873 -0.61869,0.143973 -0.92087,0.474907 -0.30218,0.330933 -0.67623,0.877609 -0.90641,1.453141 -0.23017,0.575532 -0.31644,1.179543 -0.34519,2.661336 -0.0288,1.481794 -3.3e-4,3.841096 0.12919,5.45238 0.12951,1.611285 0.35986,2.474858 0.4749,2.906283 0.11505,0.431425 0.1151,0.431423 0.20154,0.532267 0.0864,0.100845 0.25875,0.301998 0.50333,0.40256 0.24458,0.100562 0.56101,0.100494 1.13636,-0.129708 0.57536,-0.230203 1.40983,-0.690504 2.48874,-1.596802 1.07891,-0.906298 2.40263,-2.258611 3.23701,-3.208073 0.83439,-0.949462 1.17972,-1.495774 1.35237,-1.970422 0.17266,-0.474648 0.17231,-0.877938 0.1292,-1.223181 -0.0431,-0.345244 -0.12928,-0.632759 -0.40256,-1.121896 -0.27329,-0.489137 -0.73376,-1.179641 -1.69757,-1.970939 -0.96382,-0.791297 -2.43099,-1.683178 -3.43804,-2.158008 -0.88117,-0.415475 -1.40984,-0.51127 -1.78852,-0.509529 z m 0.57981,3.465421 c 0.007,-2.38e-4 0.0138,-3.02e-4 0.0207,0 0.21865,0.0097 0.3898,0.294875 0.48473,0.59893 0.0949,0.304056 0.11385,0.626687 0.17208,0.911056 0.0582,0.284368 0.15584,0.530208 0.33486,0.722953 0.17902,0.192746 0.43956,0.332832 0.67593,0.399975 0.23636,0.06714 0.44873,0.06138 0.65939,0.04909 0.21065,-0.01229 0.43976,-0.172241 0.54417,-0.02956 0.1044,0.142678 0.0844,0.587635 -0.001,0.768016 -0.0854,0.180381 -0.25677,0.237539 -0.4563,0.294556 -0.19953,0.05702 -0.42749,0.11384 -0.678,0.13901 -0.25051,0.02517 -0.76551,-0.163088 -0.90761,8.99e-4 -0.14209,0.163989 -0.0928,0.760846 -0.11727,1.151028 -0.0245,0.390182 0.24032,1.13847 -0.3221,1.100057 l -0.65543,-0.04023 c -0.57665,-0.04904 -0.26607,-1.853149 -0.33672,-2.777107 -0.0707,-0.923958 -0.0182,-1.85485 0.10065,-2.534272 0.10533,-0.602264 0.58133,-0.406787 0.52234,-0.61322 z"
       sodipodi:nodetypes="ssssssssssssssssssscssssssssssccccsssc" />
    <path
       style="fill:#000000;fill-opacity:0.829016;stroke-width:0.264583"
       d="m 22.133091,137.98741 c 2.229974,-2.21558 6.689655,-6.64649 9.782676,-9.78268 3.09302,-3.13619 4.819306,-4.97756 6.301109,-6.34422 1.481803,-1.36666 2.718978,-2.25857 3.697235,-2.762 0.978257,-0.50343 1.697548,-0.61851 2.316097,-0.60408 0.61855,0.0144 1.136429,0.15829 1.553536,0.40283 0.417107,0.24453 0.733596,0.58979 0.978156,1.74058 0.24456,1.1508 0.417189,3.10726 0.489134,6.97716 0.07194,3.8699 0.04318,9.65298 -0.01436,13.98321 -0.05754,4.33023 -0.143854,7.20739 -0.43147,8.96249 -0.287616,1.75509 -0.776736,2.38807 -1.251438,2.8341 -0.474701,0.44603 -0.93504,0.70497 -1.496121,0.8633 -0.561081,0.15832 -1.222819,0.21586 -6.948594,0.20149 -5.725775,-0.0144 -16.515115,-0.10069 -21.924436,-0.1871 -5.4093218,-0.0864 -5.4380868,-0.17271 -5.4956157,-0.56118 -0.057529,-0.38846 -0.1438436,-1.07897 -0.014282,-1.8271 0.1295615,-0.74813 0.4748219,-1.55373 1.2661309,-2.58952 0.79131,-1.03578 2.028484,-2.30173 3.107462,-3.29435 1.078979,-0.99263 1.999669,-1.71192 2.57499,-1.98513 0.575322,-0.2732 0.805499,-0.10057 0.877423,0.31647 0.07192,0.41705 -0.01439,1.07879 0.02872,1.63992 0.04311,0.56114 0.215742,1.02148 0.546712,1.36685 0.330969,0.34537 0.820087,0.57554 1.999838,0.69061 1.179751,0.11506 3.049901,0.11506 6.516995,0.12944 3.467094,0.0144 8.530785,0.0431 11.307366,-0.1152 2.776582,-0.15836 3.265691,-0.50361 3.510109,-4.14338 0.244418,-3.63977 0.244418,-10.57373 0.04307,-14.12693 -0.201348,-3.5532 -0.604158,-3.72583 -0.978112,-3.76906 -0.373955,-0.0432 -0.719204,0.0431 -1.380988,0.51776 -0.661784,0.47467 -1.640016,1.33782 -2.977948,2.63257 -1.337933,1.29476 -3.035453,3.02105 -4.215139,4.33017 -1.179685,1.30913 -1.84143,2.20104 -2.20117,2.83404 -0.359741,0.63299 -0.417282,1.00702 -0.316568,1.28053 0.100713,0.2735 0.359656,0.44613 0.776947,0.56121 0.417292,0.11508 0.99272,0.17263 1.59697,-0.0433 0.604249,-0.21592 1.237222,-0.70504 1.855814,-1.26613 0.618592,-0.56108 1.22279,-1.19405 1.898973,-1.69752 0.676183,-0.50346 1.424243,-0.87749 2.028334,-0.90616 0.604091,-0.0287 1.064431,0.28782 1.366487,0.74807 0.302057,0.46024 0.445913,1.06444 0.532247,2.20092 0.08633,1.13648 0.1151,2.80523 5.6e-5,4.05681 -0.115043,1.25157 -0.373986,2.08594 -0.604071,2.58949 -0.230085,0.50355 -0.431483,0.67618 -3.596493,0.73385 -3.16501,0.0577 -9.293351,1.2e-4 -12.386514,-0.12945 -3.093162,-0.12956 -3.150707,-0.33096 -3.237022,-0.67624 -0.08632,-0.34528 -0.201401,-0.8344 -0.158175,-1.45307 0.04322,-0.61867 0.244624,-1.36673 0.345284,-1.74061 0.100659,-0.37388 0.100669,-0.37388 2.330643,-2.58947 z"
       id="path2685-5"
       inkscape:path-effect="#path-effect2687-3"
       inkscape:original-d="m 19.903117,140.203 c 4.45995,-4.43117 8.91963,-8.86208 13.37905,-13.29273 1.72663,-1.84172 3.45292,-3.68309 5.17898,-5.52425 1.237497,-0.89222 2.474667,-1.78414 3.711607,-2.6758 0.71958,-0.11535 1.43887,-0.23044 2.15791,-0.34526 0.51818,0.1436 1.03606,0.28745 1.5537,0.43157 0.31676,0.34501 0.63325,0.69027 0.94948,1.0358 0.1729,1.95628 0.34553,3.91274 0.5179,5.86951 -0.0285,5.78306 -0.0573,11.56614 -0.0863,17.3496 -0.0861,2.87701 -0.17237,5.75417 -0.25895,8.63165 -0.48887,0.63273 -0.97799,1.26571 -1.46738,1.89896 -0.4601,0.25869 -0.92044,0.51763 -1.38106,0.77685 -0.66151,0.0573 -1.32325,0.11482 -1.98528,0.17263 -10.789497,-0.0866 -21.578837,-0.1729 -32.3686568,-0.25895 -0.0285,-0.0866 -0.0573,-0.1729 -0.0863,-0.25895 -0.0861,-0.69081 -0.17237,-1.38133 -0.25895,-2.07159 0.34554,-0.8059 0.6907898,-1.61151 1.0357998,-2.41686 1.23749,-1.26627 2.47466,-2.53222 3.7116,-3.79792 0.92099,-0.71959 1.84168,-1.43888 2.76213,-2.15792 0.23044,0.17238 0.46062,0.34501 0.69053,0.5179 -0.0861,0.66151 -0.17237,1.32326 -0.25895,1.98528 0.1729,0.4601 0.34553,0.92044 0.5179,1.38106 0.4894,0.22992 0.97852,0.46009 1.46738,0.69054 1.87049,-2.7e-4 3.74064,-2.7e-4 5.61056,0 5.06427,0.0285 10.12796,0.0573 15.191687,0.0863 0.4894,-0.34553 0.97851,-0.69078 1.46738,-1.03579 2.7e-4,-6.93448 2.6e-4,-13.86844 0,-20.80226 -0.40256,-0.1729 -0.80537,-0.34553 -1.20845,-0.5179 -0.345,0.0861 -0.69026,0.17237 -1.03579,0.25895 -0.978007,0.86292 -1.956237,1.72607 -2.934757,2.5895 -1.69733,1.7261 -3.39485,3.45239 -5.09267,5.17898 -0.66151,0.89169 -1.32325,1.78361 -1.98528,2.67581 -0.0573,0.37378 -0.11482,0.74781 -0.17263,1.12212 0.25922,0.17237 0.51816,0.345 0.77685,0.51789 0.57572,0.0573 1.15115,0.11483 1.72633,0.17264 0.63326,-0.4894 1.26623,-0.97852 1.89896,-1.46738 0.60449,-0.63327 1.20869,-1.26624 1.81264,-1.89896 0.74836,-0.37431 1.49642,-0.74834 2.24423,-1.12212 0.46063,0.31624 0.920967,0.63273 1.381057,0.94948 0.14413,0.60397 0.28799,1.20817 0.43158,1.81265 0.029,1.66855 0.0578,3.3373 0.0863,5.00635 -0.25869,0.83415 -0.51763,1.66852 -0.77685,2.50318 -0.20114,0.17237 -0.402537,0.345 -0.604207,0.5179 -6.12833,-0.0578 -12.25667,-0.11536 -18.3854,-0.17264 -0.0573,-0.20167 -0.11483,-0.40307 -0.17264,-0.60421 -0.11482,-0.4894 -0.22991,-0.97852 -0.34526,-1.46738 0.20167,-0.74836 0.40307,-1.49642 0.60421,-2.24423 z"
       sodipodi:nodetypes="ccccccccccccccccccccccccccc" />
    <path
       id="path2689-3"
       style="fill:#000000;fill-opacity:0.829016;stroke-width:0.264583"
       d="m 52.618844,151.9415 c -0.29472,0.003 -0.59136,-0.0273 -0.89349,-0.0713 -0.69057,-0.10069 -1.40965,-0.27353 -1.7694,-0.41755 -0.35975,-0.14402 -0.36018,-0.25885 -0.36018,-0.31626 0,-0.0574 3.8e-4,-0.0577 -0.11473,-0.66197 -0.1151,-0.60432 -0.34547,-1.81259 -0.3886,-3.56774 -0.0431,-1.75517 0.10077,-4.05715 0.28783,-5.58209 0.18707,-1.52495 0.41729,-2.27269 0.74828,-2.68976 0.33099,-0.41707 0.76258,-0.50325 1.3379,-0.30179 0.57533,0.20146 1.29453,0.69056 2.4598,1.61127 1.16527,0.92071 2.77661,2.27289 3.66851,3.17913 0.8919,0.90625 1.06423,1.36625 1.10743,2.05673 0.0432,0.69047 -0.0428,1.61124 -0.54622,2.5032 -0.5034,0.89196 -1.42422,1.75547 -2.22984,2.47479 -0.80562,0.71931 -1.49631,1.2944 -2.17248,1.56786 -0.38034,0.15382 -0.7559,0.21193 -1.13481,0.21549 z m -0.23461,-4.00854 c 0.2003,0.006 0.38123,-0.2422 0.44855,-0.56586 0.0718,-0.34524 0.0145,-0.77703 0.23047,-0.99271 0.21595,-0.21567 0.70499,-0.2153 1.07901,-0.38809 0.37402,-0.17278 0.63274,-0.51807 0.64699,-0.9064 0.0143,-0.38833 -0.21571,-0.82008 -0.6041,-1.2516 -0.38839,-0.43153 -0.93485,-0.8632 -1.36633,-1.07901 -0.43147,-0.2158 -0.74794,-0.21577 -0.97823,0.24443 -0.23029,0.46021 -0.37418,1.38111 -0.38861,2.15801 -0.0144,0.7769 0.10022,1.4099 0.27285,1.89911 0.17264,0.4892 0.40316,0.83442 0.61909,0.87746 0.0135,0.003 0.0269,0.004 0.0403,0.005 z" />
    <path
       id="path2697-8"
       style="fill:#000000;fill-opacity:0.829016;stroke-width:0.264583"
       d="m 51.461804,132.18146 c -0.0541,-2.5e-4 -0.10491,-0.002 -0.15348,-0.006 -0.38852,-0.0287 -0.61869,-0.14397 -0.92087,-0.4749 -0.30218,-0.33094 -0.67623,-0.87761 -0.90641,-1.45315 -0.23017,-0.57553 -0.31644,-1.17954 -0.34519,-2.66133 -0.0288,-1.4818 -3.3e-4,-3.8411 0.12919,-5.45238 0.12951,-1.61129 0.35986,-2.47486 0.4749,-2.90629 0.11505,-0.43142 0.1151,-0.43142 0.20154,-0.53225 0.0864,-0.10085 0.25875,-0.302 0.50333,-0.40256 0.24458,-0.10056 0.56101,-0.1005 1.13636,0.12971 0.57536,0.2302 1.40983,0.69049 2.48874,1.59679 1.07891,0.9063 2.40263,2.25861 3.23701,3.20807 0.83439,0.94946 1.17972,1.49577 1.35237,1.97042 0.17266,0.47465 0.17231,0.87794 0.1292,1.22318 -0.0431,0.34525 -0.12928,0.63276 -0.40256,1.1219 -0.27329,0.48914 -0.73376,1.17964 -1.69757,1.97094 -0.96382,0.7913 -2.43099,1.68318 -3.43804,2.15801 -0.88117,0.41547 -1.40984,0.51127 -1.78852,0.50953 z m 0.57981,-3.46542 c 0.007,2.4e-4 0.0138,3e-4 0.0207,0 0.21865,-0.01 0.3898,-0.29487 0.48473,-0.59893 0.0949,-0.30406 0.11385,-0.62669 0.17208,-0.91105 0.0582,-0.28437 0.15584,-0.53021 0.33486,-0.72296 0.17902,-0.19274 0.43956,-0.33283 0.67593,-0.39997 0.23636,-0.0671 0.44873,-0.0614 0.65939,-0.0491 0.21065,0.0123 0.43976,0.17224 0.54417,0.0296 0.1044,-0.14268 0.0844,-0.58764 -10e-4,-0.76802 -0.0854,-0.18038 -0.25677,-0.23754 -0.4563,-0.29455 -0.19953,-0.057 -0.42749,-0.11384 -0.678,-0.13901 -0.25051,-0.0252 -0.76551,0.16308 -0.90761,-9e-4 -0.14209,-0.16399 -0.0928,-0.76085 -0.11727,-1.15103 -0.0245,-0.39018 0.24032,-1.13847 -0.3221,-1.10006 l -0.65543,0.0402 c -0.57665,0.049 -0.26607,1.85315 -0.33672,2.77711 -0.0707,0.92396 -0.0182,1.85485 0.10065,2.53427 0.10533,0.60226 0.58133,0.40679 0.52234,0.61322 z"
       sodipodi:nodetypes="ssssssssssssssssssscssssssssssccccsssc" />
    <path
       style="fill:#000000;fill-opacity:0.829016;stroke-width:0.264583"
       d="m 53.225594,38.538385 c 0.323368,0.05707 0.646447,0.114081 0.96921,0.17104"
       id="path3487"
       inkscape:path-effect="#path-effect3489"
       inkscape:original-d="m 53.225594,38.538385 c 0.32333,0.05728 0.64641,0.114293 0.96921,0.17104" />
  </g>
</svg>
