<?xml version="1.0" encoding="UTF-8" standalone="no"?>
<!-- Created with Inkscape (http://www.inkscape.org/) -->

<svg
   width="36.628773mm"
   height="22.324203mm"
   viewBox="0 0 36.628773 22.324203"
   version="1.1"
   id="svg2179"
   xml:space="preserve"
   inkscape:export-filename="equipment_background.svg"
   inkscape:export-xdpi="96"
   inkscape:export-ydpi="96"
   sodipodi:docname="features and traits.svg"
   xmlns:inkscape="http://www.inkscape.org/namespaces/inkscape"
   xmlns:sodipodi="http://sodipodi.sourceforge.net/DTD/sodipodi-0.dtd"
   xmlns="http://www.w3.org/2000/svg"
   xmlns:svg="http://www.w3.org/2000/svg"><sodipodi:namedview
     id="namedview2181"
     pagecolor="#ffffff"
     bordercolor="#000000"
     borderopacity="0.25"
     inkscape:showpageshadow="2"
     inkscape:pageopacity="0.0"
     inkscape:pagecheckerboard="0"
     inkscape:deskcolor="#d1d1d1"
     inkscape:document-units="mm"
     showgrid="false"
     showguides="true" /><defs
     id="defs2176"><inkscape:path-effect
       effect="bspline"
       id="path-effect2687-6-5-9-9-9"
       is_visible="true"
       lpeversion="1"
       weight="33.333333"
       steps="2"
       helper_size="0"
       apply_no_weight="true"
       apply_with_weight="true"
       only_selected="false" /><inkscape:path-effect
       effect="bspline"
       id="path-effect2687-6-5-3-7-5-1"
       is_visible="true"
       lpeversion="1"
       weight="33.333333"
       steps="2"
       helper_size="0"
       apply_no_weight="true"
       apply_with_weight="true"
       only_selected="false" /><inkscape:path-effect
       effect="bspline"
       id="path-effect6055-4-5-9-1"
       is_visible="true"
       lpeversion="1"
       weight="33.333333"
       steps="2"
       helper_size="0"
       apply_no_weight="true"
       apply_with_weight="true"
       only_selected="false" /><inkscape:path-effect
       effect="bspline"
       id="path-effect2687-6-5-9-9-9-0"
       is_visible="true"
       lpeversion="1"
       weight="33.333333"
       steps="2"
       helper_size="0"
       apply_no_weight="true"
       apply_with_weight="true"
       only_selected="false" /><inkscape:path-effect
       effect="bspline"
       id="path-effect2687-6-5-3-7-5-1-3"
       is_visible="true"
       lpeversion="1"
       weight="33.333333"
       steps="2"
       helper_size="0"
       apply_no_weight="true"
       apply_with_weight="true"
       only_selected="false" /><inkscape:path-effect
       effect="bspline"
       id="path-effect6055-4-5-9-1-2"
       is_visible="true"
       lpeversion="1"
       weight="33.333333"
       steps="2"
       helper_size="0"
       apply_no_weight="true"
       apply_with_weight="true"
       only_selected="false" /><inkscape:path-effect
       effect="bspline"
       id="path-effect6055-0-3"
       is_visible="true"
       lpeversion="1"
       weight="33.333333"
       steps="2"
       helper_size="0"
       apply_no_weight="true"
       apply_with_weight="true"
       only_selected="false" /><inkscape:path-effect
       effect="bspline"
       id="path-effect6055-0-3-76"
       is_visible="true"
       lpeversion="1"
       weight="33.333333"
       steps="2"
       helper_size="0"
       apply_no_weight="true"
       apply_with_weight="true"
       only_selected="false" /></defs><g
     inkscape:label="Layer 1"
     inkscape:groupmode="layer"
     id="layer1"
     transform="translate(-240.85928,-139.79101)"><path
       style="fill:#000000;fill-opacity:1;stroke-width:0.103244"
       d="m 258.77517,140.16853 c 3.60884,-0.0208 7.21754,-0.0415 9.16545,-0.0392 1.94792,0.002 2.23406,0.0277 2.42133,0.1311 0.18726,0.10335 0.27486,0.28429 0.35543,0.43768 0.0806,0.1534 0.15396,0.27897 0.19942,0.36509 0.0455,0.0861 0.063,0.13271 0.0598,0.15959 -0.003,0.0269 -0.0272,0.034 -0.0512,0.0411 -0.0287,0.008 -0.0574,0.0169 -0.12444,0.008 -0.067,-0.009 -0.17223,-0.0346 -0.46389,-0.061 -0.29165,-0.0264 -0.7696,-0.0532 -2.57866,-0.10514 -1.80907,-0.0519 -4.9479,-0.12885 -8.10696,-0.15436 -3.15906,-0.0255 -6.3374,4.2e-4 -8.22081,0.0263 -1.88341,0.0259 -2.47169,0.0519 -2.83608,0.0882 -0.3644,0.0363 -0.50497,0.083 -0.60594,0.11935 -0.10096,0.0363 -0.16246,0.0623 -0.24008,0.0716 -0.0776,0.009 -0.1713,0.002 -0.15972,-0.11093 0.0116,-0.11311 0.12839,-0.33144 0.24205,-0.54983 0.11365,-0.21839 0.22374,-0.43608 0.30671,-0.54517 0.083,-0.10909 0.13855,-0.10909 1.85433,-0.0791 1.71578,0.0299 5.09151,0.0898 8.46719,0.14969"
       id="path6053-9-3"
       inkscape:path-effect="#path-effect6055-0-3"
       inkscape:original-d="m 258.77517,140.16853 c 3.60884,-0.0207 7.21754,-0.0414 10.82611,-0.0623 0.28725,0.0256 0.57339,0.051 0.86018,0.0763 0.0878,0.18125 0.17535,0.36221 0.26303,0.54333 0.0734,0.1257 0.14685,0.25124 0.22016,0.37665 0.0177,0.0468 0.0352,0.0934 0.0527,0.14011 -0.0239,0.007 -0.0719,0.0213 -0.0719,0.0213 0,0 -0.0574,0.017 -0.0861,0.0254 -0.10537,-0.0259 -0.21058,-0.0518 -0.31608,-0.0778 -0.47781,-0.0267 -0.95575,-0.0536 -1.4338,-0.0805 -3.14008,-0.0769 -6.27891,-0.15384 -9.41864,-0.23088 -3.17839,0.026 -6.35673,0.052 -9.53539,0.0778 -0.58816,0.026 -1.17643,0.052 -1.76484,0.0778 -0.14035,0.0468 -0.28093,0.0935 -0.42146,0.14011 -0.0614,0.026 -0.12288,0.052 -0.18438,0.0778 -0.0938,-0.007 -0.18748,-0.0143 -0.28149,-0.0216 0.11724,-0.21897 0.23406,-0.43729 0.35107,-0.65615 0.1103,-0.21793 0.22039,-0.43561 0.33066,-0.65383 0.0556,8e-5 0.11118,8e-5 0.1667,0 3.37604,0.06 6.75177,0.11983 10.12745,0.17963"
       sodipodi:nodetypes="cccccccccccccccccccc" /><path
       style="fill:#000000;fill-opacity:1;stroke-width:0.103244"
       d="m 258.97661,161.84463 c 3.60884,0.0208 7.21754,0.0415 9.16545,0.0392 1.94792,-0.002 2.23406,-0.0277 2.42133,-0.1311 0.18726,-0.10335 0.27486,-0.28429 0.35543,-0.43768 0.0806,-0.1534 0.15396,-0.27897 0.19942,-0.36509 0.0455,-0.0861 0.063,-0.13271 0.0598,-0.15959 -0.003,-0.0269 -0.0272,-0.034 -0.0512,-0.0411 -0.0287,-0.008 -0.0574,-0.0169 -0.12444,-0.008 -0.067,0.009 -0.17223,0.0346 -0.46389,0.061 -0.29165,0.0264 -0.7696,0.0532 -2.57866,0.10514 -1.80907,0.0519 -4.9479,0.12885 -8.10696,0.15436 -3.15906,0.0255 -6.3374,-4.2e-4 -8.22081,-0.0263 -1.88341,-0.0259 -2.47169,-0.0519 -2.83608,-0.0882 -0.3644,-0.0363 -0.50497,-0.083 -0.60594,-0.11935 -0.10096,-0.0363 -0.16246,-0.0623 -0.24008,-0.0716 -0.0776,-0.009 -0.1713,-0.002 -0.15972,0.11093 0.0116,0.11311 0.12839,0.33144 0.24205,0.54983 0.11365,0.21839 0.22374,0.43608 0.30671,0.54517 0.083,0.10909 0.13855,0.10909 1.85433,0.0791 1.71578,-0.0299 5.09151,-0.0898 8.46719,-0.14969"
       id="path6053-9-3-1"
       inkscape:path-effect="#path-effect6055-0-3-76"
       inkscape:original-d="m 258.97661,161.84463 c 3.60884,0.0207 7.21754,0.0414 10.82611,0.0623 0.28725,-0.0256 0.57339,-0.051 0.86018,-0.0763 0.0878,-0.18125 0.17535,-0.36221 0.26303,-0.54333 0.0734,-0.1257 0.14685,-0.25124 0.22016,-0.37665 0.0177,-0.0468 0.0352,-0.0934 0.0527,-0.14011 -0.0239,-0.007 -0.0719,-0.0213 -0.0719,-0.0213 0,0 -0.0574,-0.017 -0.0861,-0.0254 -0.10537,0.0259 -0.21058,0.0518 -0.31608,0.0778 -0.47781,0.0267 -0.95575,0.0536 -1.4338,0.0805 -3.14008,0.0769 -6.27891,0.15384 -9.41864,0.23088 -3.17839,-0.026 -6.35673,-0.052 -9.53539,-0.0778 -0.58816,-0.026 -1.17643,-0.052 -1.76484,-0.0778 -0.14035,-0.0468 -0.28093,-0.0935 -0.42146,-0.14011 -0.0614,-0.026 -0.12288,-0.052 -0.18438,-0.0778 -0.0938,0.007 -0.18748,0.0143 -0.28149,0.0216 0.11724,0.21897 0.23406,0.43729 0.35107,0.65615 0.1103,0.21793 0.22039,0.43561 0.33066,0.65383 0.0556,-8e-5 0.11118,-8e-5 0.1667,0 3.37604,-0.06 6.75177,-0.11983 10.12745,-0.17963"
       sodipodi:nodetypes="cccccccccccccccccccc" /><g
       id="g23159"><g
         id="g22859-3-8-1"
         transform="matrix(-1,0,0,1,558.46787,66.325645)"><path
           style="fill:#000000;fill-opacity:1;stroke-width:0.0351956"
           d="m 312.72928,75.656817 c 0.29663,0.294722 0.88987,0.884135 1.30132,1.301321 0.41144,0.417187 0.64108,0.662135 0.83819,0.843932 0.19711,0.181797 0.36168,0.300441 0.49181,0.367408 0.13012,0.06697 0.22581,0.08228 0.30808,0.08036 0.0823,-0.0019 0.15119,-0.02106 0.20667,-0.05358 0.0555,-0.03252 0.0976,-0.07845 0.13011,-0.231539 0.0325,-0.153091 0.0555,-0.413349 0.0651,-0.928133 0.01,-0.514784 0.006,-1.284069 -0.002,-1.860089 -0.008,-0.576021 -0.0192,-0.958745 -0.0574,-1.192208 -0.0383,-0.233462 -0.10334,-0.317675 -0.16648,-0.377006 -0.0631,-0.05933 -0.12439,-0.09378 -0.19903,-0.11484 -0.0746,-0.02106 -0.16266,-0.02871 -0.92431,-0.0268 -0.76166,0.0019 -2.1969,0.0134 -2.91648,0.02492 -0.71957,0.01153 -0.72342,0.02306 -0.73105,0.07468 -0.008,0.05162 -0.0191,0.143474 -0.002,0.242999 0.0172,0.09952 0.0632,0.206679 0.16843,0.344462 0.10526,0.137782 0.26983,0.30618 0.41336,0.43822 0.14352,0.132041 0.266,0.227721 0.34251,0.264076 0.0765,0.03636 0.10718,0.01334 0.11672,-0.04212 0.01,-0.05547 -0.002,-0.143482 0.004,-0.218129 0.006,-0.07465 0.0287,-0.135889 0.0727,-0.181826 0.044,-0.04594 0.10908,-0.07655 0.26602,-0.09186 0.15693,-0.01531 0.40571,-0.01531 0.86691,-0.01722 0.4612,-0.0019 1.13479,-0.0057 1.50414,0.01532 0.36934,0.02106 0.43441,0.06699 0.46693,0.551166 0.0325,0.484171 0.0325,1.406548 0.006,1.879196 -0.0268,0.472647 -0.0804,0.495628 -0.13014,0.501375 -0.0498,0.0057 -0.0956,-0.0057 -0.18368,-0.06887 -0.0881,-0.06314 -0.21817,-0.17796 -0.39615,-0.350192 -0.17797,-0.172232 -0.40378,-0.40187 -0.56071,-0.576015 -0.15692,-0.174145 -0.24495,-0.292792 -0.29282,-0.37702 -0.0479,-0.08423 -0.0555,-0.133924 -0.0421,-0.170311 0.0134,-0.03639 0.0478,-0.05933 0.10334,-0.07464 0.0555,-0.01531 0.13206,-0.02296 0.21242,0.0058 0.0804,0.02871 0.16459,0.0938 0.24688,0.168433 0.0823,0.07464 0.16266,0.158839 0.25263,0.225821 0.09,0.06698 0.18944,0.11672 0.2698,0.120526 0.0804,0.0038 0.14159,-0.03828 0.18177,-0.09951 0.0402,-0.06123 0.0593,-0.141591 0.0708,-0.292772 0.0115,-0.15118 0.0153,-0.373163 2e-5,-0.539646 -0.0153,-0.166484 -0.0497,-0.277466 -0.0804,-0.344463 -0.0306,-0.067 -0.0574,-0.08992 -0.47841,-0.0976 -0.42104,-0.0077 -1.23624,-3.9e-5 -1.64771,0.01724 -0.41147,0.01728 -0.41908,0.04399 -0.43054,0.08991 -0.0115,0.04592 -0.0268,0.110986 -0.021,0.193276 0.006,0.08229 0.0326,0.181798 0.046,0.231537 0.0134,0.04974 0.0134,0.04973 0.31001,0.344456 z"
           id="path2685-7-3-6-7-0"
           sodipodi:nodetypes="ccccccccccccccccccccccccccc"
           inkscape:original-d="m 312.43264,75.362094 c 0.59327,0.589448 1.18651,1.178861 1.77972,1.768238 0.22968,0.244992 0.45932,0.489939 0.68892,0.734852 0.16462,0.118688 0.32919,0.237334 0.49373,0.355946 0.0957,0.01536 0.1914,0.03065 0.28705,0.04593 0.0689,-0.01911 0.13782,-0.03824 0.20668,-0.05741 0.0421,-0.04589 0.0842,-0.09182 0.1263,-0.137784 0.023,-0.260231 0.046,-0.520486 0.0689,-0.78078 -0.004,-0.769279 -0.008,-1.538563 -0.0115,-2.307896 -0.0115,-0.38271 -0.0229,-0.765437 -0.0345,-1.148208 -0.065,-0.08417 -0.13009,-0.168369 -0.19519,-0.252606 -0.0612,-0.03441 -0.12244,-0.06886 -0.18372,-0.103339 -0.088,-0.0076 -0.17602,-0.01528 -0.26408,-0.02296 -1.43525,0.01152 -2.87049,0.023 -4.30578,0.03445 -0.004,0.01152 -0.008,0.023 -0.0115,0.03445 -0.0115,0.09189 -0.0229,0.183749 -0.0344,0.27557 0.046,0.107203 0.0919,0.214367 0.13778,0.321498 0.16462,0.168442 0.32919,0.336842 0.49373,0.50521 0.12251,0.09572 0.24498,0.191403 0.36743,0.287052 0.0306,-0.02292 0.0613,-0.04589 0.0918,-0.06889 -0.0115,-0.088 -0.0229,-0.176024 -0.0344,-0.264089 0.023,-0.06121 0.046,-0.122441 0.0689,-0.183712 0.0651,-0.03059 0.13016,-0.06121 0.19519,-0.09186 0.24882,3.5e-5 0.4976,3.5e-5 0.74634,0 0.67366,-0.0038 1.34725,-0.0076 2.02084,-0.01148 0.0651,0.04596 0.13017,0.09189 0.1952,0.137785 3e-5,0.922443 3e-5,1.84482 0,2.767176 -0.0535,0.02301 -0.10714,0.04596 -0.16076,0.06889 -0.0459,-0.01146 -0.0918,-0.02292 -0.13778,-0.03445 -0.1301,-0.114788 -0.26022,-0.229605 -0.39039,-0.344462 -0.22578,-0.229609 -0.45159,-0.459248 -0.67744,-0.688923 -0.088,-0.118616 -0.17603,-0.237261 -0.26409,-0.355946 -0.008,-0.04972 -0.0153,-0.09947 -0.023,-0.149265 0.0345,-0.02292 0.0689,-0.04589 0.10334,-0.06889 0.0766,-0.0076 0.15313,-0.01527 0.22964,-0.02295 0.0842,0.0651 0.16844,0.130165 0.25261,0.195195 0.0804,0.08424 0.16078,0.168439 0.24112,0.252605 0.0996,0.04979 0.19906,0.09955 0.29853,0.149268 0.0613,-0.04207 0.12251,-0.08417 0.18372,-0.126304 0.0192,-0.08034 0.0383,-0.160712 0.0574,-0.241122 0.004,-0.221957 0.008,-0.443937 0.0115,-0.665959 -0.0344,-0.11096 -0.0688,-0.221954 -0.10333,-0.332983 -0.0268,-0.02292 -0.0535,-0.04589 -0.0804,-0.06889 -0.81521,0.0077 -1.63041,0.01533 -2.44568,0.02295 -0.008,0.02682 -0.0153,0.05362 -0.0229,0.08037 -0.0153,0.0651 -0.0306,0.130165 -0.0459,0.195195 0.0268,0.09955 0.0536,0.199059 0.0804,0.298533 z"
           inkscape:path-effect="#path-effect2687-6-5-9-9-9" /><path
           id="path2689-7-0-3-0-2"
           style="fill:#000000;fill-opacity:1;stroke-width:0.0351956"
           d="m 316.77053,73.674148 c -0.0392,-3.6e-4 -0.0787,0.0036 -0.11885,0.0095 -0.0919,0.01339 -0.18752,0.03639 -0.23538,0.05554 -0.0478,0.01916 -0.0479,0.03443 -0.0479,0.04207 0,0.0076 5e-5,0.0077 -0.0153,0.08806 -0.0153,0.08039 -0.046,0.241115 -0.0517,0.474593 -0.006,0.233475 0.0134,0.539691 0.0383,0.742544 0.0249,0.202853 0.0555,0.302321 0.0995,0.3578 0.044,0.05548 0.10144,0.06694 0.17797,0.04015 0.0765,-0.02679 0.1722,-0.09186 0.32721,-0.214336 0.15501,-0.122477 0.36935,-0.302349 0.488,-0.422899 0.11864,-0.120551 0.14156,-0.181741 0.14731,-0.273589 0.006,-0.09185 -0.006,-0.214334 -0.0727,-0.332986 -0.067,-0.118651 -0.18945,-0.233517 -0.29662,-0.329203 -0.10717,-0.09569 -0.19904,-0.172186 -0.28899,-0.208562 -0.0506,-0.02046 -0.10055,-0.02819 -0.15096,-0.02867 z m -0.0312,0.533227 c 0.0266,-9e-4 0.0507,0.03222 0.0597,0.07527 0.01,0.04593 0.002,0.103364 0.0307,0.132054 0.0287,0.02868 0.0938,0.02865 0.14353,0.05162 0.0498,0.02298 0.0842,0.06892 0.0861,0.120572 0.002,0.05166 -0.0287,0.109091 -0.0804,0.166493 -0.0517,0.0574 -0.12436,0.114826 -0.18176,0.143532 -0.0574,0.02871 -0.0995,0.02871 -0.13012,-0.03252 -0.0306,-0.06122 -0.0498,-0.183718 -0.0517,-0.287065 -0.002,-0.103343 0.0133,-0.187548 0.0363,-0.252623 0.0229,-0.06508 0.0536,-0.110999 0.0823,-0.116726 0.002,-3e-4 0.004,-6e-4 0.005,-6e-4 z" /><path
           id="path2697-87-5-3-0-6"
           style="fill:#000000;fill-opacity:1;stroke-width:0.0351956"
           d="m 316.63067,76.134077 c -0.007,3.3e-5 -0.0139,2.79e-4 -0.0204,6e-4 -0.0517,0.0038 -0.0823,0.01914 -0.12249,0.06317 -0.0402,0.04402 -0.09,0.116744 -0.12058,0.193302 -0.0306,0.07656 -0.0421,0.156906 -0.0459,0.354021 -0.004,0.197111 -4e-5,0.510952 0.0172,0.725292 0.0172,0.214337 0.0479,0.329212 0.0632,0.386601 0.0153,0.05739 0.0153,0.05739 0.0268,0.0708 0.0115,0.01341 0.0344,0.04017 0.067,0.05355 0.0325,0.01338 0.0746,0.01338 0.15116,-0.01725 0.0765,-0.03062 0.18754,-0.09185 0.33106,-0.212413 0.14352,-0.120557 0.3196,-0.300447 0.4306,-0.426748 0.11099,-0.126298 0.15692,-0.198972 0.17989,-0.262109 0.023,-0.06314 0.0229,-0.116786 0.0172,-0.162713 -0.006,-0.04592 -0.0172,-0.08417 -0.0536,-0.149238 -0.0363,-0.06507 -0.0976,-0.15692 -0.22582,-0.262181 -0.12821,-0.10526 -0.32337,-0.2239 -0.45733,-0.287064 -0.11722,-0.05527 -0.18755,-0.06801 -0.23792,-0.06778 z m 0.0771,0.460982 c 9e-4,-3.3e-5 0.002,-3.9e-5 0.003,0 0.0291,0.0012 0.0519,0.03922 0.0645,0.07967 0.0126,0.04045 0.0152,0.08336 0.0229,0.121189 0.008,0.03783 0.0207,0.07053 0.0445,0.09617 0.0238,0.02565 0.0585,0.04427 0.0899,0.0532 0.0314,0.0089 0.0597,0.0082 0.0877,0.0065 0.028,-0.0015 0.0585,-0.02292 0.0724,-0.0039 0.0139,0.01899 0.0112,0.07817 -1.4e-4,0.102165 -0.0114,0.024 -0.0342,0.0316 -0.0607,0.03918 -0.0265,0.0076 -0.0569,0.01515 -0.0902,0.01848 -0.0333,0.0034 -0.10182,-0.02169 -0.12073,1.17e-4 -0.0189,0.02181 -0.0123,0.101211 -0.0156,0.153114 -0.003,0.05191 0.032,0.151442 -0.0428,0.146334 l -0.0872,-0.0053 c -0.0767,-0.0065 -0.0354,-0.24651 -0.0448,-0.369418 -0.009,-0.122909 -0.002,-0.246738 0.0134,-0.337116 0.014,-0.08012 0.0773,-0.05411 0.0695,-0.08157 z"
           sodipodi:nodetypes="ssssssssssssssssssscssssssssssccccsssc" /></g><g
         id="g22905-4-7"
         transform="matrix(-1,0,0,1,558.72865,42.490535)"><path
           style="fill:#000000;fill-opacity:1;stroke-width:0.0351956"
           d="m 312.98999,117.36504 c 0.29664,-0.29472 0.88988,-0.88413 1.30132,-1.30132 0.41145,-0.41718 0.64108,-0.66213 0.83819,-0.84392 0.19712,-0.1818 0.36169,-0.30045 0.49182,-0.36741 0.13013,-0.067 0.22582,-0.0823 0.30809,-0.0803 0.0823,0.002 0.15117,0.0211 0.20665,0.0536 0.0555,0.0325 0.0976,0.0784 0.13012,0.23153 0.0325,0.15309 0.0555,0.41336 0.0651,0.92814 0.01,0.51478 0.006,1.28406 -0.002,1.86009 -0.008,0.57602 -0.0191,0.95874 -0.0574,1.19221 -0.0383,0.23347 -0.10331,0.31767 -0.16645,0.377 -0.0631,0.0593 -0.1244,0.0938 -0.19904,0.11485 -0.0746,0.0211 -0.16264,0.0287 -0.9243,0.0268 -0.76166,-0.002 -2.19689,-0.0134 -2.91647,-0.0249 -0.71958,-0.0115 -0.72344,-0.0231 -0.73107,-0.0747 -0.008,-0.0516 -0.0191,-0.14345 -0.002,-0.24297 0.0172,-0.0995 0.0632,-0.20668 0.16843,-0.34446 0.10526,-0.13779 0.26983,-0.30618 0.41336,-0.43822 0.14352,-0.13204 0.26601,-0.22773 0.34255,-0.26407 0.0765,-0.0363 0.10716,-0.0134 0.11673,0.0421 0.01,0.0555 -0.002,0.14349 0.004,0.21813 0.006,0.0746 0.0287,0.13591 0.0727,0.18183 0.044,0.0459 0.1091,0.0765 0.26603,0.0918 0.15693,0.0153 0.4057,0.0153 0.8669,0.0172 0.4612,0.002 1.13479,0.006 1.50415,-0.0153 0.36935,-0.0211 0.43441,-0.067 0.46692,-0.55115 0.0325,-0.48417 0.0325,-1.40655 0.006,-1.87922 -0.0268,-0.47267 -0.0804,-0.49562 -0.13011,-0.50136 -0.0497,-0.006 -0.0956,0.006 -0.18367,0.0689 -0.0881,0.0632 -0.21818,0.17797 -0.39615,0.35021 -0.17798,0.17223 -0.40379,0.40187 -0.56072,0.57601 -0.15692,0.17415 -0.24495,0.29279 -0.2928,0.37701 -0.0478,0.0842 -0.0555,0.13398 -0.0421,0.17034 0.0134,0.0364 0.0478,0.0593 0.1034,0.0746 0.0556,0.0153 0.13203,0.0229 0.2124,-0.006 0.0804,-0.0287 0.16458,-0.0938 0.24686,-0.16843 0.0823,-0.0746 0.16267,-0.15885 0.25264,-0.22583 0.09,-0.067 0.18942,-0.11671 0.26981,-0.12051 0.0804,-0.004 0.1416,0.0383 0.18176,0.0995 0.0402,0.0612 0.0593,0.1416 0.0708,0.29278 0.0115,0.15118 0.0153,0.37317 2e-5,0.53965 -0.0153,0.16648 -0.0497,0.27749 -0.0804,0.34447 -0.0306,0.067 -0.0574,0.0899 -0.47841,0.0976 -0.42104,0.008 -1.23625,6e-5 -1.64771,-0.0172 -0.41146,-0.0173 -0.41907,-0.044 -0.43054,-0.0899 -0.0115,-0.046 -0.0268,-0.11101 -0.021,-0.19327 0.006,-0.0823 0.0326,-0.18183 0.046,-0.23157 0.0134,-0.0497 0.0132,-0.0498 0.30981,-0.34452 z"
           id="path2685-7-3-1-0-9-4"
           sodipodi:nodetypes="ccccccccccccccccccccccccccc"
           inkscape:original-d="m 312.69335,117.65977 c 0.59328,-0.58945 1.18652,-1.17886 1.77972,-1.76824 0.22969,-0.24499 0.45932,-0.48994 0.68893,-0.73485 0.16461,-0.11869 0.32919,-0.23733 0.49373,-0.35595 0.0957,-0.0154 0.1914,-0.0307 0.28705,-0.0459 0.0689,0.0191 0.13782,0.0382 0.20668,0.0574 0.0421,0.0459 0.0842,0.0918 0.1263,0.13778 0.023,0.26023 0.046,0.52049 0.0689,0.78078 -0.004,0.76928 -0.008,1.53856 -0.0115,2.3079 -0.0115,0.38271 -0.0229,0.76543 -0.0344,1.1482 -0.065,0.0842 -0.13009,0.16837 -0.19519,0.25261 -0.0612,0.0344 -0.12244,0.0689 -0.18371,0.10334 -0.088,0.008 -0.17602,0.0153 -0.26409,0.023 -1.43525,-0.0115 -2.87048,-0.023 -4.30578,-0.0345 -0.004,-0.0115 -0.008,-0.023 -0.0115,-0.0344 -0.0114,-0.0919 -0.0229,-0.18374 -0.0344,-0.27557 0.046,-0.1072 0.0919,-0.21436 0.13779,-0.32149 0.16461,-0.16845 0.32918,-0.33684 0.49372,-0.50521 0.12252,-0.0957 0.24499,-0.19141 0.36743,-0.28705 0.0307,0.0229 0.0613,0.0459 0.0919,0.0689 -0.0115,0.088 -0.0229,0.17602 -0.0345,0.26408 0.023,0.0612 0.046,0.12245 0.0689,0.18372 0.0651,0.0306 0.13017,0.0612 0.1952,0.0918 0.24882,-3e-5 0.49759,-3e-5 0.74633,0 0.67366,0.004 1.34725,0.008 2.02084,0.0115 0.0651,-0.046 0.13017,-0.0919 0.1952,-0.13778 4e-5,-0.92244 4e-5,-1.84482 0,-2.76718 -0.0536,-0.023 -0.10713,-0.046 -0.16075,-0.0689 -0.0459,0.0115 -0.0918,0.0229 -0.13779,0.0345 -0.13009,0.11478 -0.26022,0.2296 -0.39039,0.34446 -0.22578,0.22961 -0.45159,0.45925 -0.67744,0.68892 -0.088,0.11862 -0.17602,0.23726 -0.26409,0.35595 -0.008,0.0497 -0.0153,0.0995 -0.0229,0.14926 0.0345,0.0229 0.0689,0.0459 0.10335,0.0689 0.0766,0.008 0.15312,0.0153 0.22964,0.0229 0.0842,-0.0651 0.16843,-0.13016 0.2526,-0.19519 0.0804,-0.0842 0.16078,-0.16844 0.24112,-0.25261 0.0996,-0.0498 0.19906,-0.0995 0.29854,-0.14926 0.0613,0.0421 0.12251,0.0842 0.18371,0.1263 0.0192,0.0803 0.0383,0.16071 0.0574,0.24112 0.004,0.22196 0.008,0.44394 0.0115,0.66596 -0.0344,0.11096 -0.0689,0.22195 -0.10334,0.33298 -0.0268,0.0229 -0.0535,0.0459 -0.0804,0.0689 -0.81521,-0.008 -1.63042,-0.0153 -2.44568,-0.0229 -0.008,-0.0268 -0.0153,-0.0536 -0.0229,-0.0804 -0.0153,-0.0651 -0.0306,-0.13016 -0.0459,-0.19519 0.0268,-0.0995 0.0536,-0.19906 0.0804,-0.29854 z"
           inkscape:path-effect="#path-effect2687-6-5-3-7-5-1" /><path
           id="path2689-7-0-2-5-3-0"
           style="fill:#000000;fill-opacity:1;stroke-width:0.0351956"
           d="m 317.03125,119.34772 c -0.0392,3e-4 -0.0787,-0.004 -0.11886,-0.009 -0.0919,-0.0134 -0.18752,-0.0364 -0.23537,-0.0555 -0.0478,-0.0192 -0.0479,-0.0344 -0.0479,-0.0421 0,-0.008 5e-5,-0.008 -0.0153,-0.0881 -0.0153,-0.0804 -0.046,-0.24112 -0.0517,-0.4746 -0.006,-0.23348 0.0134,-0.53969 0.0383,-0.74254 0.0249,-0.20286 0.0555,-0.30233 0.0995,-0.3578 0.044,-0.0555 0.10144,-0.067 0.17797,-0.0401 0.0765,0.0268 0.1722,0.0919 0.32721,0.21434 0.15501,0.12247 0.36936,0.30234 0.488,0.4229 0.11864,0.12055 0.14157,0.18174 0.14731,0.27358 0.006,0.0919 -0.006,0.21434 -0.0727,0.33299 -0.067,0.11865 -0.18945,0.23352 -0.29662,0.32921 -0.10716,0.0957 -0.19904,0.17218 -0.28899,0.20856 -0.0506,0.0205 -0.10055,0.0282 -0.15095,0.0287 z m -0.0312,-0.53323 c 0.0266,9e-4 0.0507,-0.0322 0.0597,-0.0753 0.01,-0.0459 0.002,-0.10336 0.0306,-0.13205 0.0287,-0.0287 0.0938,-0.0286 0.14354,-0.0516 0.0497,-0.023 0.0842,-0.0689 0.0861,-0.12058 0.002,-0.0517 -0.0287,-0.10909 -0.0804,-0.16649 -0.0517,-0.0574 -0.12435,-0.11483 -0.18175,-0.14353 -0.0574,-0.0287 -0.0995,-0.0287 -0.13013,0.0325 -0.0306,0.0612 -0.0498,0.18372 -0.0517,0.28707 -0.002,0.10334 0.0133,0.18755 0.0363,0.25262 0.023,0.0651 0.0536,0.111 0.0824,0.11673 0.002,3e-4 0.004,6e-4 0.005,6e-4 z" /><path
           id="path2697-87-5-2-2-8-7"
           style="fill:#000000;fill-opacity:1;stroke-width:0.0351956"
           d="m 316.89138,116.88779 c -0.007,-4e-5 -0.0139,-2.8e-4 -0.0204,-6e-4 -0.0517,-0.004 -0.0823,-0.0191 -0.12249,-0.0632 -0.0402,-0.044 -0.09,-0.11674 -0.12058,-0.1933 -0.0306,-0.0766 -0.0421,-0.1569 -0.0459,-0.35402 -0.004,-0.19711 -5e-5,-0.51095 0.0172,-0.72529 0.0172,-0.21434 0.0479,-0.32921 0.0632,-0.3866 0.0153,-0.0574 0.0153,-0.0574 0.0268,-0.0708 0.0115,-0.0134 0.0344,-0.0402 0.067,-0.0536 0.0325,-0.0134 0.0746,-0.0134 0.15116,0.0172 0.0765,0.0306 0.18754,0.0919 0.33106,0.21242 0.14352,0.12055 0.31961,0.30044 0.4306,0.42674 0.11099,0.1263 0.15693,0.19897 0.1799,0.26211 0.023,0.0631 0.0229,0.11679 0.0172,0.16271 -0.006,0.0459 -0.0172,0.0842 -0.0535,0.14924 -0.0364,0.0651 -0.0976,0.15692 -0.22581,0.26218 -0.12821,0.10526 -0.32338,0.2239 -0.45734,0.28707 -0.11721,0.0553 -0.18754,0.068 -0.23791,0.0678 z m 0.0771,-0.46099 c 9e-4,4e-5 0.002,4e-5 0.003,0 0.0291,-0.001 0.0519,-0.0392 0.0645,-0.0797 0.0126,-0.0404 0.0152,-0.0834 0.0229,-0.12119 0.008,-0.0378 0.0207,-0.0705 0.0445,-0.0962 0.0238,-0.0256 0.0585,-0.0443 0.0899,-0.0532 0.0314,-0.009 0.0597,-0.008 0.0877,-0.007 0.028,0.001 0.0585,0.0229 0.0724,0.004 0.0139,-0.019 0.0112,-0.0782 -1.3e-4,-0.10217 -0.0114,-0.024 -0.0342,-0.0316 -0.0607,-0.0392 -0.0265,-0.008 -0.0569,-0.0151 -0.0902,-0.0185 -0.0333,-0.003 -0.10183,0.0217 -0.12074,-1.2e-4 -0.0189,-0.0218 -0.0123,-0.10121 -0.0156,-0.15311 -0.003,-0.0519 0.032,-0.15144 -0.0428,-0.14633 l -0.0872,0.005 c -0.0767,0.007 -0.0354,0.24651 -0.0448,0.36942 -0.009,0.12291 -0.002,0.24674 0.0134,0.33712 0.014,0.0801 0.0773,0.0541 0.0695,0.0816 z"
           sodipodi:nodetypes="ssssssssssssssssssscssssssssssccccsssc" /></g><path
         style="fill:#000000;fill-opacity:1;stroke-width:0.0741741"
         d="m 242.63992,150.50796 c -0.0208,1.86269 -0.0415,3.72529 -0.0392,4.73071 0.002,1.00543 0.0277,1.15313 0.13108,1.24977 0.10334,0.0966 0.28433,0.14185 0.43771,0.18343 0.15338,0.0416 0.27899,0.0795 0.36508,0.10295 0.0861,0.0234 0.13278,0.0325 0.15946,0.0311 0.0267,-0.001 0.0341,-0.0143 0.0412,-0.0267 0.008,-0.0148 0.017,-0.0297 0.008,-0.0643 -0.009,-0.0345 -0.0346,-0.0888 -0.061,-0.23939 -0.0264,-0.15057 -0.0532,-0.39725 -0.10516,-1.33099 -0.0519,-0.93374 -0.12885,-2.55386 -0.15436,-4.18439 -0.0255,-1.63053 4.2e-4,-3.27105 0.0264,-4.24315 0.0259,-0.97211 0.0519,-1.27578 0.0882,-1.46386 0.0363,-0.18809 0.083,-0.26067 0.1194,-0.31285 0.0364,-0.0522 0.0622,-0.0838 0.0716,-0.12387 0.009,-0.0401 0.002,-0.0884 -0.11093,-0.0824 -0.1131,0.006 -0.33142,0.0663 -0.5498,0.12493 -0.21837,0.0586 -0.43608,0.11542 -0.54518,0.15827 -0.1091,0.0429 -0.1091,0.0714 -0.0792,0.95702 0.0299,0.88566 0.0898,2.62805 0.14969,4.37039"
         id="path6053-2-4-8-8"
         inkscape:path-effect="#path-effect6055-4-5-9-1"
         inkscape:original-d="m 242.63992,150.50796 c -0.0207,1.86269 -0.0414,3.72529 -0.0623,5.58786 0.0256,0.14826 0.051,0.29596 0.0763,0.44399 0.18126,0.0452 0.36222,0.0905 0.54334,0.13572 0.12569,0.0378 0.25124,0.0759 0.37665,0.11369 0.0468,0.009 0.0934,0.0185 0.1401,0.0271 0.007,-0.0116 0.0213,-0.0371 0.0213,-0.0371 0,0 0.017,-0.0297 0.0254,-0.0445 -0.0259,-0.0543 -0.0518,-0.10858 -0.0778,-0.1631 -0.0267,-0.24663 -0.0536,-0.49331 -0.0805,-0.74004 -0.0769,-1.62074 -0.15384,-3.24086 -0.23088,-4.86141 0.026,-1.64051 0.052,-3.28103 0.0778,-4.92167 0.026,-0.30356 0.052,-0.60723 0.0778,-0.91092 0.0468,-0.0724 0.0935,-0.14501 0.14011,-0.21763 0.026,-0.0318 0.052,-0.0633 0.0778,-0.0951 -0.007,-0.0485 -0.0143,-0.0968 -0.0216,-0.14523 -0.21897,0.0606 -0.43729,0.12087 -0.65615,0.18119 -0.21793,0.0568 -0.43561,0.11369 -0.65383,0.17053 8e-5,0.0288 8e-5,0.0573 0,0.0861 0.06,1.74252 0.11984,3.48491 0.17963,5.22725"
         sodipodi:nodetypes="cccccccccccccccccccc" /></g><g
       id="g22859-3-8-1-3"
       transform="translate(-40.12055,66.393792)"><path
         style="fill:#000000;fill-opacity:1;stroke-width:0.0351956"
         d="m 312.72928,75.656817 c 0.29663,0.294722 0.88987,0.884135 1.30132,1.301321 0.41144,0.417187 0.64108,0.662135 0.83819,0.843932 0.19711,0.181797 0.36168,0.300441 0.49181,0.367408 0.13012,0.06697 0.22581,0.08228 0.30808,0.08036 0.0823,-0.0019 0.15119,-0.02106 0.20667,-0.05358 0.0555,-0.03252 0.0976,-0.07845 0.13011,-0.231539 0.0325,-0.153091 0.0555,-0.413349 0.0651,-0.928133 0.01,-0.514784 0.006,-1.284069 -0.002,-1.860089 -0.008,-0.576021 -0.0192,-0.958745 -0.0574,-1.192208 -0.0383,-0.233462 -0.10334,-0.317675 -0.16648,-0.377006 -0.0631,-0.05933 -0.12439,-0.09378 -0.19903,-0.11484 -0.0746,-0.02106 -0.16266,-0.02871 -0.92431,-0.0268 -0.76166,0.0019 -2.1969,0.0134 -2.91648,0.02492 -0.71957,0.01153 -0.72342,0.02306 -0.73105,0.07468 -0.008,0.05162 -0.0191,0.143474 -0.002,0.242999 0.0172,0.09952 0.0632,0.206679 0.16843,0.344462 0.10526,0.137782 0.26983,0.30618 0.41336,0.43822 0.14352,0.132041 0.266,0.227721 0.34251,0.264076 0.0765,0.03636 0.10718,0.01334 0.11672,-0.04212 0.01,-0.05547 -0.002,-0.143482 0.004,-0.218129 0.006,-0.07465 0.0287,-0.135889 0.0727,-0.181826 0.044,-0.04594 0.10908,-0.07655 0.26602,-0.09186 0.15693,-0.01531 0.40571,-0.01531 0.86691,-0.01722 0.4612,-0.0019 1.13479,-0.0057 1.50414,0.01532 0.36934,0.02106 0.43441,0.06699 0.46693,0.551166 0.0325,0.484171 0.0325,1.406548 0.006,1.879196 -0.0268,0.472647 -0.0804,0.495628 -0.13014,0.501375 -0.0498,0.0057 -0.0956,-0.0057 -0.18368,-0.06887 -0.0881,-0.06314 -0.21817,-0.17796 -0.39615,-0.350192 -0.17797,-0.172232 -0.40378,-0.40187 -0.56071,-0.576015 -0.15692,-0.174145 -0.24495,-0.292792 -0.29282,-0.37702 -0.0479,-0.08423 -0.0555,-0.133924 -0.0421,-0.170311 0.0134,-0.03639 0.0478,-0.05933 0.10334,-0.07464 0.0555,-0.01531 0.13206,-0.02296 0.21242,0.0058 0.0804,0.02871 0.16459,0.0938 0.24688,0.168433 0.0823,0.07464 0.16266,0.158839 0.25263,0.225821 0.09,0.06698 0.18944,0.11672 0.2698,0.120526 0.0804,0.0038 0.14159,-0.03828 0.18177,-0.09951 0.0402,-0.06123 0.0593,-0.141591 0.0708,-0.292772 0.0115,-0.15118 0.0153,-0.373163 2e-5,-0.539646 -0.0153,-0.166484 -0.0497,-0.277466 -0.0804,-0.344463 -0.0306,-0.067 -0.0574,-0.08992 -0.47841,-0.0976 -0.42104,-0.0077 -1.23624,-3.9e-5 -1.64771,0.01724 -0.41147,0.01728 -0.41908,0.04399 -0.43054,0.08991 -0.0115,0.04592 -0.0268,0.110986 -0.021,0.193276 0.006,0.08229 0.0326,0.181798 0.046,0.231537 0.0134,0.04974 0.0134,0.04973 0.31001,0.344456 z"
         id="path2685-7-3-6-7-0-8"
         sodipodi:nodetypes="ccccccccccccccccccccccccccc"
         inkscape:original-d="m 312.43264,75.362094 c 0.59327,0.589448 1.18651,1.178861 1.77972,1.768238 0.22968,0.244992 0.45932,0.489939 0.68892,0.734852 0.16462,0.118688 0.32919,0.237334 0.49373,0.355946 0.0957,0.01536 0.1914,0.03065 0.28705,0.04593 0.0689,-0.01911 0.13782,-0.03824 0.20668,-0.05741 0.0421,-0.04589 0.0842,-0.09182 0.1263,-0.137784 0.023,-0.260231 0.046,-0.520486 0.0689,-0.78078 -0.004,-0.769279 -0.008,-1.538563 -0.0115,-2.307896 -0.0115,-0.38271 -0.0229,-0.765437 -0.0345,-1.148208 -0.065,-0.08417 -0.13009,-0.168369 -0.19519,-0.252606 -0.0612,-0.03441 -0.12244,-0.06886 -0.18372,-0.103339 -0.088,-0.0076 -0.17602,-0.01528 -0.26408,-0.02296 -1.43525,0.01152 -2.87049,0.023 -4.30578,0.03445 -0.004,0.01152 -0.008,0.023 -0.0115,0.03445 -0.0115,0.09189 -0.0229,0.183749 -0.0344,0.27557 0.046,0.107203 0.0919,0.214367 0.13778,0.321498 0.16462,0.168442 0.32919,0.336842 0.49373,0.50521 0.12251,0.09572 0.24498,0.191403 0.36743,0.287052 0.0306,-0.02292 0.0613,-0.04589 0.0918,-0.06889 -0.0115,-0.088 -0.0229,-0.176024 -0.0344,-0.264089 0.023,-0.06121 0.046,-0.122441 0.0689,-0.183712 0.0651,-0.03059 0.13016,-0.06121 0.19519,-0.09186 0.24882,3.5e-5 0.4976,3.5e-5 0.74634,0 0.67366,-0.0038 1.34725,-0.0076 2.02084,-0.01148 0.0651,0.04596 0.13017,0.09189 0.1952,0.137785 3e-5,0.922443 3e-5,1.84482 0,2.767176 -0.0535,0.02301 -0.10714,0.04596 -0.16076,0.06889 -0.0459,-0.01146 -0.0918,-0.02292 -0.13778,-0.03445 -0.1301,-0.114788 -0.26022,-0.229605 -0.39039,-0.344462 -0.22578,-0.229609 -0.45159,-0.459248 -0.67744,-0.688923 -0.088,-0.118616 -0.17603,-0.237261 -0.26409,-0.355946 -0.008,-0.04972 -0.0153,-0.09947 -0.023,-0.149265 0.0345,-0.02292 0.0689,-0.04589 0.10334,-0.06889 0.0766,-0.0076 0.15313,-0.01527 0.22964,-0.02295 0.0842,0.0651 0.16844,0.130165 0.25261,0.195195 0.0804,0.08424 0.16078,0.168439 0.24112,0.252605 0.0996,0.04979 0.19906,0.09955 0.29853,0.149268 0.0613,-0.04207 0.12251,-0.08417 0.18372,-0.126304 0.0192,-0.08034 0.0383,-0.160712 0.0574,-0.241122 0.004,-0.221957 0.008,-0.443937 0.0115,-0.665959 -0.0344,-0.11096 -0.0688,-0.221954 -0.10333,-0.332983 -0.0268,-0.02292 -0.0535,-0.04589 -0.0804,-0.06889 -0.81521,0.0077 -1.63041,0.01533 -2.44568,0.02295 -0.008,0.02682 -0.0153,0.05362 -0.0229,0.08037 -0.0153,0.0651 -0.0306,0.130165 -0.0459,0.195195 0.0268,0.09955 0.0536,0.199059 0.0804,0.298533 z"
         inkscape:path-effect="#path-effect2687-6-5-9-9-9-0" /><path
         id="path2689-7-0-3-0-2-6"
         style="fill:#000000;fill-opacity:1;stroke-width:0.0351956"
         d="m 316.77053,73.674148 c -0.0392,-3.6e-4 -0.0787,0.0036 -0.11885,0.0095 -0.0919,0.01339 -0.18752,0.03639 -0.23538,0.05554 -0.0478,0.01916 -0.0479,0.03443 -0.0479,0.04207 0,0.0076 5e-5,0.0077 -0.0153,0.08806 -0.0153,0.08039 -0.046,0.241115 -0.0517,0.474593 -0.006,0.233475 0.0134,0.539691 0.0383,0.742544 0.0249,0.202853 0.0555,0.302321 0.0995,0.3578 0.044,0.05548 0.10144,0.06694 0.17797,0.04015 0.0765,-0.02679 0.1722,-0.09186 0.32721,-0.214336 0.15501,-0.122477 0.36935,-0.302349 0.488,-0.422899 0.11864,-0.120551 0.14156,-0.181741 0.14731,-0.273589 0.006,-0.09185 -0.006,-0.214334 -0.0727,-0.332986 -0.067,-0.118651 -0.18945,-0.233517 -0.29662,-0.329203 -0.10717,-0.09569 -0.19904,-0.172186 -0.28899,-0.208562 -0.0506,-0.02046 -0.10055,-0.02819 -0.15096,-0.02867 z m -0.0312,0.533227 c 0.0266,-9e-4 0.0507,0.03222 0.0597,0.07527 0.01,0.04593 0.002,0.103364 0.0307,0.132054 0.0287,0.02868 0.0938,0.02865 0.14353,0.05162 0.0498,0.02298 0.0842,0.06892 0.0861,0.120572 0.002,0.05166 -0.0287,0.109091 -0.0804,0.166493 -0.0517,0.0574 -0.12436,0.114826 -0.18176,0.143532 -0.0574,0.02871 -0.0995,0.02871 -0.13012,-0.03252 -0.0306,-0.06122 -0.0498,-0.183718 -0.0517,-0.287065 -0.002,-0.103343 0.0133,-0.187548 0.0363,-0.252623 0.0229,-0.06508 0.0536,-0.110999 0.0823,-0.116726 0.002,-3e-4 0.004,-6e-4 0.005,-6e-4 z" /><path
         id="path2697-87-5-3-0-6-0"
         style="fill:#000000;fill-opacity:1;stroke-width:0.0351956"
         d="m 316.63067,76.134077 c -0.007,3.3e-5 -0.0139,2.79e-4 -0.0204,6e-4 -0.0517,0.0038 -0.0823,0.01914 -0.12249,0.06317 -0.0402,0.04402 -0.09,0.116744 -0.12058,0.193302 -0.0306,0.07656 -0.0421,0.156906 -0.0459,0.354021 -0.004,0.197111 -4e-5,0.510952 0.0172,0.725292 0.0172,0.214337 0.0479,0.329212 0.0632,0.386601 0.0153,0.05739 0.0153,0.05739 0.0268,0.0708 0.0115,0.01341 0.0344,0.04017 0.067,0.05355 0.0325,0.01338 0.0746,0.01338 0.15116,-0.01725 0.0765,-0.03062 0.18754,-0.09185 0.33106,-0.212413 0.14352,-0.120557 0.3196,-0.300447 0.4306,-0.426748 0.11099,-0.126298 0.15692,-0.198972 0.17989,-0.262109 0.023,-0.06314 0.0229,-0.116786 0.0172,-0.162713 -0.006,-0.04592 -0.0172,-0.08417 -0.0536,-0.149238 -0.0363,-0.06507 -0.0976,-0.15692 -0.22582,-0.262181 -0.12821,-0.10526 -0.32337,-0.2239 -0.45733,-0.287064 -0.11722,-0.05527 -0.18755,-0.06801 -0.23792,-0.06778 z m 0.0771,0.460982 c 9e-4,-3.3e-5 0.002,-3.9e-5 0.003,0 0.0291,0.0012 0.0519,0.03922 0.0645,0.07967 0.0126,0.04045 0.0152,0.08336 0.0229,0.121189 0.008,0.03783 0.0207,0.07053 0.0445,0.09617 0.0238,0.02565 0.0585,0.04427 0.0899,0.0532 0.0314,0.0089 0.0597,0.0082 0.0877,0.0065 0.028,-0.0015 0.0585,-0.02292 0.0724,-0.0039 0.0139,0.01899 0.0112,0.07817 -1.4e-4,0.102165 -0.0114,0.024 -0.0342,0.0316 -0.0607,0.03918 -0.0265,0.0076 -0.0569,0.01515 -0.0902,0.01848 -0.0333,0.0034 -0.10182,-0.02169 -0.12073,1.17e-4 -0.0189,0.02181 -0.0123,0.101211 -0.0156,0.153114 -0.003,0.05191 0.032,0.151442 -0.0428,0.146334 l -0.0872,-0.0053 c -0.0767,-0.0065 -0.0354,-0.24651 -0.0448,-0.369418 -0.009,-0.122909 -0.002,-0.246738 0.0134,-0.337116 0.014,-0.08012 0.0773,-0.05411 0.0695,-0.08157 z"
         sodipodi:nodetypes="ssssssssssssssssssscssssssssssccccsssc" /></g><g
       id="g22905-4-7-2"
       transform="translate(-40.38133,42.558682)"><path
         style="fill:#000000;fill-opacity:1;stroke-width:0.0351956"
         d="m 312.98999,117.36504 c 0.29664,-0.29472 0.88988,-0.88413 1.30132,-1.30132 0.41145,-0.41718 0.64108,-0.66213 0.83819,-0.84392 0.19712,-0.1818 0.36169,-0.30045 0.49182,-0.36741 0.13013,-0.067 0.22582,-0.0823 0.30809,-0.0803 0.0823,0.002 0.15117,0.0211 0.20665,0.0536 0.0555,0.0325 0.0976,0.0784 0.13012,0.23153 0.0325,0.15309 0.0555,0.41336 0.0651,0.92814 0.01,0.51478 0.006,1.28406 -0.002,1.86009 -0.008,0.57602 -0.0191,0.95874 -0.0574,1.19221 -0.0383,0.23347 -0.10331,0.31767 -0.16645,0.377 -0.0631,0.0593 -0.1244,0.0938 -0.19904,0.11485 -0.0746,0.0211 -0.16264,0.0287 -0.9243,0.0268 -0.76166,-0.002 -2.19689,-0.0134 -2.91647,-0.0249 -0.71958,-0.0115 -0.72344,-0.0231 -0.73107,-0.0747 -0.008,-0.0516 -0.0191,-0.14345 -0.002,-0.24297 0.0172,-0.0995 0.0632,-0.20668 0.16843,-0.34446 0.10526,-0.13779 0.26983,-0.30618 0.41336,-0.43822 0.14352,-0.13204 0.26601,-0.22773 0.34255,-0.26407 0.0765,-0.0363 0.10716,-0.0134 0.11673,0.0421 0.01,0.0555 -0.002,0.14349 0.004,0.21813 0.006,0.0746 0.0287,0.13591 0.0727,0.18183 0.044,0.0459 0.1091,0.0765 0.26603,0.0918 0.15693,0.0153 0.4057,0.0153 0.8669,0.0172 0.4612,0.002 1.13479,0.006 1.50415,-0.0153 0.36935,-0.0211 0.43441,-0.067 0.46692,-0.55115 0.0325,-0.48417 0.0325,-1.40655 0.006,-1.87922 -0.0268,-0.47267 -0.0804,-0.49562 -0.13011,-0.50136 -0.0497,-0.006 -0.0956,0.006 -0.18367,0.0689 -0.0881,0.0632 -0.21818,0.17797 -0.39615,0.35021 -0.17798,0.17223 -0.40379,0.40187 -0.56072,0.57601 -0.15692,0.17415 -0.24495,0.29279 -0.2928,0.37701 -0.0478,0.0842 -0.0555,0.13398 -0.0421,0.17034 0.0134,0.0364 0.0478,0.0593 0.1034,0.0746 0.0556,0.0153 0.13203,0.0229 0.2124,-0.006 0.0804,-0.0287 0.16458,-0.0938 0.24686,-0.16843 0.0823,-0.0746 0.16267,-0.15885 0.25264,-0.22583 0.09,-0.067 0.18942,-0.11671 0.26981,-0.12051 0.0804,-0.004 0.1416,0.0383 0.18176,0.0995 0.0402,0.0612 0.0593,0.1416 0.0708,0.29278 0.0115,0.15118 0.0153,0.37317 2e-5,0.53965 -0.0153,0.16648 -0.0497,0.27749 -0.0804,0.34447 -0.0306,0.067 -0.0574,0.0899 -0.47841,0.0976 -0.42104,0.008 -1.23625,6e-5 -1.64771,-0.0172 -0.41146,-0.0173 -0.41907,-0.044 -0.43054,-0.0899 -0.0115,-0.046 -0.0268,-0.11101 -0.021,-0.19327 0.006,-0.0823 0.0326,-0.18183 0.046,-0.23157 0.0134,-0.0497 0.0132,-0.0498 0.30981,-0.34452 z"
         id="path2685-7-3-1-0-9-4-3"
         sodipodi:nodetypes="ccccccccccccccccccccccccccc"
         inkscape:original-d="m 312.69335,117.65977 c 0.59328,-0.58945 1.18652,-1.17886 1.77972,-1.76824 0.22969,-0.24499 0.45932,-0.48994 0.68893,-0.73485 0.16461,-0.11869 0.32919,-0.23733 0.49373,-0.35595 0.0957,-0.0154 0.1914,-0.0307 0.28705,-0.0459 0.0689,0.0191 0.13782,0.0382 0.20668,0.0574 0.0421,0.0459 0.0842,0.0918 0.1263,0.13778 0.023,0.26023 0.046,0.52049 0.0689,0.78078 -0.004,0.76928 -0.008,1.53856 -0.0115,2.3079 -0.0115,0.38271 -0.0229,0.76543 -0.0344,1.1482 -0.065,0.0842 -0.13009,0.16837 -0.19519,0.25261 -0.0612,0.0344 -0.12244,0.0689 -0.18371,0.10334 -0.088,0.008 -0.17602,0.0153 -0.26409,0.023 -1.43525,-0.0115 -2.87048,-0.023 -4.30578,-0.0345 -0.004,-0.0115 -0.008,-0.023 -0.0115,-0.0344 -0.0114,-0.0919 -0.0229,-0.18374 -0.0344,-0.27557 0.046,-0.1072 0.0919,-0.21436 0.13779,-0.32149 0.16461,-0.16845 0.32918,-0.33684 0.49372,-0.50521 0.12252,-0.0957 0.24499,-0.19141 0.36743,-0.28705 0.0307,0.0229 0.0613,0.0459 0.0919,0.0689 -0.0115,0.088 -0.0229,0.17602 -0.0345,0.26408 0.023,0.0612 0.046,0.12245 0.0689,0.18372 0.0651,0.0306 0.13017,0.0612 0.1952,0.0918 0.24882,-3e-5 0.49759,-3e-5 0.74633,0 0.67366,0.004 1.34725,0.008 2.02084,0.0115 0.0651,-0.046 0.13017,-0.0919 0.1952,-0.13778 4e-5,-0.92244 4e-5,-1.84482 0,-2.76718 -0.0536,-0.023 -0.10713,-0.046 -0.16075,-0.0689 -0.0459,0.0115 -0.0918,0.0229 -0.13779,0.0345 -0.13009,0.11478 -0.26022,0.2296 -0.39039,0.34446 -0.22578,0.22961 -0.45159,0.45925 -0.67744,0.68892 -0.088,0.11862 -0.17602,0.23726 -0.26409,0.35595 -0.008,0.0497 -0.0153,0.0995 -0.0229,0.14926 0.0345,0.0229 0.0689,0.0459 0.10335,0.0689 0.0766,0.008 0.15312,0.0153 0.22964,0.0229 0.0842,-0.0651 0.16843,-0.13016 0.2526,-0.19519 0.0804,-0.0842 0.16078,-0.16844 0.24112,-0.25261 0.0996,-0.0498 0.19906,-0.0995 0.29854,-0.14926 0.0613,0.0421 0.12251,0.0842 0.18371,0.1263 0.0192,0.0803 0.0383,0.16071 0.0574,0.24112 0.004,0.22196 0.008,0.44394 0.0115,0.66596 -0.0344,0.11096 -0.0689,0.22195 -0.10334,0.33298 -0.0268,0.0229 -0.0535,0.0459 -0.0804,0.0689 -0.81521,-0.008 -1.63042,-0.0153 -2.44568,-0.0229 -0.008,-0.0268 -0.0153,-0.0536 -0.0229,-0.0804 -0.0153,-0.0651 -0.0306,-0.13016 -0.0459,-0.19519 0.0268,-0.0995 0.0536,-0.19906 0.0804,-0.29854 z"
         inkscape:path-effect="#path-effect2687-6-5-3-7-5-1-3" /><path
         id="path2689-7-0-2-5-3-0-4"
         style="fill:#000000;fill-opacity:1;stroke-width:0.0351956"
         d="m 317.03125,119.34772 c -0.0392,3e-4 -0.0787,-0.004 -0.11886,-0.009 -0.0919,-0.0134 -0.18752,-0.0364 -0.23537,-0.0555 -0.0478,-0.0192 -0.0479,-0.0344 -0.0479,-0.0421 0,-0.008 5e-5,-0.008 -0.0153,-0.0881 -0.0153,-0.0804 -0.046,-0.24112 -0.0517,-0.4746 -0.006,-0.23348 0.0134,-0.53969 0.0383,-0.74254 0.0249,-0.20286 0.0555,-0.30233 0.0995,-0.3578 0.044,-0.0555 0.10144,-0.067 0.17797,-0.0401 0.0765,0.0268 0.1722,0.0919 0.32721,0.21434 0.15501,0.12247 0.36936,0.30234 0.488,0.4229 0.11864,0.12055 0.14157,0.18174 0.14731,0.27358 0.006,0.0919 -0.006,0.21434 -0.0727,0.33299 -0.067,0.11865 -0.18945,0.23352 -0.29662,0.32921 -0.10716,0.0957 -0.19904,0.17218 -0.28899,0.20856 -0.0506,0.0205 -0.10055,0.0282 -0.15095,0.0287 z m -0.0312,-0.53323 c 0.0266,9e-4 0.0507,-0.0322 0.0597,-0.0753 0.01,-0.0459 0.002,-0.10336 0.0306,-0.13205 0.0287,-0.0287 0.0938,-0.0286 0.14354,-0.0516 0.0497,-0.023 0.0842,-0.0689 0.0861,-0.12058 0.002,-0.0517 -0.0287,-0.10909 -0.0804,-0.16649 -0.0517,-0.0574 -0.12435,-0.11483 -0.18175,-0.14353 -0.0574,-0.0287 -0.0995,-0.0287 -0.13013,0.0325 -0.0306,0.0612 -0.0498,0.18372 -0.0517,0.28707 -0.002,0.10334 0.0133,0.18755 0.0363,0.25262 0.023,0.0651 0.0536,0.111 0.0824,0.11673 0.002,3e-4 0.004,6e-4 0.005,6e-4 z" /><path
         id="path2697-87-5-2-2-8-7-5"
         style="fill:#000000;fill-opacity:1;stroke-width:0.0351956"
         d="m 316.89138,116.88779 c -0.007,-4e-5 -0.0139,-2.8e-4 -0.0204,-6e-4 -0.0517,-0.004 -0.0823,-0.0191 -0.12249,-0.0632 -0.0402,-0.044 -0.09,-0.11674 -0.12058,-0.1933 -0.0306,-0.0766 -0.0421,-0.1569 -0.0459,-0.35402 -0.004,-0.19711 -5e-5,-0.51095 0.0172,-0.72529 0.0172,-0.21434 0.0479,-0.32921 0.0632,-0.3866 0.0153,-0.0574 0.0153,-0.0574 0.0268,-0.0708 0.0115,-0.0134 0.0344,-0.0402 0.067,-0.0536 0.0325,-0.0134 0.0746,-0.0134 0.15116,0.0172 0.0765,0.0306 0.18754,0.0919 0.33106,0.21242 0.14352,0.12055 0.31961,0.30044 0.4306,0.42674 0.11099,0.1263 0.15693,0.19897 0.1799,0.26211 0.023,0.0631 0.0229,0.11679 0.0172,0.16271 -0.006,0.0459 -0.0172,0.0842 -0.0535,0.14924 -0.0364,0.0651 -0.0976,0.15692 -0.22581,0.26218 -0.12821,0.10526 -0.32338,0.2239 -0.45734,0.28707 -0.11721,0.0553 -0.18754,0.068 -0.23791,0.0678 z m 0.0771,-0.46099 c 9e-4,4e-5 0.002,4e-5 0.003,0 0.0291,-0.001 0.0519,-0.0392 0.0645,-0.0797 0.0126,-0.0404 0.0152,-0.0834 0.0229,-0.12119 0.008,-0.0378 0.0207,-0.0705 0.0445,-0.0962 0.0238,-0.0256 0.0585,-0.0443 0.0899,-0.0532 0.0314,-0.009 0.0597,-0.008 0.0877,-0.007 0.028,0.001 0.0585,0.0229 0.0724,0.004 0.0139,-0.019 0.0112,-0.0782 -1.3e-4,-0.10217 -0.0114,-0.024 -0.0342,-0.0316 -0.0607,-0.0392 -0.0265,-0.008 -0.0569,-0.0151 -0.0902,-0.0185 -0.0333,-0.003 -0.10183,0.0217 -0.12074,-1.2e-4 -0.0189,-0.0218 -0.0123,-0.10121 -0.0156,-0.15311 -0.003,-0.0519 0.032,-0.15144 -0.0428,-0.14633 l -0.0872,0.005 c -0.0767,0.007 -0.0354,0.24651 -0.0448,0.36942 -0.009,0.12291 -0.002,0.24674 0.0134,0.33712 0.014,0.0801 0.0773,0.0541 0.0695,0.0816 z"
         sodipodi:nodetypes="ssssssssssssssssssscssssssssssccccsssc" /></g><path
       style="fill:#000000;fill-opacity:1;stroke-width:0.0741741"
       d="m 275.7074,150.57611 c 0.0208,1.86269 0.0415,3.72529 0.0392,4.73071 -0.002,1.00543 -0.0277,1.15313 -0.13108,1.24977 -0.10334,0.0966 -0.28433,0.14185 -0.43771,0.18343 -0.15338,0.0416 -0.27899,0.0795 -0.36508,0.10295 -0.0861,0.0234 -0.13278,0.0325 -0.15946,0.0311 -0.0267,-0.001 -0.0341,-0.0144 -0.0412,-0.0267 -0.008,-0.0148 -0.017,-0.0297 -0.008,-0.0643 0.009,-0.0345 0.0346,-0.0888 0.061,-0.23939 0.0264,-0.15057 0.0532,-0.39725 0.10516,-1.33099 0.0519,-0.93374 0.12885,-2.55386 0.15436,-4.18439 0.0255,-1.63053 -4.2e-4,-3.27105 -0.0263,-4.24315 -0.0259,-0.97211 -0.0519,-1.27578 -0.0882,-1.46386 -0.0363,-0.18809 -0.083,-0.26067 -0.1194,-0.31285 -0.0364,-0.0522 -0.0622,-0.0838 -0.0716,-0.12387 -0.009,-0.0401 -0.002,-0.0884 0.11093,-0.0824 0.1131,0.006 0.33142,0.0663 0.5498,0.12493 0.21837,0.0586 0.43608,0.11542 0.54518,0.15827 0.1091,0.0429 0.1091,0.0714 0.0792,0.95702 -0.0299,0.88566 -0.0898,2.62805 -0.14969,4.37039"
       id="path6053-2-4-8-8-3"
       inkscape:path-effect="#path-effect6055-4-5-9-1-2"
       inkscape:original-d="m 275.7074,150.57611 c 0.0207,1.86269 0.0414,3.72529 0.0623,5.58786 -0.0256,0.14826 -0.051,0.29596 -0.0763,0.44399 -0.18126,0.0452 -0.36222,0.0905 -0.54334,0.13572 -0.12569,0.0378 -0.25124,0.0759 -0.37665,0.11369 -0.0468,0.009 -0.0934,0.0185 -0.1401,0.0271 -0.007,-0.0116 -0.0213,-0.0371 -0.0213,-0.0371 0,0 -0.017,-0.0297 -0.0254,-0.0445 0.0259,-0.0543 0.0518,-0.10858 0.0778,-0.1631 0.0267,-0.24663 0.0536,-0.49331 0.0805,-0.74004 0.0769,-1.62074 0.15384,-3.24086 0.23088,-4.86141 -0.026,-1.64051 -0.052,-3.28103 -0.0778,-4.92167 -0.026,-0.30356 -0.052,-0.60723 -0.0778,-0.91092 -0.0468,-0.0724 -0.0935,-0.14501 -0.14011,-0.21763 -0.026,-0.0318 -0.052,-0.0633 -0.0778,-0.0951 0.007,-0.0485 0.0143,-0.0968 0.0216,-0.14523 0.21897,0.0606 0.43729,0.12087 0.65615,0.18119 0.21793,0.0568 0.43561,0.11369 0.65383,0.17053 -8e-5,0.0288 -8e-5,0.0573 0,0.0861 -0.06,1.74252 -0.11984,3.48491 -0.17963,5.22725"
       sodipodi:nodetypes="cccccccccccccccccccc" /></g></svg>
