<?xml version="1.0" encoding="UTF-8" standalone="no"?>
<!-- Created with Inkscape (http://www.inkscape.org/) -->

<svg
   width="258.6431mm"
   height="154.7206mm"
   viewBox="0 0 258.6431 154.7206"
   version="1.1"
   id="svg5"
   xml:space="preserve"
   xmlns:inkscape="http://www.inkscape.org/namespaces/inkscape"
   xmlns:sodipodi="http://sodipodi.sourceforge.net/DTD/sodipodi-0.dtd"
   xmlns="http://www.w3.org/2000/svg"
   xmlns:svg="http://www.w3.org/2000/svg"><sodipodi:namedview
     id="namedview7"
     pagecolor="#ffffff"
     bordercolor="#000000"
     borderopacity="0.25"
     inkscape:showpageshadow="2"
     inkscape:pageopacity="0.0"
     inkscape:pagecheckerboard="0"
     inkscape:deskcolor="#d1d1d1"
     inkscape:document-units="mm"
     showgrid="false" /><defs
     id="defs2"><inkscape:path-effect
       effect="bspline"
       id="path-effect6055"
       is_visible="true"
       lpeversion="1"
       weight="33.333333"
       steps="2"
       helper_size="0"
       apply_no_weight="true"
       apply_with_weight="true"
       only_selected="false" /><inkscape:path-effect
       effect="bspline"
       id="path-effect2687-6-5"
       is_visible="true"
       lpeversion="1"
       weight="33.333333"
       steps="2"
       helper_size="0"
       apply_no_weight="true"
       apply_with_weight="true"
       only_selected="false" /><inkscape:path-effect
       effect="bspline"
       id="path-effect2687-6-7-1"
       is_visible="true"
       lpeversion="1"
       weight="33.333333"
       steps="2"
       helper_size="0"
       apply_no_weight="true"
       apply_with_weight="true"
       only_selected="false" /><inkscape:path-effect
       effect="bspline"
       id="path-effect2687-6-7-1-4"
       is_visible="true"
       lpeversion="1"
       weight="33.333333"
       steps="2"
       helper_size="0"
       apply_no_weight="true"
       apply_with_weight="true"
       only_selected="false" /><inkscape:path-effect
       effect="bspline"
       id="path-effect6055-4"
       is_visible="true"
       lpeversion="1"
       weight="33.333333"
       steps="2"
       helper_size="0"
       apply_no_weight="true"
       apply_with_weight="true"
       only_selected="false" /><inkscape:path-effect
       effect="bspline"
       id="path-effect2687-6-5-3"
       is_visible="true"
       lpeversion="1"
       weight="33.333333"
       steps="2"
       helper_size="0"
       apply_no_weight="true"
       apply_with_weight="true"
       only_selected="false" /><inkscape:path-effect
       effect="bspline"
       id="path-effect6055-4-5"
       is_visible="true"
       lpeversion="1"
       weight="33.333333"
       steps="2"
       helper_size="0"
       apply_no_weight="true"
       apply_with_weight="true"
       only_selected="false" /><inkscape:path-effect
       effect="bspline"
       id="path-effect6055-4-5-3"
       is_visible="true"
       lpeversion="1"
       weight="33.333333"
       steps="2"
       helper_size="0"
       apply_no_weight="true"
       apply_with_weight="true"
       only_selected="false" /></defs><g
     inkscape:label="Layer 1"
     inkscape:groupmode="layer"
     id="layer1"
     transform="translate(57.459268,-76.647398)"><path
       style="fill:#000000;fill-opacity:1;stroke-width:0.117326"
       d="m 184.0496,84.692158 c 0.98885,0.982473 2.96644,2.947305 4.338,4.338009 1.37156,1.390704 2.13707,2.20724 2.79415,2.813267 0.65709,0.606027 1.2057,1.001539 1.63949,1.224778 0.4338,0.22324 0.75275,0.274271 1.02705,0.267868 0.27429,-0.0064 0.50393,-0.07019 0.68889,-0.178629 0.18496,-0.108436 0.3253,-0.261536 0.43375,-0.771843 0.10845,-0.510307 0.185,-1.377874 0.2169,-3.093928 0.0319,-1.716054 0.0191,-4.280494 -0.006,-6.200684 -0.0255,-1.920189 -0.0638,-3.196022 -0.19134,-3.974296 -0.12754,-0.778275 -0.34443,-1.05896 -0.55493,-1.256746 -0.2105,-0.197787 -0.41463,-0.312611 -0.66343,-0.382819 -0.24881,-0.07021 -0.54225,-0.09572 -3.08127,-0.08935 -2.53902,0.0064 -7.32342,0.04465 -9.72212,0.08296 -2.3987,0.03831 -2.41147,0.07659 -2.43698,0.248853 -0.0255,0.172264 -0.0638,0.478456 -0.006,0.810205 0.0575,0.33175 0.21056,0.688986 0.56145,1.148291 0.3509,0.459306 0.89951,1.020675 1.37797,1.460843 0.47846,0.440168 0.88672,0.759124 1.14183,0.88028 0.25511,0.121156 0.3572,0.0446 0.38909,-0.140338 0.0319,-0.184934 -0.006,-0.478364 0.0127,-0.727204 0.0191,-0.248839 0.0957,-0.452959 0.24243,-0.606106 0.14676,-0.153147 0.36366,-0.255219 0.8868,-0.306242 0.52314,-0.05102 1.35244,-0.05102 2.88987,-0.0574 1.53744,-0.0064 3.78287,-0.01913 5.01411,0.05109 1.23124,0.07022 1.44814,0.223323 1.55652,1.837328 0.10838,1.614006 0.10838,4.688786 0.0191,6.264409 -0.0893,1.575622 -0.2679,1.652169 -0.43373,1.671335 -0.16583,0.01917 -0.31891,-0.01911 -0.61237,-0.229589 -0.29347,-0.210485 -0.72725,-0.593239 -1.32054,-1.16738 -0.59329,-0.574141 -1.34603,-1.339645 -1.86915,-1.92016 -0.52312,-0.580515 -0.81656,-0.976024 -0.97607,-1.256715 -0.15952,-0.280692 -0.18502,-0.446552 -0.14036,-0.567829 0.0447,-0.121277 0.1595,-0.197837 0.34455,-0.248861 0.18504,-0.05102 0.44021,-0.07652 0.70816,0.01923 0.26794,0.09576 0.54862,0.312647 0.82293,0.561456 0.27431,0.248809 0.54223,0.529487 0.84208,0.752742 0.29985,0.223255 0.63156,0.389115 0.89943,0.401827 0.26788,0.01271 0.472,-0.127629 0.60595,-0.331715 0.13394,-0.204086 0.19774,-0.47202 0.23603,-0.975979 0.0383,-0.503959 0.0511,-1.243938 4e-5,-1.798931 -0.051,-0.554993 -0.16583,-0.924991 -0.26785,-1.14828 -0.10202,-0.223288 -0.19134,-0.299846 -1.59483,-0.325426 -1.40348,-0.02558 -4.12101,-8.1e-5 -5.49262,0.05735 -1.37162,0.05743 -1.39712,0.146772 -1.43539,0.299876 -0.0383,0.153104 -0.0893,0.369997 -0.0701,0.644336 0.0192,0.274338 0.10849,0.606065 0.15312,0.771855 0.0446,0.16579 0.0446,0.16579 1.03342,1.148263 z"
       id="path2685-7-3"
       sodipodi:nodetypes="ccccccccccccccccccccccccccc"
       inkscape:original-d="m 183.06075,83.709685 c 1.9777,1.96495 3.95529,3.92978 5.93276,5.89449 0.76566,0.81669 1.53116,1.63323 2.29656,2.44966 0.54875,0.39565 1.09736,0.79116 1.64586,1.18656 0.31909,0.0512 0.63805,0.10218 0.9569,0.1531 0.22978,-0.0637 0.45943,-0.12747 0.68897,-0.19138 0.14046,-0.15299 0.2808,-0.30609 0.42103,-0.45931 0.0767,-0.86749 0.15322,-1.73506 0.22966,-2.60276 -0.0126,-2.56442 -0.0254,-5.12886 -0.0383,-7.69346 -0.0382,-1.27578 -0.0764,-2.551615 -0.11483,-3.827596 -0.21678,-0.280579 -0.43367,-0.561265 -0.65069,-0.842071 -0.20402,-0.114714 -0.40815,-0.229538 -0.61241,-0.344485 -0.29334,-0.0254 -0.58678,-0.05092 -0.88035,-0.07655 -4.78446,0.0384 -9.56886,0.07667 -14.35347,0.11483 -0.0126,0.0384 -0.0254,0.07667 -0.0383,0.114826 -0.0382,0.306332 -0.0764,0.612533 -0.11482,0.918622 0.15322,0.357367 0.30632,0.714603 0.45931,1.071726 0.54875,0.56151 1.09736,1.122878 1.64586,1.684138 0.40841,0.31909 0.81667,0.63805 1.22483,0.9569 0.10219,-0.0764 0.20426,-0.15298 0.30621,-0.22965 -0.0382,-0.29334 -0.0764,-0.58678 -0.11483,-0.88035 0.0767,-0.20403 0.15322,-0.40816 0.22966,-0.61241 0.21701,-0.10196 0.43391,-0.20403 0.65069,-0.306213 0.82944,1.18e-4 1.65874,1.18e-4 2.48793,0 2.24568,-0.01264 4.49111,-0.0254 6.73656,-0.03827 0.21702,0.153223 0.43391,0.306323 0.65069,0.459313 1.2e-4,3.075 1.2e-4,6.14978 0,9.22449 -0.17851,0.0767 -0.35713,0.15322 -0.53587,0.22966 -0.15299,-0.0382 -0.30609,-0.0764 -0.45931,-0.11483 -0.43368,-0.38265 -0.86747,-0.7654 -1.30138,-1.14828 -0.75266,-0.76541 -1.5054,-1.53092 -2.25828,-2.29655 -0.29334,-0.39541 -0.58678,-0.79092 -0.88035,-1.18656 -0.0254,-0.16574 -0.0509,-0.3316 -0.0765,-0.49758 0.11495,-0.0764 0.22977,-0.15299 0.34449,-0.22966 0.25529,-0.0254 0.51046,-0.0509 0.76552,-0.0765 0.28081,0.21702 0.56149,0.43391 0.84206,0.65069 0.26806,0.28082 0.53598,0.5615 0.8038,0.84207 0.33185,0.16599 0.66357,0.33184 0.99517,0.49759 0.20426,-0.14023 0.40839,-0.28057 0.61241,-0.42104 0.0639,-0.26781 0.12771,-0.53574 0.19138,-0.80379 0.0129,-0.7399 0.0256,-1.47988 0.0383,-2.22 -0.11471,-0.36989 -0.22953,-0.73989 -0.34448,-1.11001 -0.0892,-0.0764 -0.1785,-0.15298 -0.26793,-0.22965 -2.71753,0.0256 -5.43506,0.0511 -8.15277,0.0765 -0.0254,0.0894 -0.0509,0.17874 -0.0765,0.26793 -0.0509,0.21702 -0.10195,0.43391 -0.15311,0.65069 0.0894,0.33185 0.17874,0.66357 0.26794,0.99517 z"
       inkscape:path-effect="#path-effect2687-6-5"
       inkscape:export-filename="inspiration_background.svg"
       inkscape:export-xdpi="96"
       inkscape:export-ydpi="96" /><path
       id="path2689-7-0"
       style="fill:#000000;fill-opacity:1;stroke-width:0.117326"
       d="m 197.52128,78.082851 c -0.13069,-0.0012 -0.26223,0.01208 -0.39621,0.03162 -0.30622,0.04465 -0.62509,0.121293 -0.78462,0.185156 -0.15952,0.06386 -0.15971,0.114783 -0.15971,0.140241 0,0.02545 1.6e-4,0.02557 -0.0509,0.293544 -0.051,0.267978 -0.1532,0.803766 -0.17232,1.582074 -0.0191,0.7783 0.0447,1.79908 0.12763,2.4753 0.0829,0.67622 0.18504,1.0078 0.33181,1.19274 0.14678,0.18495 0.33816,0.22316 0.59328,0.13383 0.25512,-0.0893 0.57404,-0.30622 1.09077,-0.7145 0.51672,-0.40828 1.23125,-1.00789 1.62675,-1.40975 0.3955,-0.40186 0.47192,-0.60584 0.49108,-0.91202 0.0192,-0.30619 -0.019,-0.71449 -0.24222,-1.11002 -0.22322,-0.395528 -0.63155,-0.77844 -0.98879,-1.097412 -0.35724,-0.318971 -0.66352,-0.573987 -0.96336,-0.695249 -0.16866,-0.06821 -0.33519,-0.09398 -0.50322,-0.09556 z m -0.10404,1.777535 c 0.0888,-0.003 0.16905,0.1074 0.19891,0.25092 0.0318,0.1531 0.006,0.34457 0.1022,0.44021 0.0958,0.0956 0.31262,0.0955 0.47847,0.17209 0.16586,0.0766 0.28058,0.22973 0.2869,0.40193 0.006,0.1722 -0.0957,0.36366 -0.26788,0.55501 -0.17222,0.19136 -0.41454,0.38278 -0.60588,0.47847 -0.19133,0.0957 -0.33166,0.0957 -0.43378,-0.10839 -0.10212,-0.20407 -0.16593,-0.61243 -0.17233,-0.95694 -0.006,-0.3445 0.0444,-0.6252 0.121,-0.84213 0.0765,-0.21694 0.17877,-0.37002 0.27452,-0.38911 0.006,-0.001 0.0119,-0.002 0.0179,-0.002 z" /><path
       id="path2697-87-5"
       style="fill:#000000;fill-opacity:1;stroke-width:0.117326"
       d="m 197.05504,86.283122 c -0.024,1.1e-4 -0.0465,9.3e-4 -0.068,0.002 -0.17228,0.0127 -0.27435,0.0638 -0.40834,0.21059 -0.134,0.14675 -0.29987,0.38917 -0.40194,0.64438 -0.10207,0.25521 -0.14032,0.52305 -0.15307,1.18014 -0.0128,0.65708 -1.5e-4,1.70328 0.0573,2.41779 0.0574,0.7145 0.15957,1.09744 0.21059,1.28875 0.051,0.19131 0.051,0.19131 0.0894,0.23603 0.0383,0.0447 0.11474,0.13391 0.22319,0.17851 0.10846,0.0446 0.24878,0.0446 0.50391,-0.0575 0.25513,-0.10208 0.62517,-0.3062 1.1036,-0.70809 0.47843,-0.40188 1.06541,-1.00155 1.43541,-1.42258 0.37,-0.42102 0.52313,-0.66328 0.59969,-0.87375 0.0766,-0.21048 0.0764,-0.38931 0.0573,-0.54241 -0.0191,-0.15309 -0.0573,-0.28059 -0.17851,-0.49749 -0.12119,-0.2169 -0.32538,-0.5231 -0.75277,-0.87399 -0.42739,-0.35089 -1.07799,-0.74638 -1.52455,-0.95694 -0.39074,-0.18423 -0.62518,-0.22671 -0.7931,-0.22594 z m 0.25711,1.5367 c 0.003,-1.1e-4 0.006,-1.3e-4 0.009,0 0.0969,0.004 0.17286,0.13076 0.21495,0.26559 0.0421,0.13483 0.0505,0.27789 0.0763,0.40399 0.0258,0.1261 0.0691,0.23512 0.14849,0.32059 0.0794,0.0855 0.19492,0.14759 0.29973,0.17736 0.10481,0.0298 0.19899,0.0272 0.2924,0.0218 0.0934,-0.005 0.19501,-0.0764 0.24131,-0.0131 0.0463,0.0633 0.0374,0.26058 -4.5e-4,0.34057 -0.0379,0.08 -0.11386,0.10533 -0.20234,0.13062 -0.0885,0.0253 -0.18956,0.0505 -0.30065,0.0616 -0.11108,0.0112 -0.33945,-0.0723 -0.40247,3.9e-4 -0.063,0.0727 -0.0411,0.33739 -0.052,0.51041 -0.0109,0.17303 0.10657,0.50484 -0.14283,0.48781 l -0.29064,-0.0178 c -0.25571,-0.0217 -0.11799,-0.82175 -0.14931,-1.23147 -0.0314,-0.40972 -0.008,-0.82251 0.0446,-1.12379 0.0467,-0.26707 0.25778,-0.18039 0.23162,-0.27193 z"
       sodipodi:nodetypes="ssssssssssssssssssscssssssssssccccsssc" /><path
       style="fill:#000000;fill-opacity:1;stroke-width:0.117326"
       d="m -41.194132,83.952714 c -0.988852,0.982473 -2.96644,2.947305 -4.338001,4.338009 -1.371561,1.390704 -2.137065,2.20724 -2.794149,2.813267 -0.657085,0.606027 -1.205694,1.001539 -1.639492,1.224778 -0.433799,0.22324 -0.752751,0.274271 -1.027042,0.267868 -0.274291,-0.0064 -0.503936,-0.07019 -0.688895,-0.178629 -0.184959,-0.108436 -0.325299,-0.261536 -0.433747,-0.771843 -0.108448,-0.510307 -0.185,-1.377874 -0.216898,-3.093928 -0.0319,-1.716054 -0.01913,-4.280494 0.0064,-6.200684 0.02552,-1.920189 0.0638,-3.196022 0.191336,-3.974296 0.12754,-0.778275 0.344432,-1.05896 0.554931,-1.256746 0.210499,-0.197787 0.414629,-0.312611 0.663435,-0.382819 0.248806,-0.07021 0.542246,-0.09572 3.081266,-0.08935 2.53902,0.0064 7.32342,0.04465 9.722118,0.08296 2.398698,0.03831 2.411467,0.07659 2.436983,0.248853 0.02552,0.172264 0.06379,0.478456 0.0063,0.810205 -0.05745,0.33175 -0.210553,0.688986 -0.561449,1.148291 -0.350896,0.459306 -0.899505,1.020675 -1.377966,1.460843 -0.47846,0.440168 -0.886723,0.759124 -1.141835,0.88028 -0.255111,0.121156 -0.357195,0.0446 -0.38909,-0.140338 -0.03189,-0.184934 0.0064,-0.478364 -0.01274,-0.727204 -0.01912,-0.248839 -0.09567,-0.452959 -0.24243,-0.606106 -0.146762,-0.153147 -0.363661,-0.255219 -0.886803,-0.306242 -0.523142,-0.05102 -1.352442,-0.05102 -2.889877,-0.0574 -1.537434,-0.0064 -3.782864,-0.01914 -5.014107,0.05109 -1.231243,0.07022 -1.448133,0.223323 -1.556516,1.837328 -0.108382,1.614006 -0.108382,4.688786 -0.01909,6.264409 0.08929,1.575622 0.267899,1.652169 0.433729,1.671335 0.16583,0.01917 0.318912,-0.0191 0.612374,-0.229589 0.293462,-0.210485 0.727249,-0.593239 1.320537,-1.16738 0.593288,-0.574141 1.346034,-1.339645 1.869151,-1.92016 0.523117,-0.580515 0.816559,-0.976024 0.976074,-1.256715 0.159515,-0.280692 0.185015,-0.446552 0.140354,-0.567829 -0.04466,-0.121277 -0.159501,-0.197837 -0.344545,-0.248861 -0.185043,-0.05102 -0.440213,-0.07652 -0.70816,0.01923 -0.267948,0.09576 -0.548627,0.312647 -0.822935,0.561456 -0.274308,0.248809 -0.54223,0.529487 -0.842077,0.752742 -0.299847,0.223255 -0.631563,0.389115 -0.899435,0.401827 -0.267873,0.01271 -0.472002,-0.127629 -0.605945,-0.331715 -0.133944,-0.204086 -0.197738,-0.47202 -0.236028,-0.975979 -0.03829,-0.503959 -0.05106,-1.243938 -4.7e-5,-1.798931 0.05101,-0.554993 0.165832,-0.924991 0.267854,-1.14828 0.102021,-0.223288 0.191341,-0.299846 1.594825,-0.325426 1.403485,-0.02558 4.121015,-8.1e-5 5.492628,0.05735 1.371612,0.05743 1.39712,0.146772 1.435387,0.299876 0.03827,0.153104 0.0893,0.369997 0.07014,0.644336 -0.01917,0.274338 -0.108481,0.606065 -0.153119,0.771855 -0.04464,0.16579 -0.04457,0.16579 -1.033419,1.148263 z"
       id="path2685-7-4-4"
       sodipodi:nodetypes="ccccccccccccccccccccccccccc"
       inkscape:original-d="m -40.20528,82.970241 c -1.9777,1.96495 -3.95529,3.92978 -5.93276,5.89449 -0.76566,0.81669 -1.53116,1.63323 -2.29656,2.44966 -0.54875,0.39565 -1.09736,0.79116 -1.64586,1.18656 -0.31909,0.0512 -0.63805,0.10218 -0.9569,0.1531 -0.22978,-0.0637 -0.45943,-0.12747 -0.68897,-0.19138 -0.14046,-0.15299 -0.2808,-0.30609 -0.42103,-0.45931 -0.0767,-0.86749 -0.15322,-1.73506 -0.22966,-2.60276 0.0126,-2.56442 0.0254,-5.12886 0.0383,-7.69346 0.0382,-1.27578 0.0764,-2.551615 0.11483,-3.827596 0.21678,-0.280579 0.43367,-0.561265 0.65069,-0.842071 0.20402,-0.114714 0.40815,-0.229538 0.61241,-0.344485 0.29334,-0.0254 0.58678,-0.05092 0.88035,-0.07655 4.78446,0.0384 9.56886,0.07667 14.35347,0.11483 0.0126,0.0384 0.0254,0.07667 0.0383,0.114826 0.0382,0.306332 0.0764,0.612533 0.11482,0.918622 -0.15322,0.357367 -0.30632,0.714603 -0.45931,1.071726 -0.54875,0.56151 -1.09736,1.122878 -1.64586,1.684138 -0.40841,0.31909 -0.81667,0.63805 -1.22483,0.9569 -0.10219,-0.0764 -0.20426,-0.15298 -0.30621,-0.22965 0.0382,-0.29334 0.0764,-0.58678 0.11483,-0.88035 -0.0767,-0.20403 -0.15322,-0.40816 -0.22966,-0.61241 -0.21701,-0.10196 -0.43391,-0.20403 -0.65069,-0.306213 -0.82944,1.18e-4 -1.65874,1.18e-4 -2.48793,0 -2.24568,-0.01264 -4.49111,-0.0254 -6.73656,-0.03827 -0.21702,0.153223 -0.43391,0.306323 -0.65069,0.459313 -1.2e-4,3.075 -1.2e-4,6.14978 0,9.22449 0.17851,0.0767 0.35713,0.15322 0.53587,0.22966 0.15299,-0.0382 0.30609,-0.0764 0.45931,-0.11483 0.43368,-0.38265 0.86747,-0.7654 1.30138,-1.14828 0.75266,-0.76541 1.5054,-1.53092 2.25828,-2.29655 0.29334,-0.39541 0.58678,-0.79092 0.88035,-1.18656 0.0254,-0.16574 0.0509,-0.3316 0.0765,-0.49758 -0.11495,-0.0764 -0.22977,-0.15299 -0.34449,-0.22966 -0.25529,-0.0254 -0.51046,-0.0509 -0.76552,-0.0765 -0.28081,0.21702 -0.56149,0.43391 -0.84206,0.65069 -0.26806,0.28082 -0.53598,0.5615 -0.8038,0.84207 -0.33185,0.16599 -0.66357,0.33184 -0.99517,0.49759 -0.20426,-0.14023 -0.40839,-0.28057 -0.61241,-0.42104 -0.0639,-0.26781 -0.12771,-0.53574 -0.19138,-0.80379 -0.0129,-0.7399 -0.0256,-1.47988 -0.0383,-2.22 0.11471,-0.36989 0.22953,-0.73989 0.34448,-1.11001 0.0892,-0.0764 0.1785,-0.15298 0.26793,-0.22965 2.71753,0.0256 5.43506,0.0511 8.15277,0.0765 0.0254,0.0894 0.0509,0.17874 0.0765,0.26793 0.0509,0.21702 0.10195,0.43391 0.15311,0.65069 -0.0894,0.33185 -0.17874,0.66357 -0.26794,0.99517 z"
       inkscape:path-effect="#path-effect2687-6-7-1" /><path
       id="path2689-7-3-2"
       style="fill:#000000;fill-opacity:1;stroke-width:0.117326"
       d="m -54.71265,77.764956 c 0.13069,-0.0012 0.26223,0.01208 0.39621,0.03162 0.30622,0.04465 0.62509,0.121293 0.78462,0.185156 0.15952,0.06386 0.15971,0.114783 0.15971,0.140241 0,0.02545 -1.6e-4,0.02557 0.0509,0.293544 0.051,0.267978 0.1532,0.803766 0.17232,1.582074 0.0191,0.7783 -0.0447,1.79908 -0.12763,2.4753 -0.0829,0.67622 -0.18504,1.0078 -0.33181,1.19274 -0.14678,0.18495 -0.33816,0.22316 -0.59328,0.13383 -0.25512,-0.0893 -0.57404,-0.30622 -1.09077,-0.7145 -0.51672,-0.40828 -1.23125,-1.00789 -1.62675,-1.40975 -0.3955,-0.40186 -0.47192,-0.60584 -0.49108,-0.91202 -0.0192,-0.30619 0.019,-0.71449 0.24222,-1.11002 0.22322,-0.395528 0.63155,-0.77844 0.98879,-1.097412 0.35724,-0.318971 0.66352,-0.573987 0.96336,-0.695249 0.16866,-0.06821 0.33519,-0.09398 0.50322,-0.09556 z m 0.10404,1.777535 c -0.0888,-0.003 -0.16905,0.1074 -0.19891,0.25092 -0.0318,0.1531 -0.006,0.34457 -0.1022,0.44021 -0.0958,0.0956 -0.31262,0.0955 -0.47847,0.17209 -0.16586,0.0766 -0.28058,0.22973 -0.2869,0.40193 -0.006,0.1722 0.0957,0.36366 0.26788,0.55501 0.17222,0.19136 0.41454,0.38278 0.60588,0.47847 0.19133,0.0957 0.33166,0.0957 0.43378,-0.10839 0.10212,-0.20407 0.16593,-0.61243 0.17233,-0.95694 0.006,-0.3445 -0.0444,-0.6252 -0.121,-0.84213 -0.0765,-0.21694 -0.17877,-0.37002 -0.27452,-0.38911 -0.006,-0.001 -0.0119,-0.002 -0.0179,-0.002 z" /><path
       id="path2697-87-1-4"
       style="fill:#000000;fill-opacity:1;stroke-width:0.117326"
       d="m -54.19957,86.527291 c 0.024,1.1e-4 0.0465,9.3e-4 0.068,0.002 0.17228,0.0127 0.27435,0.0638 0.40834,0.21059 0.134,0.14675 0.29987,0.38917 0.40194,0.64438 0.10207,0.25521 0.14032,0.52305 0.15307,1.18014 0.0128,0.65708 1.5e-4,1.70328 -0.0573,2.41779 -0.0574,0.7145 -0.15957,1.09744 -0.21059,1.28875 -0.051,0.19131 -0.051,0.19131 -0.0894,0.23603 -0.0383,0.0447 -0.11474,0.13391 -0.22319,0.17851 -0.10846,0.0446 -0.24878,0.0446 -0.50391,-0.0575 -0.25513,-0.10208 -0.62517,-0.3062 -1.1036,-0.70809 -0.47843,-0.40188 -1.06541,-1.00155 -1.43541,-1.42258 -0.37,-0.42102 -0.52313,-0.66328 -0.59969,-0.87375 -0.0766,-0.21048 -0.0764,-0.38931 -0.0573,-0.54241 0.0191,-0.15309 0.0573,-0.28059 0.17851,-0.49749 0.12119,-0.2169 0.32538,-0.5231 0.75277,-0.87399 0.42739,-0.35089 1.07799,-0.74638 1.52455,-0.95694 0.39074,-0.18423 0.62518,-0.22671 0.7931,-0.22594 z m -0.25711,1.5367 c -0.003,-1.1e-4 -0.006,-1.3e-4 -0.009,0 -0.0969,0.004 -0.17286,0.13076 -0.21495,0.26559 -0.0421,0.13483 -0.0505,0.27789 -0.0763,0.40399 -0.0258,0.1261 -0.0691,0.23512 -0.14849,0.32059 -0.0794,0.0855 -0.19492,0.14759 -0.29973,0.17736 -0.10481,0.0298 -0.19899,0.0272 -0.2924,0.0218 -0.0934,-0.005 -0.19501,-0.0764 -0.24131,-0.0131 -0.0463,0.0633 -0.0374,0.26058 4.5e-4,0.34057 0.0379,0.08 0.11386,0.10533 0.20234,0.13062 0.0885,0.0253 0.18956,0.0505 0.30065,0.0616 0.11108,0.0112 0.33945,-0.0723 0.40247,3.9e-4 0.063,0.0727 0.0411,0.33739 0.052,0.51041 0.0109,0.17303 -0.10657,0.50484 0.14283,0.48781 l 0.29064,-0.0178 c 0.25571,-0.0217 0.11799,-0.82175 0.14931,-1.23147 0.0314,-0.40972 0.008,-0.82251 -0.0446,-1.12379 -0.0467,-0.26707 -0.25778,-0.18039 -0.23162,-0.27193 z"
       sodipodi:nodetypes="ssssssssssssssssssscssssssssssccccsssc" /><path
       style="fill:#000000;fill-opacity:1;stroke-width:0.571074"
       d="m 66.585553,77.867893 c 33.121959,-0.06919 66.242657,-0.138387 84.120587,-0.130502 17.87794,0.0079 20.50421,0.09252 22.22295,0.43705 1.71875,0.344531 2.52278,0.947769 3.26229,1.459138 0.73951,0.51137 1.41307,0.92989 1.83051,1.217188 0.41744,0.287297 0.57782,0.442217 0.54836,0.531872 -0.0295,0.08966 -0.24952,0.11336 -0.46956,0.137063 -0.26348,0.02819 -0.52646,0.05633 -1.14202,0.02721 -0.61555,-0.02913 -1.58119,-0.115494 -4.25801,-0.203491 -2.67682,-0.088 -7.06328,-0.17741 -23.66694,-0.350424 -16.60365,-0.173014 -45.41186,-0.429503 -74.405831,-0.51454 -28.993973,-0.08504 -58.16483,0.0014 -75.4507887,0.08793 -17.2859593,0.08648 -22.6851053,0.172973 -26.0294353,0.293999 -3.34433,0.121026 -4.634517,0.276807 -5.56126,0.397888 -0.926744,0.121082 -1.490846,0.207571 -2.203457,0.238829 -0.712611,0.03126 -1.572499,0.0073 -1.466009,-0.369926 0.10649,-0.377184 1.178625,-1.104955 2.221785,-1.832996 1.043159,-0.728041 2.053492,-1.453671 2.815091,-1.817211 0.761599,-0.363539 1.271119,-0.363539 17.018554,-0.263734 15.7474356,0.09981 46.730111,0.299398 77.712111,0.498987"
       id="path6053"
       inkscape:path-effect="#path-effect6055"
       inkscape:original-d="m 66.585553,77.867893 c 33.12196,-0.06893 66.242657,-0.138118 99.362147,-0.207576 2.63637,0.08521 5.26264,0.169845 7.89477,0.254415 0.80538,0.604224 1.60941,1.207462 2.41413,1.811241 0.67428,0.418994 1.34784,0.837511 2.02069,1.255571 0.16259,0.155951 0.32248,0.311383 0.48352,0.467048 -0.22,0.024 -0.66012,0.07111 -0.66012,0.07111 0,0 -0.52643,0.05663 -0.79045,0.08458 -0.96714,-0.08627 -1.93277,-0.172718 -2.90103,-0.259472 -4.38538,-0.08913 -8.77184,-0.178547 -13.15952,-0.268241 -28.81962,-0.256329 -57.62783,-0.512818 -86.444407,-0.769642 -29.171366,0.08676 -58.342223,0.173243 -87.516016,0.25947 -5.398121,0.08676 -10.797267,0.173246 -16.197719,0.259472 -1.288164,0.155949 -2.578363,0.31163 -3.868125,0.467048 -0.563714,0.08675 -1.127815,0.173244 -1.692304,0.259469 -0.860789,-0.02377 -1.720677,-0.04778 -2.583528,-0.07211 1.076083,-0.729923 2.148218,-1.457694 3.222267,-2.187291 1.012282,-0.726488 2.022615,-1.452118 3.034707,-2.179555 0.510849,2.65e-4 1.020369,2.65e-4 1.53001,0 30.9852279,0.199872 61.967903,0.399465 92.949905,0.598792"
       sodipodi:nodetypes="cccccccccccccccccccc" /><path
       style="fill:#000000;fill-opacity:1;stroke-width:0.117326"
       d="m 184.9187,223.72816 c 0.98885,-0.98248 2.96644,-2.94731 4.338,-4.33801 1.37156,-1.39071 2.13707,-2.20724 2.79415,-2.81327 0.65709,-0.60603 1.2057,-1.00154 1.63949,-1.22478 0.4338,-0.22324 0.75276,-0.27427 1.02705,-0.26786 0.27429,0.006 0.50393,0.0702 0.68889,0.17862 0.18496,0.10844 0.3253,0.26153 0.43375,0.77184 0.10845,0.51031 0.185,1.37788 0.2169,3.09393 0.0319,1.71606 0.0191,4.2805 -0.006,6.20069 -0.0255,1.92019 -0.0638,3.19602 -0.19134,3.97429 -0.12754,0.77827 -0.34443,1.05896 -0.55493,1.25675 -0.2105,0.19778 -0.41463,0.31261 -0.66344,0.38281 -0.2488,0.0702 -0.54224,0.0957 -3.08126,0.0893 -2.53902,-0.006 -7.32342,-0.0447 -9.72212,-0.083 -2.3987,-0.0383 -2.41147,-0.0766 -2.43699,-0.24887 -0.0255,-0.17225 -0.0638,-0.47844 -0.006,-0.81019 0.0575,-0.33175 0.21056,-0.68898 0.56145,-1.14829 0.3509,-0.45931 0.89951,-1.02067 1.37797,-1.46084 0.47846,-0.44017 0.88672,-0.75912 1.14183,-0.88028 0.25511,-0.12116 0.3572,-0.0446 0.38909,0.14034 0.0319,0.18493 -0.006,0.47836 0.0127,0.7272 0.0191,0.24884 0.0957,0.45296 0.24243,0.60611 0.14676,0.15314 0.36366,0.25522 0.8868,0.30624 0.52314,0.051 1.35244,0.051 2.88987,0.0574 1.53744,0.006 3.78287,0.0191 5.01411,-0.0511 1.23124,-0.0702 1.44813,-0.22332 1.55652,-1.83732 0.10838,-1.61401 0.10838,-4.68879 0.0191,-6.26441 -0.0893,-1.57563 -0.2679,-1.65217 -0.43373,-1.67134 -0.16583,-0.0192 -0.31891,0.0191 -0.61237,0.22959 -0.29347,0.21049 -0.72725,0.59324 -1.32054,1.16738 -0.59329,0.57414 -1.34603,1.33965 -1.86915,1.92016 -0.52312,0.58052 -0.81656,0.97603 -0.97607,1.25672 -0.15952,0.28069 -0.18502,0.44655 -0.14036,0.56782 0.0447,0.12128 0.1595,0.19784 0.34455,0.24887 0.18504,0.051 0.44021,0.0765 0.70816,-0.0192 0.26794,-0.0957 0.54862,-0.31264 0.82293,-0.56145 0.27431,-0.24881 0.54223,-0.52949 0.84208,-0.75274 0.29985,-0.22326 0.63156,-0.38912 0.89943,-0.40183 0.26788,-0.0127 0.472,0.12763 0.60595,0.33171 0.13394,0.20409 0.19774,0.47202 0.23603,0.97598 0.0383,0.50396 0.0511,1.24394 4e-5,1.79893 -0.051,0.555 -0.16583,0.925 -0.26785,1.14828 -0.10202,0.22329 -0.19134,0.29985 -1.59483,0.32543 -1.40348,0.0256 -4.12101,8e-5 -5.49262,-0.0574 -1.37162,-0.0574 -1.39712,-0.14677 -1.43539,-0.29988 -0.0383,-0.1531 -0.0893,-0.37 -0.0701,-0.64433 0.0192,-0.27434 0.10849,-0.60607 0.15312,-0.77186 0.0446,-0.16579 0.0446,-0.16577 1.03342,-1.14824 z"
       id="path2685-7-3-1"
       sodipodi:nodetypes="ccccccccccccccccccccccccccc"
       inkscape:original-d="m 183.92985,224.71063 c 1.9777,-1.96495 3.95529,-3.92978 5.93276,-5.89449 0.76566,-0.81669 1.53116,-1.63323 2.29656,-2.44966 0.54875,-0.39565 1.09736,-0.79116 1.64586,-1.18656 0.31909,-0.0512 0.63805,-0.10219 0.9569,-0.1531 0.22978,0.0637 0.45943,0.12747 0.68897,0.19138 0.14046,0.15299 0.2808,0.30608 0.42103,0.45931 0.0767,0.86749 0.15322,1.73506 0.22966,2.60276 -0.0126,2.56442 -0.0254,5.12886 -0.0383,7.69346 -0.0382,1.27578 -0.0764,2.55161 -0.11483,3.82759 -0.21678,0.28058 -0.43367,0.56127 -0.65069,0.84207 -0.20402,0.11472 -0.40815,0.22954 -0.61241,0.34449 -0.29334,0.0254 -0.58678,0.0509 -0.88035,0.0765 -4.78446,-0.0384 -9.56886,-0.0767 -14.35347,-0.11483 -0.0126,-0.0384 -0.0254,-0.0767 -0.0383,-0.11483 -0.0382,-0.30633 -0.0764,-0.61253 -0.11482,-0.91862 0.15322,-0.35737 0.30632,-0.7146 0.45931,-1.07173 0.54875,-0.56151 1.09736,-1.12287 1.64586,-1.68413 0.40841,-0.31909 0.81667,-0.63805 1.22483,-0.9569 0.10219,0.0764 0.20426,0.15298 0.30621,0.22965 -0.0382,0.29334 -0.0764,0.58678 -0.11483,0.88035 0.0767,0.20403 0.15322,0.40816 0.22966,0.61241 0.21701,0.10196 0.43391,0.20403 0.65069,0.30621 0.82944,-1.2e-4 1.65874,-1.2e-4 2.48793,0 2.24568,0.0126 4.49111,0.0254 6.73656,0.0383 0.21702,-0.15322 0.43391,-0.30632 0.65069,-0.45931 1.2e-4,-3.075 1.2e-4,-6.14978 0,-9.22449 -0.17851,-0.0767 -0.35713,-0.15322 -0.53587,-0.22966 -0.15299,0.0382 -0.30609,0.0764 -0.45931,0.11483 -0.43368,0.38265 -0.86747,0.7654 -1.30138,1.14828 -0.75266,0.76541 -1.5054,1.53092 -2.25828,2.29655 -0.29334,0.39541 -0.58678,0.79092 -0.88035,1.18656 -0.0254,0.16574 -0.0509,0.3316 -0.0765,0.49758 0.11495,0.0764 0.22977,0.15299 0.34449,0.22966 0.25529,0.0254 0.51046,0.0509 0.76552,0.0765 0.28081,-0.21702 0.56149,-0.43391 0.84206,-0.65069 0.26806,-0.28082 0.53598,-0.5615 0.8038,-0.84207 0.33185,-0.16599 0.66357,-0.33184 0.99517,-0.49759 0.20426,0.14023 0.40839,0.28057 0.61241,0.42104 0.0639,0.26781 0.12771,0.53574 0.19138,0.80379 0.0129,0.7399 0.0256,1.47988 0.0383,2.22 -0.11471,0.36989 -0.22953,0.73989 -0.34448,1.11001 -0.0892,0.0764 -0.1785,0.15298 -0.26793,0.22965 -2.71753,-0.0256 -5.43506,-0.0511 -8.15277,-0.0765 -0.0254,-0.0894 -0.0509,-0.17874 -0.0765,-0.26793 -0.0509,-0.21702 -0.10195,-0.43391 -0.15311,-0.65069 0.0894,-0.33185 0.17874,-0.66357 0.26794,-0.99517 z"
       inkscape:path-effect="#path-effect2687-6-5-3" /><path
       id="path2689-7-0-2"
       style="fill:#000000;fill-opacity:1;stroke-width:0.117326"
       d="m 198.39038,230.33746 c -0.13069,0.001 -0.26223,-0.0121 -0.39621,-0.0316 -0.30622,-0.0447 -0.62509,-0.12129 -0.78462,-0.18516 -0.15952,-0.0639 -0.15971,-0.11478 -0.15971,-0.14024 0,-0.0255 1.6e-4,-0.0256 -0.0509,-0.29354 -0.051,-0.26798 -0.1532,-0.80377 -0.17232,-1.58208 -0.0191,-0.7783 0.0447,-1.79908 0.12763,-2.4753 0.0829,-0.67622 0.18504,-1.0078 0.33181,-1.19274 0.14678,-0.18495 0.33816,-0.22316 0.59328,-0.13383 0.25512,0.0893 0.57404,0.30622 1.09077,0.7145 0.51672,0.40828 1.23125,1.00789 1.62675,1.40975 0.3955,0.40186 0.47192,0.60584 0.49108,0.91202 0.0192,0.30619 -0.019,0.71449 -0.24222,1.11002 -0.22322,0.39553 -0.63155,0.77844 -0.98879,1.09742 -0.35724,0.31897 -0.66352,0.57398 -0.96336,0.69525 -0.16866,0.0682 -0.33519,0.094 -0.50322,0.0955 z m -0.10404,-1.77754 c 0.0888,0.003 0.16905,-0.1074 0.19891,-0.25092 0.0318,-0.1531 0.006,-0.34457 0.1022,-0.44021 0.0958,-0.0956 0.31262,-0.0955 0.47847,-0.17209 0.16586,-0.0766 0.28058,-0.22973 0.2869,-0.40193 0.006,-0.1722 -0.0957,-0.36366 -0.26788,-0.55501 -0.17222,-0.19136 -0.41454,-0.38278 -0.60588,-0.47847 -0.19133,-0.0957 -0.33166,-0.0957 -0.43378,0.10839 -0.10212,0.20407 -0.16593,0.61243 -0.17233,0.95694 -0.006,0.3445 0.0444,0.6252 0.121,0.84213 0.0765,0.21694 0.17877,0.37002 0.27452,0.38911 0.006,0.001 0.0119,0.002 0.0179,0.002 z" /><path
       id="path2697-87-5-2"
       style="fill:#000000;fill-opacity:1;stroke-width:0.117326"
       d="m 197.92414,222.13719 c -0.024,-1.1e-4 -0.0465,-9.3e-4 -0.068,-0.002 -0.17228,-0.0127 -0.27435,-0.0638 -0.40834,-0.21059 -0.134,-0.14675 -0.29987,-0.38917 -0.40194,-0.64438 -0.10207,-0.25521 -0.14032,-0.52305 -0.15307,-1.18014 -0.0128,-0.65708 -1.5e-4,-1.70328 0.0573,-2.41779 0.0574,-0.7145 0.15957,-1.09744 0.21059,-1.28875 0.051,-0.19131 0.051,-0.19131 0.0894,-0.23603 0.0383,-0.0447 0.11474,-0.13391 0.22319,-0.17851 0.10846,-0.0446 0.24878,-0.0446 0.50391,0.0575 0.25513,0.10208 0.62517,0.3062 1.1036,0.70809 0.47843,0.40188 1.06541,1.00155 1.43541,1.42258 0.37,0.42102 0.52313,0.66328 0.59969,0.87375 0.0766,0.21048 0.0764,0.38931 0.0573,0.54241 -0.0191,0.15309 -0.0573,0.28059 -0.17851,0.49749 -0.12119,0.2169 -0.32538,0.5231 -0.75277,0.87399 -0.42739,0.35089 -1.07799,0.74638 -1.52455,0.95694 -0.39074,0.18423 -0.62518,0.22671 -0.7931,0.22594 z m 0.25711,-1.5367 c 0.003,1.1e-4 0.006,1.3e-4 0.009,0 0.0969,-0.004 0.17286,-0.13076 0.21495,-0.26559 0.0421,-0.13483 0.0505,-0.27789 0.0763,-0.40399 0.0258,-0.1261 0.0691,-0.23512 0.14849,-0.32059 0.0794,-0.0855 0.19492,-0.14759 0.29973,-0.17736 0.10481,-0.0298 0.19899,-0.0272 0.2924,-0.0218 0.0934,0.005 0.19501,0.0764 0.24131,0.0131 0.0463,-0.0633 0.0374,-0.26058 -4.5e-4,-0.34057 -0.0379,-0.08 -0.11386,-0.10533 -0.20234,-0.13062 -0.0885,-0.0253 -0.18956,-0.0505 -0.30065,-0.0616 -0.11108,-0.0112 -0.33945,0.0723 -0.40247,-3.9e-4 -0.063,-0.0727 -0.0411,-0.33739 -0.052,-0.51041 -0.0109,-0.17303 0.10657,-0.50484 -0.14283,-0.48781 l -0.29064,0.0178 c -0.25571,0.0217 -0.11799,0.82175 -0.14931,1.23147 -0.0314,0.40972 -0.008,0.82251 0.0446,1.12379 0.0467,0.26707 0.25778,0.18039 0.23162,0.27193 z"
       sodipodi:nodetypes="ssssssssssssssssssscssssssssssccccsssc" /><path
       style="fill:#000000;fill-opacity:1;stroke-width:0.117326"
       d="m -40.325032,224.06272 c -0.988852,-0.98248 -2.96644,-2.94731 -4.338001,-4.33801 -1.371561,-1.39071 -2.137065,-2.20724 -2.794149,-2.81327 -0.657085,-0.60603 -1.205694,-1.00154 -1.639492,-1.22478 -0.433799,-0.22324 -0.752751,-0.27427 -1.027042,-0.26786 -0.274291,0.006 -0.503936,0.0702 -0.688895,0.17862 -0.184959,0.10844 -0.325299,0.26154 -0.433747,0.77185 -0.108448,0.5103 -0.185,1.37787 -0.216898,3.09392 -0.0319,1.71606 -0.01913,4.2805 0.0064,6.20069 0.02552,1.92019 0.0638,3.19603 0.191337,3.9743 0.12754,0.77827 0.344429,1.05896 0.554928,1.25674 0.210499,0.19779 0.41463,0.31262 0.663437,0.38282 0.248807,0.0702 0.542247,0.0957 3.081267,0.0893 2.539019,-0.006 7.323419,-0.0447 9.722117,-0.083 2.398698,-0.0383 2.411475,-0.0766 2.436987,-0.24887 0.02551,-0.17225 0.06378,-0.47844 0.0063,-0.81019 -0.05745,-0.33175 -0.210555,-0.68899 -0.56145,-1.1483 -0.350894,-0.4593 -0.899505,-1.02067 -1.377965,-1.46084 -0.47846,-0.44017 -0.886723,-0.75912 -1.141835,-0.88028 -0.255111,-0.12116 -0.357195,-0.0446 -0.38909,0.14034 -0.03189,0.18493 0.0064,0.47836 -0.01274,0.7272 -0.01912,0.24884 -0.09567,0.45296 -0.24243,0.60611 -0.146761,0.15315 -0.363659,0.25522 -0.886802,0.30625 -0.523143,0.051 -1.352443,0.051 -2.889878,0.0574 -1.537434,0.006 -3.782864,0.0191 -5.014108,-0.0511 -1.231244,-0.0702 -1.448133,-0.22332 -1.556515,-1.83732 -0.108382,-1.61401 -0.108382,-4.68879 -0.01909,-6.26441 0.08929,-1.57563 0.267899,-1.65217 0.433729,-1.67134 0.16583,-0.0192 0.318912,0.0191 0.612374,0.22959 0.293462,0.21049 0.727249,0.59324 1.320537,1.16738 0.593288,0.57414 1.346034,1.33965 1.869151,1.92016 0.523117,0.58052 0.816559,0.97603 0.976074,1.25672 0.159515,0.28069 0.185015,0.44655 0.140354,0.56782 -0.04466,0.12128 -0.159501,0.19784 -0.344545,0.24887 -0.185043,0.051 -0.440213,0.0765 -0.70816,-0.0192 -0.267948,-0.0958 -0.548627,-0.31264 -0.822935,-0.56145 -0.274308,-0.24881 -0.54223,-0.52949 -0.842077,-0.75274 -0.299847,-0.22326 -0.631563,-0.38912 -0.899435,-0.40183 -0.267873,-0.0127 -0.472002,0.12763 -0.605945,0.33171 -0.133944,0.20409 -0.197738,0.47202 -0.236028,0.97598 -0.03829,0.50396 -0.05105,1.24394 -4.7e-5,1.79893 0.05101,0.555 0.165832,0.925 0.267854,1.14828 0.102021,0.22329 0.191341,0.29985 1.594825,0.32543 1.403485,0.0256 4.121015,8e-5 5.492628,-0.0573 1.371612,-0.0574 1.39712,-0.14677 1.435387,-0.29988 0.03827,-0.1531 0.0893,-0.37 0.07014,-0.64433 -0.01917,-0.27434 -0.108481,-0.60607 -0.153119,-0.77186 -0.04464,-0.16579 -0.04457,-0.16577 -1.033419,-1.14824 z"
       id="path2685-7-4-4-6"
       sodipodi:nodetypes="ccccccccccccccccccccccccccc"
       inkscape:original-d="m -39.33618,225.04519 c -1.9777,-1.96495 -3.95529,-3.92978 -5.93276,-5.89449 -0.76566,-0.81669 -1.53116,-1.63323 -2.29656,-2.44966 -0.54875,-0.39565 -1.09736,-0.79116 -1.64586,-1.18656 -0.31909,-0.0512 -0.63805,-0.10218 -0.9569,-0.1531 -0.22978,0.0637 -0.45943,0.12747 -0.68897,0.19138 -0.14046,0.15299 -0.2808,0.30609 -0.42103,0.45931 -0.0767,0.86749 -0.15322,1.73506 -0.22966,2.60276 0.0126,2.56442 0.0254,5.12886 0.0383,7.69346 0.0382,1.27578 0.0764,2.55162 0.11483,3.8276 0.21678,0.28058 0.43367,0.56126 0.65069,0.84207 0.20402,0.11471 0.40815,0.22954 0.61241,0.34449 0.29334,0.0254 0.58678,0.0509 0.88035,0.0765 4.78446,-0.0384 9.56886,-0.0767 14.35347,-0.11483 0.0126,-0.0384 0.0254,-0.0767 0.0383,-0.11483 0.0382,-0.30633 0.0764,-0.61253 0.11482,-0.91862 -0.15322,-0.35737 -0.30632,-0.71461 -0.45931,-1.07173 -0.54875,-0.56151 -1.09736,-1.12288 -1.64586,-1.68414 -0.40841,-0.31909 -0.81667,-0.63805 -1.22483,-0.9569 -0.10219,0.0764 -0.20426,0.15298 -0.30621,0.22965 0.0382,0.29334 0.0764,0.58678 0.11483,0.88035 -0.0767,0.20403 -0.15322,0.40816 -0.22966,0.61241 -0.21701,0.10196 -0.43391,0.20403 -0.65069,0.30622 -0.82944,-1.2e-4 -1.65874,-1.2e-4 -2.48793,0 -2.24568,0.0126 -4.49111,0.0254 -6.73656,0.0383 -0.21702,-0.15323 -0.43391,-0.30633 -0.65069,-0.45932 -1.2e-4,-3.075 -1.2e-4,-6.14978 0,-9.22449 0.17851,-0.0767 0.35713,-0.15322 0.53587,-0.22966 0.15299,0.0382 0.30609,0.0764 0.45931,0.11483 0.43368,0.38265 0.86747,0.7654 1.30138,1.14828 0.75266,0.76541 1.5054,1.53092 2.25828,2.29655 0.29334,0.39541 0.58678,0.79092 0.88035,1.18656 0.0254,0.16574 0.0509,0.3316 0.0765,0.49758 -0.11495,0.0764 -0.22977,0.15299 -0.34449,0.22966 -0.25529,0.0254 -0.51046,0.0509 -0.76552,0.0765 -0.28081,-0.21702 -0.56149,-0.43391 -0.84206,-0.65069 -0.26806,-0.28082 -0.53598,-0.5615 -0.8038,-0.84207 -0.33185,-0.16599 -0.66357,-0.33184 -0.99517,-0.49759 -0.20426,0.14023 -0.40839,0.28057 -0.61241,0.42104 -0.0639,0.26781 -0.12771,0.53574 -0.19138,0.80379 -0.0129,0.7399 -0.0256,1.47988 -0.0383,2.22 0.11471,0.36989 0.22953,0.73989 0.34448,1.11001 0.0892,0.0764 0.1785,0.15298 0.26793,0.22965 2.71753,-0.0256 5.43506,-0.0511 8.15277,-0.0765 0.0254,-0.0894 0.0509,-0.17874 0.0765,-0.26793 0.0509,-0.21702 0.10195,-0.43391 0.15311,-0.65069 -0.0894,-0.33185 -0.17874,-0.66357 -0.26794,-0.99517 z"
       inkscape:path-effect="#path-effect2687-6-7-1-4" /><path
       id="path2689-7-3-2-1"
       style="fill:#000000;fill-opacity:1;stroke-width:0.117326"
       d="m -53.84355,230.25048 c 0.13069,10e-4 0.26223,-0.0121 0.39621,-0.0316 0.30622,-0.0446 0.62509,-0.12129 0.78462,-0.18516 0.15952,-0.0639 0.15971,-0.11478 0.15971,-0.14024 0,-0.0255 -1.6e-4,-0.0256 0.0509,-0.29354 0.051,-0.26798 0.1532,-0.80377 0.17232,-1.58208 0.0191,-0.7783 -0.0447,-1.79908 -0.12763,-2.4753 -0.0829,-0.67622 -0.18504,-1.0078 -0.33181,-1.19274 -0.14678,-0.18495 -0.33816,-0.22316 -0.59328,-0.13383 -0.25512,0.0893 -0.57404,0.30622 -1.09077,0.7145 -0.51672,0.40828 -1.23125,1.00789 -1.62675,1.40975 -0.3955,0.40186 -0.47192,0.60584 -0.49108,0.91202 -0.0192,0.30619 0.019,0.71449 0.24222,1.11002 0.22322,0.39553 0.63155,0.77844 0.98879,1.09742 0.35724,0.31897 0.66352,0.57398 0.96336,0.69524 0.16866,0.0682 0.33519,0.094 0.50322,0.0956 z m 0.10404,-1.77754 c -0.0888,0.003 -0.16905,-0.1074 -0.19891,-0.25092 -0.0318,-0.1531 -0.006,-0.34457 -0.1022,-0.44021 -0.0958,-0.0956 -0.31262,-0.0955 -0.47847,-0.17209 -0.16586,-0.0766 -0.28058,-0.22973 -0.2869,-0.40193 -0.006,-0.1722 0.0957,-0.36366 0.26788,-0.55501 0.17222,-0.19136 0.41454,-0.38278 0.60588,-0.47847 0.19133,-0.0957 0.33166,-0.0957 0.43378,0.10839 0.10212,0.20407 0.16593,0.61243 0.17233,0.95694 0.006,0.3445 -0.0444,0.6252 -0.121,0.84213 -0.0765,0.21694 -0.17877,0.37002 -0.27452,0.38911 -0.006,0.001 -0.0119,0.002 -0.0179,0.002 z" /><path
       id="path2697-87-1-4-9"
       style="fill:#000000;fill-opacity:1;stroke-width:0.117326"
       d="m -53.33047,221.48814 c 0.024,-1.1e-4 0.0465,-9.3e-4 0.068,-0.002 0.17228,-0.0127 0.27435,-0.0638 0.40834,-0.21059 0.134,-0.14675 0.29987,-0.38917 0.40194,-0.64438 0.10207,-0.25521 0.14032,-0.52305 0.15307,-1.18014 0.0128,-0.65708 1.5e-4,-1.70328 -0.0573,-2.41779 -0.0574,-0.7145 -0.15957,-1.09744 -0.21059,-1.28875 -0.051,-0.19131 -0.051,-0.19131 -0.0894,-0.23603 -0.0383,-0.0447 -0.11474,-0.13391 -0.22319,-0.17851 -0.10846,-0.0446 -0.24878,-0.0446 -0.50391,0.0575 -0.25513,0.10208 -0.62517,0.3062 -1.1036,0.70809 -0.47843,0.40188 -1.06541,1.00155 -1.43541,1.42258 -0.37,0.42102 -0.52313,0.66328 -0.59969,0.87375 -0.0766,0.21048 -0.0764,0.38931 -0.0573,0.54241 0.0191,0.15309 0.0573,0.28059 0.17851,0.49749 0.12119,0.2169 0.32538,0.5231 0.75277,0.87399 0.42739,0.35089 1.07799,0.74638 1.52455,0.95694 0.39074,0.18423 0.62518,0.22671 0.7931,0.22594 z m -0.25711,-1.5367 c -0.003,1.1e-4 -0.006,1.3e-4 -0.009,0 -0.0969,-0.004 -0.17286,-0.13076 -0.21495,-0.26559 -0.0421,-0.13483 -0.0505,-0.27789 -0.0763,-0.40399 -0.0258,-0.1261 -0.0691,-0.23512 -0.14849,-0.32059 -0.0794,-0.0855 -0.19492,-0.14759 -0.29973,-0.17736 -0.10481,-0.0298 -0.19899,-0.0272 -0.2924,-0.0218 -0.0934,0.005 -0.19501,0.0764 -0.24131,0.0131 -0.0463,-0.0633 -0.0374,-0.26058 4.5e-4,-0.34057 0.0379,-0.08 0.11386,-0.10533 0.20234,-0.13062 0.0885,-0.0253 0.18956,-0.0505 0.30065,-0.0616 0.11108,-0.0112 0.33945,0.0723 0.40247,-3.9e-4 0.063,-0.0727 0.0411,-0.33739 0.052,-0.51041 0.0109,-0.17303 -0.10657,-0.50484 0.14283,-0.48781 l 0.29064,0.0178 c 0.25571,0.0217 0.11799,0.82175 0.14931,1.23147 0.0314,0.40972 0.008,0.82251 -0.0446,1.12379 -0.0467,0.26707 -0.25778,0.18039 -0.23162,0.27193 z"
       sodipodi:nodetypes="ssssssssssssssssssscssssssssssccccsssc" /><path
       style="fill:#000000;fill-opacity:1;stroke-width:0.571074"
       d="m 67.857619,230.55242 c 33.121961,0.0692 66.242661,0.13838 84.120591,0.1305 17.87794,-0.008 20.50421,-0.0925 22.22295,-0.43705 1.71874,-0.34453 2.52277,-0.94777 3.26228,-1.45914 0.73951,-0.51137 1.41307,-0.92988 1.83051,-1.21718 0.41744,-0.28729 0.57783,-0.44222 0.54836,-0.53187 -0.0295,-0.0897 -0.24952,-0.11336 -0.46956,-0.13706 -0.26348,-0.0282 -0.52646,-0.0564 -1.14201,-0.0272 -0.61556,0.0291 -1.5812,0.11549 -4.25802,0.20348 -2.67682,0.088 -7.06327,0.17741 -23.66693,0.35043 -16.60366,0.17301 -45.41186,0.4295 -74.405833,0.51453 -28.993975,0.085 -58.164833,-0.001 -75.45079202,-0.0879 -17.28595898,-0.0865 -22.68510398,-0.17297 -26.02943498,-0.294 -3.34433,-0.12102 -4.634516,-0.2768 -5.561256,-0.39789 -0.926739,-0.12108 -1.490849,-0.20757 -2.203461,-0.23883 -0.712612,-0.0313 -1.572499,-0.007 -1.466008,0.36992 0.106491,0.37719 1.178625,1.10496 2.221783,1.833 1.043158,0.72804 2.05349,1.45367 2.815091,1.81721 0.7616,0.36354 1.27112,0.36354 17.018556,0.26374 15.7474351,-0.0998 46.73011,-0.2994 77.71211,-0.49899"
       id="path6053-2"
       inkscape:path-effect="#path-effect6055-4"
       inkscape:original-d="m 67.857619,230.55242 c 33.121961,0.0689 66.242661,0.13812 99.362151,0.20757 2.63637,-0.0852 5.26264,-0.16984 7.89476,-0.25441 0.80538,-0.60423 1.60941,-1.20746 2.41413,-1.81124 0.67428,-0.419 1.34784,-0.83751 2.0207,-1.25557 0.16258,-0.15595 0.32247,-0.31139 0.48352,-0.46705 -0.22,-0.024 -0.66013,-0.0711 -0.66013,-0.0711 0,0 -0.52643,-0.0566 -0.79044,-0.0846 -0.96715,0.0863 -1.93278,0.17272 -2.90103,0.25947 -4.38539,0.0891 -8.77184,0.17855 -13.15952,0.26824 -28.81963,0.25633 -57.62783,0.51282 -86.444412,0.76964 -29.171365,-0.0868 -58.342223,-0.17324 -87.516015,-0.25947 -5.398122,-0.0868 -10.797268,-0.17324 -16.197719,-0.25947 -1.288165,-0.15595 -2.578363,-0.31163 -3.868126,-0.46705 -0.563713,-0.0867 -1.127815,-0.17324 -1.692304,-0.25947 -0.860789,0.0238 -1.720676,0.0478 -2.583528,0.0721 1.076083,0.72993 2.148219,1.4577 3.222267,2.1873 1.012283,0.72648 2.022615,1.45211 3.034707,2.17955 0.510849,-2.6e-4 1.020369,-2.6e-4 1.530011,0 30.9852274,-0.19987 61.967902,-0.39947 92.949904,-0.59879"
       sodipodi:nodetypes="cccccccccccccccccccc" /><path
       style="fill:#000000;fill-opacity:1;stroke-width:0.432063"
       d="m -50.940275,151.08517 c -0.06919,18.95942 -0.138383,37.91813 -0.130497,48.15169 0.0079,10.23355 0.09252,11.73686 0.437048,12.72069 0.344531,0.98382 0.947764,1.44406 1.459138,1.86737 0.511373,0.42331 0.929891,0.80886 1.217051,1.04773 0.287161,0.23886 0.442328,0.33081 0.531997,0.31393 0.08967,-0.0169 0.113363,-0.1428 0.137063,-0.26875 0.0282,-0.15082 0.05635,-0.30139 0.02723,-0.65371 -0.02913,-0.35233 -0.115494,-0.90508 -0.203491,-2.43733 -0.088,-1.53225 -0.177408,-4.04311 -0.350422,-13.54725 -0.173013,-9.50414 -0.429502,-25.99432 -0.514539,-42.59083 -0.08504,-16.59652 0.0015,-33.29429 0.08793,-43.18899 0.08648,-9.89469 0.172972,-12.985228 0.294004,-14.899588 0.121032,-1.91436 0.27681,-2.652865 0.397893,-3.183343 0.121082,-0.530478 0.207576,-0.853391 0.238829,-1.261269 0.03125,-0.407878 0.0073,-0.900088 -0.369859,-0.839194 -0.377114,0.06089 -1.104886,0.674596 -1.832922,1.271712 -0.728037,0.597117 -1.453667,1.175445 -1.81728,1.611454 -0.363614,0.436008 -0.363614,0.727663 -0.263809,9.741688 0.0998,9.01403 0.299397,26.7489 0.498985,44.48338"
       id="path6053-2-4"
       inkscape:path-effect="#path-effect6055-4-5"
       inkscape:original-d="m -50.940275,151.08517 c -0.0689,18.95942 -0.13812,37.91813 -0.20757,56.87614 0.0852,1.50909 0.16984,3.0124 0.25441,4.51906 0.60423,0.46102 1.20746,0.92126 1.81124,1.38188 0.419,0.38596 0.83751,0.77152 1.25557,1.15667 0.15595,0.0931 0.31139,0.18459 0.46705,0.27677 0.024,-0.12593 0.0711,-0.37786 0.0711,-0.37786 0,0 0.0566,-0.30134 0.0846,-0.45245 -0.0863,-0.55362 -0.17272,-1.10636 -0.25947,-1.66059 -0.0891,-2.51026 -0.17855,-5.02112 -0.26824,-7.53269 -0.25633,-16.4967 -0.51282,-32.98688 -0.76964,-49.48184 0.0868,-16.69807 0.17324,-33.39584 0.25947,-50.09527 0.0868,-3.08995 0.17324,-6.18049 0.25947,-9.271774 0.15595,-0.737361 0.31163,-1.475886 0.46705,-2.214163 0.0867,-0.322675 0.17324,-0.645575 0.25947,-0.968695 -0.0238,-0.492727 -0.0478,-0.984937 -0.0721,-1.478844 -0.72993,0.615964 -1.4577,1.229668 -2.1873,1.844466 -0.72648,0.579443 -1.45211,1.15777 -2.17955,1.737104 2.6e-4,0.292416 2.6e-4,0.584071 0,0.875797 0.19987,17.736329 0.39947,35.471199 0.59879,53.205679"
       sodipodi:nodetypes="cccccccccccccccccccc" /><path
       style="fill:#000000;fill-opacity:1;stroke-width:0.432063"
       d="m 194.99885,152.06933 c 0.0692,18.95942 0.13838,37.91813 0.1305,48.15169 -0.008,10.23355 -0.0925,11.73686 -0.43705,12.72069 -0.34453,0.98382 -0.94777,1.44406 -1.45914,1.86737 -0.51137,0.42331 -0.92989,0.80886 -1.21705,1.04773 -0.28716,0.23886 -0.44233,0.33081 -0.532,0.31393 -0.0897,-0.0169 -0.11336,-0.1428 -0.13706,-0.26875 -0.0282,-0.15082 -0.0564,-0.30139 -0.0272,-0.65371 0.0291,-0.35233 0.1155,-0.90508 0.20349,-2.43733 0.088,-1.53225 0.17741,-4.04311 0.35043,-13.54725 0.17301,-9.50414 0.4295,-25.99432 0.51453,-42.59083 0.085,-16.59652 -0.001,-33.29429 -0.0879,-43.18899 -0.0865,-9.89469 -0.17297,-12.98523 -0.294,-14.899587 -0.12103,-1.914359 -0.27681,-2.652864 -0.3979,-3.183342 -0.12108,-0.530478 -0.20757,-0.853391 -0.23882,-1.261269 -0.0313,-0.407878 -0.007,-0.900088 0.36985,-0.839194 0.37712,0.06089 1.10489,0.674596 1.83293,1.271712 0.72803,0.597117 1.45366,1.175445 1.81728,1.611454 0.36361,0.436008 0.36361,0.727663 0.26381,9.741686 -0.0998,9.01403 -0.2994,26.7489 -0.49899,44.48338"
       id="path6053-2-4-0"
       inkscape:path-effect="#path-effect6055-4-5-3"
       inkscape:original-d="m 194.99885,152.06933 c 0.0689,18.95942 0.13812,37.91813 0.20757,56.87614 -0.0852,1.50909 -0.16984,3.0124 -0.25441,4.51906 -0.60423,0.46102 -1.20746,0.92126 -1.81124,1.38188 -0.419,0.38596 -0.83751,0.77152 -1.25557,1.15667 -0.15595,0.0931 -0.31139,0.18459 -0.46705,0.27677 -0.024,-0.12593 -0.0711,-0.37786 -0.0711,-0.37786 0,0 -0.0566,-0.30134 -0.0846,-0.45245 0.0863,-0.55362 0.17272,-1.10636 0.25947,-1.66059 0.0891,-2.51026 0.17855,-5.02112 0.26824,-7.53269 0.25633,-16.4967 0.51282,-32.98688 0.76964,-49.48184 -0.0868,-16.69807 -0.17324,-33.39584 -0.25947,-50.09527 -0.0868,-3.08995 -0.17324,-6.18049 -0.25947,-9.271772 -0.15595,-0.737361 -0.31163,-1.475886 -0.46705,-2.214163 -0.0867,-0.322675 -0.17324,-0.645575 -0.25947,-0.968695 0.0238,-0.492727 0.0478,-0.984937 0.0721,-1.478844 0.72993,0.615964 1.4577,1.229668 2.1873,1.844466 0.72648,0.579443 1.45211,1.15777 2.17955,1.737104 -2.6e-4,0.292416 -2.6e-4,0.584071 0,0.875797 -0.19987,17.736327 -0.39947,35.471197 -0.59879,53.205677"
       sodipodi:nodetypes="cccccccccccccccccccc" /></g></svg>
