<?xml version="1.0" encoding="UTF-8" standalone="no"?>
<!-- Created with Inkscape (http://www.inkscape.org/) -->

<svg
   width="79.546806mm"
   height="42.179062mm"
   viewBox="0 0 79.546806 42.179062"
   version="1.1"
   id="svg5"
   xml:space="preserve"
   xmlns:inkscape="http://www.inkscape.org/namespaces/inkscape"
   xmlns:sodipodi="http://sodipodi.sourceforge.net/DTD/sodipodi-0.dtd"
   xmlns="http://www.w3.org/2000/svg"
   xmlns:svg="http://www.w3.org/2000/svg"><sodipodi:namedview
     id="namedview7"
     pagecolor="#ffffff"
     bordercolor="#000000"
     borderopacity="0.25"
     inkscape:showpageshadow="2"
     inkscape:pageopacity="0.0"
     inkscape:pagecheckerboard="0"
     inkscape:deskcolor="#d1d1d1"
     inkscape:document-units="mm"
     showgrid="false" /><defs
     id="defs2"><inkscape:path-effect
       effect="bspline"
       id="path-effect1893"
       is_visible="true"
       lpeversion="1"
       weight="33.333333"
       steps="2"
       helper_size="0"
       apply_no_weight="true"
       apply_with_weight="true"
       only_selected="false" /><inkscape:path-effect
       effect="bspline"
       id="path-effect2687"
       is_visible="true"
       lpeversion="1"
       weight="33.333333"
       steps="2"
       helper_size="0"
       apply_no_weight="true"
       apply_with_weight="true"
       only_selected="false" /><inkscape:path-effect
       effect="bspline"
       id="path-effect2687-9"
       is_visible="true"
       lpeversion="1"
       weight="33.333333"
       steps="2"
       helper_size="0"
       apply_no_weight="true"
       apply_with_weight="true"
       only_selected="false" /><inkscape:path-effect
       effect="bspline"
       id="path-effect2687-5"
       is_visible="true"
       lpeversion="1"
       weight="33.333333"
       steps="2"
       helper_size="0"
       apply_no_weight="true"
       apply_with_weight="true"
       only_selected="false" /><inkscape:path-effect
       effect="bspline"
       id="path-effect2687-9-0"
       is_visible="true"
       lpeversion="1"
       weight="33.333333"
       steps="2"
       helper_size="0"
       apply_no_weight="true"
       apply_with_weight="true"
       only_selected="false" /><inkscape:path-effect
       effect="bspline"
       id="path-effect1893-5"
       is_visible="true"
       lpeversion="1"
       weight="33.333333"
       steps="2"
       helper_size="0"
       apply_no_weight="true"
       apply_with_weight="true"
       only_selected="false" /><inkscape:path-effect
       effect="bspline"
       id="path-effect1893-5-8"
       is_visible="true"
       lpeversion="1"
       weight="33.333333"
       steps="2"
       helper_size="0"
       apply_no_weight="true"
       apply_with_weight="true"
       only_selected="false" /><inkscape:path-effect
       effect="bspline"
       id="path-effect1893-5-8-8"
       is_visible="true"
       lpeversion="1"
       weight="33.333333"
       steps="2"
       helper_size="0"
       apply_no_weight="true"
       apply_with_weight="true"
       only_selected="false" /></defs><g
     inkscape:label="Layer 1"
     inkscape:groupmode="layer"
     id="layer1"
     transform="translate(-34.474725,-124.1511)"><path
       style="fill:#000000;fill-opacity:1;stroke-width:0.0496577"
       d="m 107.08536,127.24305 c 0.41853,0.41583 1.25553,1.24743 1.83604,1.83604 0.58051,0.58861 0.9045,0.9342 1.1826,1.1907 0.27811,0.2565 0.51032,0.4239 0.69391,0.51839 0.1836,0.0945 0.31861,0.11608 0.43467,0.11338 0.11605,-0.003 0.21333,-0.0297 0.29158,-0.0756 0.0783,-0.0459 0.13771,-0.11072 0.18361,-0.3267 0.0459,-0.21598 0.0783,-0.58318 0.0918,-1.30949 0.0135,-0.72632 0.008,-1.81171 -0.003,-2.62442 -0.0108,-0.81271 -0.027,-1.3527 -0.081,-1.68211 -0.054,-0.32941 -0.14578,-0.44819 -0.23488,-0.53191 -0.0891,-0.0837 -0.17546,-0.13229 -0.28077,-0.16202 -0.10532,-0.0297 -0.22952,-0.0405 -1.30415,-0.0378 -1.07462,0.003 -3.0996,0.0189 -4.11483,0.0351 -1.01522,0.0162 -1.02063,0.0324 -1.03143,0.10535 -0.0108,0.0729 -0.027,0.20253 -0.003,0.34294 0.0243,0.14042 0.0891,0.2916 0.23763,0.486 0.14852,0.1944 0.38071,0.43199 0.58322,0.61829 0.20251,0.1863 0.37531,0.3213 0.48329,0.37257 0.10798,0.0513 0.15122,0.0188 0.16469,-0.0594 0.0135,-0.0783 -0.003,-0.20245 0.005,-0.30774 0.008,-0.10528 0.0405,-0.19176 0.10263,-0.25657 0.0621,-0.0648 0.15388,-0.108 0.37531,-0.1296 0.22143,-0.0216 0.57243,-0.0216 1.22314,-0.0243 0.65071,-0.003 1.60108,-0.008 2.12217,0.0216 0.52109,0.0297 0.61294,0.0945 0.65882,0.77766 0.0459,0.68313 0.0459,1.98451 0.008,2.65139 -0.0378,0.66688 -0.11337,0.69926 -0.18359,0.70737 -0.0702,0.008 -0.13497,-0.008 -0.25917,-0.0972 -0.1242,-0.0891 -0.3078,-0.25108 -0.5589,-0.49409 -0.25111,-0.243 -0.56971,-0.567 -0.79111,-0.8127 -0.22141,-0.24569 -0.34561,-0.41309 -0.41313,-0.53192 -0.0675,-0.11883 -0.0783,-0.18898 -0.0594,-0.24031 0.0189,-0.0513 0.0675,-0.0837 0.14582,-0.10532 0.0783,-0.0216 0.18633,-0.0324 0.29974,0.008 0.11342,0.0405 0.2322,0.13232 0.3483,0.23763 0.1161,0.1053 0.22949,0.2241 0.35641,0.31859 0.12692,0.0945 0.2673,0.16469 0.38065,0.17009 0.11334,0.005 0.1998,-0.054 0.25649,-0.14042 0.0567,-0.0864 0.0837,-0.19979 0.0999,-0.41307 0.0162,-0.21329 0.0216,-0.5265 1e-5,-0.76139 -0.0216,-0.23489 -0.0702,-0.39149 -0.11337,-0.486 -0.0432,-0.0945 -0.081,-0.12696 -0.67503,-0.13776 -0.59399,-0.0108 -1.74418,0 -2.32472,0.0243 -0.58054,0.0243 -0.59134,0.0621 -0.60753,0.12693 -0.0162,0.0648 -0.0378,0.15655 -0.0297,0.27266 0.008,0.11611 0.0459,0.25651 0.0648,0.32668 0.0189,0.0702 0.0189,0.0702 0.43742,0.486 z"
       id="path2685"
       sodipodi:nodetypes="ccccccccccccccccccccccccccc"
       inkscape:original-d="m 106.66683,126.82722 c 0.83706,0.83166 1.67406,1.66326 2.51102,2.49482 0.32406,0.34566 0.64805,0.69125 0.972,1.03681 0.23226,0.16745 0.46446,0.33485 0.69661,0.5022 0.13505,0.0216 0.27005,0.0433 0.405,0.0648 0.0972,-0.0269 0.19445,-0.054 0.29161,-0.081 0.0594,-0.0647 0.11885,-0.12955 0.1782,-0.1944 0.0324,-0.36716 0.0648,-0.73436 0.0972,-1.10161 -0.005,-1.08538 -0.0108,-2.17077 -0.0162,-3.25622 -0.0162,-0.53997 -0.0324,-1.07996 -0.0486,-1.62001 -0.0918,-0.11876 -0.18356,-0.23756 -0.27541,-0.35641 -0.0864,-0.0485 -0.17275,-0.0971 -0.2592,-0.1458 -0.12415,-0.0108 -0.24835,-0.0216 -0.3726,-0.0324 -2.025,0.0163 -4.04998,0.0324 -6.07504,0.0486 -0.005,0.0163 -0.0108,0.0324 -0.0162,0.0486 -0.0162,0.12966 -0.0324,0.25926 -0.0486,0.38881 0.0649,0.15125 0.12965,0.30245 0.1944,0.4536 0.23226,0.23766 0.46445,0.47525 0.69661,0.7128 0.17285,0.13506 0.34565,0.27006 0.5184,0.40501 0.0433,-0.0323 0.0865,-0.0648 0.1296,-0.0972 -0.0162,-0.12416 -0.0324,-0.24835 -0.0486,-0.37261 0.0324,-0.0863 0.0649,-0.17275 0.0972,-0.2592 0.0919,-0.0431 0.18365,-0.0863 0.2754,-0.1296 0.35106,5e-5 0.70206,5e-5 1.05301,0 0.95047,-0.005 1.90084,-0.0108 2.85122,-0.0162 0.0918,0.0648 0.18364,0.12965 0.2754,0.1944 5e-5,1.30149 5e-5,2.60287 0,3.90423 -0.0756,0.0324 -0.15116,0.0648 -0.22681,0.0972 -0.0648,-0.0162 -0.12955,-0.0324 -0.1944,-0.0486 -0.18355,-0.16195 -0.36715,-0.32395 -0.5508,-0.486 -0.31856,-0.32396 -0.63716,-0.64796 -0.95581,-0.97201 -0.12415,-0.16735 -0.24835,-0.33475 -0.3726,-0.5022 -0.0108,-0.0702 -0.0216,-0.14035 -0.0324,-0.2106 0.0486,-0.0324 0.0972,-0.0648 0.1458,-0.0972 0.10805,-0.0108 0.21605,-0.0216 0.324,-0.0324 0.11885,0.0919 0.23765,0.18366 0.3564,0.27541 0.11346,0.11885 0.22685,0.23765 0.34021,0.3564 0.14045,0.0703 0.28085,0.14045 0.4212,0.2106 0.0864,-0.0593 0.17285,-0.11875 0.2592,-0.1782 0.0271,-0.11335 0.0541,-0.22675 0.081,-0.3402 0.005,-0.31316 0.0109,-0.62636 0.0162,-0.93961 -0.0485,-0.15655 -0.0971,-0.31315 -0.1458,-0.4698 -0.0378,-0.0323 -0.0756,-0.0648 -0.1134,-0.0972 -1.15018,0.0109 -2.30037,0.0217 -3.45062,0.0324 -0.0108,0.0379 -0.0216,0.0757 -0.0324,0.1134 -0.0215,0.0919 -0.0431,0.18365 -0.0648,0.2754 0.0378,0.14045 0.0756,0.28085 0.1134,0.4212 z"
       inkscape:path-effect="#path-effect2687" /><path
       id="path2689"
       style="fill:#000000;fill-opacity:1;stroke-width:0.0496577"
       d="m 112.80701,124.62411 c -0.0553,-5.6e-4 -0.11099,0.005 -0.16769,0.0134 -0.12961,0.0189 -0.26457,0.0513 -0.33209,0.0784 -0.0675,0.027 -0.0676,0.0486 -0.0676,0.0593 0,0.0108 7e-5,0.0108 -0.0215,0.12424 -0.0216,0.11342 -0.0648,0.34019 -0.0729,0.66961 -0.008,0.32941 0.0189,0.76145 0.054,1.04766 0.0351,0.28621 0.0783,0.42655 0.14044,0.50482 0.0621,0.0783 0.14312,0.0945 0.2511,0.0566 0.10798,-0.0378 0.24296,-0.1296 0.46166,-0.30241 0.21871,-0.1728 0.52113,-0.42658 0.68852,-0.59666 0.1674,-0.17009 0.19974,-0.25643 0.20785,-0.38602 0.008,-0.12959 -0.008,-0.3024 -0.10252,-0.46981 -0.0945,-0.1674 -0.2673,-0.32947 -0.4185,-0.46447 -0.1512,-0.135 -0.28083,-0.24294 -0.40774,-0.29426 -0.0714,-0.0289 -0.14187,-0.0398 -0.21298,-0.0405 z m -0.044,0.75233 c 0.0376,-0.001 0.0716,0.0455 0.0842,0.1062 0.0135,0.0648 0.003,0.14584 0.0433,0.18632 0.0405,0.0405 0.13232,0.0404 0.20251,0.0728 0.0702,0.0324 0.11876,0.0972 0.12143,0.17011 0.003,0.0729 -0.0405,0.15392 -0.11338,0.2349 -0.0729,0.081 -0.17545,0.16201 -0.25643,0.20252 -0.081,0.0405 -0.14038,0.0405 -0.1836,-0.0459 -0.0432,-0.0864 -0.0702,-0.25921 -0.0729,-0.40502 -0.003,-0.14581 0.0188,-0.26461 0.0512,-0.35643 0.0324,-0.0918 0.0757,-0.15661 0.11619,-0.16468 0.002,-5.7e-4 0.005,-7.6e-4 0.008,-9.4e-4 z" /><path
       id="path2697"
       style="fill:#000000;fill-opacity:1;stroke-width:0.0496577"
       d="m 112.58985,128.33273 c -0.0101,4e-5 -0.0197,3.7e-4 -0.0288,0.001 -0.0729,0.005 -0.11611,0.027 -0.17283,0.0891 -0.0567,0.0621 -0.12691,0.16471 -0.17011,0.27272 -0.0432,0.10802 -0.0594,0.22138 -0.0648,0.49949 -0.005,0.27811 -7e-5,0.72091 0.0242,1.02332 0.0243,0.30241 0.0675,0.46449 0.0891,0.54546 0.0216,0.081 0.0216,0.081 0.0378,0.0999 0.0162,0.0189 0.0486,0.0567 0.0945,0.0756 0.0459,0.0189 0.10529,0.0189 0.21327,-0.0243 0.10799,-0.0432 0.2646,-0.12959 0.46709,-0.29969 0.2025,-0.17009 0.45094,-0.4239 0.60754,-0.6021 0.1566,-0.17819 0.22141,-0.28073 0.25381,-0.36981 0.0324,-0.0891 0.0323,-0.16478 0.0242,-0.22957 -0.008,-0.0648 -0.0243,-0.11876 -0.0755,-0.21056 -0.0513,-0.0918 -0.13771,-0.2214 -0.3186,-0.36991 -0.1809,-0.14852 -0.45626,-0.31591 -0.64526,-0.40503 -0.16538,-0.078 -0.26461,-0.096 -0.33568,-0.0956 z m 0.10883,0.6504 c 0.001,-5e-5 0.003,-6e-5 0.004,0 0.041,0.002 0.0732,0.0553 0.091,0.11241 0.0178,0.0571 0.0214,0.11761 0.0323,0.17099 0.0109,0.0534 0.0292,0.0995 0.0628,0.13568 0.0336,0.0362 0.0825,0.0625 0.12686,0.0751 0.0444,0.0126 0.0842,0.0115 0.12375,0.009 0.0395,-0.002 0.0825,-0.0323 0.10213,-0.006 0.0196,0.0268 0.0158,0.11029 -1.8e-4,0.14414 -0.016,0.0339 -0.0482,0.0446 -0.0856,0.0553 -0.0375,0.0107 -0.0802,0.0214 -0.12725,0.0261 -0.047,0.005 -0.14368,-0.0306 -0.17035,1.6e-4 -0.0267,0.0308 -0.0174,0.1428 -0.022,0.21603 -0.005,0.0732 0.0451,0.21367 -0.0605,0.20646 l -0.12301,-0.008 c -0.10823,-0.009 -0.0499,-0.34781 -0.0632,-0.52122 -0.0133,-0.17341 -0.003,-0.34812 0.0189,-0.47564 0.0198,-0.11303 0.10911,-0.0763 0.098,-0.11509 z"
       sodipodi:nodetypes="ssssssssssssssssssscssssssssssccccsssc" /><path
       style="fill:#000000;fill-opacity:1;stroke-width:0.0496577"
       d="m 107.13755,163.18662 c 0.41853,-0.41583 1.25553,-1.24743 1.83604,-1.83604 0.58051,-0.58861 0.9045,-0.9342 1.1826,-1.1907 0.27811,-0.2565 0.51032,-0.4239 0.69391,-0.51839 0.1836,-0.0945 0.31861,-0.11608 0.43467,-0.11338 0.11605,0.003 0.21333,0.0297 0.29158,0.0756 0.0783,0.0459 0.13771,0.11072 0.18361,0.3267 0.0459,0.21598 0.0783,0.58318 0.0918,1.30949 0.0135,0.72632 0.008,1.81171 -0.003,2.62442 -0.0108,0.81271 -0.027,1.3527 -0.081,1.68211 -0.054,0.32941 -0.14578,0.44819 -0.23488,0.53191 -0.0891,0.0837 -0.17546,0.13229 -0.28077,0.16202 -0.10532,0.0297 -0.22952,0.0405 -1.30415,0.0378 -1.07462,-0.003 -3.0996,-0.0189 -4.11483,-0.0351 -1.01522,-0.0162 -1.02063,-0.0324 -1.03143,-0.10535 -0.0108,-0.0729 -0.027,-0.20253 -0.003,-0.34294 0.0243,-0.14042 0.0891,-0.2916 0.23763,-0.486 0.14852,-0.1944 0.38071,-0.43199 0.58322,-0.61829 0.20251,-0.1863 0.37531,-0.3213 0.48329,-0.37257 0.10798,-0.0513 0.15122,-0.0188 0.16469,0.0594 0.0135,0.0783 -0.003,0.20245 0.005,0.30774 0.008,0.10528 0.0405,0.19176 0.10263,0.25657 0.0621,0.0648 0.15388,0.108 0.37531,0.1296 0.22143,0.0216 0.57243,0.0216 1.22314,0.0243 0.65071,0.003 1.60108,0.008 2.12217,-0.0216 0.52109,-0.0297 0.61294,-0.0945 0.65882,-0.77766 0.0459,-0.68313 0.0459,-1.98451 0.008,-2.65139 -0.0378,-0.66688 -0.11337,-0.69926 -0.18359,-0.70737 -0.0702,-0.008 -0.13497,0.008 -0.25917,0.0972 -0.1242,0.0891 -0.3078,0.25108 -0.5589,0.49409 -0.25111,0.243 -0.56971,0.567 -0.79111,0.8127 -0.22141,0.24569 -0.34561,0.41309 -0.41313,0.53192 -0.0675,0.11883 -0.0783,0.18898 -0.0594,0.24031 0.0189,0.0513 0.0675,0.0837 0.14582,0.10532 0.0783,0.0216 0.18633,0.0324 0.29974,-0.008 0.11342,-0.0405 0.2322,-0.13232 0.3483,-0.23763 0.1161,-0.1053 0.22949,-0.2241 0.35641,-0.31859 0.12692,-0.0945 0.2673,-0.16469 0.38065,-0.17009 0.11334,-0.005 0.1998,0.054 0.25649,0.14042 0.0567,0.0864 0.0837,0.19979 0.0999,0.41307 0.0162,0.21329 0.0216,0.5265 1e-5,0.76139 -0.0216,0.23489 -0.0702,0.39149 -0.11337,0.486 -0.0432,0.0945 -0.081,0.12696 -0.67503,0.13776 -0.59399,0.0108 -1.74418,0 -2.32472,-0.0243 -0.58054,-0.0243 -0.59134,-0.0621 -0.60753,-0.12693 -0.0162,-0.0648 -0.0378,-0.15655 -0.0297,-0.27266 0.008,-0.11611 0.0459,-0.25651 0.0648,-0.32668 0.0189,-0.0702 0.0189,-0.0702 0.43742,-0.486 z"
       id="path2685-5"
       sodipodi:nodetypes="ccccccccccccccccccccccccccc"
       inkscape:original-d="m 106.71902,163.60245 c 0.83706,-0.83166 1.67406,-1.66326 2.51102,-2.49482 0.32406,-0.34566 0.64805,-0.69125 0.972,-1.03681 0.23226,-0.16745 0.46446,-0.33485 0.69661,-0.5022 0.13505,-0.0216 0.27005,-0.0433 0.405,-0.0648 0.0972,0.0269 0.19445,0.054 0.29161,0.081 0.0594,0.0647 0.11885,0.12955 0.1782,0.1944 0.0324,0.36716 0.0648,0.73436 0.0972,1.10161 -0.005,1.08538 -0.0108,2.17077 -0.0162,3.25622 -0.0162,0.53997 -0.0324,1.07996 -0.0486,1.62001 -0.0918,0.11876 -0.18356,0.23756 -0.27541,0.35641 -0.0864,0.0485 -0.17275,0.0971 -0.2592,0.1458 -0.12415,0.0108 -0.24835,0.0216 -0.3726,0.0324 -2.025,-0.0163 -4.04998,-0.0324 -6.07504,-0.0486 -0.005,-0.0163 -0.0108,-0.0324 -0.0162,-0.0486 -0.0162,-0.12966 -0.0324,-0.25926 -0.0486,-0.38881 0.0649,-0.15125 0.12965,-0.30245 0.1944,-0.4536 0.23226,-0.23766 0.46445,-0.47525 0.69661,-0.7128 0.17285,-0.13506 0.34565,-0.27006 0.5184,-0.40501 0.0433,0.0323 0.0865,0.0648 0.1296,0.0972 -0.0162,0.12416 -0.0324,0.24835 -0.0486,0.37261 0.0324,0.0863 0.0649,0.17275 0.0972,0.2592 0.0919,0.0431 0.18365,0.0863 0.2754,0.1296 0.35106,-5e-5 0.70206,-5e-5 1.05301,0 0.95047,0.005 1.90084,0.0108 2.85122,0.0162 0.0918,-0.0648 0.18364,-0.12965 0.2754,-0.1944 5e-5,-1.30149 5e-5,-2.60287 0,-3.90423 -0.0756,-0.0324 -0.15116,-0.0648 -0.22681,-0.0972 -0.0648,0.0162 -0.12955,0.0324 -0.1944,0.0486 -0.18355,0.16195 -0.36715,0.32395 -0.5508,0.486 -0.31856,0.32396 -0.63716,0.64796 -0.95581,0.97201 -0.12415,0.16735 -0.24835,0.33475 -0.3726,0.5022 -0.0108,0.0702 -0.0216,0.14035 -0.0324,0.2106 0.0486,0.0324 0.0972,0.0648 0.1458,0.0972 0.10805,0.0108 0.21605,0.0216 0.324,0.0324 0.11885,-0.0919 0.23765,-0.18366 0.3564,-0.27541 0.11346,-0.11885 0.22685,-0.23765 0.34021,-0.3564 0.14045,-0.0703 0.28085,-0.14045 0.4212,-0.2106 0.0864,0.0593 0.17285,0.11875 0.2592,0.1782 0.0271,0.11335 0.0541,0.22675 0.081,0.3402 0.005,0.31316 0.0109,0.62636 0.0162,0.93961 -0.0485,0.15655 -0.0971,0.31315 -0.1458,0.4698 -0.0378,0.0323 -0.0756,0.0648 -0.1134,0.0972 -1.15018,-0.0109 -2.30037,-0.0217 -3.45062,-0.0324 -0.0108,-0.0379 -0.0216,-0.0757 -0.0324,-0.1134 -0.0215,-0.0919 -0.0431,-0.18365 -0.0648,-0.2754 0.0378,-0.14045 0.0756,-0.28085 0.1134,-0.4212 z"
       inkscape:path-effect="#path-effect2687-9" /><path
       id="path2689-5"
       style="fill:#000000;fill-opacity:1;stroke-width:0.0496577"
       d="m 112.8592,165.80556 c -0.0553,5.6e-4 -0.11099,-0.005 -0.16769,-0.0134 -0.12961,-0.0189 -0.26457,-0.0513 -0.33209,-0.0784 -0.0675,-0.027 -0.0676,-0.0486 -0.0676,-0.0593 0,-0.0108 7e-5,-0.0108 -0.0215,-0.12424 -0.0216,-0.11342 -0.0648,-0.34019 -0.0729,-0.66961 -0.008,-0.32941 0.0189,-0.76145 0.054,-1.04766 0.0351,-0.28621 0.0783,-0.42655 0.14044,-0.50482 0.0621,-0.0783 0.14312,-0.0945 0.2511,-0.0566 0.10798,0.0378 0.24296,0.1296 0.46166,0.30241 0.21871,0.1728 0.52113,0.42658 0.68852,0.59666 0.1674,0.17009 0.19974,0.25643 0.20785,0.38602 0.008,0.12959 -0.008,0.3024 -0.10252,0.46981 -0.0945,0.1674 -0.2673,0.32947 -0.4185,0.46447 -0.1512,0.135 -0.28083,0.24294 -0.40774,0.29426 -0.0714,0.0289 -0.14187,0.0398 -0.21298,0.0405 z m -0.044,-0.75233 c 0.0376,10e-4 0.0716,-0.0455 0.0842,-0.1062 0.0135,-0.0648 0.003,-0.14584 0.0433,-0.18632 0.0405,-0.0405 0.13232,-0.0404 0.20251,-0.0728 0.0702,-0.0324 0.11876,-0.0972 0.12143,-0.17011 0.003,-0.0729 -0.0405,-0.15392 -0.11338,-0.2349 -0.0729,-0.081 -0.17545,-0.16201 -0.25643,-0.20252 -0.081,-0.0405 -0.14038,-0.0405 -0.1836,0.0459 -0.0432,0.0864 -0.0702,0.25921 -0.0729,0.40502 -0.003,0.14581 0.0188,0.26461 0.0512,0.35643 0.0324,0.0918 0.0757,0.15661 0.11619,0.16468 0.002,5.7e-4 0.005,7.6e-4 0.008,9.4e-4 z" /><path
       id="path2697-7"
       style="fill:#000000;fill-opacity:1;stroke-width:0.0496577"
       d="m 112.64204,162.09694 c -0.0101,-4e-5 -0.0197,-3.7e-4 -0.0288,-10e-4 -0.0729,-0.005 -0.11611,-0.027 -0.17283,-0.0891 -0.0567,-0.0621 -0.12691,-0.16471 -0.17011,-0.27272 -0.0432,-0.10802 -0.0594,-0.22138 -0.0648,-0.49949 -0.005,-0.27811 -7e-5,-0.72091 0.0242,-1.02332 0.0243,-0.30241 0.0675,-0.46449 0.0891,-0.54546 0.0216,-0.081 0.0216,-0.081 0.0378,-0.0999 0.0162,-0.0189 0.0486,-0.0567 0.0945,-0.0756 0.0459,-0.0189 0.10529,-0.0189 0.21327,0.0243 0.10799,0.0432 0.2646,0.12959 0.46709,0.29969 0.2025,0.17009 0.45094,0.4239 0.60754,0.6021 0.1566,0.17819 0.22141,0.28073 0.25381,0.36981 0.0324,0.0891 0.0323,0.16478 0.0242,0.22957 -0.008,0.0648 -0.0243,0.11876 -0.0755,0.21056 -0.0513,0.0918 -0.13771,0.2214 -0.3186,0.36991 -0.1809,0.14852 -0.45626,0.31591 -0.64526,0.40503 -0.16538,0.078 -0.26461,0.096 -0.33568,0.0956 z m 0.10883,-0.6504 c 10e-4,5e-5 0.003,6e-5 0.004,0 0.041,-0.002 0.0732,-0.0553 0.091,-0.11241 0.0178,-0.0571 0.0214,-0.11761 0.0323,-0.17099 0.0109,-0.0534 0.0292,-0.0995 0.0628,-0.13568 0.0336,-0.0362 0.0825,-0.0625 0.12686,-0.0751 0.0444,-0.0126 0.0842,-0.0115 0.12375,-0.009 0.0395,0.002 0.0825,0.0323 0.10213,0.006 0.0196,-0.0268 0.0158,-0.11029 -1.8e-4,-0.14414 -0.016,-0.0339 -0.0482,-0.0446 -0.0856,-0.0553 -0.0375,-0.0107 -0.0802,-0.0214 -0.12725,-0.0261 -0.047,-0.005 -0.14368,0.0306 -0.17035,-1.6e-4 -0.0267,-0.0308 -0.0174,-0.1428 -0.022,-0.21603 -0.005,-0.0732 0.0451,-0.21367 -0.0605,-0.20646 l -0.12301,0.008 c -0.10823,0.009 -0.0499,0.34781 -0.0632,0.52122 -0.0133,0.17341 -0.003,0.34812 0.0189,0.47564 0.0198,0.11303 0.10911,0.0763 0.098,0.11509 z"
       sodipodi:nodetypes="ssssssssssssssssssscssssssssssccccsssc" /><path
       style="fill:#000000;fill-opacity:1;stroke-width:0.0496577"
       d="m 41.35871,127.3977 c -0.41853,0.41583 -1.25553,1.24743 -1.836038,1.83604 -0.580508,0.58861 -0.904497,0.9342 -1.182607,1.1907 -0.278109,0.2565 -0.51031,0.4239 -0.693907,0.51839 -0.183597,0.0945 -0.318612,0.11608 -0.434667,0.11338 -0.116055,-0.003 -0.213328,-0.0297 -0.291585,-0.0756 -0.07826,-0.0459 -0.137704,-0.11072 -0.183603,-0.3267 -0.0459,-0.21598 -0.0783,-0.58318 -0.0918,-1.30949 -0.0135,-0.72632 -0.0081,-1.81171 0.0027,-2.62442 0.0108,-0.81271 0.027,-1.3527 0.08099,-1.68211 0.05399,-0.32941 0.145777,-0.44819 0.234877,-0.53191 0.0891,-0.0837 0.175462,-0.13229 0.280778,-0.16202 0.105315,-0.0297 0.229515,-0.0405 1.304141,-0.0378 1.074625,0.003 3.099604,0.0189 4.114829,0.0351 1.015225,0.0162 1.020635,0.0324 1.031438,0.10535 0.0108,0.0729 0.027,0.20253 0.0027,0.34294 -0.02432,0.14042 -0.08911,0.2916 -0.237629,0.486 -0.148518,0.1944 -0.38071,0.43199 -0.583218,0.61829 -0.202508,0.1863 -0.375306,0.3213 -0.483285,0.37257 -0.10798,0.0513 -0.151228,0.0188 -0.164699,-0.0594 -0.01347,-0.0783 0.0027,-0.20245 -0.0054,-0.30774 -0.0081,-0.10528 -0.04051,-0.19176 -0.102633,-0.25657 -0.06212,-0.0648 -0.153882,-0.108 -0.375311,-0.1296 -0.221429,-0.0216 -0.572429,-0.0216 -1.223138,-0.0243 -0.650709,-0.003 -1.601081,-0.008 -2.122171,0.0216 -0.52109,0.0297 -0.61294,0.0945 -0.658815,0.77766 -0.04588,0.68313 -0.04588,1.98451 -0.0081,2.65139 0.0378,0.66688 0.113367,0.69926 0.183589,0.70737 0.07022,0.008 0.134974,-0.008 0.259171,-0.0972 0.124197,-0.0891 0.307797,-0.25108 0.558904,-0.49409 0.251106,-0.243 0.569706,-0.567 0.79111,-0.8127 0.221404,-0.24569 0.345604,-0.41309 0.413125,-0.53192 0.06752,-0.11883 0.07831,-0.18898 0.05942,-0.24031 -0.0189,-0.0513 -0.0675,-0.0837 -0.145821,-0.10532 -0.07832,-0.0216 -0.186325,-0.0324 -0.299739,0.008 -0.113414,0.0405 -0.232193,0.13232 -0.348292,0.23763 -0.116099,0.1053 -0.229496,0.2241 -0.356415,0.31859 -0.126919,0.0945 -0.267299,0.16469 -0.380646,0.17009 -0.113346,0.005 -0.199804,-0.054 -0.256495,-0.14042 -0.05669,-0.0864 -0.08369,-0.19979 -0.0999,-0.41307 -0.0162,-0.21329 -0.0216,-0.5265 -1.4e-5,-0.76139 0.02159,-0.23489 0.07019,-0.39149 0.113375,-0.486 0.04319,-0.0945 0.08104,-0.12696 0.675026,-0.13776 0.593991,-0.0108 1.744181,0 2.324719,0.0243 0.580537,0.0243 0.591337,0.0621 0.607533,0.12693 0.01619,0.0648 0.03778,0.15655 0.02967,0.27266 -0.0081,0.11611 -0.04591,0.25651 -0.0648,0.32668 -0.01889,0.0702 -0.01889,0.0702 -0.437424,0.486 z"
       id="path2685-9"
       sodipodi:nodetypes="ccccccccccccccccccccccccccc"
       inkscape:original-d="m 41.77724,126.98187 c -0.83706,0.83166 -1.67406,1.66326 -2.51102,2.49482 -0.32406,0.34566 -0.64805,0.69125 -0.972,1.03681 -0.23226,0.16745 -0.46446,0.33485 -0.69661,0.5022 -0.13505,0.0216 -0.27005,0.0433 -0.405,0.0648 -0.0972,-0.0269 -0.19445,-0.054 -0.29161,-0.081 -0.0594,-0.0647 -0.11885,-0.12955 -0.1782,-0.1944 -0.0324,-0.36716 -0.0648,-0.73436 -0.0972,-1.10161 0.005,-1.08538 0.0108,-2.17077 0.0162,-3.25622 0.0162,-0.53997 0.0324,-1.07996 0.0486,-1.62001 0.0918,-0.11876 0.18356,-0.23756 0.27541,-0.35641 0.0864,-0.0485 0.17275,-0.0971 0.2592,-0.1458 0.12415,-0.0108 0.24835,-0.0216 0.3726,-0.0324 2.025,0.0163 4.04998,0.0324 6.07504,0.0486 0.005,0.0163 0.0108,0.0324 0.0162,0.0486 0.0162,0.12966 0.0324,0.25926 0.0486,0.38881 -0.0649,0.15125 -0.12965,0.30245 -0.1944,0.4536 -0.23226,0.23766 -0.46445,0.47525 -0.69661,0.7128 -0.17285,0.13506 -0.34565,0.27006 -0.5184,0.40501 -0.0433,-0.0323 -0.0865,-0.0648 -0.1296,-0.0972 0.0162,-0.12416 0.0324,-0.24835 0.0486,-0.37261 -0.0324,-0.0863 -0.0649,-0.17275 -0.0972,-0.2592 -0.0919,-0.0431 -0.18365,-0.0863 -0.2754,-0.1296 -0.35106,5e-5 -0.70206,5e-5 -1.05301,0 -0.95047,-0.005 -1.90084,-0.0108 -2.85122,-0.0162 -0.0918,0.0648 -0.18364,0.12965 -0.2754,0.1944 -5e-5,1.30149 -5e-5,2.60287 0,3.90423 0.0756,0.0324 0.15116,0.0648 0.22681,0.0972 0.0648,-0.0162 0.12955,-0.0324 0.1944,-0.0486 0.18355,-0.16195 0.36715,-0.32395 0.5508,-0.486 0.31856,-0.32396 0.63716,-0.64796 0.95581,-0.97201 0.12415,-0.16735 0.24835,-0.33475 0.3726,-0.5022 0.0108,-0.0702 0.0216,-0.14035 0.0324,-0.2106 -0.0486,-0.0324 -0.0972,-0.0648 -0.1458,-0.0972 -0.10805,-0.0108 -0.21605,-0.0216 -0.324,-0.0324 -0.11885,0.0919 -0.23765,0.18366 -0.3564,0.27541 -0.11346,0.11885 -0.22685,0.23765 -0.34021,0.3564 -0.14045,0.0703 -0.28085,0.14045 -0.4212,0.2106 -0.0864,-0.0593 -0.17285,-0.11875 -0.2592,-0.1782 -0.0271,-0.11335 -0.0541,-0.22675 -0.081,-0.3402 -0.005,-0.31316 -0.0109,-0.62636 -0.0162,-0.93961 0.0485,-0.15655 0.0971,-0.31315 0.1458,-0.4698 0.0378,-0.0323 0.0756,-0.0648 0.1134,-0.0972 1.15018,0.0109 2.30037,0.0217 3.45062,0.0324 0.0108,0.0379 0.0216,0.0757 0.0324,0.1134 0.0215,0.0919 0.0431,0.18365 0.0648,0.2754 -0.0378,0.14045 -0.0756,0.28085 -0.1134,0.4212 z"
       inkscape:path-effect="#path-effect2687-5" /><path
       id="path2689-2"
       style="fill:#000000;fill-opacity:1;stroke-width:0.0496577"
       d="m 35.63706,124.77876 c 0.0553,-5.6e-4 0.11099,0.005 0.16769,0.0134 0.12961,0.0189 0.26457,0.0513 0.33209,0.0784 0.0675,0.027 0.0676,0.0486 0.0676,0.0593 0,0.0108 -7e-5,0.0108 0.0215,0.12424 0.0216,0.11342 0.0648,0.34019 0.0729,0.66961 0.008,0.32941 -0.0189,0.76145 -0.054,1.04766 -0.0351,0.28621 -0.0783,0.42655 -0.14044,0.50482 -0.0621,0.0783 -0.14312,0.0945 -0.2511,0.0566 -0.10798,-0.0378 -0.24296,-0.1296 -0.46166,-0.30241 -0.21871,-0.1728 -0.52113,-0.42658 -0.68852,-0.59666 -0.1674,-0.17009 -0.19974,-0.25643 -0.20785,-0.38602 -0.008,-0.12959 0.008,-0.3024 0.10252,-0.46981 0.0945,-0.1674 0.2673,-0.32947 0.4185,-0.46447 0.1512,-0.135 0.28083,-0.24294 0.40774,-0.29426 0.0714,-0.0289 0.14187,-0.0398 0.21298,-0.0405 z m 0.044,0.75233 c -0.0376,-0.001 -0.0716,0.0455 -0.0842,0.1062 -0.0135,0.0648 -0.003,0.14584 -0.0433,0.18632 -0.0405,0.0405 -0.13232,0.0404 -0.20251,0.0728 -0.0702,0.0324 -0.11876,0.0972 -0.12143,0.17011 -0.003,0.0729 0.0405,0.15392 0.11338,0.2349 0.0729,0.081 0.17545,0.16201 0.25643,0.20252 0.081,0.0405 0.14038,0.0405 0.1836,-0.0459 0.0432,-0.0864 0.0702,-0.25921 0.0729,-0.40502 0.003,-0.14581 -0.0188,-0.26461 -0.0512,-0.35643 -0.0324,-0.0918 -0.0757,-0.15661 -0.11619,-0.16468 -0.002,-5.7e-4 -0.005,-7.6e-4 -0.008,-9.4e-4 z" /><path
       id="path2697-6"
       style="fill:#000000;fill-opacity:1;stroke-width:0.0496577"
       d="m 35.85422,128.48738 c 0.0101,4e-5 0.0197,3.7e-4 0.0288,0.001 0.0729,0.005 0.11611,0.027 0.17283,0.0891 0.0567,0.0621 0.12691,0.16471 0.17011,0.27272 0.0432,0.10802 0.0594,0.22138 0.0648,0.49949 0.005,0.27811 7e-5,0.72091 -0.0242,1.02332 -0.0243,0.30241 -0.0675,0.46449 -0.0891,0.54546 -0.0216,0.081 -0.0216,0.081 -0.0378,0.0999 -0.0162,0.0189 -0.0486,0.0567 -0.0945,0.0756 -0.0459,0.0189 -0.10529,0.0189 -0.21327,-0.0243 -0.10799,-0.0432 -0.2646,-0.12959 -0.46709,-0.29969 -0.2025,-0.17009 -0.45094,-0.4239 -0.60754,-0.6021 -0.1566,-0.17819 -0.22141,-0.28073 -0.25381,-0.36981 -0.0324,-0.0891 -0.0323,-0.16478 -0.0242,-0.22957 0.008,-0.0648 0.0243,-0.11876 0.0755,-0.21056 0.0513,-0.0918 0.13771,-0.2214 0.3186,-0.36991 0.1809,-0.14852 0.45626,-0.31591 0.64526,-0.40503 0.16538,-0.078 0.26461,-0.096 0.33568,-0.0956 z m -0.10883,0.6504 c -10e-4,-5e-5 -0.003,-6e-5 -0.004,0 -0.041,0.002 -0.0732,0.0553 -0.091,0.11241 -0.0178,0.0571 -0.0214,0.11761 -0.0323,0.17099 -0.0109,0.0534 -0.0292,0.0995 -0.0628,0.13568 -0.0336,0.0362 -0.0825,0.0625 -0.12686,0.0751 -0.0444,0.0126 -0.0842,0.0115 -0.12375,0.009 -0.0395,-0.002 -0.0825,-0.0323 -0.10213,-0.006 -0.0196,0.0268 -0.0158,0.11029 1.8e-4,0.14414 0.016,0.0339 0.0482,0.0446 0.0856,0.0553 0.0375,0.0107 0.0802,0.0214 0.12725,0.0261 0.047,0.005 0.14368,-0.0306 0.17035,1.6e-4 0.0267,0.0308 0.0174,0.1428 0.022,0.21603 0.005,0.0732 -0.0451,0.21367 0.0605,0.20646 l 0.12301,-0.008 c 0.10823,-0.009 0.0499,-0.34781 0.0632,-0.52122 0.0133,-0.17341 0.003,-0.34812 -0.0189,-0.47564 -0.0198,-0.11303 -0.10911,-0.0763 -0.098,-0.11509 z"
       sodipodi:nodetypes="ssssssssssssssssssscssssssssssccccsssc" /><path
       style="fill:#000000;fill-opacity:1;stroke-width:0.0496577"
       d="m 41.5647,163.23823 c -0.41853,-0.41583 -1.25553,-1.24743 -1.836038,-1.83604 -0.580508,-0.58861 -0.904497,-0.9342 -1.182607,-1.1907 -0.278109,-0.2565 -0.51031,-0.4239 -0.693907,-0.51839 -0.183597,-0.0945 -0.318612,-0.11608 -0.434667,-0.11338 -0.116055,0.003 -0.213328,0.0297 -0.291585,0.0756 -0.07826,0.0459 -0.137704,0.11072 -0.183603,0.3267 -0.0459,0.21598 -0.0783,0.58318 -0.0918,1.30949 -0.0135,0.72632 -0.0081,1.81171 0.0027,2.62442 0.0108,0.81271 0.027,1.3527 0.08099,1.68211 0.05399,0.32941 0.145777,0.44819 0.234877,0.53191 0.0891,0.0837 0.175462,0.13229 0.280778,0.16202 0.105315,0.0297 0.229515,0.0405 1.304141,0.0378 1.074625,-0.003 3.099604,-0.0189 4.114829,-0.0351 1.015225,-0.0162 1.020635,-0.0324 1.031438,-0.10535 0.0108,-0.0729 0.027,-0.20253 0.0027,-0.34294 -0.02432,-0.14042 -0.08911,-0.2916 -0.237629,-0.486 -0.148518,-0.1944 -0.38071,-0.43199 -0.583218,-0.61829 -0.202508,-0.1863 -0.375306,-0.3213 -0.483285,-0.37257 -0.10798,-0.0513 -0.151228,-0.0188 -0.164699,0.0594 -0.01347,0.0783 0.0027,0.20245 -0.0054,0.30774 -0.0081,0.10528 -0.04051,0.19176 -0.102633,0.25657 -0.06212,0.0648 -0.153882,0.108 -0.375311,0.1296 -0.221429,0.0216 -0.572429,0.0216 -1.223138,0.0243 -0.650709,0.003 -1.601081,0.008 -2.122171,-0.0216 -0.52109,-0.0297 -0.61294,-0.0945 -0.658815,-0.77766 -0.04588,-0.68313 -0.04588,-1.98451 -0.0081,-2.65139 0.0378,-0.66688 0.113367,-0.69926 0.183589,-0.70737 0.07022,-0.008 0.134974,0.008 0.259171,0.0972 0.124197,0.0891 0.307797,0.25108 0.558904,0.49409 0.251106,0.243 0.569706,0.567 0.79111,0.8127 0.221404,0.24569 0.345604,0.41309 0.413125,0.53192 0.06752,0.11883 0.07831,0.18898 0.05942,0.24031 -0.0189,0.0513 -0.0675,0.0837 -0.145821,0.10532 -0.07832,0.0216 -0.186325,0.0324 -0.299739,-0.008 -0.113414,-0.0405 -0.232193,-0.13232 -0.348292,-0.23763 -0.116099,-0.1053 -0.229496,-0.2241 -0.356415,-0.31859 -0.126919,-0.0945 -0.267299,-0.16469 -0.380646,-0.17009 -0.113346,-0.005 -0.199804,0.054 -0.256495,0.14042 -0.05669,0.0864 -0.08369,0.19979 -0.0999,0.41307 -0.0162,0.21329 -0.0216,0.5265 -1.4e-5,0.76139 0.02159,0.23489 0.07019,0.39149 0.113375,0.486 0.04319,0.0945 0.08104,0.12696 0.675026,0.13776 0.593991,0.0108 1.744181,0 2.324719,-0.0243 0.580537,-0.0243 0.591337,-0.0621 0.607533,-0.12693 0.01619,-0.0648 0.03778,-0.15655 0.02967,-0.27266 -0.0081,-0.11611 -0.04591,-0.25651 -0.0648,-0.32668 -0.01889,-0.0702 -0.01889,-0.0702 -0.437424,-0.486 z"
       id="path2685-5-2"
       sodipodi:nodetypes="ccccccccccccccccccccccccccc"
       inkscape:original-d="m 41.98323,163.65406 c -0.83706,-0.83166 -1.67406,-1.66326 -2.51102,-2.49482 -0.32406,-0.34566 -0.64805,-0.69125 -0.972,-1.03681 -0.23226,-0.16745 -0.46446,-0.33485 -0.69661,-0.5022 -0.13505,-0.0216 -0.27005,-0.0433 -0.405,-0.0648 -0.0972,0.0269 -0.19445,0.054 -0.29161,0.081 -0.0594,0.0647 -0.11885,0.12955 -0.1782,0.1944 -0.0324,0.36716 -0.0648,0.73436 -0.0972,1.10161 0.005,1.08538 0.0108,2.17077 0.0162,3.25622 0.0162,0.53997 0.0324,1.07996 0.0486,1.62001 0.0918,0.11876 0.18356,0.23756 0.27541,0.35641 0.0864,0.0485 0.17275,0.0971 0.2592,0.1458 0.12415,0.0108 0.24835,0.0216 0.3726,0.0324 2.025,-0.0163 4.04998,-0.0324 6.07504,-0.0486 0.005,-0.0163 0.0108,-0.0324 0.0162,-0.0486 0.0162,-0.12966 0.0324,-0.25926 0.0486,-0.38881 -0.0649,-0.15125 -0.12965,-0.30245 -0.1944,-0.4536 -0.23226,-0.23766 -0.46445,-0.47525 -0.69661,-0.7128 -0.17285,-0.13506 -0.34565,-0.27006 -0.5184,-0.40501 -0.0433,0.0323 -0.0865,0.0648 -0.1296,0.0972 0.0162,0.12416 0.0324,0.24835 0.0486,0.37261 -0.0324,0.0863 -0.0649,0.17275 -0.0972,0.2592 -0.0919,0.0431 -0.18365,0.0863 -0.2754,0.1296 -0.35106,-5e-5 -0.70206,-5e-5 -1.05301,0 -0.95047,0.005 -1.90084,0.0108 -2.85122,0.0162 -0.0918,-0.0648 -0.18364,-0.12965 -0.2754,-0.1944 -5e-5,-1.30149 -5e-5,-2.60287 0,-3.90423 0.0756,-0.0324 0.15116,-0.0648 0.22681,-0.0972 0.0648,0.0162 0.12955,0.0324 0.1944,0.0486 0.18355,0.16195 0.36715,0.32395 0.5508,0.486 0.31856,0.32396 0.63716,0.64796 0.95581,0.97201 0.12415,0.16735 0.24835,0.33475 0.3726,0.5022 0.0108,0.0702 0.0216,0.14035 0.0324,0.2106 -0.0486,0.0324 -0.0972,0.0648 -0.1458,0.0972 -0.10805,0.0108 -0.21605,0.0216 -0.324,0.0324 -0.11885,-0.0919 -0.23765,-0.18366 -0.3564,-0.27541 -0.11346,-0.11885 -0.22685,-0.23765 -0.34021,-0.3564 -0.14045,-0.0703 -0.28085,-0.14045 -0.4212,-0.2106 -0.0864,0.0593 -0.17285,0.11875 -0.2592,0.1782 -0.0271,0.11335 -0.0541,0.22675 -0.081,0.3402 -0.005,0.31316 -0.0109,0.62636 -0.0162,0.93961 0.0485,0.15655 0.0971,0.31315 0.1458,0.4698 0.0378,0.0323 0.0756,0.0648 0.1134,0.0972 1.15018,-0.0109 2.30037,-0.0217 3.45062,-0.0324 0.0108,-0.0379 0.0216,-0.0757 0.0324,-0.1134 0.0215,-0.0919 0.0431,-0.18365 0.0648,-0.2754 -0.0378,-0.14045 -0.0756,-0.28085 -0.1134,-0.4212 z"
       inkscape:path-effect="#path-effect2687-9-0" /><path
       id="path2689-5-2"
       style="fill:#000000;fill-opacity:1;stroke-width:0.0496577"
       d="m 35.84305,165.85717 c 0.0553,5.6e-4 0.11099,-0.005 0.16769,-0.0134 0.12961,-0.0189 0.26457,-0.0513 0.33209,-0.0784 0.0675,-0.027 0.0676,-0.0486 0.0676,-0.0593 0,-0.0108 -7e-5,-0.0108 0.0215,-0.12424 0.0216,-0.11342 0.0648,-0.34019 0.0729,-0.66961 0.008,-0.32941 -0.0189,-0.76145 -0.054,-1.04766 -0.0351,-0.28621 -0.0783,-0.42655 -0.14044,-0.50482 -0.0621,-0.0783 -0.14312,-0.0945 -0.2511,-0.0566 -0.10798,0.0378 -0.24296,0.1296 -0.46166,0.30241 -0.21871,0.1728 -0.52113,0.42658 -0.68852,0.59666 -0.1674,0.17009 -0.19974,0.25643 -0.20785,0.38602 -0.008,0.12959 0.008,0.3024 0.10252,0.46981 0.0945,0.1674 0.2673,0.32947 0.4185,0.46447 0.1512,0.135 0.28083,0.24294 0.40774,0.29426 0.0714,0.0289 0.14187,0.0398 0.21298,0.0405 z m 0.044,-0.75233 c -0.0376,0.001 -0.0716,-0.0455 -0.0842,-0.1062 -0.0135,-0.0648 -0.003,-0.14584 -0.0433,-0.18632 -0.0405,-0.0405 -0.13232,-0.0404 -0.20251,-0.0728 -0.0702,-0.0324 -0.11876,-0.0972 -0.12143,-0.17011 -0.003,-0.0729 0.0405,-0.15392 0.11338,-0.2349 0.0729,-0.081 0.17545,-0.16201 0.25643,-0.20252 0.081,-0.0405 0.14038,-0.0405 0.1836,0.0459 0.0432,0.0864 0.0702,0.25921 0.0729,0.40502 0.003,0.14581 -0.0188,0.26461 -0.0512,0.35643 -0.0324,0.0918 -0.0757,0.15661 -0.11619,0.16468 -0.002,5.7e-4 -0.005,7.6e-4 -0.008,9.4e-4 z" /><path
       id="path2697-7-0"
       style="fill:#000000;fill-opacity:1;stroke-width:0.0496577"
       d="m 36.06021,162.14855 c 0.0101,-4e-5 0.0197,-3.7e-4 0.0288,-0.001 0.0729,-0.005 0.11611,-0.027 0.17283,-0.0891 0.0567,-0.0621 0.12691,-0.16471 0.17011,-0.27272 0.0432,-0.10802 0.0594,-0.22138 0.0648,-0.49949 0.005,-0.27811 7e-5,-0.72091 -0.0242,-1.02332 -0.0243,-0.30241 -0.0675,-0.46449 -0.0891,-0.54546 -0.0216,-0.081 -0.0216,-0.081 -0.0378,-0.0999 -0.0162,-0.0189 -0.0486,-0.0567 -0.0945,-0.0756 -0.0459,-0.0189 -0.10529,-0.0189 -0.21327,0.0243 -0.10799,0.0432 -0.2646,0.12959 -0.46709,0.29969 -0.2025,0.17009 -0.45094,0.4239 -0.60754,0.6021 -0.1566,0.17819 -0.22141,0.28073 -0.25381,0.36981 -0.0324,0.0891 -0.0323,0.16478 -0.0242,0.22957 0.008,0.0648 0.0243,0.11876 0.0755,0.21056 0.0513,0.0918 0.13771,0.2214 0.3186,0.36991 0.1809,0.14852 0.45626,0.31591 0.64526,0.40503 0.16538,0.078 0.26461,0.096 0.33568,0.0956 z m -0.10883,-0.6504 c -10e-4,5e-5 -0.003,6e-5 -0.004,0 -0.041,-0.002 -0.0732,-0.0553 -0.091,-0.11241 -0.0178,-0.0571 -0.0214,-0.11761 -0.0323,-0.17099 -0.0109,-0.0534 -0.0292,-0.0995 -0.0628,-0.13568 -0.0336,-0.0362 -0.0825,-0.0625 -0.12686,-0.0751 -0.0444,-0.0126 -0.0842,-0.0115 -0.12375,-0.009 -0.0395,0.002 -0.0825,0.0323 -0.10213,0.006 -0.0196,-0.0268 -0.0158,-0.11029 1.8e-4,-0.14414 0.016,-0.0339 0.0482,-0.0446 0.0856,-0.0553 0.0375,-0.0107 0.0802,-0.0214 0.12725,-0.0261 0.047,-0.005 0.14368,0.0306 0.17035,-1.6e-4 0.0267,-0.0308 0.0174,-0.1428 0.022,-0.21603 0.005,-0.0732 -0.0451,-0.21367 0.0605,-0.20646 l 0.12301,0.008 c 0.10823,0.009 0.0499,0.34781 0.0632,0.52122 0.0133,0.17341 0.003,0.34812 -0.0189,0.47564 -0.0198,0.11303 -0.10911,0.0763 -0.098,0.11509 z"
       sodipodi:nodetypes="ssssssssssssssssssscssssssssssccccsssc" /><path
       style="fill:#000000;stroke-width:0.21765"
       d="m 43.92613,125.41851 c 0.0025,-0.008 0.0076,-0.0254 0.163309,-0.15636 0.155683,-0.1309 0.461823,-0.37552 0.703327,-0.54801 0.241505,-0.1725 0.418289,-0.27282 10.107961,-0.31756 9.689673,-0.0447 28.891309,-0.0339 38.567785,-0.0452 9.676478,-0.0113 9.827348,-0.0446 10.101488,0.1044 0.27414,0.14899 0.67039,0.47936 1.0672,0.8102 0,0 -0.36195,0.0147 -0.36195,0.0147 -20.117218,0.0487 -40.234172,0.0975 -50.292913,0.12182 -10.058741,0.0244 -10.058735,0.0245 -10.056207,0.016 z"
       id="path1891"
       inkscape:path-effect="#path-effect1893"
       inkscape:original-d="m 43.923602,125.42695 c 0.0053,-0.0168 0.01046,-0.0338 0.01528,-0.051 0.306431,-0.24446 0.612571,-0.48908 0.918471,-0.7339 0.177063,-0.10015 0.353846,-0.20048 0.530374,-0.301 19.202673,0.011 38.404309,0.0218 57.606063,0.0324 0.15126,-0.0331 0.30213,-0.0664 0.45298,-0.1 0.39739,0.33128 1.19043,0.99251 1.19043,0.99251 l -0.36195,0.0147 c 0,0 -40.234172,0.0976 -60.351654,0.14618 z"
       sodipodi:nodetypes="ccccccccc" /><path
       style="fill:#000000;stroke-width:0.21765"
       d="m 43.9367,165.20009 c 0.0025,0.008 0.0076,0.0255 0.163309,0.15636 0.155683,0.1309 0.461823,0.37552 0.703327,0.54801 0.241505,0.1725 0.418289,0.27282 10.107962,0.31756 9.689673,0.0447 28.891309,0.0339 38.56779,0.0452 9.676482,0.0113 9.827352,0.0446 10.101492,-0.1044 0.27414,-0.14899 0.67039,-0.47936 1.0672,-0.8102 0,0 -0.36195,-0.0147 -0.36195,-0.0147 -20.117221,-0.0487 -40.234181,-0.0975 -50.292923,-0.12182 -10.058741,-0.0244 -10.058735,-0.0245 -10.056207,-0.016 z"
       id="path1891-8"
       inkscape:path-effect="#path-effect1893-5"
       inkscape:original-d="m 43.934172,165.19165 c 0.0053,0.0168 0.01046,0.0338 0.01528,0.051 0.306432,0.24446 0.612571,0.48908 0.918471,0.7339 0.177063,0.10015 0.353846,0.20048 0.530374,0.301 19.202674,-0.011 38.40431,-0.0218 57.606073,-0.0324 0.15126,0.0331 0.30213,0.0664 0.45298,0.1 0.39739,-0.33128 1.19043,-0.99251 1.19043,-0.99251 l -0.36195,-0.0147 c 0,0 -40.234181,-0.0976 -60.351664,-0.14618 z"
       sodipodi:nodetypes="ccccccccc" /><path
       style="fill:#000000;stroke-width:0.147968"
       d="m 38.044436,131.14468 c -0.0084,0.001 -0.02547,0.004 -0.156327,0.0754 -0.130857,0.0719 -0.375474,0.21341 -0.547968,0.32501 -0.172493,0.11161 -0.272839,0.19333 -0.317632,4.6718 -0.04479,4.47847 -0.03399,13.35319 -0.04526,17.82547 -0.01127,4.47228 -0.04458,4.54201 0.104391,4.66876 0.148966,0.12674 0.479349,0.30989 0.810186,0.49329 0,0 0.0147,-0.16729 0.0147,-0.16729 0.04873,-9.29788 0.09745,-18.59564 0.121816,-23.24465 0.02436,-4.649 0.02447,-4.64894 0.01609,-4.64779 z"
       id="path1891-8-0"
       inkscape:path-effect="#path-effect1893-5-8"
       inkscape:original-d="m 38.052815,131.14353 c -0.0168,0.002 -0.0338,0.005 -0.051,0.007 -0.24446,0.14164 -0.48908,0.28313 -0.7339,0.42451 -0.10015,0.0818 -0.20048,0.16354 -0.301,0.24513 0.011,8.87519 0.0218,17.74991 0.0324,26.62468 -0.0331,0.0699 -0.0664,0.13964 -0.1,0.20936 0.33128,0.18367 0.99251,0.5502 0.99251,0.5502 l 0.0147,-0.16729 c 0,0 0.0976,-18.59564 0.14618,-27.89365 z"
       sodipodi:nodetypes="ccccccccc" /><path
       style="fill:#000000;stroke-width:0.147968"
       d="m 110.2299,131.14475 c 0.008,0.001 0.0255,0.004 0.15633,0.0754 0.13085,0.0719 0.37547,0.21341 0.54796,0.32501 0.1725,0.11161 0.27284,0.19333 0.31764,4.6718 0.0448,4.47847 0.034,13.35319 0.0453,17.82547 0.0113,4.47228 0.0446,4.54201 -0.10439,4.66876 -0.14897,0.12674 -0.47935,0.30989 -0.81019,0.49329 0,0 -0.0147,-0.16729 -0.0147,-0.16729 -0.0487,-9.29788 -0.0975,-18.59564 -0.12182,-23.24465 -0.0244,-4.649 -0.0245,-4.64894 -0.0161,-4.64779 z"
       id="path1891-8-0-4"
       inkscape:path-effect="#path-effect1893-5-8-8"
       inkscape:original-d="m 110.22152,131.1436 c 0.0168,0.002 0.0338,0.005 0.051,0.007 0.24446,0.14164 0.48908,0.28313 0.7339,0.42451 0.10015,0.0818 0.20048,0.16354 0.301,0.24513 -0.011,8.87519 -0.0218,17.74991 -0.0324,26.62468 0.0331,0.0699 0.0664,0.13964 0.1,0.20936 -0.33128,0.18367 -0.99251,0.5502 -0.99251,0.5502 l -0.0147,-0.16729 c 0,0 -0.0976,-18.59564 -0.14618,-27.89365 z"
       sodipodi:nodetypes="ccccccccc" /></g></svg>
