<?xml version="1.0" encoding="UTF-8" standalone="no"?>
<!-- Created with Inkscape (http://www.inkscape.org/) -->

<svg
   width="69.327705mm"
   height="63.816582mm"
   viewBox="0 0 69.327707 63.816581"
   version="1.1"
   id="svg2179"
   xml:space="preserve"
   sodipodi:docname="other_profs_background.svg"
   xmlns:inkscape="http://www.inkscape.org/namespaces/inkscape"
   xmlns:sodipodi="http://sodipodi.sourceforge.net/DTD/sodipodi-0.dtd"
   xmlns="http://www.w3.org/2000/svg"
   xmlns:svg="http://www.w3.org/2000/svg"><sodipodi:namedview
     id="namedview2181"
     pagecolor="#ffffff"
     bordercolor="#000000"
     borderopacity="0.25"
     inkscape:showpageshadow="2"
     inkscape:pageopacity="0.0"
     inkscape:pagecheckerboard="0"
     inkscape:deskcolor="#d1d1d1"
     inkscape:document-units="mm"
     showgrid="false" /><defs
     id="defs2176"><inkscape:path-effect
       effect="bspline"
       id="path-effect6055"
       is_visible="true"
       lpeversion="1"
       weight="33.333333"
       steps="2"
       helper_size="0"
       apply_no_weight="true"
       apply_with_weight="true"
       only_selected="false" /><inkscape:path-effect
       effect="bspline"
       id="path-effect2687-6-5"
       is_visible="true"
       lpeversion="1"
       weight="33.333333"
       steps="2"
       helper_size="0"
       apply_no_weight="true"
       apply_with_weight="true"
       only_selected="false" /><inkscape:path-effect
       effect="bspline"
       id="path-effect2687-6-7-1"
       is_visible="true"
       lpeversion="1"
       weight="33.333333"
       steps="2"
       helper_size="0"
       apply_no_weight="true"
       apply_with_weight="true"
       only_selected="false" /><inkscape:path-effect
       effect="bspline"
       id="path-effect2687-6-7-1-4"
       is_visible="true"
       lpeversion="1"
       weight="33.333333"
       steps="2"
       helper_size="0"
       apply_no_weight="true"
       apply_with_weight="true"
       only_selected="false" /><inkscape:path-effect
       effect="bspline"
       id="path-effect6055-4"
       is_visible="true"
       lpeversion="1"
       weight="33.333333"
       steps="2"
       helper_size="0"
       apply_no_weight="true"
       apply_with_weight="true"
       only_selected="false" /><inkscape:path-effect
       effect="bspline"
       id="path-effect2687-6-5-3"
       is_visible="true"
       lpeversion="1"
       weight="33.333333"
       steps="2"
       helper_size="0"
       apply_no_weight="true"
       apply_with_weight="true"
       only_selected="false" /><inkscape:path-effect
       effect="bspline"
       id="path-effect6055-4-5"
       is_visible="true"
       lpeversion="1"
       weight="33.333333"
       steps="2"
       helper_size="0"
       apply_no_weight="true"
       apply_with_weight="true"
       only_selected="false" /><inkscape:path-effect
       effect="bspline"
       id="path-effect6055-4-5-3"
       is_visible="true"
       lpeversion="1"
       weight="33.333333"
       steps="2"
       helper_size="0"
       apply_no_weight="true"
       apply_with_weight="true"
       only_selected="false" /></defs><g
     inkscape:label="Layer 1"
     inkscape:groupmode="layer"
     id="layer1"
     transform="translate(-42.733492,-63.740629)"><g
       id="g22859"
       inkscape:export-filename=".\current_hp.svg"
       inkscape:export-xdpi="96"
       inkscape:export-ydpi="96"
       transform="translate(-205.5474,-9.5352672)"><path
         style="fill:#000000;fill-opacity:1;stroke-width:0.0351956"
         d="m 312.72928,75.656817 c 0.29663,0.294722 0.88987,0.884135 1.30132,1.301321 0.41144,0.417187 0.64108,0.662135 0.83819,0.843932 0.19711,0.181797 0.36168,0.300441 0.49181,0.367408 0.13012,0.06697 0.22581,0.08228 0.30808,0.08036 0.0823,-0.0019 0.15119,-0.02106 0.20667,-0.05358 0.0555,-0.03252 0.0976,-0.07845 0.13011,-0.231539 0.0325,-0.153091 0.0555,-0.413349 0.0651,-0.928133 0.01,-0.514784 0.006,-1.284069 -0.002,-1.860089 -0.008,-0.576021 -0.0192,-0.958745 -0.0574,-1.192208 -0.0383,-0.233462 -0.10334,-0.317675 -0.16648,-0.377006 -0.0631,-0.05933 -0.12439,-0.09378 -0.19903,-0.11484 -0.0746,-0.02106 -0.16266,-0.02871 -0.92431,-0.0268 -0.76166,0.0019 -2.1969,0.0134 -2.91648,0.02492 -0.71957,0.01153 -0.72342,0.02306 -0.73105,0.07468 -0.008,0.05162 -0.0191,0.143474 -0.002,0.242999 0.0172,0.09952 0.0632,0.206679 0.16843,0.344462 0.10526,0.137782 0.26983,0.30618 0.41336,0.43822 0.14352,0.132041 0.266,0.227721 0.34251,0.264076 0.0765,0.03636 0.10718,0.01334 0.11672,-0.04212 0.01,-0.05547 -0.002,-0.143482 0.004,-0.218129 0.006,-0.07465 0.0287,-0.135889 0.0727,-0.181826 0.044,-0.04594 0.10908,-0.07655 0.26602,-0.09186 0.15693,-0.01531 0.40571,-0.01531 0.86691,-0.01722 0.4612,-0.0019 1.13479,-0.0057 1.50414,0.01532 0.36934,0.02106 0.43441,0.06699 0.46693,0.551166 0.0325,0.484171 0.0325,1.406548 0.006,1.879196 -0.0268,0.472647 -0.0804,0.495628 -0.13014,0.501375 -0.0498,0.0057 -0.0956,-0.0057 -0.18368,-0.06887 -0.0881,-0.06314 -0.21817,-0.17796 -0.39615,-0.350192 -0.17797,-0.172232 -0.40378,-0.40187 -0.56071,-0.576015 -0.15692,-0.174145 -0.24495,-0.292792 -0.29282,-0.37702 -0.0479,-0.08423 -0.0555,-0.133924 -0.0421,-0.170311 0.0134,-0.03639 0.0478,-0.05933 0.10334,-0.07464 0.0555,-0.01531 0.13206,-0.02296 0.21242,0.0058 0.0804,0.02871 0.16459,0.0938 0.24688,0.168433 0.0823,0.07464 0.16266,0.158839 0.25263,0.225821 0.09,0.06698 0.18944,0.11672 0.2698,0.120526 0.0804,0.0038 0.14159,-0.03828 0.18177,-0.09951 0.0402,-0.06123 0.0593,-0.141591 0.0708,-0.292772 0.0115,-0.15118 0.0153,-0.373163 2e-5,-0.539646 -0.0153,-0.166484 -0.0497,-0.277466 -0.0804,-0.344463 -0.0306,-0.067 -0.0574,-0.08992 -0.47841,-0.0976 -0.42104,-0.0077 -1.23624,-3.9e-5 -1.64771,0.01724 -0.41147,0.01728 -0.41908,0.04399 -0.43054,0.08991 -0.0115,0.04592 -0.0268,0.110986 -0.021,0.193276 0.006,0.08229 0.0326,0.181798 0.046,0.231537 0.0134,0.04974 0.0134,0.04973 0.31001,0.344456 z"
         id="path2685-7-3"
         sodipodi:nodetypes="ccccccccccccccccccccccccccc"
         inkscape:original-d="m 312.43264,75.362094 c 0.59327,0.589448 1.18651,1.178861 1.77972,1.768238 0.22968,0.244992 0.45932,0.489939 0.68892,0.734852 0.16462,0.118688 0.32919,0.237334 0.49373,0.355946 0.0957,0.01536 0.1914,0.03065 0.28705,0.04593 0.0689,-0.01911 0.13782,-0.03824 0.20668,-0.05741 0.0421,-0.04589 0.0842,-0.09182 0.1263,-0.137784 0.023,-0.260231 0.046,-0.520486 0.0689,-0.78078 -0.004,-0.769279 -0.008,-1.538563 -0.0115,-2.307896 -0.0115,-0.38271 -0.0229,-0.765437 -0.0345,-1.148208 -0.065,-0.08417 -0.13009,-0.168369 -0.19519,-0.252606 -0.0612,-0.03441 -0.12244,-0.06886 -0.18372,-0.103339 -0.088,-0.0076 -0.17602,-0.01528 -0.26408,-0.02296 -1.43525,0.01152 -2.87049,0.023 -4.30578,0.03445 -0.004,0.01152 -0.008,0.023 -0.0115,0.03445 -0.0115,0.09189 -0.0229,0.183749 -0.0344,0.27557 0.046,0.107203 0.0919,0.214367 0.13778,0.321498 0.16462,0.168442 0.32919,0.336842 0.49373,0.50521 0.12251,0.09572 0.24498,0.191403 0.36743,0.287052 0.0306,-0.02292 0.0613,-0.04589 0.0918,-0.06889 -0.0115,-0.088 -0.0229,-0.176024 -0.0344,-0.264089 0.023,-0.06121 0.046,-0.122441 0.0689,-0.183712 0.0651,-0.03059 0.13016,-0.06121 0.19519,-0.09186 0.24882,3.5e-5 0.4976,3.5e-5 0.74634,0 0.67366,-0.0038 1.34725,-0.0076 2.02084,-0.01148 0.0651,0.04596 0.13017,0.09189 0.1952,0.137785 3e-5,0.922443 3e-5,1.84482 0,2.767176 -0.0535,0.02301 -0.10714,0.04596 -0.16076,0.06889 -0.0459,-0.01146 -0.0918,-0.02292 -0.13778,-0.03445 -0.1301,-0.114788 -0.26022,-0.229605 -0.39039,-0.344462 -0.22578,-0.229609 -0.45159,-0.459248 -0.67744,-0.688923 -0.088,-0.118616 -0.17603,-0.237261 -0.26409,-0.355946 -0.008,-0.04972 -0.0153,-0.09947 -0.023,-0.149265 0.0345,-0.02292 0.0689,-0.04589 0.10334,-0.06889 0.0766,-0.0076 0.15313,-0.01527 0.22964,-0.02295 0.0842,0.0651 0.16844,0.130165 0.25261,0.195195 0.0804,0.08424 0.16078,0.168439 0.24112,0.252605 0.0996,0.04979 0.19906,0.09955 0.29853,0.149268 0.0613,-0.04207 0.12251,-0.08417 0.18372,-0.126304 0.0192,-0.08034 0.0383,-0.160712 0.0574,-0.241122 0.004,-0.221957 0.008,-0.443937 0.0115,-0.665959 -0.0344,-0.11096 -0.0688,-0.221954 -0.10333,-0.332983 -0.0268,-0.02292 -0.0535,-0.04589 -0.0804,-0.06889 -0.81521,0.0077 -1.63041,0.01533 -2.44568,0.02295 -0.008,0.02682 -0.0153,0.05362 -0.0229,0.08037 -0.0153,0.0651 -0.0306,0.130165 -0.0459,0.195195 0.0268,0.09955 0.0536,0.199059 0.0804,0.298533 z"
         inkscape:path-effect="#path-effect2687-6-5" /><path
         id="path2689-7-0"
         style="fill:#000000;fill-opacity:1;stroke-width:0.0351956"
         d="m 316.77053,73.674148 c -0.0392,-3.6e-4 -0.0787,0.0036 -0.11885,0.0095 -0.0919,0.01339 -0.18752,0.03639 -0.23538,0.05554 -0.0478,0.01916 -0.0479,0.03443 -0.0479,0.04207 0,0.0076 5e-5,0.0077 -0.0153,0.08806 -0.0153,0.08039 -0.046,0.241115 -0.0517,0.474593 -0.006,0.233475 0.0134,0.539691 0.0383,0.742544 0.0249,0.202853 0.0555,0.302321 0.0995,0.3578 0.044,0.05548 0.10144,0.06694 0.17797,0.04015 0.0765,-0.02679 0.1722,-0.09186 0.32721,-0.214336 0.15501,-0.122477 0.36935,-0.302349 0.488,-0.422899 0.11864,-0.120551 0.14156,-0.181741 0.14731,-0.273589 0.006,-0.09185 -0.006,-0.214334 -0.0727,-0.332986 -0.067,-0.118651 -0.18945,-0.233517 -0.29662,-0.329203 -0.10717,-0.09569 -0.19904,-0.172186 -0.28899,-0.208562 -0.0506,-0.02046 -0.10055,-0.02819 -0.15096,-0.02867 z m -0.0312,0.533227 c 0.0266,-9e-4 0.0507,0.03222 0.0597,0.07527 0.01,0.04593 0.002,0.103364 0.0307,0.132054 0.0287,0.02868 0.0938,0.02865 0.14353,0.05162 0.0498,0.02298 0.0842,0.06892 0.0861,0.120572 0.002,0.05166 -0.0287,0.109091 -0.0804,0.166493 -0.0517,0.0574 -0.12436,0.114826 -0.18176,0.143532 -0.0574,0.02871 -0.0995,0.02871 -0.13012,-0.03252 -0.0306,-0.06122 -0.0498,-0.183718 -0.0517,-0.287065 -0.002,-0.103343 0.0133,-0.187548 0.0363,-0.252623 0.0229,-0.06508 0.0536,-0.110999 0.0823,-0.116726 0.002,-3e-4 0.004,-6e-4 0.005,-6e-4 z" /><path
         id="path2697-87-5"
         style="fill:#000000;fill-opacity:1;stroke-width:0.0351956"
         d="m 316.63067,76.134077 c -0.007,3.3e-5 -0.0139,2.79e-4 -0.0204,6e-4 -0.0517,0.0038 -0.0823,0.01914 -0.12249,0.06317 -0.0402,0.04402 -0.09,0.116744 -0.12058,0.193302 -0.0306,0.07656 -0.0421,0.156906 -0.0459,0.354021 -0.004,0.197111 -4e-5,0.510952 0.0172,0.725292 0.0172,0.214337 0.0479,0.329212 0.0632,0.386601 0.0153,0.05739 0.0153,0.05739 0.0268,0.0708 0.0115,0.01341 0.0344,0.04017 0.067,0.05355 0.0325,0.01338 0.0746,0.01338 0.15116,-0.01725 0.0765,-0.03062 0.18754,-0.09185 0.33106,-0.212413 0.14352,-0.120557 0.3196,-0.300447 0.4306,-0.426748 0.11099,-0.126298 0.15692,-0.198972 0.17989,-0.262109 0.023,-0.06314 0.0229,-0.116786 0.0172,-0.162713 -0.006,-0.04592 -0.0172,-0.08417 -0.0536,-0.149238 -0.0363,-0.06507 -0.0976,-0.15692 -0.22582,-0.262181 -0.12821,-0.10526 -0.32337,-0.2239 -0.45733,-0.287064 -0.11722,-0.05527 -0.18755,-0.06801 -0.23792,-0.06778 z m 0.0771,0.460982 c 9e-4,-3.3e-5 0.002,-3.9e-5 0.003,0 0.0291,0.0012 0.0519,0.03922 0.0645,0.07967 0.0126,0.04045 0.0152,0.08336 0.0229,0.121189 0.008,0.03783 0.0207,0.07053 0.0445,0.09617 0.0238,0.02565 0.0585,0.04427 0.0899,0.0532 0.0314,0.0089 0.0597,0.0082 0.0877,0.0065 0.028,-0.0015 0.0585,-0.02292 0.0724,-0.0039 0.0139,0.01899 0.0112,0.07817 -1.4e-4,0.102165 -0.0114,0.024 -0.0342,0.0316 -0.0607,0.03918 -0.0265,0.0076 -0.0569,0.01515 -0.0902,0.01848 -0.0333,0.0034 -0.10182,-0.02169 -0.12073,1.17e-4 -0.0189,0.02181 -0.0123,0.101211 -0.0156,0.153114 -0.003,0.05191 0.032,0.151442 -0.0428,0.146334 l -0.0872,-0.0053 c -0.0767,-0.0065 -0.0354,-0.24651 -0.0448,-0.369418 -0.009,-0.122909 -0.002,-0.246738 0.0134,-0.337116 0.014,-0.08012 0.0773,-0.05411 0.0695,-0.08157 z"
         sodipodi:nodetypes="ssssssssssssssssssscssssssssssccccsssc" /></g><g
       id="g3566"
       transform="translate(0,0.37559374)"><path
         style="fill:#000000;fill-opacity:1;stroke-width:0.0351956"
         d="m 47.612719,65.556488 c -0.296636,0.294723 -0.889876,0.884136 -1.301319,1.301322 -0.411443,0.417186 -0.641081,0.662135 -0.838195,0.843932 -0.197113,0.181797 -0.361683,0.300441 -0.491805,0.367407 -0.130121,0.06697 -0.225818,0.08228 -0.308087,0.08036 -0.08227,-0.0019 -0.151186,-0.02106 -0.206662,-0.05358 -0.05548,-0.03252 -0.09758,-0.07845 -0.130118,-0.231539 -0.03254,-0.153091 -0.05551,-0.413349 -0.06508,-0.928132 -0.0096,-0.514784 -0.0057,-1.28407 0.0019,-1.860091 0.0076,-0.576021 0.01912,-0.958746 0.05736,-1.192207 0.03825,-0.233461 0.103319,-0.317675 0.166462,-0.377006 0.06314,-0.05933 0.124386,-0.09378 0.199026,-0.114839 0.07464,-0.02106 0.162662,-0.02871 0.924318,-0.0268 0.761656,0.0019 2.196896,0.0134 2.916472,0.02492 0.719575,0.01152 0.723424,0.02306 0.731055,0.07468 0.0076,0.05162 0.0191,0.143473 0.0019,0.242999 -0.01725,0.09952 -0.06317,0.206679 -0.168429,0.344461 -0.105261,0.137782 -0.269833,0.306181 -0.41336,0.438222 -0.143528,0.132041 -0.265998,0.227723 -0.342544,0.264061 -0.07654,0.03634 -0.10716,0.01339 -0.116727,-0.04209 -0.0096,-0.05548 0.0019,-0.143491 -0.0038,-0.218142 -0.0057,-0.07465 -0.0287,-0.135893 -0.07272,-0.18183 -0.04403,-0.04594 -0.109086,-0.07655 -0.26602,-0.09186 -0.156934,-0.01531 -0.405704,-0.01531 -0.866909,-0.01722 -0.461205,-0.0019 -1.134795,-0.0057 -1.504142,0.01532 -0.369347,0.02106 -0.434416,0.06699 -0.46693,0.551166 -0.03251,0.484172 -0.03251,1.406549 -0.0057,1.879215 0.02681,0.472665 0.08035,0.49561 0.1301,0.501357 0.04975,0.0057 0.09564,-0.0057 0.183687,-0.06887 0.08804,-0.06315 0.218171,-0.177964 0.396144,-0.350194 0.177973,-0.17223 0.403784,-0.401868 0.56071,-0.576013 0.156926,-0.174144 0.244954,-0.292791 0.292818,-0.37702 0.04786,-0.08423 0.05552,-0.133923 0.04213,-0.17031 -0.0134,-0.03639 -0.04781,-0.05933 -0.103339,-0.07464 -0.05553,-0.01531 -0.132059,-0.02296 -0.212424,0.0058 -0.08037,0.02872 -0.16459,0.0938 -0.246872,0.168433 -0.08228,0.07463 -0.162665,0.158841 -0.252593,0.225803 -0.08993,0.06696 -0.18948,0.116739 -0.269844,0.120544 -0.08036,0.0038 -0.141582,-0.03828 -0.18176,-0.09951 -0.04018,-0.06123 -0.05931,-0.14159 -0.0708,-0.29277 -0.01149,-0.15118 -0.01532,-0.373163 -2.1e-5,-0.539647 0.0153,-0.166484 0.04974,-0.277465 0.08036,-0.344462 0.03062,-0.067 0.05736,-0.08992 0.478408,-0.0976 0.421043,-0.0077 1.236253,-3.9e-5 1.647733,0.01724 0.41148,0.01728 0.419121,0.04398 0.430605,0.08991 0.01148,0.04593 0.02678,0.110995 0.02102,0.193285 -0.0058,0.08229 -0.03256,0.181798 -0.04595,0.231536 -0.0134,0.04974 -0.01338,0.04973 -0.310022,0.344453 z"
         id="path2685-7-4-4"
         sodipodi:nodetypes="ccccccccccccccccccccccccccc"
         inkscape:original-d="m 47.909356,65.261765 c -0.59327,0.589449 -1.18651,1.178862 -1.77972,1.768238 -0.22968,0.244992 -0.45932,0.489939 -0.68892,0.734853 -0.16462,0.118688 -0.32919,0.237333 -0.49373,0.355946 -0.0957,0.01536 -0.1914,0.03065 -0.28705,0.04593 -0.0689,-0.01911 -0.13782,-0.03824 -0.20668,-0.05741 -0.0421,-0.04589 -0.0842,-0.09182 -0.1263,-0.137785 -0.023,-0.260231 -0.046,-0.520486 -0.0689,-0.78078 0.004,-0.769278 0.008,-1.538563 0.0115,-2.307895 0.0115,-0.382711 0.0229,-0.765438 0.0344,-1.148208 0.065,-0.08417 0.13009,-0.16837 0.19519,-0.252606 0.0612,-0.03441 0.12244,-0.06886 0.18372,-0.103339 0.088,-0.0076 0.17602,-0.01528 0.26409,-0.02296 1.43524,0.01152 2.87048,0.023 4.30577,0.03445 0.004,0.01152 0.008,0.023 0.0115,0.03445 0.0115,0.09189 0.0229,0.183748 0.0344,0.275569 -0.046,0.107204 -0.0919,0.214368 -0.13778,0.321498 -0.16462,0.168443 -0.32919,0.336843 -0.49373,0.505211 -0.12251,0.09572 -0.24498,0.191403 -0.36742,0.287052 -0.0307,-0.02292 -0.0613,-0.04589 -0.0919,-0.06889 0.0115,-0.088 0.0229,-0.176023 0.0345,-0.264089 -0.023,-0.06121 -0.046,-0.12244 -0.0689,-0.183711 -0.0651,-0.03059 -0.13016,-0.06121 -0.19519,-0.09186 -0.24882,3.6e-5 -0.49759,3.6e-5 -0.74634,0 -0.67366,-0.0038 -1.34725,-0.0076 -2.02084,-0.01148 -0.0651,0.04596 -0.13017,0.09189 -0.1952,0.137786 -3e-5,0.922443 -3e-5,1.84482 0,2.767176 0.0536,0.02301 0.10714,0.04596 0.16076,0.06889 0.0459,-0.01146 0.0918,-0.02292 0.13778,-0.03445 0.1301,-0.114788 0.26023,-0.229606 0.39039,-0.344463 0.22578,-0.229609 0.45159,-0.459248 0.67744,-0.688922 0.088,-0.118616 0.17603,-0.237262 0.26409,-0.355946 0.008,-0.04972 0.0153,-0.09947 0.023,-0.149265 -0.0345,-0.02292 -0.0689,-0.04589 -0.10334,-0.06889 -0.0766,-0.0076 -0.15313,-0.01527 -0.22964,-0.02295 -0.0842,0.0651 -0.16844,0.130165 -0.2526,0.195195 -0.0804,0.08424 -0.16079,0.16844 -0.24113,0.252606 -0.0995,0.04979 -0.19906,0.09955 -0.29853,0.149268 -0.0613,-0.04207 -0.12251,-0.08417 -0.18371,-0.126305 -0.0192,-0.08034 -0.0383,-0.160712 -0.0574,-0.241122 -0.004,-0.221956 -0.008,-0.443936 -0.0115,-0.665959 0.0344,-0.11096 0.0688,-0.221953 0.10333,-0.332982 0.0268,-0.02292 0.0535,-0.04589 0.0804,-0.06889 0.81521,0.0077 1.63042,0.01533 2.44568,0.02295 0.008,0.02682 0.0153,0.05362 0.023,0.08037 0.0153,0.0651 0.0306,0.130165 0.0459,0.195195 -0.0268,0.09955 -0.0536,0.199058 -0.0804,0.298532 z"
         inkscape:path-effect="#path-effect2687-6-7-1" /><path
         id="path2689-7-3-2"
         style="fill:#000000;fill-opacity:1;stroke-width:0.0351956"
         d="m 43.557416,63.700276 c 0.0392,-3.6e-4 0.0787,0.0036 0.11885,0.0095 0.0919,0.0134 0.18752,0.03639 0.23538,0.05554 0.0479,0.01916 0.0479,0.03443 0.0479,0.04207 0,0.0076 -5e-5,0.0077 0.0153,0.08806 0.0153,0.08039 0.046,0.241115 0.0517,0.474593 0.006,0.233476 -0.0134,0.539691 -0.0383,0.742544 -0.0249,0.202854 -0.0555,0.302322 -0.0995,0.3578 -0.044,0.05548 -0.10144,0.06694 -0.17797,0.04015 -0.0765,-0.02679 -0.1722,-0.09186 -0.32721,-0.214337 -0.15501,-0.122476 -0.36935,-0.302348 -0.488,-0.422899 -0.11864,-0.12055 -0.14156,-0.181741 -0.14731,-0.273589 -0.006,-0.09185 0.006,-0.214334 0.0727,-0.332985 0.067,-0.118652 0.18945,-0.233518 0.29662,-0.329204 0.10717,-0.09569 0.19904,-0.172185 0.28899,-0.208562 0.0506,-0.02046 0.10055,-0.02819 0.15096,-0.02867 z m 0.0312,0.533228 c -0.0266,-9e-4 -0.0507,0.03222 -0.0597,0.07527 -0.01,0.04593 -0.002,0.103365 -0.0307,0.132055 -0.0287,0.02868 -0.0938,0.02865 -0.14353,0.05162 -0.0498,0.02298 -0.0842,0.06891 -0.0861,0.120571 -0.002,0.05166 0.0287,0.109091 0.0804,0.166493 0.0517,0.0574 0.12436,0.114827 0.18176,0.143532 0.0574,0.02871 0.0995,0.02871 0.13012,-0.03252 0.0306,-0.06122 0.0498,-0.183718 0.0517,-0.287064 0.002,-0.103344 -0.0133,-0.187549 -0.0363,-0.252624 -0.023,-0.06508 -0.0536,-0.110999 -0.0823,-0.116725 -0.002,-3e-4 -0.004,-6e-4 -0.005,-6e-4 z" /><path
         id="path2697-87-1-4"
         style="fill:#000000;fill-opacity:1;stroke-width:0.0351956"
         d="m 43.711326,66.328814 c 0.007,3.3e-5 0.014,2.79e-4 0.0204,6e-4 0.0517,0.0038 0.0823,0.01914 0.1225,0.06317 0.0402,0.04402 0.09,0.116743 0.12057,0.193302 0.0306,0.07656 0.0421,0.156905 0.0459,0.35402 0.004,0.197112 4e-5,0.510952 -0.0172,0.725292 -0.0172,0.214337 -0.0479,0.329212 -0.0632,0.386601 -0.0153,0.05739 -0.0153,0.05739 -0.0268,0.0708 -0.0115,0.01341 -0.0344,0.04017 -0.0669,0.05355 -0.0325,0.01338 -0.0746,0.01338 -0.15117,-0.01725 -0.0765,-0.03062 -0.18754,-0.09185 -0.33106,-0.212414 -0.14352,-0.120557 -0.3196,-0.300447 -0.43059,-0.426748 -0.111,-0.126298 -0.15693,-0.198972 -0.1799,-0.262109 -0.023,-0.06314 -0.0229,-0.116786 -0.0172,-0.162713 0.006,-0.04592 0.0172,-0.08417 0.0536,-0.149238 0.0363,-0.06507 0.0976,-0.15692 0.22582,-0.26218 0.12821,-0.105261 0.32337,-0.223901 0.45733,-0.287065 0.11722,-0.05527 0.18755,-0.06801 0.23792,-0.06778 z m -0.0771,0.460982 c -9e-4,-3.3e-5 -0.002,-3.9e-5 -0.003,0 -0.0291,0.0012 -0.0519,0.03923 -0.0645,0.07967 -0.0126,0.04045 -0.0152,0.08336 -0.0229,0.12119 -0.008,0.03783 -0.0207,0.07053 -0.0445,0.09617 -0.0238,0.02565 -0.0585,0.04427 -0.0899,0.0532 -0.0314,0.0089 -0.0597,0.0082 -0.0877,0.0065 -0.028,-0.0015 -0.0585,-0.02292 -0.0724,-0.0039 -0.0139,0.01899 -0.0112,0.07817 1.4e-4,0.102165 0.0114,0.024 0.0341,0.0316 0.0607,0.03918 0.0265,0.0076 0.0569,0.01515 0.0902,0.01848 0.0333,0.0034 0.10183,-0.02169 0.12073,1.17e-4 0.0189,0.02181 0.0123,0.101211 0.0156,0.153114 0.003,0.05191 -0.032,0.151443 0.0428,0.146334 l 0.0872,-0.0053 c 0.0767,-0.0065 0.0354,-0.246509 0.0448,-0.369418 0.009,-0.122908 0.002,-0.246738 -0.0134,-0.337116 -0.014,-0.08012 -0.0773,-0.05411 -0.0695,-0.08157 z"
         sodipodi:nodetypes="ssssssssssssssssssscssssssssssccccsssc" /></g><path
       style="fill:#000000;fill-opacity:1;stroke-width:0.160567"
       d="m 76.000796,64.046022 c 8.728724,-0.02076 17.457129,-0.04151 22.168558,-0.03915 4.711426,0.0024 5.403526,0.02775 5.856476,0.13111 0.45295,0.103356 0.66484,0.284316 0.85972,0.437714 0.19488,0.153398 0.37239,0.27895 0.48238,0.365109 0.10998,0.08616 0.1523,0.132684 0.14452,0.159578 -0.008,0.02689 -0.0657,0.034 -0.12373,0.04111 -0.0694,0.0085 -0.13875,0.0169 -0.30097,0.0082 -0.16221,-0.0087 -0.41669,-0.03465 -1.12212,-0.06105 -0.70543,-0.0264 -1.86141,-0.05322 -6.237018,-0.105122 -4.37561,-0.0519 -11.967528,-0.128844 -19.608393,-0.154353 -7.640864,-0.02551 -15.328365,4.37e-4 -19.883782,0.02638 -4.555418,0.02594 -5.978271,0.05189 -6.859615,0.0882 -0.881345,0.03631 -1.22135,0.08304 -1.465574,0.11936 -0.244224,0.03632 -0.392891,0.06227 -0.580685,0.07165 -0.187795,0.0094 -0.41441,0.0022 -0.386351,-0.110963 0.02806,-0.11314 0.310603,-0.331462 0.585511,-0.549863 0.274907,-0.218401 0.541161,-0.436075 0.741873,-0.545134 0.200712,-0.109059 0.334993,-0.109059 4.484965,-0.07912 4.149973,0.02994 12.314916,0.08981 20.479707,0.149687"
       id="path6053"
       inkscape:path-effect="#path-effect6055"
       inkscape:original-d="m 76.000796,64.046022 c 8.728724,-0.02068 17.457129,-0.04143 26.185204,-0.06227 0.69478,0.02556 1.38688,0.05095 2.08053,0.07632 0.21226,0.181256 0.42415,0.362216 0.63621,0.543339 0.17769,0.12569 0.3552,0.251238 0.53251,0.376648 0.0428,0.04678 0.085,0.09341 0.12743,0.140106 -0.058,0.0072 -0.17396,0.02133 -0.17396,0.02133 0,0 -0.13874,0.01699 -0.20831,0.02537 -0.25488,-0.02588 -0.50936,-0.05181 -0.76451,-0.07784 -1.1557,-0.02674 -2.31168,-0.05356 -3.46798,-0.08047 -7.594919,-0.07689 -15.186837,-0.153836 -22.780958,-0.230879 -7.687607,0.02603 -15.375108,0.05197 -23.063364,0.07784 -1.422577,0.02603 -2.84543,0.05197 -4.268628,0.07784 -0.339477,0.04678 -0.679486,0.09348 -1.01938,0.140106 -0.14855,0.02602 -0.297217,0.05197 -0.445981,0.07784 -0.226844,-0.0071 -0.453458,-0.01433 -0.680835,-0.02163 0.283569,-0.218963 0.566117,-0.437281 0.849162,-0.656147 0.266777,-0.217933 0.53303,-0.435608 0.799745,-0.653826 0.134627,8e-5 0.268908,8e-5 0.403207,0 8.165645,0.05996 16.330588,0.119832 24.49538,0.179627"
       sodipodi:nodetypes="cccccccccccccccccccc" /><g
       id="g22813"
       transform="translate(-205.923,8.0006676)"><path
         style="fill:#000000;fill-opacity:1;stroke-width:0.0351956"
         d="m 312.98999,117.36504 c 0.29664,-0.29472 0.88988,-0.88413 1.30132,-1.30132 0.41145,-0.41718 0.64108,-0.66213 0.83819,-0.84392 0.19712,-0.1818 0.36169,-0.30045 0.49182,-0.36741 0.13013,-0.067 0.22582,-0.0823 0.30809,-0.0803 0.0823,0.002 0.15117,0.0211 0.20665,0.0536 0.0555,0.0325 0.0976,0.0784 0.13012,0.23153 0.0325,0.15309 0.0555,0.41336 0.0651,0.92814 0.01,0.51478 0.006,1.28406 -0.002,1.86009 -0.008,0.57602 -0.0191,0.95874 -0.0574,1.19221 -0.0383,0.23347 -0.10331,0.31767 -0.16645,0.377 -0.0631,0.0593 -0.1244,0.0938 -0.19904,0.11485 -0.0746,0.0211 -0.16264,0.0287 -0.9243,0.0268 -0.76166,-0.002 -2.19689,-0.0134 -2.91647,-0.0249 -0.71958,-0.0115 -0.72344,-0.0231 -0.73107,-0.0747 -0.008,-0.0516 -0.0191,-0.14345 -0.002,-0.24297 0.0172,-0.0995 0.0632,-0.20668 0.16843,-0.34446 0.10526,-0.13779 0.26983,-0.30618 0.41336,-0.43822 0.14352,-0.13204 0.26601,-0.22773 0.34255,-0.26407 0.0765,-0.0363 0.10716,-0.0134 0.11673,0.0421 0.01,0.0555 -0.002,0.14349 0.004,0.21813 0.006,0.0746 0.0287,0.13591 0.0727,0.18183 0.044,0.0459 0.1091,0.0765 0.26603,0.0918 0.15693,0.0153 0.4057,0.0153 0.8669,0.0172 0.4612,0.002 1.13479,0.006 1.50415,-0.0153 0.36935,-0.0211 0.43441,-0.067 0.46692,-0.55115 0.0325,-0.48417 0.0325,-1.40655 0.006,-1.87922 -0.0268,-0.47267 -0.0804,-0.49562 -0.13011,-0.50136 -0.0497,-0.006 -0.0956,0.006 -0.18367,0.0689 -0.0881,0.0632 -0.21818,0.17797 -0.39615,0.35021 -0.17798,0.17223 -0.40379,0.40187 -0.56072,0.57601 -0.15692,0.17415 -0.24495,0.29279 -0.2928,0.37701 -0.0478,0.0842 -0.0555,0.13398 -0.0421,0.17034 0.0134,0.0364 0.0478,0.0593 0.1034,0.0746 0.0556,0.0153 0.13203,0.0229 0.2124,-0.006 0.0804,-0.0287 0.16458,-0.0938 0.24686,-0.16843 0.0823,-0.0746 0.16267,-0.15885 0.25264,-0.22583 0.09,-0.067 0.18942,-0.11671 0.26981,-0.12051 0.0804,-0.004 0.1416,0.0383 0.18176,0.0995 0.0402,0.0612 0.0593,0.1416 0.0708,0.29278 0.0115,0.15118 0.0153,0.37317 2e-5,0.53965 -0.0153,0.16648 -0.0497,0.27749 -0.0804,0.34447 -0.0306,0.067 -0.0574,0.0899 -0.47841,0.0976 -0.42104,0.008 -1.23625,6e-5 -1.64771,-0.0172 -0.41146,-0.0173 -0.41907,-0.044 -0.43054,-0.0899 -0.0115,-0.046 -0.0268,-0.11101 -0.021,-0.19327 0.006,-0.0823 0.0326,-0.18183 0.046,-0.23157 0.0134,-0.0497 0.0132,-0.0498 0.30981,-0.34452 z"
         id="path2685-7-3-1"
         sodipodi:nodetypes="ccccccccccccccccccccccccccc"
         inkscape:original-d="m 312.69335,117.65977 c 0.59328,-0.58945 1.18652,-1.17886 1.77972,-1.76824 0.22969,-0.24499 0.45932,-0.48994 0.68893,-0.73485 0.16461,-0.11869 0.32919,-0.23733 0.49373,-0.35595 0.0957,-0.0154 0.1914,-0.0307 0.28705,-0.0459 0.0689,0.0191 0.13782,0.0382 0.20668,0.0574 0.0421,0.0459 0.0842,0.0918 0.1263,0.13778 0.023,0.26023 0.046,0.52049 0.0689,0.78078 -0.004,0.76928 -0.008,1.53856 -0.0115,2.3079 -0.0115,0.38271 -0.0229,0.76543 -0.0344,1.1482 -0.065,0.0842 -0.13009,0.16837 -0.19519,0.25261 -0.0612,0.0344 -0.12244,0.0689 -0.18371,0.10334 -0.088,0.008 -0.17602,0.0153 -0.26409,0.023 -1.43525,-0.0115 -2.87048,-0.023 -4.30578,-0.0345 -0.004,-0.0115 -0.008,-0.023 -0.0115,-0.0344 -0.0114,-0.0919 -0.0229,-0.18374 -0.0344,-0.27557 0.046,-0.1072 0.0919,-0.21436 0.13779,-0.32149 0.16461,-0.16845 0.32918,-0.33684 0.49372,-0.50521 0.12252,-0.0957 0.24499,-0.19141 0.36743,-0.28705 0.0307,0.0229 0.0613,0.0459 0.0919,0.0689 -0.0115,0.088 -0.0229,0.17602 -0.0345,0.26408 0.023,0.0612 0.046,0.12245 0.0689,0.18372 0.0651,0.0306 0.13017,0.0612 0.1952,0.0918 0.24882,-3e-5 0.49759,-3e-5 0.74633,0 0.67366,0.004 1.34725,0.008 2.02084,0.0115 0.0651,-0.046 0.13017,-0.0919 0.1952,-0.13778 4e-5,-0.92244 4e-5,-1.84482 0,-2.76718 -0.0536,-0.023 -0.10713,-0.046 -0.16075,-0.0689 -0.0459,0.0115 -0.0918,0.0229 -0.13779,0.0345 -0.13009,0.11478 -0.26022,0.2296 -0.39039,0.34446 -0.22578,0.22961 -0.45159,0.45925 -0.67744,0.68892 -0.088,0.11862 -0.17602,0.23726 -0.26409,0.35595 -0.008,0.0497 -0.0153,0.0995 -0.0229,0.14926 0.0345,0.0229 0.0689,0.0459 0.10335,0.0689 0.0766,0.008 0.15312,0.0153 0.22964,0.0229 0.0842,-0.0651 0.16843,-0.13016 0.2526,-0.19519 0.0804,-0.0842 0.16078,-0.16844 0.24112,-0.25261 0.0996,-0.0498 0.19906,-0.0995 0.29854,-0.14926 0.0613,0.0421 0.12251,0.0842 0.18371,0.1263 0.0192,0.0803 0.0383,0.16071 0.0574,0.24112 0.004,0.22196 0.008,0.44394 0.0115,0.66596 -0.0344,0.11096 -0.0689,0.22195 -0.10334,0.33298 -0.0268,0.0229 -0.0535,0.0459 -0.0804,0.0689 -0.81521,-0.008 -1.63042,-0.0153 -2.44568,-0.0229 -0.008,-0.0268 -0.0153,-0.0536 -0.0229,-0.0804 -0.0153,-0.0651 -0.0306,-0.13016 -0.0459,-0.19519 0.0268,-0.0995 0.0536,-0.19906 0.0804,-0.29854 z"
         inkscape:path-effect="#path-effect2687-6-5-3" /><path
         id="path2689-7-0-2"
         style="fill:#000000;fill-opacity:1;stroke-width:0.0351956"
         d="m 317.03125,119.34772 c -0.0392,3e-4 -0.0787,-0.004 -0.11886,-0.009 -0.0919,-0.0134 -0.18752,-0.0364 -0.23537,-0.0555 -0.0478,-0.0192 -0.0479,-0.0344 -0.0479,-0.0421 0,-0.008 5e-5,-0.008 -0.0153,-0.0881 -0.0153,-0.0804 -0.046,-0.24112 -0.0517,-0.4746 -0.006,-0.23348 0.0134,-0.53969 0.0383,-0.74254 0.0249,-0.20286 0.0555,-0.30233 0.0995,-0.3578 0.044,-0.0555 0.10144,-0.067 0.17797,-0.0401 0.0765,0.0268 0.1722,0.0919 0.32721,0.21434 0.15501,0.12247 0.36936,0.30234 0.488,0.4229 0.11864,0.12055 0.14157,0.18174 0.14731,0.27358 0.006,0.0919 -0.006,0.21434 -0.0727,0.33299 -0.067,0.11865 -0.18945,0.23352 -0.29662,0.32921 -0.10716,0.0957 -0.19904,0.17218 -0.28899,0.20856 -0.0506,0.0205 -0.10055,0.0282 -0.15095,0.0287 z m -0.0312,-0.53323 c 0.0266,9e-4 0.0507,-0.0322 0.0597,-0.0753 0.01,-0.0459 0.002,-0.10336 0.0306,-0.13205 0.0287,-0.0287 0.0938,-0.0286 0.14354,-0.0516 0.0497,-0.023 0.0842,-0.0689 0.0861,-0.12058 0.002,-0.0517 -0.0287,-0.10909 -0.0804,-0.16649 -0.0517,-0.0574 -0.12435,-0.11483 -0.18175,-0.14353 -0.0574,-0.0287 -0.0995,-0.0287 -0.13013,0.0325 -0.0306,0.0612 -0.0498,0.18372 -0.0517,0.28707 -0.002,0.10334 0.0133,0.18755 0.0363,0.25262 0.023,0.0651 0.0536,0.111 0.0824,0.11673 0.002,3e-4 0.004,6e-4 0.005,6e-4 z" /><path
         id="path2697-87-5-2"
         style="fill:#000000;fill-opacity:1;stroke-width:0.0351956"
         d="m 316.89138,116.88779 c -0.007,-4e-5 -0.0139,-2.8e-4 -0.0204,-6e-4 -0.0517,-0.004 -0.0823,-0.0191 -0.12249,-0.0632 -0.0402,-0.044 -0.09,-0.11674 -0.12058,-0.1933 -0.0306,-0.0766 -0.0421,-0.1569 -0.0459,-0.35402 -0.004,-0.19711 -5e-5,-0.51095 0.0172,-0.72529 0.0172,-0.21434 0.0479,-0.32921 0.0632,-0.3866 0.0153,-0.0574 0.0153,-0.0574 0.0268,-0.0708 0.0115,-0.0134 0.0344,-0.0402 0.067,-0.0536 0.0325,-0.0134 0.0746,-0.0134 0.15116,0.0172 0.0765,0.0306 0.18754,0.0919 0.33106,0.21242 0.14352,0.12055 0.31961,0.30044 0.4306,0.42674 0.11099,0.1263 0.15693,0.19897 0.1799,0.26211 0.023,0.0631 0.0229,0.11679 0.0172,0.16271 -0.006,0.0459 -0.0172,0.0842 -0.0535,0.14924 -0.0364,0.0651 -0.0976,0.15692 -0.22581,0.26218 -0.12821,0.10526 -0.32338,0.2239 -0.45734,0.28707 -0.11721,0.0553 -0.18754,0.068 -0.23791,0.0678 z m 0.0771,-0.46099 c 9e-4,4e-5 0.002,4e-5 0.003,0 0.0291,-0.001 0.0519,-0.0392 0.0645,-0.0797 0.0126,-0.0404 0.0152,-0.0834 0.0229,-0.12119 0.008,-0.0378 0.0207,-0.0705 0.0445,-0.0962 0.0238,-0.0256 0.0585,-0.0443 0.0899,-0.0532 0.0314,-0.009 0.0597,-0.008 0.0877,-0.007 0.028,0.001 0.0585,0.0229 0.0724,0.004 0.0139,-0.019 0.0112,-0.0782 -1.3e-4,-0.10217 -0.0114,-0.024 -0.0342,-0.0316 -0.0607,-0.0392 -0.0265,-0.008 -0.0569,-0.0151 -0.0902,-0.0185 -0.0333,-0.003 -0.10183,0.0217 -0.12074,-1.2e-4 -0.0189,-0.0218 -0.0123,-0.10121 -0.0156,-0.15311 -0.003,-0.0519 0.032,-0.15144 -0.0428,-0.14633 l -0.0872,0.005 c -0.0767,0.007 -0.0354,0.24651 -0.0448,0.36942 -0.009,0.12291 -0.002,0.24674 0.0134,0.33712 0.014,0.0801 0.0773,0.0541 0.0695,0.0816 z"
         sodipodi:nodetypes="ssssssssssssssssssscssssssssssccccsssc" /></g><path
       style="fill:#000000;fill-opacity:1;stroke-width:0.0351956"
       d="m 47.623033,125.02614 c -0.296636,-0.29473 -0.88987,-0.88413 -1.301314,-1.30132 -0.411444,-0.41718 -0.641081,-0.66213 -0.838194,-0.84392 -0.197113,-0.1818 -0.361687,-0.30045 -0.491813,-0.36741 -0.130127,-0.067 -0.225827,-0.0823 -0.30809,-0.0804 -0.08226,0.002 -0.151172,0.0211 -0.206656,0.0536 -0.05548,0.0325 -0.09757,0.0784 -0.130115,0.23153 -0.03254,0.15309 -0.05551,0.41336 -0.06508,0.92814 -0.0096,0.51478 -0.0057,1.28405 0.0019,1.86008 0.0076,0.57602 0.01912,0.95876 0.05737,1.19222 0.03825,0.23347 0.103317,0.31767 0.16646,0.377 0.06314,0.0593 0.124405,0.0938 0.199049,0.11485 0.07464,0.0211 0.162632,0.0287 0.924294,0.0268 0.761661,-0.002 2.196891,-0.0134 2.916466,-0.0249 0.719575,-0.0115 0.723435,-0.0231 0.731061,-0.0747 0.0076,-0.0516 0.01909,-0.14345 0.0018,-0.24297 -0.01725,-0.0995 -0.06317,-0.20668 -0.168431,-0.34445 -0.105259,-0.13778 -0.269829,-0.30618 -0.413355,-0.43822 -0.143526,-0.13204 -0.266011,-0.22773 -0.34255,-0.26407 -0.07654,-0.0363 -0.107166,-0.0134 -0.116748,0.0421 -0.0096,0.0555 0.0019,0.1435 -0.0039,0.21814 -0.0057,0.0747 -0.02871,0.1359 -0.07274,0.18184 -0.04402,0.0459 -0.109082,0.0766 -0.266023,0.0919 -0.156941,0.0153 -0.405711,0.0153 -0.866916,0.0172 -0.461206,0.002 -1.134787,0.006 -1.504146,-0.0153 -0.36936,-0.0211 -0.434407,-0.067 -0.466918,-0.55116 -0.03251,-0.48417 -0.03251,-1.40655 -0.0057,-1.87922 0.0268,-0.47267 0.08035,-0.49562 0.130101,-0.50136 0.04975,-0.006 0.09562,0.006 0.18367,0.0689 0.08805,0.0632 0.218177,0.17798 0.396155,0.35021 0.177978,0.17223 0.403791,0.40187 0.560717,0.57601 0.156927,0.17415 0.244949,0.29279 0.292797,0.37701 0.04785,0.0842 0.05548,0.13398 0.04207,0.17034 -0.01341,0.0364 -0.04784,0.0593 -0.103386,0.0746 -0.05555,0.0153 -0.132044,0.0229 -0.212406,-0.006 -0.08036,-0.0287 -0.164586,-0.0938 -0.246859,-0.16843 -0.08227,-0.0746 -0.162673,-0.15885 -0.252605,-0.22582 -0.08993,-0.067 -0.189452,-0.11672 -0.269837,-0.12052 -0.08038,-0.004 -0.141602,0.0383 -0.181768,0.0995 -0.04017,0.0612 -0.05931,0.1416 -0.07079,0.29278 -0.01149,0.15118 -0.01532,0.37317 -2e-5,0.53965 0.0153,0.16648 0.04974,0.27746 0.08036,0.34445 0.03062,0.067 0.05737,0.0899 0.478419,0.0976 0.421043,0.008 1.23625,6e-5 1.647726,-0.0172 0.411476,-0.0173 0.419115,-0.044 0.430603,-0.0899 0.01149,-0.046 0.02679,-0.11102 0.02104,-0.19328 -0.0058,-0.0823 -0.03256,-0.18183 -0.04596,-0.23157 -0.0134,-0.0497 -0.01319,-0.0499 -0.309823,-0.34461 z"
       id="path2685-7-4-4-6"
       sodipodi:nodetypes="ccccccccccccccccccccccccccc"
       inkscape:original-d="m 47.91967,125.32086 c -0.59327,-0.58945 -1.18651,-1.17885 -1.77971,-1.76823 -0.22969,-0.24499 -0.45932,-0.48994 -0.68893,-0.73485 -0.16461,-0.11869 -0.32919,-0.23733 -0.49373,-0.35595 -0.0957,-0.0154 -0.1914,-0.0307 -0.28705,-0.0459 -0.0689,0.0191 -0.13782,0.0382 -0.20668,0.0574 -0.0421,0.0459 -0.0842,0.0918 -0.1263,0.13778 -0.023,0.26023 -0.046,0.52049 -0.0689,0.78078 0.004,0.76928 0.008,1.53855 0.0115,2.30789 0.0115,0.38271 0.0229,0.76545 0.0344,1.14821 0.065,0.0842 0.1301,0.16837 0.1952,0.25261 0.0612,0.0344 0.12244,0.0689 0.18371,0.10334 0.088,0.008 0.17602,0.0153 0.26409,0.023 1.43525,-0.0115 2.87048,-0.023 4.30577,-0.0345 0.004,-0.0115 0.008,-0.023 0.0115,-0.0344 0.0115,-0.0919 0.0229,-0.18375 0.0344,-0.27557 -0.046,-0.10721 -0.0919,-0.21437 -0.13779,-0.32149 -0.16461,-0.16844 -0.32918,-0.33684 -0.49372,-0.50521 -0.12252,-0.0957 -0.24499,-0.19141 -0.36743,-0.28705 -0.0307,0.0229 -0.0613,0.0459 -0.0919,0.0689 0.0115,0.088 0.0229,0.17602 0.0344,0.26409 -0.023,0.0612 -0.046,0.12244 -0.0689,0.18371 -0.0651,0.0306 -0.13017,0.0612 -0.1952,0.0919 -0.24882,-4e-5 -0.49759,-4e-5 -0.74633,0 -0.67367,0.004 -1.34725,0.008 -2.02085,0.0115 -0.0651,-0.046 -0.13016,-0.0919 -0.19519,-0.13779 -4e-5,-0.92244 -4e-5,-1.84482 0,-2.76718 0.0536,-0.023 0.10713,-0.046 0.16075,-0.0689 0.0459,0.0115 0.0918,0.0229 0.13778,0.0345 0.1301,0.11478 0.26023,0.2296 0.39039,0.34446 0.22579,0.22961 0.4516,0.45925 0.67745,0.68892 0.088,0.11862 0.17602,0.23726 0.26409,0.35595 0.008,0.0497 0.0153,0.0995 0.0229,0.14926 -0.0345,0.0229 -0.0689,0.0459 -0.10334,0.0689 -0.0766,0.008 -0.15313,0.0153 -0.22964,0.0229 -0.0842,-0.0651 -0.16844,-0.13016 -0.2526,-0.19519 -0.0804,-0.0842 -0.16079,-0.16844 -0.24113,-0.25261 -0.0995,-0.0498 -0.19905,-0.0995 -0.29853,-0.14926 -0.0613,0.0421 -0.12251,0.0842 -0.18371,0.1263 -0.0192,0.0803 -0.0383,0.16071 -0.0574,0.24112 -0.004,0.22196 -0.008,0.44394 -0.0115,0.66596 0.0344,0.11096 0.0688,0.22195 0.10334,0.33298 0.0268,0.0229 0.0535,0.0459 0.0804,0.0689 0.81521,-0.008 1.63042,-0.0153 2.44568,-0.0229 0.008,-0.0268 0.0153,-0.0536 0.023,-0.0804 0.0153,-0.0651 0.0306,-0.13016 0.0459,-0.19519 -0.0268,-0.0995 -0.0536,-0.19906 -0.0804,-0.29854 z"
       inkscape:path-effect="#path-effect2687-6-7-1-4" /><path
       id="path2689-7-3-2-1"
       style="fill:#000000;fill-opacity:1;stroke-width:0.0351956"
       d="m 43.56773,126.88235 c 0.0392,3.1e-4 0.0787,-0.004 0.11886,-0.009 0.0919,-0.0134 0.18751,-0.0364 0.23537,-0.0555 0.0478,-0.0192 0.0479,-0.0344 0.0479,-0.0421 0,-0.008 -5e-5,-0.008 0.0153,-0.0881 0.0153,-0.0804 0.046,-0.24112 0.0517,-0.47459 0.006,-0.23348 -0.0134,-0.5397 -0.0383,-0.74255 -0.0249,-0.20286 -0.0555,-0.30233 -0.0995,-0.3578 -0.044,-0.0555 -0.10144,-0.0669 -0.17798,-0.0401 -0.0765,0.0268 -0.1722,0.0919 -0.32721,0.21433 -0.155,0.12248 -0.36935,0.30234 -0.48799,0.4229 -0.11864,0.12055 -0.14157,0.18173 -0.14732,0.27359 -0.006,0.0918 0.006,0.21433 0.0727,0.33299 0.067,0.11865 0.18945,0.23351 0.29661,0.32919 0.10717,0.0957 0.19905,0.17218 0.28899,0.20857 0.0506,0.0205 0.10055,0.0282 0.15096,0.0287 z m 0.0312,-0.53323 c -0.0266,9e-4 -0.0507,-0.0322 -0.0597,-0.0753 -0.01,-0.0459 -0.002,-0.10336 -0.0307,-0.13205 -0.0287,-0.0287 -0.0938,-0.0286 -0.14353,-0.0516 -0.0498,-0.023 -0.0842,-0.0689 -0.0861,-0.12056 -0.002,-0.0517 0.0287,-0.1091 0.0804,-0.1665 0.0517,-0.0574 0.12435,-0.11483 0.18175,-0.14353 0.0574,-0.0287 0.0995,-0.0287 0.13013,0.0325 0.0306,0.0612 0.0498,0.18372 0.0517,0.28706 0.002,0.10335 -0.0133,0.18755 -0.0363,0.25264 -0.0229,0.0651 -0.0536,0.11099 -0.0823,0.11671 -0.002,3e-4 -0.004,6e-4 -0.005,6e-4 z" /><path
       id="path2697-87-1-4-9"
       style="fill:#000000;fill-opacity:1;stroke-width:0.0351956"
       d="m 43.72165,124.25382 c 0.007,-4e-5 0.0139,-2.8e-4 0.0204,-6e-4 0.0517,-0.004 0.0823,-0.0191 0.12249,-0.0632 0.0402,-0.044 0.0899,-0.11675 0.12057,-0.1933 0.0306,-0.0766 0.0421,-0.15691 0.0459,-0.35402 0.004,-0.19712 5e-5,-0.51096 -0.0172,-0.7253 -0.0172,-0.21433 -0.0479,-0.32921 -0.0632,-0.3866 -0.0153,-0.0574 -0.0153,-0.0574 -0.0268,-0.0708 -0.0115,-0.0134 -0.0344,-0.0402 -0.0669,-0.0536 -0.0325,-0.0134 -0.0746,-0.0134 -0.15116,0.0173 -0.0765,0.0306 -0.18754,0.0918 -0.33106,0.21241 -0.14352,0.12056 -0.31961,0.30045 -0.4306,0.42675 -0.11099,0.1263 -0.15693,0.19897 -0.1799,0.26211 -0.023,0.0631 -0.0229,0.11678 -0.0172,0.16271 0.006,0.0459 0.0172,0.0842 0.0536,0.14924 0.0364,0.0651 0.0976,0.15692 0.22582,0.26218 0.12821,0.10526 0.32338,0.2239 0.45734,0.28706 0.11721,0.0553 0.18754,0.068 0.23791,0.0678 z m -0.0771,-0.46099 c -9e-4,4e-5 -0.002,5e-5 -0.003,0 -0.0291,-10e-4 -0.0519,-0.0392 -0.0645,-0.0797 -0.0126,-0.0405 -0.0152,-0.0834 -0.0229,-0.12119 -0.008,-0.0378 -0.0207,-0.0705 -0.0446,-0.0962 -0.0238,-0.0256 -0.0585,-0.0443 -0.0899,-0.0532 -0.0314,-0.009 -0.0597,-0.008 -0.0877,-0.007 -0.028,0.002 -0.0585,0.0229 -0.0724,0.004 -0.0139,-0.019 -0.0112,-0.0782 1.3e-4,-0.10216 0.0114,-0.024 0.0342,-0.0316 0.0607,-0.0392 0.0266,-0.008 0.0569,-0.0152 0.0902,-0.0185 0.0333,-0.003 0.10183,0.0217 0.12073,-1.1e-4 0.0189,-0.0218 0.0123,-0.10121 0.0156,-0.15312 0.003,-0.0519 -0.032,-0.15144 0.0429,-0.14633 l 0.0872,0.005 c 0.0767,0.007 0.0354,0.24651 0.0448,0.36942 0.009,0.12291 0.002,0.24674 -0.0134,0.33711 -0.014,0.0801 -0.0773,0.0541 -0.0695,0.0816 z"
       sodipodi:nodetypes="ssssssssssssssssssscssssssssssccccsssc" /><path
       style="fill:#000000;fill-opacity:1;stroke-width:0.160382"
       d="m 76.324628,127.03741 c 8.70872,0.0208 17.417098,0.0415 22.117722,0.0392 4.70062,-0.002 5.39115,-0.0277 5.84306,-0.13109 0.45191,-0.10335 0.66331,-0.28431 0.85774,-0.43771 0.19444,-0.1534 0.37154,-0.27895 0.48128,-0.36512 0.10974,-0.0862 0.15194,-0.13267 0.14418,-0.15956 -0.008,-0.0269 -0.0656,-0.034 -0.12344,-0.0411 -0.0693,-0.008 -0.13843,-0.0169 -0.30027,-0.008 -0.16185,0.009 -0.41575,0.0346 -1.11956,0.061 -0.70382,0.0264 -1.85714,0.0532 -6.222715,0.10514 -4.365577,0.0519 -11.940075,0.12885 -19.563424,0.15437 -7.623349,0.0255 -15.2932,-4.2e-4 -19.83818,-0.0264 -4.544979,-0.0259 -5.964571,-0.0519 -6.843889,-0.0882 -0.879319,-0.0363 -1.218546,-0.083 -1.462214,-0.11935 -0.243668,-0.0363 -0.391994,-0.0622 -0.579352,-0.0716 -0.187359,-0.009 -0.413455,-0.002 -0.385459,0.11096 0.028,0.11314 0.309887,0.33146 0.584161,0.54985 0.274274,0.2184 0.539919,0.43607 0.740174,0.54514 0.200255,0.10906 0.334217,0.10906 4.474674,0.0791 4.140457,-0.0299 12.28669,-0.0898 20.432746,-0.14969"
       id="path6053-2"
       inkscape:path-effect="#path-effect6055-4"
       inkscape:original-d="m 76.324628,127.03741 c 8.70872,0.0207 17.417098,0.0414 26.125172,0.0623 0.69317,-0.0256 1.38369,-0.051 2.07576,-0.0763 0.21176,-0.18126 0.42316,-0.36222 0.63474,-0.54334 0.17728,-0.12569 0.35438,-0.25124 0.5313,-0.37665 0.0427,-0.0468 0.0848,-0.0934 0.12713,-0.1401 -0.0579,-0.007 -0.17356,-0.0213 -0.17356,-0.0213 0,0 -0.13842,-0.017 -0.20783,-0.0254 -0.25429,0.0259 -0.50819,0.0518 -0.76277,0.0778 -1.15305,0.0267 -2.30637,0.0536 -3.46001,0.0805 -7.577513,0.0769 -15.152011,0.15385 -22.728725,0.23089 -7.669983,-0.026 -15.339834,-0.052 -23.010474,-0.0778 -1.419318,-0.026 -2.838908,-0.052 -4.25884,-0.0778 -0.338689,-0.0468 -0.67792,-0.0935 -1.017047,-0.14011 -0.148209,-0.026 -0.296524,-0.052 -0.444953,-0.0778 -0.22632,0.007 -0.452413,0.0143 -0.679277,0.0216 0.282934,0.21897 0.564825,0.43729 0.847216,0.65615 0.266165,0.21793 0.531804,0.43561 0.797924,0.65383 0.134313,-8e-5 0.268275,-8e-5 0.402281,0 8.146907,-0.06 16.29314,-0.11984 24.439197,-0.17963"
       sodipodi:nodetypes="cccccccccccccccccccc" /><path
       style="fill:#000000;fill-opacity:1;stroke-width:0.155536"
       d="m 44.43866,94.330016 c -0.02077,8.190294 -0.04153,16.380274 -0.03918,20.801064 0.0024,4.42079 0.02774,5.07022 0.131088,5.49521 0.103348,0.425 0.284318,0.62382 0.43772,0.80668 0.153403,0.18287 0.278949,0.34942 0.36512,0.45263 0.08617,0.1032 0.132692,0.1429 0.159564,0.13561 0.02687,-0.007 0.03397,-0.0617 0.04107,-0.11615 0.0085,-0.0652 0.01692,-0.13019 0.0082,-0.2824 -0.0087,-0.15221 -0.03462,-0.39098 -0.06102,-1.0529 -0.0264,-0.66192 -0.05323,-1.74659 -0.105137,-5.85228 -0.05191,-4.1057 -0.128849,-11.22929 -0.154365,-18.398821 -0.02552,-7.169531 4.16e-4,-14.382806 0.02635,-18.657215 0.02593,-4.274408 0.05186,-5.609496 0.08817,-6.436472 0.0363,-0.826977 0.08303,-1.146008 0.11935,-1.375171 0.03632,-0.229162 0.06225,-0.368659 0.07163,-0.544861 0.0094,-0.176202 0.0022,-0.388834 -0.110952,-0.36251 -0.113138,0.02632 -0.331458,0.291438 -0.549855,0.549384 -0.218397,0.257946 -0.436076,0.507779 -0.545139,0.696114 -0.109063,0.188334 -0.109063,0.314327 -0.07912,4.208299 0.02994,3.893972 0.08982,11.555261 0.14969,19.216384"
       id="path6053-2-4"
       inkscape:path-effect="#path-effect6055-4-5"
       inkscape:original-d="m 44.43866,94.330016 c -0.0207,8.190294 -0.0414,16.380274 -0.0623,24.569934 0.0256,0.65192 0.051,1.30134 0.0763,1.9522 0.18126,0.19914 0.36222,0.39797 0.54334,0.59694 0.12569,0.16675 0.25124,0.3333 0.37665,0.49967 0.0468,0.0402 0.0934,0.0798 0.1401,0.11954 0.007,-0.0544 0.0213,-0.16324 0.0213,-0.16324 0,0 0.017,-0.13018 0.0254,-0.19546 -0.0259,-0.23915 -0.0518,-0.47792 -0.0778,-0.71735 -0.0267,-1.08441 -0.0536,-2.16908 -0.0805,-3.25405 -0.0769,-7.12642 -0.15384,-14.25001 -0.23088,-21.375672 0.026,-7.2134 0.052,-14.426675 0.0778,-21.640663 0.026,-1.334828 0.052,-2.669914 0.0778,-4.005317 0.0468,-0.318533 0.0935,-0.637569 0.14011,-0.956497 0.026,-0.139397 0.052,-0.278882 0.0778,-0.418467 -0.007,-0.212853 -0.0143,-0.425481 -0.0216,-0.638845 -0.21897,0.266089 -0.43729,0.531204 -0.65615,0.79679 -0.21793,0.250313 -0.43561,0.500146 -0.65383,0.750412 8e-5,0.126321 8e-5,0.252314 0,0.378336 0.06,7.661921 0.11984,15.32321 0.17963,22.984334"
       sodipodi:nodetypes="cccccccccccccccccccc" /><path
       style="fill:#000000;fill-opacity:1;stroke-width:0.157361"
       d="m 109.96565,94.412168 c 0.0208,8.383452 0.0415,16.766592 0.0392,21.291662 -0.002,4.52506 -0.0277,5.18979 -0.13109,5.62482 -0.10336,0.43503 -0.28432,0.63854 -0.43772,0.82572 -0.1534,0.18718 -0.27895,0.35767 -0.36514,0.46333 -0.0862,0.10565 -0.13264,0.14622 -0.15953,0.13875 -0.0269,-0.007 -0.034,-0.0632 -0.0411,-0.11885 -0.008,-0.0667 -0.0169,-0.13327 -0.008,-0.28907 0.009,-0.1558 0.0346,-0.4002 0.061,-1.07772 0.0264,-0.67753 0.0532,-1.7878 0.10514,-5.99031 0.0519,-4.20252 0.12885,-11.49415 0.15436,-18.832777 0.0255,-7.338628 -4.2e-4,-14.722031 -0.0264,-19.097257 -0.0259,-4.375225 -0.0519,-5.741798 -0.0882,-6.588279 -0.0363,-0.846481 -0.083,-1.173038 -0.11935,-1.407606 -0.0363,-0.234568 -0.0622,-0.377354 -0.0716,-0.557712 -0.009,-0.180358 -0.002,-0.398006 0.11095,-0.37106 0.11314,0.02695 0.33146,0.298314 0.54986,0.562344 0.2184,0.264031 0.43607,0.519756 0.54514,0.712531 0.10906,0.192776 0.10906,0.321737 0.0791,4.307551 -0.0299,3.985814 -0.0898,11.827802 -0.14969,19.669618"
       id="path6053-2-4-0"
       inkscape:path-effect="#path-effect6055-4-5-3"
       inkscape:original-d="m 109.96565,94.412168 c 0.0207,8.383452 0.0414,16.766592 0.0623,25.149442 -0.0256,0.66728 -0.051,1.332 -0.0763,1.99822 -0.18126,0.20386 -0.36222,0.40737 -0.54334,0.61104 -0.12569,0.17068 -0.25124,0.34117 -0.37665,0.51147 -0.0468,0.0412 -0.0934,0.0816 -0.1401,0.12234 -0.007,-0.0557 -0.0213,-0.16708 -0.0213,-0.16708 0,0 -0.017,-0.13326 -0.0254,-0.20008 0.0259,-0.24479 0.0518,-0.48919 0.0778,-0.73428 0.0267,-1.10996 0.0536,-2.22023 0.0805,-3.3308 0.0769,-7.29446 0.15384,-14.58609 0.23088,-21.879811 -0.026,-7.383534 -0.052,-14.766937 -0.0778,-22.151075 -0.026,-1.366312 -0.052,-2.732883 -0.0778,-4.099783 -0.0468,-0.326045 -0.0935,-0.652607 -0.14011,-0.979058 -0.026,-0.142685 -0.052,-0.285459 -0.0778,-0.428336 0.007,-0.217872 0.0143,-0.435517 0.0216,-0.653914 0.21897,0.272367 0.43729,0.543735 0.65615,0.815585 0.21793,0.256218 0.43561,0.511941 0.65383,0.768112 -8e-5,0.1293 -8e-5,0.258261 0,0.387258 -0.06,7.84263 -0.11984,15.684618 -0.17963,23.526435"
       sodipodi:nodetypes="cccccccccccccccccccc" /></g></svg>
